<svg clip-rule="evenodd" fill-rule="evenodd" viewBox="0 0 560 400" xmlns="http://www.w3.org/2000/svg"><path d="m213.081 320.749c-.011-3.108-2.565-5.662-5.673-5.673h-10.594v19.924h4.642v-6.235h4.313c1.362.048 2.462 1.169 2.484 2.532v3.657h4.642v-3.657c0-1.558-.511-3.073-1.453-4.313 1.057-1.075 1.647-2.525 1.64-4.031v-2.204zm-5.673-1.031c.564.004 1.027.467 1.032 1.031v2.262c0 .636-.524 1.161-1.161 1.161h-5.824v-4.407h5.953v-.046zm110.119 15.282h-16.501v-19.924h4.64v15.283h11.86v4.642zm45.941-15.282v-4.642h-16.502v19.924h16.502v-4.642h-11.86v-3.234h10.219v-4.642h-10.219v-2.765h11.86zm-104.353 15.282h-17.907l10.267-15.283h-9.141v-4.642h17.861l-10.267 15.283h9.188v4.642zm28.785 0h-17.909l10.267-15.283h-9.141v-4.642h17.861l-10.267 15.283h9.189zm41.206-19.924h4.64v19.923h-4.64zm-103.697 0h4.64v19.923h-4.64zm0 0h4.64v19.923h-4.64zm78.851-43.644h-16.97v36.471h8.392v-11.72h8.579c5.602-.012 10.207-4.618 10.22-10.219v-4.314c-.014-5.6-4.618-10.207-10.22-10.219zm1.829 14.533c-.001 1.002-.826 1.826-1.829 1.827h-8.579v-7.968h8.579c1.002 0 1.827.825 1.829 1.827z" fill="#12173f"/><path d="m291.837 307.904h-.703v-32.627h13.126c3.496.003 6.372 2.879 6.376 6.375v4.314c-.004 3.496-2.88 6.372-6.376 6.375h-12.423v15.564zm0-16.267h12.434c3.105 0 5.662-2.555 5.662-5.662v-4.334c0-3.107-2.556-5.662-5.662-5.662h-12.434v15.657z" fill="#5d76a9"/><path d="m239.38 279.824v-8.392h-27.658v36.471h27.611v-8.344h-19.221v-5.673h16.267v-8.392h-16.267v-5.671h19.267z" fill="#12173f"/><path d="m239.38 275.98v-.703h-23.815v28.783h23.768v-.655h-23.065v-13.361h20.111v-.703h-20.111v-13.36h23.112z" fill="#5d76a9"/><path d="m272.617 271.479h-28.925v36.425h8.392v-28.033h6.985v28.081h8.392v-28.081h5.157c1.002.001 1.827.826 1.829 1.829v26.205h8.39v-26.205c-.012-5.602-4.618-10.207-10.219-10.22" fill="#12173f"/><path d="m272.617 275.323h-25.081v32.581h.703v-31.877h14.673v31.924h.703v-31.924h9.011c3.107 0 5.662 2.556 5.662 5.662v26.216h.703v-26.205c-.003-3.496-2.879-6.372-6.375-6.376" fill="#5d76a9"/><path d="m197.001 271.479h-28.924v36.425h8.392v-28.033h6.985v28.081h8.39v-28.081h5.157c1.004.001 1.827.826 1.829 1.829v26.205h8.392v-26.205c-.014-5.602-4.618-10.207-10.22-10.22" fill="#12173f"/><path d="m197.001 275.323h-25.079v32.581h.703v-31.877h14.673v31.924h.702v-31.924h9.012c3.107 0 5.662 2.556 5.662 5.662v26.216h.703v-26.205c-.004-3.496-2.879-6.372-6.376-6.376" fill="#5d76a9"/><path d="m350.998 271.432h8.392v36.471h-8.392z" fill="#12173f"/><path d="m354.842 271.432h.703v36.471h-.703z" fill="#5d76a9"/><path d="m337.216 271.432v14.063h-10.454v-14.063h-8.345v36.471h8.345v-14.017h10.454v14.017h8.344v-36.471z" fill="#12173f"/><path d="m341.014 271.432v17.907h-18.096v-17.907h-.657v36.471h.657v-17.861h18.096v17.861h.702v-36.471z" fill="#5d76a9"/><path d="m184.344 335h-10.594c-3.108-.011-5.662-2.565-5.673-5.673v-8.579c.011-3.108 2.565-5.662 5.673-5.673h4.922c3.108.011 5.662 2.565 5.673 5.673v.938h-4.642v-.938c-.004-.564-.467-1.026-1.031-1.031h-4.922c-.564.005-1.027.467-1.032 1.031v8.579c.005.564.468 1.027 1.032 1.031h5.953v-1.827h-2.765v-4.642h7.407v11.111zm0 0h-10.594c-3.108-.011-5.662-2.565-5.673-5.673v-8.579c.011-3.108 2.565-5.662 5.673-5.673h4.922c3.108.011 5.662 2.565 5.673 5.673v.938h-4.642v-.938c-.004-.564-.467-1.026-1.031-1.031h-4.922c-.564.005-1.027.467-1.032 1.031v8.579c.005.564.468 1.027 1.032 1.031h5.953v-1.827h-2.765v-4.642h7.407v11.111zm201.766 0h-4.969c-3.107-.011-5.66-2.565-5.671-5.673v-.703h4.64v.703c.005.564.468 1.027 1.031 1.031h4.969c.564-.004 1.027-.467 1.031-1.031v-.844l-8.625-2.297c-1.779-.556-2.999-2.214-3-4.078v-1.22c0-3.187 2.623-5.812 5.812-5.812h4.83c3.107.011 5.66 2.565 5.671 5.673v.938h-4.64v-.938c-.005-.564-.468-1.027-1.031-1.031h-4.841c-.636 0-1.159.523-1.159 1.161v.949l8.625 2.297c1.779.556 2.999 2.214 3 4.078v1.136c0 3.105-2.556 5.662-5.662 5.662h-.011m-4.499-27.144h-17.205v-11.579h8.392v3.234h8.834c1.043 0 1.901-.858 1.901-1.901v-1.708l-13.689-4.218c-3.219-.968-5.438-3.952-5.438-7.314v-2.625c0-5.658 4.655-10.313 10.313-10.313h17.205v12.047h-8.392v-3.656h-8.834c-1.043 0-1.901.858-1.901 1.901v2.13l13.641 4.172c3.26.976 5.502 4.004 5.486 7.407v2.11c-.016 5.651-4.662 10.297-10.313 10.313" fill="#12173f"/><path d="m381.611 304.013h-13.361v-7.783h.703v7.079h12.662c3.16 0 5.762-2.601 5.762-5.762v-2.114c-.01-1.418-.942-2.674-2.297-3.094l-14.111-4.359c-1.61-.482-2.72-1.976-2.719-3.657v-2.625c.007-3.546 2.924-6.462 6.47-6.47h13.36v8.205h-.75v-7.501h-12.662c-3.161 0-5.762 2.601-5.762 5.763v2.629c-.007 1.372.892 2.596 2.203 3l14.111 4.36c1.64.507 2.767 2.033 2.765 3.75v2.11l.001.124c0 3.481-2.864 6.345-6.343 6.345h-.033" fill="#5d76a9"/><path d="m368.531 109.841c2.379-4.31 3.65-9.143 3.704-14.064-.22-10.174-5.431-19.613-13.922-25.22-11.345-7.688-28.316-8.767-40.363 5.625-12.822-1.646-25.855-.016-37.878 4.735-12.021-4.755-25.056-6.384-37.878-4.735-12.049-14.392-29.066-13.313-40.363-5.625-8.506 5.592-13.723 15.042-13.922 25.22.075 4.919 1.346 9.746 3.704 14.064-9.095 13.078-15.377 28.642-15.377 44.441 0 19.033 8.157 28.877 11.205 33.096l2.438-2.438c8.625 21.94 23.345 33.754 41.159 44.489 0 0 .374-2.156.75-4.126 19.173 16.595 28.315 12.517 48.239 35.065 19.876-22.455 29.251-18.611 48.237-35.065.376 1.921.751 4.126.751 4.126 7.922-4.782 30.284-16.783 41.159-44.489l2.438 2.438c1.875-2.578 11.203-12.984 11.203-33.096.094-15.799-6.188-31.315-15.283-44.441" fill="#707271"/><path d="m363.047 110.122c18.283-28.081-23.206-57.286-43.269-29.018-13.428-2.197-27.208-.505-39.706 4.875-12.498-5.381-26.278-7.072-39.706-4.875-20.111-28.268-61.552.937-43.269 29.018-20.815 28.596-18.751 56.816-9.095 70.083l3.985-3.985s5.673 27.565 35.675 45.707l1.079-5.953c18.47 19.736 35.346 19.267 51.285 37.315 15.938-18.001 32.814-17.579 51.285-37.315l1.077 5.953c30.002-18.094 35.675-45.707 35.675-45.707l3.985 3.985c9.797-13.313 11.86-41.441-9.001-70.083" fill="#12173f"/><path d="m280.258 215.083s-14.391.235-16.548 1.547c0 0-2.484 4.266 16.548 4.22 18.096-.094 15.423-3.376 15.564-3.891-5.079-1.327-10.314-1.958-15.564-1.876m-12.47-16.735s2.251-6.515 4.64-4.453c3.329 2.86 7.642 8.673 7.642 9.282v7.735l-5.251.281c-4.291.564-8.547 1.362-12.751 2.391-13.408-33.19-5.954-58.271-2.391-67.271-13.267 2.86-15.423-13.08-15.423-13.08 2.002-.086 3.986.403 5.719 1.407 3.917 2.018 7.623 4.42 11.064 7.172.985.751 1.875 1.501 2.719 2.204 9.047 7.594 16.36 6.047 16.36 6.047v32.488c-.046.046-26.392-2.016-12.329 15.797m24.707 0c16.782-17.017-10.594-16.032-12.329-15.751 2.812.141 24.002.281 12.329 15.751m11.11-51.473c15.094 40.645-4.033 66.803-4.173 66.944 11.86-31.128 4.266-56.958-.937-66.568-1.949.165-3.907.197-5.86.093 2.322-1.439 4.531-3.054 6.61-4.829l.609-.561c3.316-3.049 7.139-5.492 11.299-7.22 1.854-.72 3.791-1.207 5.766-1.453s-1.407 13.408-13.313 13.595" fill="#5d76a9"/><path d="m327.512 94.277s6.141-15.377 25.033-11.673c0 0-17.345-11.392-29.393 9.188 0 0-17.298-8.109-43.081 3.048 0 0-24.237-8.532-42.66-3.704 0 0-10.735-18.658-25.877-10.97s-7.219 25.409-4.594 30.049c0 0-25.081 25.549-15.658 57.099l5.064-6.282s7.219 34.409 25.783 45.239l1.125-8.438s19.408 23.392 42.192 33.33c2.156 1.031 14.25 7.032 14.626 9.985v-16.361s-15.799 1.314-20.017-6c-2.86-4.968-21.05-37.41-12.047-71.395 0 0-8.767-1.314-10.407-16.08-4.598-2.017-9.618-2.886-14.627-2.532-5.008.355 14.486-4.547 28.081.703 13.595 5.251 17.252 18.658 26.44 12.751l2.532-37.737 2.765 37.737c9.188 5.908 12.845-7.453 26.44-12.751 13.595-5.251 28.127-.703 28.127-.703-4.628-2.92-9.765-4.939-15.142-5.953-7.783-1.547-19.221 3.422-19.221 3.422s1.595-10.689 6.798-16.408c4.501-4.923 14.626-6 17.72-15.564zm-117.291 12.986c-.563-5.157 5.954-10.22 5.954-10.22-2.672-2.765-7.361-.374-7.361-.374 4.22-8.299 13.735-4.22 13.735-4.22-3.609-4.407-11.203-4.126-11.203-4.126 9.423-9.375 20.815 4.923 20.815 4.923-10.126 2.297-21.94 14.017-21.94 14.017z" fill="#5d76a9"/><path d="m261.038 141.859c-1.453-.468-3.844 1.031-5.204 3.656-4.5-1.312-6.047-6.188-5.86-10.828 3.917 2.017 7.623 4.42 11.064 7.172m44.254 3.656c-1.407-2.765-3.985-4.265-5.439-3.562 3.316-3.049 7.139-5.492 11.299-7.22.187 4.64-1.36 9.517-5.86 10.781" fill="#fb2"/></svg>