<svg clip-rule="evenodd" fill-rule="evenodd" viewBox="0 0 560 400" xmlns="http://www.w3.org/2000/svg"><path d="m256.272 115.385.522.261c-6.258.522-12.516 1.173-18.383 2.086 5.01-4.122 11.958-5.035 17.862-2.347zm65.45 2.347c-5.997-.913-12.125-1.695-18.383-2.086.13-.13.261-.13.522-.261 5.893-2.754 12.88-1.836 17.862 2.347zm90.873 58.8.913.261v-15.124c-.053-2.401-.493-4.779-1.304-7.04-.78-2.363-1.971-4.571-3.52-6.519-1.36-1.795-2.937-3.415-4.694-4.824-1.554-1.257-3.263-2.309-5.085-3.129-1.173-.782-3.52-1.956-9.778-4.302-5.215-2.086-13.82-5.345-24.772-8.605-12.292-3.638-24.786-6.554-37.418-8.735-.13-.13-9.778-12.255-24.25-5.997l-1.565.782c-2.301 1.425-5.121 1.76-7.692.913-2.216-.522-4.954-1.956-3.781-6.78.354-1.374 1.247-2.551 2.477-3.259.862-.517 1.899-.658 2.868-.391 1.956.522 2.868 1.695 2.477 3.259-.058.632-.458 1.184-1.043 1.434-.671.257-1.434.104-1.956-.391-.72-.479-1.704-.305-2.216.391-.414.691-.246 1.592.391 2.086 1.392 1.125 3.283 1.423 4.954.782 1.495-.771 2.588-2.15 2.999-3.781.13-1.173.391-5.215-4.694-6.649-1.783-.645-3.77-.403-5.345.652-1.958 1.133-3.371 3.018-3.911 5.215v.13c-.469-.651-.993-1.261-1.565-1.825l-5.085-5.085-4.954 5.085c-.576.56-1.1 1.17-1.565 1.825v-.13c-.588-2.174-1.988-4.042-3.911-5.215-1.579-1.047-3.561-1.29-5.345-.652-5.215 1.434-4.824 5.476-4.694 6.649.316 1.675 1.438 3.092 2.999 3.781 1.626.65 3.485.348 4.824-.782.46-.271.743-.766.743-1.299 0-.277-.077-.55-.222-.787-.513-.696-1.496-.87-2.216-.391-.53.479-1.282.629-1.956.391-.585-.28-1.015-.806-1.173-1.434-.261-1.565.522-2.608 2.477-3.259 1.012-.267 2.089-.127 2.999.391 1.194.75 2.074 1.909 2.477 3.259 1.173 4.824-1.695 6.258-3.781 6.78-3.781 1.043-5.606.13-7.823-.913-.463-.288-.942-.55-1.434-.782-14.472-6.128-24.12 5.867-24.25 5.997l-.13.13c-12.146 2.083-24.161 4.869-35.984 8.344-11.744 3.438-23.243 7.663-34.42 12.647l-2.086.913v.261c-.782.261-1.695.522-2.608.913-3.259 1.434-6.389 2.999-9.518 4.563l-2.347 1.173v8.344c-.046 1.725.36 3.433 1.173 4.954.217.228.394.493.522.782v9.126c-1.003 1.842-1.54 3.9-1.565 5.997-.062 1.862.488 3.694 1.565 5.215v19.035l.261.522c2.215 5.437 6.619 9.698 12.125 11.734l-.261.13s4.824 7.692 12.125 9.257l-1.434.652c3.617 5.251 9.135 8.899 15.385 10.169l-1.565.782c4.561 4.422 10.402 7.297 16.688 8.214 10.955 34.239 42.994 57.627 78.944 57.627 35.949 0 67.989-23.388 78.944-57.627 6.242-.94 12.034-3.812 16.558-8.214l-1.434-.782c10.039-1.825 15.254-10.169 15.254-10.169l-1.434-.652c7.432-1.565 12.125-9.257 12.125-9.257l.522-.652c7.924-3.275 13.166-10.984 13.299-19.557v-9.648c-.029-2.362-.472-4.7-1.304-6.91z" fill="#b4975a"/><path d="m405.685 170.013 4.433 1.825v-10.169c-.018-2-.37-3.983-1.043-5.867-.709-2.01-1.721-3.9-2.999-5.606-1.255-1.559-2.652-3-4.172-4.302-1.44-1.111-3.017-2.032-4.694-2.738-.913-.652-3.129-1.825-9.257-4.172-5.215-2.086-13.69-5.215-24.641-8.475-17.862-5.345-44.72-11.604-72.881-12.125-.665-1.93-2.303-3.37-4.302-3.781-.277-2.734-1.528-5.279-3.52-7.171l-2.608-2.608-2.608 2.608c-1.89 1.95-3.082 4.472-3.39 7.171-2.053.359-3.755 1.81-4.433 3.781-27.51.522-53.976 6.649-71.577 11.864-11.593 3.408-22.957 7.545-34.029 12.386v2.086c-.141-.071-.273-.158-.391-.261-.551-.16-1.121-.248-1.695-.261-.853-.003-1.697.175-2.477.522-3.129 1.434-6.258 2.999-9.387 4.563l-.522.261v6.258c-.036 1.136.235 2.263.782 3.259.263.422.568.815.913 1.173v11.212c-.975 1.569-1.515 3.369-1.565 5.215-.091 1.471.483 2.909 1.565 3.911v19.687c2.241 5.238 6.843 9.112 12.386 10.43.225-.021.452.025.652.13h.13c1.584.34 3.206.472 4.824.391-1.695.782-3.259 1.565-4.954 2.477 0 .13 4.954 8.214 16.819 7.04-1.956.913-3.911 1.825-5.867 2.868 0 .13 5.606 8.083 18.122 7.823-2.868 1.434-4.563 2.347-4.563 2.347 4.166 3.771 9.512 5.983 15.124 6.258 10.123 33.504 41.207 56.584 76.206 56.584s66.083-23.08 76.206-56.584c5.603-.314 10.938-2.521 15.124-6.258s-1.825-.913-4.694-2.347c12.516.261 18.253-7.692 18.253-7.823-1.956-1.043-3.911-1.956-5.867-2.868 11.864 1.173 16.819-6.91 16.819-7.04-1.695-.913-3.259-1.695-4.954-2.477 3.46.203 6.907-.613 9.909-2.347 6.258-3.52 9.778-10.039 9.778-15.776v-9.648c0-6.258-4.954-13.429-4.954-13.429z" fill="#002b5c"/><path d="m332.934 246.805c1.565 1.043 2.999 2.216 4.563 3.39 0-.13-17.731 4.824-30.378-.652-.407-.268-.844-.488-1.304-.652-3.211 11.524-13.786 19.557-25.75 19.557-11.963 0-22.539-8.032-25.75-19.557-.501.163-.982.381-1.434.652-12.516 5.476-30.248.522-30.248.652 1.565-1.173 2.999-2.347 4.433-3.39-5.257.674-10.599.184-15.645-1.434 11.407 27.786 38.608 46.023 68.644 46.023s57.237-18.238 68.644-46.023c-5.09 1.624-10.476 2.114-15.776 1.434z" fill="#e31837"/><path d="m272.7 126.076c-1.335-.659-2.397-1.767-2.999-3.129-44.459 1.043-88.918 17.079-88.787 17.731-1.613.462-2.799 1.854-2.999 3.52v1.565c30.242-11.824 62.322-18.266 94.785-19.035zm109.256 15.645c.13-.652-46.545-17.731-91.525-18.774-.641 1.335-1.692 2.432-2.999 3.129v.652c33.424.997 66.423 7.791 97.522 20.078v-1.565c-.274-1.634-1.429-2.99-2.999-3.52z" fill="#fff"/><path d="m284.955 118.122c-2.868-.391-3.39 3.651-3.52 5.085h-.913c.13-3.911 1.956-5.476 1.956-8.083 0-2.608-2.477-5.085-2.477-5.085s-2.347 2.477-2.347 5.085 1.825 4.172 1.825 8.083h-.913c0-1.434-.522-5.476-3.39-5.085-3.129.261-2.738 4.694 0 4.954 0 0-.522-1.956 1.043-1.956 1.043 0 1.434 1.434 1.434 2.086h-1.304v1.565h2.999c-.173.795-.702 1.469-1.434 1.825.272.487.753.824 1.304.913.03.683.309 1.332.782 1.825.474-.493.752-1.142.782-1.825.578-.108 1.092-.435 1.434-.913-.732-.356-1.261-1.03-1.434-1.825h2.999v-1.565h-1.304c0-.652.261-2.086 1.434-2.086 1.565 0 1.043 1.956 1.043 1.956 2.738-.261 3.129-4.694 0-4.954z" fill="#e31837"/><path d="m265.399 162.972c.01.63-.124 1.254-.391 1.825-.311.423-.659.816-1.043 1.173-.392.293-.833.515-1.304.652-.437.25-.931.385-1.434.391-.525.022-1.051-.023-1.565-.13-.463-.093-.904-.271-1.304-.522-.443-.294-.803-.699-1.043-1.173-.281-.519-.416-1.105-.391-1.695v-24.12c-.025-.59.11-1.176.391-1.695.274-.489.626-.929 1.043-1.304.417-.289.853-.551 1.304-.782.508-.15 1.034-.238 1.565-.261.481-.022.964.023 1.434.13.463.093.904.271 1.304.522.443.294.803.699 1.043 1.173.281.519.416 1.105.391 1.695v24.12zm5.345-14.863v-9.648c.034-1.22-.235-2.429-.782-3.52-.44-.977-1.168-1.795-2.086-2.347-.852-.716-1.894-1.169-2.999-1.304-1.194-.286-2.427-.374-3.651-.261-1.287.003-2.566.224-3.781.652-1.094.377-2.111.952-2.999 1.695-.875.761-1.584 1.693-2.086 2.738-.533 1.095-.802 2.302-.782 3.52v9.648c-.98.297-1.666 1.193-1.695 2.216 0 .979.727 1.817 1.695 1.956v10.691c-.034 1.22.235 2.429.782 3.52.513.927 1.226 1.729 2.086 2.347.921.568 1.937.966 2.999 1.173 1.245.243 2.522.288 3.781.13 1.244-.015 2.478-.235 3.651-.652 1.086-.334 2.103-.864 2.999-1.565.87-.713 1.581-1.601 2.086-2.608.533-1.095.802-2.302.782-3.52v-10.821c1.04-.14 1.824-1.037 1.825-2.086.035-1.037-.789-1.919-1.825-1.956zm-102.086 25.945s0 .13-.13 0v-.13c-.261-.391-6.519-21.512-6.91-22.425-.261-.913-.522-1.434-.522-1.565-.05-.256-.188-.488-.391-.652-.31-.012-.619.032-.913.13l-5.737 2.738v1.825c-.003.448.086.892.261 1.304.261.261.391.522.652.522.277.163.591.253.913.261v16.036c-.953.605-1.578 1.616-1.695 2.738l-.007.129c0 .689.567 1.256 1.256 1.256.152 0 .303-.027.445-.081v22.686l4.302-2.216v-28.292c-.007-.142.04-.281.13-.391 0 .13 0 .13.13.13.125.537.299 1.06.522 1.565.261.913 6.519 21.512 6.519 21.773.124.412.299.806.522 1.173.261.391.522.391.913.261 1.043-.522 2.086-.913 2.999-1.304.407-.108.744-.395.913-.782.223-.305.357-.666.391-1.043v-21.382c.83-.564 1.359-1.477 1.434-2.477l.008-.14c0-.714-.588-1.302-1.302-1.302l-.14.008v-15.776c-.034-.226.012-.456.13-.652l.391-.652c.321-.348.585-.744.782-1.173.266-.525.401-1.106.391-1.695v-1.434c-2.086.782-4.172 1.695-6.258 2.608v28.422zm210.169.261c0 .13 0 .13-.13.13-.014-.099-.06-.19-.13-.261l-.782-3.129c-.391-1.434-.913-3.259-1.434-5.215-.522-2.086-1.173-4.172-1.695-6.389-.652-2.216-1.173-4.172-1.695-5.997-.522-1.956-1.043-3.39-1.304-4.694-.391-1.304-.522-1.956-.522-1.956-.093-.382-.272-.739-.522-1.043-.13-.261-.522-.391-.913-.522l-5.867-1.956v1.825c-.053.493.038.991.261 1.434.149.402.324.793.522 1.173l.913.782v12.516l-.225-.017c-.808 0-1.474.665-1.474 1.474l.004.108c.093 1.064.738 2.005 1.695 2.477v18.383l4.694 1.434v-25.424c0 .13 0 .13.13.261.14.617.314 1.227.522 1.825.261 1.304.782 2.738 1.304 4.563s1.043 3.911 1.695 5.997c.522 2.216 1.173 4.172 1.695 6.128.522 1.825.913 3.52 1.304 4.824.192.803.454 1.588.782 2.347.095.587.271 1.157.522 1.695.16.42.492.753.913.913l2.999 1.173c.391.13.782.13.913-.13.252-.179.399-.473.391-.782v-16.949l.068.002c.75 0 1.368-.618 1.368-1.368l-.002-.068c-.102-1.028-.62-1.971-1.434-2.608v-12.125c0-.391 0-.522.13-.652.108-.116.242-.206.391-.261.746-.356 1.21-1.129 1.173-1.956v-1.434c-2.041-.896-4.131-1.68-6.258-2.347v25.815zm26.206 4.042c-.655-1.417-1.441-2.771-2.347-4.042-.796-1.143-1.668-2.232-2.608-3.259.13-.13.13-.261.13-.522-.093-1.268-.833-2.402-1.956-2.999-.425-.131-.879-.131-1.304 0-.133-.248-.31-.468-.522-.652-.913-1.043-1.695-1.956-2.347-2.868-.546-.715-.865-1.579-.913-2.477v-8.344c-.013-.324.078-.644.261-.913.261-.261.652-.261.913-.391h1.173l1.173.391c.417.166.812.386 1.173.652l1.173.913c.344.359.65.752.913 1.173.2.404.289.854.261 1.304v1.956c.047.899.365 1.763.913 2.477.489.842 1.215 1.522 2.086 1.956.805.292 1.59.641 2.347 1.043v-3.911c-.015-1.286-.235-2.563-.652-3.781-.494-1.214-1.153-2.354-1.956-3.39-.809-1.05-1.728-2.011-2.738-2.868-1.054-.776-2.19-1.432-3.39-1.956-1.1-.586-2.289-.982-3.52-1.173-.92-.121-1.857-.032-2.738.261-.779.347-1.422.943-1.825 1.695-.454 1.071-.676 2.226-.652 3.39v6.91c-.025 1.443.288 2.872.913 4.172.658 1.292 1.445 2.515 2.347 3.651.93 1.19 1.931 2.322 2.999 3.39l-.13.782c.093 1.268.833 2.402 1.956 2.999.493.298 1.127.244 1.565-.13.825.98 1.566 2.026 2.216 3.129.544 1.052.855 2.208.913 3.39v9.909c0 .522-.13.913-.391 1.043-.271.298-.642.485-1.043.522-.425.114-.865.159-1.304.13l-1.304-.391c-.506-.257-.987-.563-1.434-.913-.465-.307-.902-.656-1.304-1.043-.35-.448-.655-.928-.913-1.434-.248-.39-.384-.842-.391-1.304v-2.347c-.016-.743-.242-1.466-.652-2.086-.551-.691-1.269-1.229-2.086-1.565-.913-.391-1.695-.652-2.477-1.043v4.042c-.005 1.301.262 2.589.782 3.781.445 1.198 1.108 2.303 1.956 3.259.825 1.042 1.789 1.963 2.868 2.738 1.171.771 2.391 1.469 3.651 2.086 1.114.526 2.3.877 3.52 1.043.938.262 1.931.262 2.868 0 .866-.242 1.611-.801 2.086-1.565.456-.979.679-2.05.652-3.129v-9.518c-.002-1.44-.314-2.863-.913-4.172zm-178.226-22.816c-.261 1.825-.522 3.651-.652 5.476-.261 1.825-.522 3.39-.652 4.824s-.261 2.608-.391 3.39c-.052.441-.14.877-.261 1.304-.391-2.477-.782-4.694-1.173-6.649-.261-1.956-.652-4.172-1.043-6.649l-1.304-7.171c-.391-2.347-.782-4.563-1.173-6.519s-.782-3.651-1.043-4.824c0-.261-.391-.522-.913-.652-.602-.13-1.223-.13-1.825 0-.578.181-1.144.4-1.695.652-.489.3-.857.762-1.043 1.304-.397 1.678-.702 3.375-.913 5.085-.391 2.216-.782 4.563-1.304 7.04l-1.173 7.823c-.391 2.608-.782 5.085-1.173 7.171-.261 2.216-.652 4.563-1.043 7.301-.13 0-.13-.391-.261-1.173-.13-.782-.261-1.956-.391-3.259-.261-1.304-.391-2.868-.652-4.563-.13-1.695-.391-3.39-.652-5.215-.391-4.172-2.216-19.166-2.216-19.166l-6.389 1.956v1.565c-.03.467.109.93.391 1.304.19.29.463.517.782.652l.522.261.261.652c.522 4.302.913 8.214 1.434 11.734-.79.523-1.277 1.399-1.304 2.347l-.004.108c0 .809.666 1.474 1.474 1.474l.225-.017v.003c0 .07.058.127.127.127h.003c.13 2.086.391 4.042.652 5.867.261 1.956.391 3.651.652 5.215.13 1.434.391 2.738.522 3.651.005.524.049 1.047.13 1.565-.005.274.147.528.391.652.13.261.391.261.782.261 1.956-.522 3.911-1.173 5.997-1.565.377-.092.704-.326.913-.652.2-.334.374-.682.522-1.043 1.565-8.996 2.999-17.862 4.563-26.858 1.434 8.214 2.868 16.558 4.433 24.772.146.319.319.626.522.913.289.116.602.161.913.13 2.086-.391 4.042-.782 5.997-1.173.343-.093.657-.273.913-.522.13-.29.218-.598.261-.913 0-.13.13-.652.261-1.695.13-.913.261-2.216.522-3.911.13-1.565.391-3.39.522-5.345l.782-6.258v-.261c1.054-.297 1.797-1.252 1.825-2.347.017-.77-.542-1.443-1.304-1.565.391-3.911.913-7.953 1.434-12.516.027-.277.116-.544.261-.782.13-.13.391-.261.522-.522.323-.244.59-.556.782-.913.266-.478.401-1.018.391-1.565v-1.565c-2.216.261-4.302.652-6.519 1.043 0 0-1.825 15.776-2.216 20.209zm126.857 9.648c-.149.13-.373.13-.522 0l-5.085-1.173-.522-.391c-.105-.2-.151-.427-.13-.652.01-.309.053-.614.13-.913.166-.688.297-1.384.391-2.086.13-.782.261-1.695.391-2.868.261-1.043.391-2.086.652-3.259l1.565-8.735h.13l1.565 9.648c.238 1.164.412 2.338.522 3.52.261 1.173.391 2.216.522 3.129.13.913.261 1.695.391 2.216.07.3.113.605.13.913.034.226-.012.456-.13.652zm5.345-4.172c-.093-1.064-.738-2.005-1.695-2.477l-.782-4.302c-.391-2.086-.652-3.781-.913-5.476-.261-1.565-.522-2.868-.652-3.911l-.261-1.825c-.09-.668-.361-1.299-.782-1.825-.506-.62-1.189-1.075-1.956-1.304-2.477-.522-4.824-1.173-7.171-1.695v1.173c0 1.565.391 2.608 1.304 3.129.261.13.261.261.261.522v.782c-.121.427-.209.863-.261 1.304-.13.782-.391 1.825-.652 3.129s-.522 2.738-.913 4.433l-.391 2.477c-.15-.045-.306-.067-.463-.067-.891 0-1.623.732-1.623 1.623v.009c-.002.92.499 1.772 1.304 2.216-1.043 5.215-3.39 17.731-3.39 17.731 1.695.261 3.39.652 4.954 1.043 0 0 1.565-8.475 1.565-8.735.13-.652.391-.913.913-.782l6.128 1.565.782.391c.229.302.365.665.391 1.043 0 .13 1.173 9.387 1.173 9.387l5.345 1.565s-2.216-13.038-3.259-19.557c.677-.2 1.118-.863 1.043-1.565zm-70.664-17.08c.058 1.016-.217 2.023-.782 2.868-.573.772-1.524 1.173-2.477 1.043h-3.39l-.522-.13c-.13-.13-.13-.261-.13-.522v-11.212l-.007-.098c0-.379.312-.691.691-.691l.098.007h3.259c.965-.026 1.886.411 2.477 1.173.565.894.838 1.943.782 2.999v4.563zm6.128 22.686c-.197-.098-.373-.23-.522-.391-.13 0-.13-.261-.13-.652v-8.996c-.015-1.244-.236-2.478-.652-3.651-.377-.973-1.007-1.829-1.825-2.477-.391-.391-.391-.782-.13-1.043.78-.579 1.407-1.34 1.825-2.216.532-.956.803-2.035.782-3.129v-4.172c-.026-1.191-.202-2.373-.522-3.52-.334-1.047-.865-2.021-1.565-2.868-.75-.854-1.687-1.523-2.738-1.956-1.262-.437-2.578-.7-3.911-.782-3.781 0-7.432 0-11.212.13v1.434c-.042.591.093 1.182.391 1.695.236.366.546.677.913.913.13 0 .261.13.391.261.056.214.1.432.13.652v12.125c-1.013.154-1.751 1.063-1.695 2.086.034.966.743 1.785 1.695 1.956v18.253h5.345v-17.34c0-.522.261-.782.652-.782h3.39c.965-.026 1.886.411 2.477 1.173.565.845.84 1.852.782 2.868v11.604c-.021.731.263 1.44.782 1.956.591.482 1.324.757 2.086.782l4.433.13v-1.956c.049-.51-.09-1.02-.391-1.434-.227-.254-.491-.475-.782-.652zm16.949-10.169c-.586.294-.945.909-.913 1.565 0 .261.13 9.126 0 9.257-.13.261-.391.261-.652.261l-4.694-.391c-.261 0-.391-.13-.522-.391-.106-.247-.151-.515-.13-.782-.13-9.648-.13-19.296-.13-29.074.021-.264.064-.526.13-.782.13-.13.261-.261.391-.261.366-.236.677-.546.913-.913.301-.414.44-.925.391-1.434v-1.565c-2.999-.261-5.997-.522-8.996-.652v1.565c-.027.549.109 1.093.391 1.565.271.336.577.642.913.913l.391.391c.13.13.13.391.13.782v11.995c-.968.139-1.695.977-1.695 1.956.029 1.023.715 1.92 1.695 2.216v18.253c4.824.261 9.648.782 14.342 1.304.391 0 .782.13 1.043.13.328.055.664-.04.913-.261.257-.233.401-.566.391-.913v-14.472l-2.216-.391c-.698-.03-1.397.013-2.086.13zm-117.731-12.256h-.391c-5.476 1.825-10.952 3.781-16.428 5.867v1.565c.001.532.089 1.06.261 1.565.228.217.493.394.782.522.204.004.395.1.522.261.13 0 .13.261.13.652v11.864c-.92.617-1.5 1.632-1.565 2.738l-.004.11c0 .737.606 1.344 1.343 1.344l.226-.02v18.253l1.434-.522 7.04-2.608c1.043-.261 2.086-.652 2.999-.913l2.347-.782.913-.391h.13l.391-.13c.13-.13.391-.261.522-.522.261-.284.402-.658.391-1.043v-11.212c-.782.261-1.565.522-2.216.782-.765.187-1.478.543-2.086 1.043-.538.448-.829 1.128-.782 1.825 0 .13.13 5.737 0 5.997-.124.244-.378.397-.652.391l-1.956.782-2.738.913c-.391.13-.652 0-.652-.522v-12.255c-.037-.492.3-.94.782-1.043l6.258-2.216c.462-.042.812-.45.782-.913v-2.999c-.004-.204-.1-.395-.261-.522h-.522l-6.258 2.086c-.522.261-.782.13-.782-.391v-11.082c.051-.23.139-.45.261-.652l.522-.391 4.954-1.695c.13 0 .13 0 .261.13.13.13 0 5.737 0 5.997 0 .782.261 1.173.782 1.304.711-.026 1.414-.158 2.086-.391.751-.175 1.491-.392 2.216-.652v-11.343c.005-.274-.147-.527-.391-.652-.196-.118-.426-.164-.652-.13zm141.72-7.953-.261-.13h-.13c-5.606-1.043-11.343-2.086-17.079-2.868v1.565c-.042.591.093 1.182.391 1.695.108.407.395.744.782.913l.522.522c.145.238.234.505.261.782v11.995h-.043c-.978 0-1.782.804-1.782 1.782v.043c.075 1.05.809 1.942 1.825 2.216v18.253l1.304.261 7.432 1.173 3.129.522c.795.112 1.58.286 2.347.522l.913.13h.522c.184.02.368-.027.522-.13.257-.233.401-.566.391-.913v-11.212c-.782-.13-1.565-.261-2.216-.391-.689-.131-1.397-.131-2.086 0-.652.13-.913.522-.913 1.434 0 .13.13 5.737 0 5.867-.13.261-.391.261-.652.261l-1.956-.391c-.968-.099-1.927-.274-2.868-.522-.391 0-.652-.261-.652-.782v-12.255c0-.522.261-.782.782-.652 2.216.391 4.302.652 6.519 1.173.522 0 .782-.13.782-.652v-2.999c-.005-.241-.098-.474-.261-.652-.261-.13-.391-.261-.652-.261-2.086-.391-4.172-.782-6.389-1.173l-.098.007c-.379 0-.691-.312-.691-.691l.007-.098v-11.082c.033-.196.124-.378.261-.522.13-.13.261-.13.522-.13 1.695.261 3.39.522 5.085.913l.261.13c.13.261 0 5.867 0 5.997-.09.736.271 1.456.913 1.825.678.303 1.375.565 2.086.782.652.13 1.434.261 2.216.391v-11.343c-.038-.336-.175-.653-.391-.913-.199-.159-.418-.29-.652-.391zm-99.739 124.511 1.825 1.825c.522.391 1.173 1.043 1.956.261.288-.21.438-.561.391-.913 0-.391-.261-.652-.913-1.173l-1.695-1.695-1.565 1.695zm1.043-4.172 3.781 3.651c.894.55 1.4 1.562 1.304 2.608-.288 1.202-1.261 2.124-2.477 2.347-1.027.009-1.998-.477-2.608-1.304l-2.086-2.086-2.216 2.347-1.565-1.434 5.867-6.128zm10.04 8.735 6.78 4.042-.782 1.304-4.954-2.868-.913 1.565 4.694 2.868-.782 1.304-4.694-2.868-1.043 1.695 5.085 3.129-.782 1.304-6.91-4.172 4.302-7.301zm11.864 6.258 1.956.652-2.216 6.519 4.433 1.565-.391 1.434-6.519-2.086 2.738-8.083zm29.465 9.257c-.133.745-.498 1.43-1.043 1.956-1.033 1.022-2.462 1.546-3.911 1.434-2.999.13-5.085-1.304-5.215-4.302-.13-3.129 2.347-4.563 4.954-4.694 1.043 0 3.781.13 4.954 2.477l-2.216.391c-.59-.85-1.574-1.342-2.608-1.304-1.587.034-2.875 1.348-2.875 2.937 0 1.611 1.326 2.937 2.937 2.937l.199-.007c1.144.068 2.206-.621 2.608-1.695zm9.518-5.215c0-.13-.13-.13-.261-.261.017-.143-.03-.287-.13-.391v.782l-.391 2.999 2.738-.782zm-1.956-2.086 2.216-.652 6.258 6.91-2.216.652-1.173-1.304-4.172 1.304-.261 1.695-2.216.652 1.565-9.257zm10.3-3.781 1.825-1.043 5.997 1.825 1.695.652c-.522-.652-.652-.913-1.043-1.434l-2.216-3.781 1.825-1.043 4.302 7.301-1.825 1.043-5.997-1.956c-.577-.133-1.143-.306-1.695-.522l.913 1.173 2.347 4.042-1.695 1.043-4.433-7.301zm17.471-5.085c1.043.391 2.086-.261 2.999-1.043.261-.391 1.434-1.565.652-2.347-.391-.391-.913-.13-1.304.13-.642.551-1.342 1.032-2.086 1.434-.652.522-2.347 1.565-3.651.261-.279-.335-.461-.741-.522-1.173-.133-1.365.463-2.703 1.565-3.52.704-.786 1.604-1.371 2.608-1.695.644-.139 1.311-.139 1.956 0l-1.043 1.825c-.344-.071-.699-.071-1.043 0-.531.211-1.018.52-1.434.913-.652.652-1.304 1.434-.652 2.086.391.391.782.13 1.304-.261.391-.13 1.825-1.173 2.086-1.304.913-.652 2.347-1.434 3.651-.13 1.825 1.956-.391 4.302-1.173 4.954-1.179 1.474-3.142 2.095-4.954 1.565l1.043-1.695zm-53.064-40.548s-30.378-10.169-17.21-42.373c0 0-32.073 1.304-75.88 19.035 0 0-3.129 1.173-4.954 1.825-2.822 1.296-6.083 1.248-8.866-.13-2.782-1.379 40.287-20.991 91.786-25.945 6.91-.522 7.692.391 5.997 2.999-1.565 2.086-19.948 25.554 9.126 44.589z" fill="#fff"/><path d="m243.365 190.873c-25.945 3.39-51.369 12.386-51.369 12.386 4.302 7.692 16.036 4.433 16.036 4.433 22.034-6.258 31.812-8.344 34.941-8.996-.121-2.614.01-5.234.391-7.823zm.26 12.647c-13.92 2.71-27.609 6.503-40.939 11.343s5.867 6.649 17.34 3.39c9.518-2.738 21.903-6.649 25.684-7.823-.985-2.206-1.686-4.527-2.086-6.91zm3.912 10.43c-3.911 1.304-23.468 7.692-31.682 10.821 0 0 4.694 6.389 18.383 1.043 9.518-3.781 14.863-5.997 17.079-7.04-1.394-1.499-2.659-3.113-3.781-4.824zm6.91 7.692c-3.52 1.434-16.167 7.04-23.598 10.561 0 0 9.257 4.563 20.991-2.608l7.171-4.824c-1.6-.922-3.126-1.969-4.563-3.129zm8.083 4.955c-2.347 1.434-11.995 7.562-16.688 11.082 0 0 8.083 3.259 16.297-4.433 2.608-2.477 4.042-3.911 4.824-4.824-1.512-.519-2.993-1.129-4.433-1.825z" fill="#b4975a"/><path d="m289.779 224.119s30.378-10.169 17.21-42.373c0 0 31.943 1.304 75.88 19.035 0 0 3.129 1.173 4.954 1.825 2.776 1.297 6 1.249 8.735-.13 2.736-1.38-40.156-20.991-91.786-25.945-6.78-.522-7.692.391-5.867 2.999 1.434 2.086 19.948 25.554-9.126 44.589z" fill="#fff"/><path d="m316.767 190.873c25.945 3.39 51.369 12.386 51.369 12.386-4.433 7.692-16.036 4.433-16.036 4.433-22.034-6.258-31.943-8.344-35.072-8.996.102-2.611.015-5.225-.261-7.823zm-.26 12.647c13.917 2.727 27.603 6.519 40.939 11.343 13.335 4.824-5.867 6.649-17.34 3.39-9.648-2.738-22.034-6.649-25.684-7.823.985-2.206 1.686-4.527 2.086-6.91zm-4.042 10.43c3.911 1.304 23.598 7.692 31.812 10.821 0 0-4.694 6.389-18.383 1.043-9.648-3.781-14.863-5.997-17.21-7.04 1.471-1.431 2.742-3.054 3.781-4.824zm-6.78 7.692c3.39 1.434 16.167 7.04 23.468 10.561 0 0-9.257 4.563-20.86-2.608l-7.171-4.824c1.6-.922 3.126-1.969 4.563-3.129zm-8.083 4.955c2.216 1.434 11.864 7.562 16.558 11.082 0 0-7.953 3.259-16.167-4.433-2.608-2.477-4.042-3.911-4.824-4.824 1.304-.522 2.868-1.043 4.433-1.825z" fill="#b4975a"/><path d="m304.903 241.72v.065c0 13.626-11.211 24.837-24.837 24.837s-24.837-11.211-24.837-24.837c0-13.601 11.171-24.801 24.772-24.837h.113c13.593 0 24.779 11.179 24.789 24.772z" fill="#fff"/><path d="m299.688 246.805c0 10.8-8.887 19.687-19.687 19.687s-19.687-8.887-19.687-19.687 8.887-19.687 19.687-19.687h.1c10.745 0 19.587 8.842 19.587 19.587z" fill="#b4975a"/><path d="m293.169 260.495c-1.359-.926-2.334-2.317-2.738-3.911v-.391c5.03-2.126 9.271-5.775 12.125-10.43-1.038 5.964-4.42 11.272-9.387 14.733zm-35.593-14.733c2.822 4.684 7.073 8.341 12.125 10.43v.391c-.404 1.594-1.379 2.986-2.738 3.911-4.941-3.485-8.316-8.781-9.387-14.733zm5.215-19.035c-1.043 5.606 1.304 10.952 3.52 15.776 1.535 3.195 2.674 6.567 3.39 10.039-6.072-3.003-10.515-8.544-12.125-15.124.765-3.961 2.564-7.65 5.215-10.691zm24.25 27.119c-1.737.548-3.53.897-5.345 1.043v-35.984c3.538.284 6.968 1.353 10.039 3.129 4.563 6.649 2.086 12.516-.913 19.166-1.825 4.042-3.651 8.214-3.781 12.647zm-5.345 4.302c1.855-.091 3.692-.398 5.476-.913.403 1.982 1.459 3.773 2.999 5.085-2.68 1.208-5.545 1.958-8.475 2.216v-6.389zm-8.735-.913c1.784.515 3.621.821 5.476.913v6.389c-2.929-.259-5.794-1.008-8.475-2.216 1.54-1.311 2.596-3.103 2.999-5.085zm-4.694-35.202c3.119-1.777 6.591-2.845 10.169-3.129v35.984c-1.816-.146-3.608-.495-5.345-1.043-.13-4.433-1.956-8.605-3.781-12.647-2.999-6.649-5.606-12.516-1.043-19.166zm34.289 15.385c-1.699 6.504-6.12 11.971-12.125 14.993.737-3.425 1.875-6.75 3.39-9.909 2.216-4.824 4.563-10.169 3.52-15.776 2.651 3.041 4.45 6.73 5.215 10.691zm-22.555-22.425c-14.613.071-26.598 12.114-26.598 26.727 0 14.662 12.065 26.727 26.728 26.727 14.662 0 26.727-12.065 26.727-26.727-.02-14.669-12.096-26.727-26.764-26.727zm7.953-34.811s-.13.913-.652.913c-1.84-.641-3.628-1.427-5.345-2.347-.636-.347-1.246-.739-1.825-1.173-.579-.435-1.434.782-2.086 1.173-1.675.915-3.419 1.699-5.215 2.347-.522 0-.782-.913-.782-.913s-8.344 5.085-8.344 19.166c0 10.561 5.476 15.254 5.476 15.254l.652 2.999h20.469l.652-2.999s5.476-4.694 5.476-15.254c0-14.081-8.475-19.166-8.475-19.166z" fill="#002b5c"/><path d="m291.996 195.828c.032-3.676-1.266-7.241-3.651-10.039s-.13 1.304-2.086-.13c-3.708-2.602-8.678-2.602-12.386 0-1.956 1.434-2.086.13-2.086.13-2.385 2.798-3.682 6.364-3.651 10.039 0 3.651.782 5.345 1.173 5.867 1.825 4.563 5.867 7.823 10.691 7.823 4.802-.102 9.068-3.171 10.691-7.692.13-.13 1.304-1.825 1.304-5.997z" fill="#fff"/><path d="m284.564 205.606c-.739-1.244-.461-2.856.652-3.781s4.433.913 4.563-4.954c-.029-.649.154-1.29.522-1.825.367-.536-1.173-1.043-3.651.782-2.347 1.825-3.781 7.171-5.085 5.867-1.304-1.173-.782-8.083-1.565-8.344-.652.261-.13 7.171-1.434 8.344-1.434 1.304-2.738-4.042-5.215-5.867s-3.52-.782-3.52-.782c.287.57.464 1.19.522 1.825 0 5.867 4.433 4.954 4.433 4.954 1.119.913 1.447 2.499.782 3.781-5.215-5.606-8.344-4.824-6.78 1.434 1.434 6.258 7.171 32.986 8.083 39.244-.13 5.476-.782 7.562-1.043 7.953l-.522 1.173.652 1.173c.778 1.191 1.433 2.458 1.956 3.781l2.086 5.476 2.216-5.476c.523-1.323 1.178-2.59 1.956-3.781l.652-1.173-.652-1.173c-.13-.391-.782-2.347-.913-7.692.782-5.606 6.649-33.116 8.083-39.504 1.565-6.258-1.565-7.04-6.78-1.434z" fill="#002b5c"/><path d="m276.481 233.507c-1.956-9.909-3.39-17.34-4.563-22.686-.913-4.042 1.565-2.347 2.868.13l1.695 22.555zm7.17 0c1.825-9.909 3.39-17.34 4.563-22.686.913-4.042-1.565-2.347-2.868.13l-1.695 22.555zm-10.169-33.638c-.357-.153-.57-.527-.522-.913l.261-.391c-.276-.292-.581-.554-.913-.782-.331-.228-.522 2.868 1.956 2.608-.026-.237-.116-.462-.261-.652-.13.13-.261.13-.522.13zm14.211-2.086c-.261.261-.652.522-.782.782l.13.391c.039.087.06.181.06.277 0 .286-.181.541-.451.636-.261 0-.391 0-.522-.13-.142.21-.273.427-.391.652 2.608.261 1.956-2.608 1.956-2.608zm-6.388 39.374c.782-15.385 1.956-26.206 1.956-27.51.033-.619-.055-1.24-.261-1.825l-.913 2.868-.261-5.085c-.506-.703-1.122-1.319-1.825-1.825-.673.541-1.284 1.153-1.825 1.825l-.261 5.085-.913-2.868c-.141.6-.229 1.21-.261 1.825 0 1.304 1.304 12.125 2.086 27.51s-1.043 18.253-1.043 18.253c.851 1.419 1.592 2.901 2.216 4.433.691-1.524 1.474-3.005 2.347-4.433.872-1.428-1.956-2.868-1.043-18.253z" fill="#e31837"/><path d="m271.005 283.441-2.086-.261 1.304-8.475 2.086.391-1.304 8.344z" fill="#fff"/></svg>