<svg clip-rule="evenodd" fill-rule="evenodd" viewBox="0 0 560 400" xmlns="http://www.w3.org/2000/svg"><path d="m412.53 65.742c-.44-.488-1.072-.759-1.728-.741h-166.789c-19.876 0-32.099 8.642-36.296 25.432l-60.617 241.727c-.193.68-.056 1.412.37 1.975.407.543 1.048.864 1.728.864h181.727c10.37 0 20.741-8.395 23.086-18.518l58.889-248.764c.192-.68.055-1.412-.37-1.975z" fill="#63727a"/><path d="m149.199 332.777h181.727c9.383 0 18.889-7.654 20.988-16.79l58.889-248.887h-166.789c-15.432.123-29.506 5.185-34.197 23.95l-60.617 241.727z"/><path d="m186.606 234.506h157.653c7.901 0 15.679-6.296 17.531-14.074l33.086-143.209h-144.444c-17.654 0-25.555 5.556-29.136 20.247l-34.691 137.036zm157.653 1.975h-160.122l35.185-139.505c4.568-18.025 15.679-21.605 31.111-21.605h146.913l-33.703 145.555c-1.975 8.518-10.617 15.555-19.383 15.555z" fill="#63727a"/><path d="m210.309 314.629 4.444 6.049h33.21l13.457-53.333h-13.58l-11.605 45.802h-12.099l11.605-45.802h-17.16l-1.111.864 3.457 4.691-10.617 41.728zm1.111-28.642 3.21-12.839-4.444-6.049h-27.16l-7.407 6.049-4.568 17.901 22.963 9.63-3.086 12.469h-11.975l1.358-5.802-11.975-5.556-3.21 12.839 4.321 6.049h27.284l7.407-6.049 4.568-18.025-22.963-9.63 3.086-12.346h11.975l-1.481 5.926 12.099 5.432zm93.827-12.839-4.444-6.049h-33.086l-13.457 53.333h13.58l11.481-45.802h12.099l-11.481 45.802h17.037l1.111-.988-3.333-4.568 10.494-41.728zm42.098 12.839 3.21-12.839-4.444-6.049h-27.16l-7.407 6.049-4.568 17.901 22.963 9.63-3.086 12.469h-12.099l1.481-5.802-11.975-5.556-3.21 12.839 4.321 6.049h27.284l7.407-6.049 4.568-18.025-22.963-9.63 3.086-12.346h11.975l-1.481 5.926 12.099 5.432z" fill="#fff"/><path d="m168.334 301.79 4.938 7.407-1.111 4.321 2.469 3.333h19.259l3.827-2.963 6.42.741-7.407 6.049h-27.284l-4.321-6.049zm22.593 11.357 6.79.741 3.827-15.185-23.21-9.753 3.827-15.062-6.543-.741-4.568 17.901 22.963 9.63zm14.074-42.345h-18.765l-4.074 3.086 6.667.741h11.975l-1.481 5.926 7.16-2.222 1.111-4.074zm99.258 30.988 4.938 7.407-1.111 4.321 2.469 3.333h19.259l3.827-2.963 6.42.741-7.407 6.049h-27.284l-4.321-6.049zm22.593 11.357 6.79.741 3.827-15.185-23.21-9.753 3.827-15.062-6.543-.741-4.568 17.901 22.963 9.63zm14.074-42.345h-18.889l-3.951 3.086 6.667.741h11.975l-1.481 5.926 7.16-2.222.988-4.074zm-123.456-2.593 10.617 2.593-10.741 42.716 2.469 3.333h22.222l5.926 3.827h-33.21l-4.444-6.049 10.617-41.728-3.457-4.691zm30.37-.864 5.802 3.457-11.605 46.049-5.802-3.704zm25.802 3.457-5.926-3.704-13.457 53.333h13.58l-5.926-3.58 11.728-46.049zm13.827 46.049 10.741-42.592-2.469-3.457h-22.099l5.679 3.827h12.099l-11.481 45.802h17.037l1.111-.988-10.617-2.593z" fill="#bec0c2"/><path d="m189.322 251.049-3.58.988 1.111-4.691h3.333l-.864 3.704zm-6.42-6.42-.37.247 1.111 1.481-3.457 14.074h4.815l.247-.37-1.111-1.358.864-3.704 7.407-2.346 1.481-6.173-1.481-1.852h-9.506zm39.259 0h-3.58l-1.358 5.679-3.457.864 1.605-6.543h-4.691l-.37.247 1.111 1.481-3.457 14.074h3.58l1.481-6.296 3.457-.741-1.728 7.037h4.691l.37-.37-1.111-1.358zm21.111 13.21h-3.333l2.593-10.617h3.333zm-1.605-13.21-2.346 1.852-2.963 11.975 1.481 1.975h6.42l2.346-1.975 2.963-11.975-1.481-1.852zm62.469 1.852-1.481-1.852h-8.518l-3.827 15.802h3.58l3.21-13.21h3.333l-3.21 13.21h4.691l.37-.37-1.111-1.358zm21.975-1.852h-4.815l-.37.247 1.235 1.481-3.457 14.074h4.691l.37-.37-1.111-1.358zm25.308 14.198-1.852-6.173 6.296-8.025h-3.457l-3.58 4.815-1.235-4.815h-4.691l-.37.247 1.852 1.481 1.852 6.42-5.926 7.654h3.333l3.457-4.691 1.235 4.691h4.691l.37-.37-1.975-1.235zm-79.382-.988h-4.074l.988-4.074h3.333l.617-2.593h-3.333l.988-3.951h3.827l.988 1.358.37-.247.864-3.704h-10.123l-.37.247 1.111 1.481-3.457 14.074h9.259l.864-3.704-.247-.247-1.605 1.358z" fill="#fff"/><path d="m190.927 231.913 89.999-49.259-61.111 49.259 74.197-42.592-1.235 8.642 12.346-6.914 27.901 26.42 14.815-44.691 21.481-1.358-10.864-27.037 19.383-15.185-25.185-9.876 6.42-27.037-21.358 9.753-11.111-23.21-17.16 17.037-30.864-13.827-4.198 27.531-27.531 6.049 16.296 9.753-16.42 8.272 13.951 1.235-57.284 44.444 57.654-30.617-61.728 47.037 65.679-34.197-70.246 52.716 77.407-41.234-81.234 58.889z" fill="#f9a01b"/><path d="m355.617 144.753c-1.017 23.829-20.9 42.88-44.751 42.88-24.572 0-44.791-20.22-44.791-44.791 0-24.572 20.219-44.792 44.791-44.792.596 0 1.192.012 1.788.036 24.584 1.016 43.977 22.082 42.963 46.666z" fill="#e56020"/><path d="m316.358 181.543c-23.877-.951-43.004-20.853-43.004-44.749 0-11.635 4.534-22.824 12.634-31.177-12.433 8.318-19.916 22.325-19.916 37.284 0 23.862 19.04 43.761 42.878 44.815 12.762.502 25.155-4.437 34.074-13.58-7.854 5.286-17.213 7.886-26.666 7.407z" fill="#b95915"/><path d="m355.617 143.395c.083-1.565.042-3.134-.123-4.691-2.738-1.972-5.918-3.244-9.259-3.704l-2.099-.123c-.409-2.972-1.07-5.904-1.975-8.765.445.097.901.139 1.358.123 3.21.247 6.296.617 9.383 1.111-.419-1.183-.914-2.337-1.481-3.457-3.333-.494-6.914-.864-10.494-1.111-1.107-2.914-2.471-5.722-4.074-8.395 2.218-.399 4.275-1.428 5.926-2.963l-2.593-2.469c-1.513 1.343-3.418 2.165-5.432 2.346-.37-.494-.741-.988-.988-1.358-2.993-3.862-6.528-7.272-10.494-10.123-3.452-1.025-7.02-1.605-10.617-1.728h-.494c6.956 2.814 13.076 7.362 17.778 13.21-5.241-.731-10.405-1.929-15.432-3.58-1.605-.494-3.086-.864-4.568-1.358-6.888-2.017-14.068-2.853-21.234-2.469-3.885 2.227-7.421 5.014-10.494 8.272 5.679-2.346 17.037-6.296 30.864-2.469 1.481.37 2.963.741 4.568 1.235 6.049 1.852 12.963 3.827 18.889 3.827 1.592 2.484 2.995 5.083 4.198 7.778-1.15-.101-2.303-.142-3.457-.123-28.889-.494-53.456 8.025-67.16 21.852.036 2.695.326 5.383.864 8.025 3.827-5.556 9.63-10.617 17.037-14.815 13.827-7.778 32.345-11.852 51.975-11.605l2.099.123c.986 2.854 1.729 5.786 2.222 8.765-12.716.617-20.864 8.395-30.37 16.913-8.395 7.531-18.765 15.062-33.827 19.63 1.436 1.724 3.004 3.334 4.691 4.815 14.197-5.679 23.58-14.568 31.605-21.728 9.136-8.148 16.913-15.926 28.271-16.296.37 3.2.37 6.43 0 9.63-1.481 17.531-11.728 32.469-25.555 39.876 3.489-.346 6.927-1.092 10.247-2.222 1.111-.988 2.222-1.975 3.21-2.963 9.239-9.167 14.891-21.348 15.926-34.321.37-3.282.37-6.595 0-9.876.617.123 1.235.123 1.728.247 3.576.594 6.868 2.326 9.383 4.938z"/></svg>