<svg clip-rule="evenodd" fill-rule="evenodd" viewBox="0 0 560 400" xmlns="http://www.w3.org/2000/svg"><path d="m398.334 65-33.871 34.004-28.307-28.272-28.438 28.276-28.259-28.276-28.25 28.272-28.269-28.272-28.244 28.287-33.03-33.341v150.564c0 65.481 52.532 118.76 117.975 118.76 65.105-.09 118.64-53.656 118.693-118.76v-151.241z" fill="#fff"/><path d="m172.231 236.862c2.792 14.18 8.395 27.658 16.478 39.639 4.921-8.631 14.768-19.353 34.107-23.909-1.485-4.966-2.809-10.246-3.932-15.731h-46.653zm24.193 49.842c20.602 24.344 50.83 38.531 82.719 38.822-2.992-1.528-5.919-3.21-8.735-5.021-13.449-8.693-31.939-25.61-43.876-56.974-18.79 4.096-26.744 14.746-30.108 23.173m41.685-24.82c8.473 21.302 21.275 37.672 38.078 48.659 8.772 5.756 18.526 9.85 28.777 12.082 17.63-4.134 33.969-12.563 47.555-24.533-10.715-1.174-21.701-7.34-33.299-13.844-18.108-10.164-40.659-22.812-71.104-22.812-3.287 0-6.646.158-10.006.448" fill="#5c6670"/><path d="m283.888 181.456h-39.15v46.612h16.265v-37.389h12.219v37.391h15.5v-40.084c-.001-3.552-2.171-6.53-4.833-6.53" fill="#5b2b82"/><path d="m295.574 181.456v39.986c0 3.559 2.153 6.626 4.807 6.626h39.112v-28.3l-15.616-.018v19.084h-12.214v-28.382h27.83v-8.997h-43.919zm-94.122 0-8.847 18.823h-5.109v-18.823h-16.19v46.612h16.19v-18.755h5.109l8.847 18.755h16.174l-11.408-23.273 11.408-23.34h-16.174zm20.482 0h16.76v46.612h-16.76zm166.803 12.605v-12.606h-42.972v21.295c0 3.551 2.155 6.434 4.804 6.434h21.895v10.159h-26.7v8.724h42.994v-21.396c0-3.311-1.828-6.421-4.29-6.421h-22.575v-9.761h11.294v3.573h15.55zm-45.715-59.88h-13.722l28.302-28.315-21.445-21.407-28.438 28.27-28.259-28.27-49.684 49.722h-13.721l28.253-28.358-21.367-21.364-28.244 28.27-23.388-23.217v83.39h217.426v-84.466l-45.712 45.746z" fill="#5b2b82"/><path d="m218.806 163.942c.001 1.201.986 2.191 2.187 2.198h12.219v-3.283h-9.958v-10.648h9.958v-3.276h-14.406v15.008zm-19.92-15.008v17.205h4.445v-4.502h5.513v4.502h4.448v-15.013c-.024-1.214-1.03-2.202-2.244-2.202l-.199.01zm9.959 9.431h-5.514v-6.152h5.514zm169.631-9.431h-10.08c-1.194.001-2.178.983-2.18 2.178v12.832c.001 1.198.982 2.185 2.18 2.194h10.08c1.2-.012 2.181-1.001 2.181-2.202v-12.825c-.002-1.195-.986-2.178-2.181-2.178m-2.285 13.898h-5.494v-10.626h5.494zm-197.24-5.847c.004 1.2.991 2.186 2.191 2.188h7.767v3.683h-9.958v3.283h14.406v-8.056c.004-1.113-.848-2.06-1.956-2.174l-.121-.011h-7.888v-3.689h9.966v-3.274h-14.406v8.05zm91.545-8.05h-12.21v17.205h4.448v-4.502h5.513v4.502h4.452v-15.013c-.006-1.204-.999-2.191-2.203-2.192m-2.249 9.431h-5.514v-6.152h5.514zm78.588-6.16h4.988v13.933h4.439v-13.933h4.982v-3.271h-14.408v3.271zm-46.117-3.271h-22.119v17.206h4.447v-13.93h5.453v13.93h4.508v-13.93h5.45v13.93h4.45v-15.017c-.005-1.199-.989-2.184-2.188-2.19m39.418.001h-12.213v17.206h4.446v-13.93h5.513v13.93h4.448v-15.017c-.005-1.201-.993-2.187-2.194-2.19" fill="#fff"/><path d="m308.963 163.942c-.001 1.203.986 2.194 2.188 2.198h12.207v-3.283h-9.947v-3.689h9.947v-3.268h-9.947v-3.691h9.947v-3.276h-14.395v15.008zm-58.603-4.062h2.379v-8.757c-.032-1.214-1.041-2.197-2.256-2.197l-.187.008h-11.965v17.205h4.445v-6.259h3.226l2.662 6.259h4.332l-2.635-6.259zm-2.071-3.272h-5.513v-4.398h5.513z" fill="#fff"/><path d="m245.743 250.062c23.164-.472 46.073 5.328 75.305 21.986 21.606 12.312 31.099 16.045 37.578 14.451 5.969-1.468 11.505-4.995 21.276-25.642 3.501-7.667 6.088-15.718 7.708-23.99h-157.154c1.094 4.76 2.169 9.496 3.607 13.851 3.878-.435 7.777-.654 11.68-.656" fill="#5c6670"/></svg>