<svg clip-rule="evenodd" fill-rule="evenodd" viewBox="0 0 560 400" xmlns="http://www.w3.org/2000/svg"><ellipse cx="279.999741" cy="200.003648" fill="#c4ced4" rx="149.998882" ry="149.983992" stroke-width="1.489"/><ellipse cx="279.389251" cy="199.274038" fill="#e31837" rx="143.876114" ry="144.103931" stroke-width="1.489"/><path d="m423.702 192.447-288.461.027c-.134 2.466-.207 4.945-.207 7.445 0 13.146 1.936 26.012 5.514 38.312 33.972-.007 243.255-.019 277.8-.04 3.599-12.402 5.535-25.38 5.535-38.634 0-2.379-.067-4.751-.188-7.11" fill="#fff"/><path d="m260.956 343.848c5.849.724 11.806 1.105 17.85 1.112h.194c13.141 0 25.864-1.763 37.965-5.033 37.897-10.882 70.234-37.757 89.129-72.251h-253.276c22.043 39.962 62.32 69.657 108.138 76.17" fill="#002b5c"/><path d="m367.94 152.082c-6.185-11.397-14.5-21.463-24.417-29.664-1.863-1.541-3.793-2.988-5.762-4.388-16.409-11.699-36.451-18.614-58.132-18.654h-.174c-53.759.007-97.687 42.187-100.466 95.28-.088 1.708-.134 3.437-.141 5.173v.174c.007 13.876 2.814 27.103 7.901 39.13.63 1.501 1.306 2.988 2.01 4.457 5.642 11.719 13.495 22.179 23.008 30.834 2.379 2.171 4.865 4.221 7.438 6.151 16.772 12.557 37.583 20 60.144 20.027h.134c12.147-.007 23.785-2.158 34.56-6.103 38.488-14.085 65.974-51.018 66.02-94.39v-.128c0-13.87-2.814-27.091-7.893-39.118-1.273-3.008-2.68-5.937-4.229-8.784" fill="#c4ced4"/><path d="m282.44 63.851s1.965 1.434 1.763 3.236l-2.513 22.442 5.133.574c1 .114 1.763.125 2.168-.565 0 0 .631-5.654 1.346-11.984l5.193 11.418c.762 1.876-.905 2.01-.905 2.01l1.524.208v-.008l5.108.574c1.012.114 1.763.118 2.168-.566l2.763-24.639-7.194-.817-1.965-.198s1.822 1.303 1.632 3.099l-1.072 9.547-6.109-12.846c-.167-.322-.441-.518-.858-.565-.893-.094-6.062-.691-6.062-.691l-2.12-.231zm-3.764.305c-.727.013-3.537.223-6.491.324-.715.146-2.025.173-1.739 3.139l1.191 22.463 7.241-.387.536-.146s-.488-.825-.655-2.219c0 0-1.143-20.364-1.143-21.302 0-.93 1.06-1.872 1.06-1.872zm-15.209.596-9.171 1.918s2.287.73 2.668 2.512l.024.071 1.322 6.344-5.038 1.058c-1.477.308-1.787 1.779-1.787 1.779l-2.156-10.739-8.667 1.801s1.787.835 2.168 2.617l.042.071 4.564 22.035 5.062-1.047c1-.2 1.715-.437 1.894-1.214l-1.846-8.846 7.015-1.465 2.001 9.64 5.062-1.037c1-.207 1.715-.443 1.894-1.214l-5.05-24.284zm51.617 4.69c-.453.026-.834.102-1.179.23-1.358.51-2.513 2.162-3.49 4.962l-3.644 10.53c-.441 1.239-.715 2.275-.81 3.119-.214 1.641.179 2.91 1.12 3.8.941.892 2.68 1.789 5.264 2.68l4.502 1.559c3.251 1.125 5.55 1.428 6.884.912 1.358-.517 2.525-2.156 3.502-4.962 0 0 1.739-4.941 1.989-5.686.417-1.36-.607-2.222-1.179-2.417l-8.444-2.942c-.989-.342-1.62.411-1.965 1.047-.345.643-1.596 4.248-1.596 4.248l-.441 1.131s.965-.939 2.227-.503l3.097 1.079c-.464 1.133-.989 1.773-1.524 1.947-.488.167-1.513-.035-3.085-.578 0 0-1.084-.42-1.382-.596-.75-.488-1.084-1.108-.977-1.904.048-.456.214-1.081.5-1.906l2.025-5.83c.548-1.561 1.096-2.437 1.667-2.618.572-.174 1.632.007 3.204.556l7.67 2.648c1.393.482 1.655 2.294 1.655 2.294l.536-1.529 1.358-3.935c.393-1.501-.56-2.306-1.846-2.755l-9.969-3.454c-2.418-.84-4.3-1.212-5.669-1.13zm-80.366 1.904c-.328-.018-.66.027-.973.158l-8.707 3.631c-3.142 1.307-5.043 2.599-5.706 3.885-.663 1.272-.416 3.303.723 6.049l1.005 2.344c.154.356.337.684.544.985.797 1.152 1.903 1.923 3.35 2.312 1.715.442 3.673.192 5.891-.732l3.391-1.413c1.314-.542 2.269-.403 2.838.429.155.22.231.47.231.732 0 0 .385 1.189-2.315 2.314l-6.834 2.857c-1.526.516-3.746-.931-3.746-.931l2.27 5.39c.503 1.199 2.033 1.978 3.286 1.455l.681-.283 4.71-1.956 3.4-1.424c3.149-1.312 5.044-2.592 5.706-3.884.671-1.286.379-3.145-.753-5.872 0 0-.878-2.033-1.173-2.596-1.648-3.161-5.097-4.236-8.595-2.783l-3.935 1.641c-1.421.59-2.417.476-2.972-.335l-.189-.397c-.174-.59-.619-1.621 1.477-2.492l7.117-2.961c1.534-.637 3.861.888 3.861.888s-1.405-3.351-2.27-5.401c-.376-.899-1.33-1.558-2.314-1.613zm102.031 5.464c-.56-.011-.941.431-1.108.681-.214.356-2.418 4.239-2.418 4.239l-.977 1.727s1.477-1.438 3.168-.46l3.787 2.197-9.683 16.769 6.824 3.958s.024-1.111.643-2.378c0 0 5.36-9.331 8.492-14.739l2.918 1.696c1.679.972 1.62 3.612 1.62 3.612l1.584-2.783 2.632-4.585-10.707-6.186-.095-.063-6.074-3.505c-.214-.126-.429-.176-.607-.18zm-133.223 10.478-4.271 2.982c-.858.61-1.231 1.186-1.151 2.084l7.202 21.929c.462 1.373-1.215 3.852-1.215 3.852l7.507-5.255c.676-.468.827-1.261.586-2.019l-1.059-3.099 5.728-3.998 2.219 1.403c1.279 1.058.366 2.24.366 2.24l8.239-5.769zm154.411 4.301c-1.453.04-3.085 1.228-4.919 3.56l-6.884 8.762c-.81 1.031-1.393 1.926-1.763 2.689-.727 1.488-.81 2.805-.202 3.957.596 1.153 1.965 2.569 4.097 4.249l3.74 2.952c2.715 2.131 4.8 3.163 6.217 3.11 1.453-.046 3.097-1.227 4.931-3.559l6.895-8.762c.798-1.018 1.393-1.916 1.763-2.68.738-1.482.774-2.838.119-4.051-.536-1.085-1.906-2.49-4.085-4.198l-3.739-2.952c-2.668-2.103-4.728-3.124-6.169-3.078zm-166.821 3.057-.754.9-4.02 4.564-.051.074c-.543.617-.939 1.147-.891 1.717l10.237 15.794-14.424-7.797c-1.835-.736-1.067-2.742-1.067-2.742l-1.445 1.633-2.962 3.349-.062.085c-.75.843-1.12 1.698-.724 2.617l10.355 14.559-14.467-7.432c-1.876-.965-1.059-3.044-1.059-3.044l-1.538 1.716-3.403 3.873-.063.083c-.777.878-.98 2.15-.23 2.773l.054.063 22.452 10.521 5.276-5.978c.717-.811.922-1.246.586-2.103l-4.249-7.914 8.709 4.292 5.611-6.377c.697-.79.803-1.901.515-2.751l-11.945-19.984c-.771-1.354-.439-2.492-.439-2.492zm16.362 3.278 3.454 2.27-2.072 1.508zm152.148 1.738c.548.03 1.429.501 2.561 1.348.703.566 1.262 1.045 1.453 1.29.56.676.643 1.39.298 2.114-.202.401-.572.929-1.131 1.579l-3.811 4.847c-1.036 1.327-1.87 1.963-2.561 1.935-.453.006-1.298-.481-2.418-1.328-.679-.547-1.239-1.024-1.417-1.247-.56-.703-.655-1.397-.298-2.114.202-.416.572-.943 1.096-1.633l3.811-4.857c1.024-1.301 1.834-1.935 2.418-1.935zm-80.046 2.246c-53.705.002-97.894 44.196-97.894 97.899s44.19 97.895 97.894 97.898c53.706 0 97.898-44.192 97.898-97.898s-44.192-97.899-97.898-97.899zm98.279 5.122s.357 2.392-1.06 3.517l-17.804 13.911 3.192 4.083c.607.79 1.143 1.339 1.918 1.152 0 0 4.489-3.506 9.503-7.433l-4.514 11.703c-.81 1.863-2.072.754-2.072.754l.905 1.235.012-.008 3.168 4.061c.631.797 1.155 1.332 1.918 1.152l19.532-15.284-4.454-5.706-1.227-1.538s.345 2.22-1.084 3.338l-7.563 5.916 4.895-13.369c.119-.335.06-.662-.191-.984-.548-.71-3.752-4.825-3.752-4.825zm-215.675 39.883-3.38 10.413h-10.949l8.866 6.427-3.392 10.412 8.855-6.434 8.855 6.434-3.38-10.412 8.866-6.427h-10.95zm234.504 1.382-3.371 10.413h-10.969l8.873 6.439-3.382 10.412 8.849-6.431 8.861 6.431-3.382-10.412 8.861-6.439h-10.957l-3.382-10.413zm-42.803 132.675c-.238-.036-.488-.036-.738 0-.322.048-.643.167-.917.369l-7.765 5.36c-2.799 1.929-4.395 3.585-4.776 4.977-.393 1.382.298 3.311 1.965 5.764l1.465 2.084c.226.31.464.596.738.846 1.012.965 2.263 1.489 3.764 1.572 1.763.071 3.621-.572 5.598-1.929l3.037-2.084c1.167-.81 2.12-.869 2.858-.179.202.191.322.405.381.667 0 0 .619 1.084-1.787 2.739l-6.098 4.216c-1.382.822-3.859-.143-3.859-.143s2.072 2.989 3.347 4.812c.727 1.072 2.394 1.524 3.513.75l.607-.417 4.192-2.906 3.037-2.096c2.811-1.929 4.394-3.573 4.775-4.978s-.274-3.156-1.952-5.586c0 0-1.286-1.81-1.691-2.299-2.263-2.738-5.86-3.095-8.98-.953l-3.513 2.43c-1.262.869-2.263.977-2.978.298-.036-.024-.238-.322-.25-.357-.298-.548-.953-1.441.917-2.727l6.348-4.382c1.37-.941 3.954.06 3.954.06l-3.335-4.8c-.417-.607-1.12-1.012-1.858-1.108zm-153.077.417c-.507.024-.958.238-1.203.655l-.052.071-8.007 23.092 6.741 4.252c.911.584 1.38.703 2.177.238l7.128-5.455-2.857 9.29 7.181 4.538c.892.56 2.008.488 2.806.071l16.663-15.697c1.22-.989 2.396-.834 2.396-.834l-1.015-.596-5.139-3.251-.093-.048c-.697-.441-1.278-.738-1.833-.596l-11.306 11.005 4.136-13.303c.262-1.286 2.324-1.322 2.324-1.322l-1.821-1.167-3.8-2.393-.073-.036c-.965-.607-1.869-.846-2.712-.31l-11.619 10.777 5.099-12.969c.656-2.001 2.848-1.536 2.848-1.536l-1.938-1.239-4.364-2.751-.095-.048c-.499-.322-1.064-.464-1.571-.441zm132.723 14.35c-.893.06-2.025.381-3.394.977l-17.067 7.384s2.358.429 3.204 1.918l7.908 18.258c.345 1.286-.131 2.68-.357 2.978l16.626-7.134c2.263-.977 3.573-2.049 3.942-3.168.369-1.143-.036-3.085-1.203-5.788l-4.943-10.79c-.524-1.191-.774-1.632-1.143-2.346-.75-1.429-1.775-2.12-2.751-2.263-.25-.036-.524-.048-.822-.024zm-96.626 6.384c-.688-.048-1.539.226-2.187 2.358l-7.369 21.247 6.854 2.382.536.06s-.13-.941.239-2.299c0 0 6.637-19.282 6.992-20.14.355-.869 1.686-1.346 1.686-1.346-.671-.262-3.344-1.131-6.125-2.156-.181-.036-.398-.083-.628-.107zm94.172.977c.167-.012.322.012.464.071.298.119.56.357.798.738.31.488 4.538 9.921 4.478 10.421-.048.512-.31.881-.774 1.072l-6.539 2.846-3.835-8.825c-.238-.584-.822-1.918-1.489-3.43l6.396-2.775c.179-.071.345-.107.5-.119zm-83.773 2.584c-1.161.095-1.665 1-2.004 2.096l-.754 3.406h.02l-.344 1.405s1.397-1.06 2.931-.822l8.713 1.906-14.586 12.291-.888 4.121 19.012 4.18c1.215.274 2.06.31 2.489-.917l1.37-6.288s-1.417 1.382-2.989 1.12l-9.218-2.037 14.923-11.41 1.084-4.859s-18.949-4.157-19.223-4.18c-.191-.024-.369-.024-.535-.012zm61.56.179c-.715 0-1.56.083-2.537.262l-18.126 3.406s2.287.858 2.68 2.584l4.026 22.129 5.049-.941c1-.179 1.727-.393 1.918-1.167l-1.358-7.491 3.525-.703 6.11 7.42 9.04-1.679s-1.56-.381-2.43-1.215l-5.502-6.086c1.274-.298 2.311-1 2.692-1.632.619-1.036.643-3.013.107-5.919 0 0-1.036-5.086-1.239-5.884-.393-1.524-1.251-2.453-2.191-2.799-.453-.191-1.036-.286-1.763-.286zm-33.907 3.787c-1.048.012-1.667.262-2.12 1.048l-6.67 22.081c-.417 1.393-3.204 2.477-3.204 2.477h9.147c.822 0 1.417-.56 1.655-1.322l.905-3.144h6.979l1.024 2.43c.453 1.596-.989 2.037-.989 2.037h10.064l-11.577-25.607h-5.217zm30.881 2.906c.464.071.822.441 1.036 1.084.191.524.464 2.382.298 2.87-.155.476-.488.762-1 .858l-4.18.834c-.953.179-1.644 1.167-2.215 2.358l-1.239-6.693 6.777-1.31c.191-.024.357-.036.524 0zm-28.226 8.23 1.453 3.871h-2.561z" fill="#fff"/><path d="m279.539 110.062c-6.52-.006-12.858.701-18.982 2.021 4.509 2.332 9.011 6.611 11.872 14.417l7.088-10.438 7.098 10.438c2.848-7.779 7.339-12.064 11.842-14.396-6.097-1.319-12.426-2.034-18.918-2.041zm-28.352 4.576c-26.293 8.764-47.144 29.406-56.189 55.571 12.04-18.084 35.584-38.637 71.58-42.703-3.17-7.598-9.601-11.178-15.39-12.867v-.001zm56.576.021c-5.762 1.702-12.156 5.282-15.306 12.846 35.712 4.034 59.185 24.299 71.307 42.276-9.12-25.945-29.87-46.399-56.002-55.123v.001z" fill="#e31837"/><path d="m310.211 137.966c-3.218.07-4.732 1.13-4.732 1.13l-10.417 5.832.535 1.937 2.272 8.249s4.276 11.888 14.448 22.06c19.21 18.989 43.735 46.774 41.249 72.175 9.341-13.836 14.88-30.437 15.201-48.305-1.555-9.013-4.446-16.957-8.051-23.891-6.701-12.865-19.652-25.005-35.565-34.393-6.797-3.943-11.72-4.865-14.939-4.795zm-61.392.01c-3.219-.068-8.134.841-14.93 4.784-15.915 9.381-28.863 21.525-35.564 34.404-3.706 7.135-6.656 15.337-8.178 24.677.476 17.667 6.048 34.058 15.349 47.739-2.653-25.462 21.955-53.357 41.219-72.406 10.177-10.164 14.458-22.06 14.458-22.06l2.271-8.26.535-1.927-10.417-5.832s-1.523-1.051-4.742-1.12zm30.697 18.824c-1.032.737-34.01 24.473-48.537 47.97-19.606 31.713-17.06 50.001-11.987 60.44 12.636 11.617 28.628 19.642 46.357 22.456l7.643-108.325 6.366-6.397.083-.085h.01l.073.085 6.376 6.397 7.695 108.242-.104.054c17.862-2.822 33.97-10.914 46.661-22.667 4.993-10.48 7.356-28.727-12.103-60.199-14.527-23.5-47.496-47.234-48.536-47.971l.001.001z" fill="#002b5c"/><path d="m279.509 123.001-1.047 2.116-2.074 4.229h-.01l-.083.179-.083.177-1.121 2.283-.094.198-.021.033-2.784.177c-3.947.249-7.863.792-11.736 1.456-1.718.293-3.452.546-5.15.92l5.475 2.953 5.475 2.953 1.696.911 1.696.91-1.026 3.717-.063.21-.46 1.717-3.057 11.077 6.951-5.119 4.701-3.477 1.392-1.026 1.383-1.026v-.052l.042.031.042-.031v.052l1.392 1.026 1.392 1.026 11.643 8.596-3.047-11.077-.262-.963-.262-.963-1.026-3.717 1.099-.587 2.283-1.234 7.402-3.979 3.56-1.927c-1.702-.375-3.44-.627-5.162-.922-3.879-.663-7.773-1.208-11.726-1.455l-2.795-.179-.052-.115-.063-.115-1.121-2.283-.063-.135-3.236-6.565h.001zm.021 49.95.073 122.596 13.882-7.914.104-.054-7.695-108.242z" fill="#c4ced4"/></svg>