<svg clip-rule="evenodd" fill-rule="evenodd" stroke-linejoin="round" stroke-miterlimit="1.41421" viewBox="0 0 560 400" xmlns="http://www.w3.org/2000/svg"><g fill-rule="nonzero" transform="matrix(1.01035 0 0 1.01035 180 67.6641)"><path d="m64.467 224.04c0-2.64.72-4.44 2.4-5.52.914-.637 2.005-.973 3.12-.96.969-.026 1.927.223 2.76.72.747.432 1.368 1.053 1.8 1.8.84 1.68 1.08 3.84 1.08 7.44v22.44c-.12 2.4-.24 5.04-2.4 6.6-.875.725-1.984 1.109-3.12 1.08-2.165.128-4.189-1.125-5.04-3.12-.424-1.644-.586-3.345-.48-5.04zm12-8.88c-1.878-1.252-4.104-1.882-6.36-1.8h-.24c-4.44 0-8.04 2.28-9.24 6-.463 1.563-.745 3.173-.84 4.8v26.64c.12 2.52.24 5.4 2.28 8.04 2.28 2.76 6.12 3.12 7.68 3.12 5.64 0 7.92-3 8.64-4.32 1.32-2.04 1.44-4.08 1.56-6.48v-25.32c.12-3.72.12-8.04-3.48-10.68z"/><path d="m87.387 224.04c0-2.64.72-4.44 2.28-5.52.933-.584 2.02-.876 3.12-.84 1.013-.084 2.026.169 2.88.72.747.432 1.368 1.053 1.8 1.8.84 1.56.96 3.84.96 7.44v22.32c0 2.52-.12 5.16-2.28 6.72-.888.689-1.998 1.03-3.12.96-2.164.136-4.208-1.052-5.16-3-.424-1.644-.586-3.345-.48-5.04zm11.88-8.88c-1.834-1.252-4.021-1.883-6.24-1.8h-.24c-4.56 0-8.04 2.28-9.36 6-.432 1.565-.674 3.177-.72 4.8v26.64c.12 2.64.12 5.52 2.16 8.16 2.4 2.76 6.12 3 7.8 3 5.52 0 7.92-3 8.64-4.32 1.32-2.04 1.44-4.08 1.56-6.36v-25.44c0-3.72 0-8.04-3.6-10.68z"/><path d="m16.587 261.6c-.48 0-.72-.36-.72-.84v-45.96c-.022-.425.297-.797.72-.84h9.36c2.197-.13 4.345.703 5.88 2.28 1.44 1.56 1.56 3.72 1.68 5.64v6.96c.029 1.091-.093 2.181-.36 3.24-.467 1.492-1.502 2.742-2.88 3.48.878.279 1.694.728 2.4 1.32 2.52 2.04 2.52 4.92 2.52 7.56v7.92c0 2.64-.36 5.04-2.52 7.08-1.821 1.49-4.129 2.259-6.48 2.16zm164.88-47.76h.011c.33 0 .601.271.601.601 0 .04-.004.08-.012.119v46.08c-.039.425-.414.747-.84.72h-4.8c-.325.042-.634-.164-.72-.48l-9.24-37.32v4.44l.24 32.64c0 .24-.12.36-.24.6-.12.12-.24.12-.48.12h-3.12c-.01 0-.019.001-.029.001-.379 0-.692-.313-.692-.692 0-.01.001-.019.001-.029v-46.08c.026-.384.335-.694.72-.72h4.8c.321.021.579.279.6.6l9.6 38.04v-1.56c0-.96-.12-1.8-.12-2.76l-.24-33.6c.03-.18.114-.348.24-.48.115-.148.292-.236.48-.24zm-21.24 0c.309.036.601.161.84.36.12.182.12.418 0 .6l-9.36 25.56v20.28c0 .01.001.019.001.029 0 .379-.313.692-.692.692-.01 0-.019-.001-.029-.001h-3.12c-.425.022-.797-.297-.84-.72v-20.28l-9-25.56c-.019-.207.023-.416.12-.6.114-.225.348-.365.6-.36h3.36c.325-.042.634.164.72.48l6.6 19.68 6.6-19.68c.127-.285.408-.472.72-.48zm-112.8 0c2.4.12 4.8.12 6.96 1.8 2.64 2.16 2.64 5.28 2.76 6.6v7.56c.022 1.051-.099 2.101-.36 3.12-.618 2.448-2.422 4.432-4.8 5.28-.36.12-.6.24-.96.36l8.04 21.6c.12.12.12.24.12.48-.026.384-.335.694-.72.72h-3.36c-.317.01-.607-.184-.72-.48l-8.16-21.96h-3.84v21.72c0 .01.001.019.001.029 0 .379-.313.692-.692.692-.01 0-.019-.001-.029-.001h-3.24c-.36-.038-.628-.359-.6-.72v-46.08c-.028-.361.24-.682.6-.72zm83.64 0c.385.026.694.336.72.72v42.48h11.28c.385.026.694.336.72.72v2.88c-.026.384-.335.694-.72.72h-15.24c-.384-.026-.694-.336-.72-.72v-46.08c.026-.384.335-.694.72-.72zm-21.72-.36c.01 0 .019-.001.029-.001.379 0 .692.313.692.692 0 .01-.001.019-.001.029v19.56l10.2-19.8c.114-.225.348-.365.6-.36h3.6c.252-.005.485.135.6.36.12.182.12.418 0 .6l-9.6 18.12 9.72 27.12c0 .12.12.24.12.36.022.425-.297.797-.72.84h-3.48c-.301-.041-.567-.218-.72-.48l-7.8-22.32-2.52 4.8v17.28c-.039.425-.414.747-.84.72h-3.12c-.01 0-.019.001-.029.001-.379 0-.692-.313-.692-.692 0-.01.001-.019.001-.029v-46.08c.026-.384.335-.694.72-.72zm-86.28 24.48h-2.52v19.2h4.68c2.28-.12 3.12-.36 3.84-.96 1.2-.96 1.44-2.4 1.44-5.52v-6.48c-.001-1.011-.122-2.018-.36-3-1.08-2.76-3.84-3.12-7.08-3.24zm19.32-19.92v16.8h5.16c.865.031 1.727-.133 2.52-.48 2.28-.72 2.28-2.76 2.28-3.72v-7.2c-.12-1.92-.12-3.96-1.68-4.8-.937-.439-1.966-.645-3-.6zm-18.36 0h-3.6v15.72h2.4c1.011.003 2.018-.118 3-.36 3-.96 3.12-3.6 3.12-5.04v-6c-.064-.807-.185-1.609-.36-2.4-.6-1.8-2.64-1.8-4.56-1.92z"/><path d="m197.907 27.36v-5.76l-2.28-1.2c-1.68-.84-40.92-20.4-95.4-20.4h-2.52c-54.48 0-93.72 19.56-95.28 20.4l-2.4 1.2v5.64c-.36 23.16 2.4 82.08 38.4 127.8 29.16 37.2 56.64 45.72 59.64 46.56l1.2.36 1.2-.24c1.2-.36 29.16-8.52 59.16-46.56 35.88-45.72 38.76-104.64 38.28-127.8z"/><g fill="#fff"><path d="m99.267 195.84c-2.28-.6-28.2-8.64-56.28-44.28-36.84-46.92-36.96-108.24-36.72-122.76v-3.12h.002c.065 0 .118-.053.118-.118 0 0 0-.001 0-.002v-.12l.84-.36c2.04-.84 6.36-2.76 12.72-5.04 24.997-9.108 51.395-13.778 78-13.8h2.52c26.485.051 52.759 4.722 77.64 13.8 6.36 2.28 10.8 4.2 12.72 5.04l.84.36v.12l.12.12v3.12c.36 14.52.24 75.84-36.72 122.76-28.08 35.64-53.64 43.68-55.8 44.28zm57.6-42.72c35.28-44.76 38.04-102.48 37.56-125.16v-4.2l-.72-.36c-1.56-.84-40.08-19.92-93.48-19.92h-2.64c-53.4 0-91.8 19.08-93.48 19.92l-.72.36v3.96c-.48 22.8 2.28 80.52 37.56 125.28 28.44 36.24 54.84 44.64 57.84 45.36l.36.12.36-.12c1.32-.24 28.08-8.16 57.36-45.24z"/><path d="m167.187 54.6c-13.08-13.56-14.52-15.72-14.52-21.36 0-5.52 2.4-6.24 4.8-6.24 1.505.041 2.999.283 4.44.72 9.48 2.76 9.48 7.92 9.48 11.76v5.52c0 .408.234.781.6.96 2.4.72 3.48 1.2 5.88 2.04.302.209.718.157.96-.12.308-.164.495-.491.48-.84v-4.56c0-5.76 0-15.48-16.92-20.4-11.88-3.36-18 .24-18 10.56 0 8.52 5.28 13.56 14.04 22.08l1.68 1.68c10.32 10.2 12.36 13.44 12.36 19.8 0 2.4-.36 3.96-1.08 4.92-.72 1.08-1.8 1.44-3.6 1.44-1.751-.04-3.487-.323-5.16-.84-4.56-1.32-7.8-3.12-9.84-5.28-2.4-2.64-2.4-4.92-2.4-9.48v-4.8c0-.48-.24-.96-.72-.96-2.64-.6-3.84-.84-6.24-1.32-.302-.094-.633 0-.84.24-.191.244-.315.534-.36.84v8.64c0 8.04 6.72 14.28 19.2 17.88 2.988.967 6.1 1.493 9.24 1.56 9.72 0 9.72-8.04 9.72-11.4.12-8.88-4.44-14.04-13.2-23.04zm-26.4-36.84c-12.515-2.274-25.201-3.478-37.92-3.6-.067-.016-.135-.023-.204-.023-.493 0-.899.406-.899.899 0 .069.007.137.023.204v3.84c.039.577.503 1.041 1.08 1.08 5.88 0 9 .24 14.64.6v56.88c-.018.555.407 1.032.96 1.08 2.52.24 3.72.24 6.24.6h.12c.252.005.485-.135.6-.36.254-.145.396-.43.36-.72v-56.64c5.64.6 8.88 1.08 14.76 2.16.301.034.603-.052.84-.24.237-.214.369-.521.36-.84v-3.84c-.108-.503-.473-.914-.96-1.08zm-44.28-3.48c-10.699.12-21.372 1.083-31.92 2.88-.005 0-.009 0-.014 0-.519 0-.946.427-.946.946v.014 61.68c.045.271.17.522.36.72.219.133.465.215.72.24h.12c10.437-1.698 20.986-2.621 31.56-2.76.551-.051.974-.527.96-1.08v-3.84c-.018-.279-.148-.538-.36-.72-.145-.254-.43-.396-.72-.36-8.189.104-16.364.705-24.48 1.8v-24.36c6.644-.932 13.334-1.493 20.04-1.68.027.002.054.004.081.004.484 0 .883-.399.883-.884 0-.026-.002-.053-.004-.08v-3.84c-.025-.255-.107-.501-.24-.72-.191-.184-.456-.273-.72-.24-6.704.148-13.394.669-20.04 1.56v-21.6c8.151-1.15 16.369-1.751 24.6-1.8.033.003.067.005.1.005.532 0 .972-.433.98-.965v-3.84c.036-.29-.106-.575-.36-.72-.115-.225-.348-.365-.6-.36zm-40.92 4.44c-2.4.48-3.6.72-6 1.32-.488.046-.859.471-.84.96l.48 44.76c0 3 .12 5.76.24 8.28-6-15.6-12.36-31.68-18.84-47.88-.203-.46-.71-.714-1.2-.6-3.6 1.2-5.4 1.8-8.88 3.24-.417.136-.706.521-.72.96v61.68c.008.312.195.593.48.72.12.24.36.24.6.24.132.016.264-.028.36-.12 2.16-.84 3.36-1.2 5.52-2.04.444-.095.754-.507.72-.96-.12-14.52-.12-29.16-.24-43.68 0-3.84 0-6-.12-8.76 6.24 16.2 12.48 31.92 18.36 46.92.104.391.461.665.866.665.114 0 .228-.022.334-.065 3.72-.84 5.64-1.32 9.36-2.04.469-.083.82-.484.84-.96v-61.68c-.014-.314-.142-.613-.36-.84-.294-.157-.636-.2-.96-.12z"/><path d="m133.587 158.28c-.6.48-1.2.84-1.92 1.32-1.68 1.2-3.48 2.16-5.16 3.24-.813.563-1.654 1.084-2.52 1.56-6.12 3.84-13.56 8.04-21.36 10.44-2.127.649-4.291 1.17-6.48 1.56-1.821.333-3.669.494-5.52.48h-.36c-2.253-.016-4.5-.216-6.72-.6 8.531 2.966 17.736 3.424 26.52 1.32 5.077-1.262 9.905-3.372 14.28-6.24 4.278-3.478 7.551-8.035 9.48-13.2-.12 0-.24 0-.24.12zm-41.76 16.32c5.029-.595 9.909-2.1 14.4-4.44.758-.328 1.481-.73 2.16-1.2.6-.24 1.2-.6 1.8-.84 4.2-2.16 8.64-4.56 14.04-7.56 2.04-.96 3.84-2.04 5.76-3.12l2.16-1.2c.84-.48 1.68-.84 2.4-1.32.12-.12.12-.12.24-.12.732-2.71 1.214-5.482 1.44-8.28-5.4 2.64-13.44 5.04-25.2 7.44-15 3-29.76 1.68-42.96-3.96-8.88-3.72-13.08-8.88-14.76-11.64.233 2.021.594 4.025 1.08 6 2.874 11.046 9.71 20.659 19.2 27v-.12l1.2.72c1.258.696 2.585 1.259 3.96 1.68 2.818.76 5.721 1.163 8.64 1.2 1.44 0 2.88-.12 4.44-.24zm47.04-19.44c-.12-.12-.12-.12-.24-.12-.384.028-.756.152-1.08.36-.12.12-.24.24-.36.24-.12.12-.24.12-.36.24-1.117 3.015-2.609 5.877-4.44 8.52 2.576-2.661 4.795-5.646 6.6-8.88h-.12zm1.8-11.4c-.24.24-.36.24-.48.48-.258.132-.499.293-.72.48-.258 2.891-.821 5.747-1.68 8.52 1.44-.48 2.04.12 2.16.48 0 .12 0 .12.12.12 2.415-4.683 3.96-9.765 4.56-15-.85 1.968-2.219 3.669-3.96 4.92zm-1.2-2.4c.12-.12.24-.12.36-.24 2.475-1.939 4.246-4.638 5.04-7.68.002-3.727-.482-7.438-1.44-11.04-.004-.188-.092-.364-.24-.48-.449 3.613-2.199 6.942-4.92 9.36.813 3.298 1.216 6.683 1.2 10.08zm-68.76 5.52c10.92 3.6 16.92 4.68 24.84 4.68 2.88 0 6.24-.12 10.32-.48 11.64-.96 23.88-4.8 30.48-8.04-.022-3.223-.344-6.437-.96-9.6-2.068 1.213-4.445 1.797-6.84 1.68-2.76 0-6-.48-11.4-1.8-6.36-1.56-15.36-6.96-23.4-11.64-4.32-2.64-8.52-5.04-11.88-6.72-13.08-6.48-20.52-5.52-22.44-5.16-4.743 7.908-6.962 17.078-6.36 26.28.96 1.2 5.4 6.72 17.64 10.8zm6.72-37.32c5.58 2.474 11.028 5.238 16.32 8.28 9.72 5.16 19.68 10.56 26.52 12.24 6 1.56 10.92 1.32 14.4-.36v-.24c-.12-.24-.12-.48-.24-.72-2.88-12.36-18.36-39.48-45.24-39.48-1.08 0-2.16.12-3.36.12-10.029 2.846-18.767 9.082-24.72 17.64 1.288-.372 2.619-.574 3.96-.6 3.48.12 7.56 1.2 12.36 3.12zm60 18.24c.603-.743 1.126-1.547 1.56-2.4 3.24-6.24.48-13.2-.84-15.6-9.171-15.009-26.17-23.508-43.68-21.84 18.36.96 36.12 17.4 42.96 39.84z"/><path d="m117.027 142.56c0-3.36 0-8.28-3.96-12.12.48-.74.844-1.55 1.08-2.4.557-1.826.801-3.733.72-5.64v-9.36c-.12-3.48-.6-7.08-3.48-10.2-2.52-2.88-6.36-4.44-10.92-4.44h-12.48c-1.393.029-2.723.587-3.72 1.56-.937.962-1.455 2.257-1.44 3.6l.12 60.48c-.04 1.828.93 3.537 2.52 4.44.825.528 1.78.819 2.76.84h12.72c4.16.148 8.228-1.265 11.4-3.96h.12c4.2-3.72 4.56-8.16 4.68-12.36v-.12z"/></g><path d="m100.227 127.68c-.96.36-1.56.36-3.84.48h-2.4c-.36 0-.48-.12-.48-.48v-19.44c-.001-.014-.002-.028-.002-.042 0-.242.198-.44.439-.44.015 0 .029.001.043.002h3.84c1.683-.115 3.37.173 4.92.84.521.335.904.846 1.08 1.44.305 1.054.466 2.143.48 3.24v8.16c-.12 1.8-.24 5.04-4.08 6.24zm4.44 31.32c-.96.72-2.16 1.08-5.04 1.2h-5.4c-.36-.038-.628-.359-.6-.72v-24.12c0-.12 0-.36.36-.36h2.52c2.64.12 5.4.24 7.2 1.44 1.028.63 1.795 1.611 2.16 2.76.344 1.25.505 2.544.48 3.84v8.88c.12 3.96-.12 5.88-1.68 7.08zm9.12-15.96c0-3.48 0-7.56-3.48-10.44-.791-.658-1.682-1.185-2.64-1.56 1.609-1.09 2.795-2.701 3.36-4.56.445-1.478.647-3.018.6-4.56v-9.6c-.12-2.64-.36-5.76-2.64-8.16-1.8-2.04-4.8-3.12-8.4-3.12h-13.08c-.411.001-.803.176-1.08.48-.242.307-.37.689-.36 1.08v63c.04.523.302 1.004.72 1.32.255.15.544.233.84.24h13.2c3.395.133 6.724-.976 9.36-3.12 3.12-2.88 3.48-6.24 3.6-10.08z"/></g></svg>