<svg clip-rule="evenodd" fill-rule="evenodd" viewBox="0 0 560 400" xmlns="http://www.w3.org/2000/svg"><path d="m233.336 322.652c2.296 2.659 6.768 6.647 10.031 8.097 2.575 1.3 5.466 1.845 8.339 1.571 2.417-.242 1.934.725 0 1.088-1.813.242-6.163.242-8.943-1.208-2.78-1.571-7.372-4.351-10.151-8.459-.604-.967 0-1.934.725-1.088zm167.981-130.759c.086-61.7-46.935-114.126-108.281-120.729-.647-.658-1.379-1.227-2.175-1.692-9.789-6.284-17.765-1.571-23.445 1.088-.471.266-.955.508-1.45.725-10.394 1.164-20.592 3.683-30.333 7.493-1.191-1.683-2.526-3.26-3.988-4.713-5.813-5.853-13.746-9.122-21.995-9.064h-.01c-17.033 0-31.048 14.016-31.048 31.048v.01c-.026 7.086 2.41 13.965 6.888 19.457-38.793 48.12-35.07 118.539 8.58 162.301 11.064 10.998 24.101 19.813 38.43 25.983-.725 6.405.242 10.756 1.45 12.448-1.813 1.571-2.538 2.417-2.78 4.23-2.78 3.867 3.988 8.701 6.888 10.876 5.801 4.471 8.822 3.625 13.293 3.505 5.559-.242 10.756-6.768 13.777-10.997 6.042-.846 7.13.121 7.372.846 2.746-.418 5.427-1.19 7.976-2.296 8.097-3.384 5.922-7.614 5.076-8.339-.23-.261-.432-.544-.604-.846 18.997-.722 37.553-5.941 54.141-15.227.659.691 1.228 1.462 1.692 2.296 1.813 2.659 2.78 11.118 3.142 15.59.363 4.351 1.088 7.372 3.263 14.26 2.175 7.009 3.021 1.934 3.021 0 .121-1.813.483-8.58.242-13.414-.363-4.955-.483-11.964.483-14.985.846-3.021-.725-3.746-1.208-4.351-.483-.483 0-.725-1.208-4.592-.099-.229-.14-.477-.121-.725 6.234-4.289 12.06-9.143 17.402-14.502 22.86-22.621 35.674-53.522 35.53-85.682z" fill="#fff"/><path d="m401.317 191.893c.086-61.7-46.935-114.126-108.281-120.729-.647-.658-1.379-1.227-2.175-1.692-9.789-6.284-17.765-1.571-23.445 1.088-.471.266-.955.508-1.45.725-10.394 1.164-20.592 3.683-30.333 7.493-1.191-1.683-2.526-3.26-3.988-4.713-5.813-5.853-13.746-9.122-21.995-9.064h-.01c-17.033 0-31.048 14.016-31.048 31.048v.01c-.026 7.086 2.41 13.965 6.888 19.457-38.793 48.12-35.07 118.539 8.58 162.301 11.064 10.998 24.101 19.813 38.43 25.983-.725 6.405.242 10.756 1.45 12.448-1.813 1.571-2.538 2.417-2.78 4.23-2.78 3.867 3.988 8.701 6.888 10.876 5.801 4.471 8.822 3.625 13.293 3.505 5.559-.242 10.756-6.768 13.777-10.997 6.042-.846 7.13.121 7.372.846 2.746-.418 5.427-1.19 7.976-2.296 8.097-3.384 5.922-7.614 5.076-8.339-.23-.261-.432-.544-.604-.846 18.997-.722 37.553-5.941 54.141-15.227.659.691 1.228 1.462 1.692 2.296 1.813 2.659 2.78 11.118 3.142 15.59.363 4.351 1.088 7.372 3.263 14.26 2.175 7.009 3.021 1.934 3.021 0 .121-1.813.483-8.58.242-13.414-.363-4.955-.483-11.964.483-14.985.846-3.021-.725-3.746-1.208-4.351-.483-.483 0-.725-1.208-4.592-.099-.229-.14-.477-.121-.725 6.234-4.289 12.06-9.143 17.402-14.502 22.86-22.621 35.674-53.522 35.53-85.682z" fill="none" stroke="#fff" stroke-width="1.45008"/><path d="m401.317 191.893c.086-61.7-46.935-114.126-108.281-120.729-.647-.658-1.379-1.227-2.175-1.692-9.789-6.284-17.765-1.571-23.445 1.088-.471.266-.955.508-1.45.725-10.394 1.164-20.592 3.683-30.333 7.493-1.191-1.683-2.526-3.26-3.988-4.713-5.813-5.853-13.746-9.122-21.995-9.064h-.01c-17.033 0-31.048 14.016-31.048 31.048v.01c-.026 7.086 2.41 13.965 6.888 19.457-38.793 48.12-35.07 118.539 8.58 162.301 11.064 10.998 24.101 19.813 38.43 25.983-.725 6.405.242 10.756 1.45 12.448-1.813 1.571-2.538 2.417-2.78 4.23-2.78 3.867 3.988 8.701 6.888 10.876 5.801 4.471 8.822 3.625 13.293 3.505 5.559-.242 10.756-6.768 13.777-10.997 6.042-.846 7.13.121 7.372.846 2.746-.418 5.427-1.19 7.976-2.296 8.097-3.384 5.922-7.614 5.076-8.339-.23-.261-.432-.544-.604-.846 18.997-.722 37.553-5.941 54.141-15.227.659.691 1.228 1.462 1.692 2.296 1.813 2.659 2.78 11.118 3.142 15.59.363 4.351 1.088 7.372 3.263 14.26 2.175 7.009 3.021 1.934 3.021 0 .121-1.813.483-8.58.242-13.414-.363-4.955-.483-11.964.483-14.985.846-3.021-.725-3.746-1.208-4.351-.483-.483 0-.725-1.208-4.592-.099-.229-.14-.477-.121-.725 6.234-4.289 12.06-9.143 17.402-14.502 22.86-22.621 35.674-53.522 35.53-85.682z"/><path d="m251.222 305.25c4.664-.336 9.258-1.313 13.656-2.9.363.121.967.483 1.934.846.363-3.021-1.571-9.185-2.659-12.085-.604-1.813-1.329-3.142-2.175-5.076-2.746-.653-5.419-1.583-7.976-2.78 0 1.813.363 6.405.725 9.426-1.283.161-2.574.242-3.867.242.355 4.099.476 8.215.363 12.327z" fill="#008248"/><path d="m251.222 305.25c4.664-.336 9.258-1.313 13.656-2.9.363.121.967.483 1.934.846.363-3.021-1.571-9.185-2.659-12.085-.604-1.813-1.329-3.142-2.175-5.076-2.746-.653-5.419-1.583-7.976-2.78 0 1.813.363 6.405.725 9.426-1.283.161-2.574.242-3.867.242.355 4.099.476 8.215.363 12.327z" fill="none" stroke="#008248" stroke-width=".36252"/><path d="m336.179 295.219c-.846-.846 1.088-3.505 1.934-8.339.846-4.955.846-13.052-2.659-17.765-1.222-1.355-2.202-2.907-2.9-4.592-11.06 8.062-23.846 13.44-37.343 15.71-.181.27-.342.553-.483.846-2.381 3.031-5.287 5.61-8.58 7.614-2.521 1.308-5.149 2.4-7.855 3.263-.363 3.021-.846 9.668-.121 11.964.363.846 3.746 2.9 4.955 5.076.242.242.242.483.363.725 18.581-.468 36.78-5.402 53.053-14.381-.242 0-.242 0-.363-.121z" fill="#008248"/><path d="m336.179 295.219c-.846-.846 1.088-3.505 1.934-8.339.846-4.955.846-13.052-2.659-17.765-1.222-1.355-2.202-2.907-2.9-4.592-11.06 8.062-23.846 13.44-37.343 15.71-.181.27-.342.553-.483.846-2.381 3.031-5.287 5.61-8.58 7.614-2.521 1.308-5.149 2.4-7.855 3.263-.363 3.021-.846 9.668-.121 11.964.363.846 3.746 2.9 4.955 5.076.242.242.242.483.363.725 18.581-.468 36.78-5.402 53.053-14.381-.242 0-.242 0-.363-.121z" fill="none" stroke="#008248" stroke-width=".36252"/><path d="m363.37 108.386c-18.211-18.273-41.975-30.006-67.555-33.354 2.054 3.988 2.296 8.58 2.538 11.602 3.625-1.571 6.526-2.417 7.976-4.955 1.571-2.417 3.625-1.934 4.955-.121 1.208 1.813 1.208 3.988-2.175 6.163-2.228 1.333-4.528 2.544-6.888 3.625-.725.363 0 .967.846 2.417.846 1.329 3.021 4.834 3.384 12.206v.242c13.937 4.246 26.604 11.887 36.859 22.236 26.981 26.894 33.992 68.187 17.402 102.48.725.363 1.813 3.142 2.175 6.768.255 1.779.131 3.59-.363 5.317-.604 1.208-5.076 7.855-7.251 9.91-1.14.818-2.74.604-3.625-.483-.846-1.208-.967-.604-1.692 0-.604.725-2.78 3.988-3.384 4.834s-2.417 1.571-1.208 5.076c1.208 3.384 2.659 5.801 2.175 7.734-.483 1.934-.725 2.417 1.813 4.592 2.659 2.175 2.417 4.713 1.329 6.526-1.155 2.104-1.933 4.395-2.296 6.768 31.062-22.128 49.548-57.993 49.548-96.131 0-31.288-12.44-61.326-34.563-83.452z" fill="#008248"/><path d="m363.37 108.386c-18.211-18.273-41.975-30.006-67.555-33.354 2.054 3.988 2.296 8.58 2.538 11.602 3.625-1.571 6.526-2.417 7.976-4.955 1.571-2.417 3.625-1.934 4.955-.121 1.208 1.813 1.208 3.988-2.175 6.163-2.228 1.333-4.528 2.544-6.888 3.625-.725.363 0 .967.846 2.417.846 1.329 3.021 4.834 3.384 12.206v.242c13.937 4.246 26.604 11.887 36.859 22.236 26.981 26.894 33.992 68.187 17.402 102.48.725.363 1.813 3.142 2.175 6.768.255 1.779.131 3.59-.363 5.317-.604 1.208-5.076 7.855-7.251 9.91-1.14.818-2.74.604-3.625-.483-.846-1.208-.967-.604-1.692 0-.604.725-2.78 3.988-3.384 4.834s-2.417 1.571-1.208 5.076c1.208 3.384 2.659 5.801 2.175 7.734-.483 1.934-.725 2.417 1.813 4.592 2.659 2.175 2.417 4.713 1.329 6.526-1.155 2.104-1.933 4.395-2.296 6.768 31.062-22.128 49.548-57.993 49.548-96.131 0-31.288-12.44-61.326-34.563-83.452z" fill="none" stroke="#008248" stroke-width=".36252"/><path d="m227.898 279.025c-.363-3.263-.846-8.943 1.45-13.052-4.619-3.101-8.912-6.665-12.81-10.635-16.786-16.801-26.224-39.603-26.224-63.353 0-24.683 10.196-48.302 28.158-65.231.128-.363.334-.693.604-.967-2.986.864-6.077 1.311-9.185 1.329-8.209.034-16.095-3.234-21.874-9.064-37.462 46.679-33.796 114.835 8.459 157.225 10.512 10.495 22.89 18.937 36.497 24.895.631-2.788 1.438-5.532 2.417-8.218 1.088-2.78-.483-9.064-3.142-12.327-1.422-.371-2.882-.573-4.351-.604z" fill="#008248"/><path d="m227.898 279.025c-.363-3.263-.846-8.943 1.45-13.052-4.619-3.101-8.912-6.665-12.81-10.635-16.786-16.801-26.224-39.603-26.224-63.353 0-24.683 10.196-48.302 28.158-65.231.128-.363.334-.693.604-.967-2.986.864-6.077 1.311-9.185 1.329-8.209.034-16.095-3.234-21.874-9.064-37.462 46.679-33.796 114.835 8.459 157.225 10.512 10.495 22.89 18.937 36.497 24.895.631-2.788 1.438-5.532 2.417-8.218 1.088-2.78-.483-9.064-3.142-12.327-1.422-.371-2.882-.573-4.351-.604z" fill="none" stroke="#008248" stroke-width=".36252"/><path d="m259.198 75.756c-7.449 1.217-14.744 3.243-21.753 6.042 2.317 4.395 3.521 9.292 3.505 14.26-.017 6.588-2.088 13.01-5.922 18.369 6.522-3.819 13.508-6.785 20.786-8.822l1.45-1.45c-2.78-4.471-6.405-11.602-3.142-21.511.952-2.758 2.723-5.162 5.076-6.888z" fill="#008248"/><path d="m259.198 75.756c-7.449 1.217-14.744 3.243-21.753 6.042 2.317 4.395 3.521 9.292 3.505 14.26-.017 6.588-2.088 13.01-5.922 18.369 6.522-3.819 13.508-6.785 20.786-8.822l1.45-1.45c-2.78-4.471-6.405-11.602-3.142-21.511.952-2.758 2.723-5.162 5.076-6.888z" fill="none" stroke="#008248" stroke-width=".36252"/><path d="m306.329 111.286c3.596 1.595 5.469 5.655 4.351 9.426-.363 2.175-2.175 4.23-2.417 5.076-.242 1.45-3.142 3.746-4.109 5.68-.846 1.934-1.088 3.505-.846 4.23 2.024 1.688 4.31 3.034 6.768 3.988 1.45.483 1.329.846.725 1.813 1.088.121 1.571.725 2.538 1.934 1.088 1.208 3.867.483 5.438-.363 1.692-.846 3.867-1.208 5.559.846 2.299 2.835 4.134 6.017 5.438 9.426.749 2.421 1.72 4.768 2.9 7.009.363.604-1.329 10.876-1.813 15.106-.483 4.109-.846 5.922-.967 6.526 0 .725 2.659-2.296 2.78 1.208 0 2.9 1.45 11.964 2.9 18.732.286 1.559.69 3.095 1.208 4.592 1.088.121 2.054 2.417 2.78 5.801.604 3.505 1.934 5.68 2.175 7.372 0 1.692.483 1.934 1.088 2.296.483.242.363 1.088-1.329 3.021.47.373.914.776 1.329 1.208.643-.607 1.249-1.253 1.813-1.934s5.197 2.054 6.284 2.417c1.088.363 2.538-2.417 5.801-.846 1.173.658 2.105 1.675 2.659 2.9 5.444-11.565 8.251-24.197 8.218-36.98.094-38.115-24.785-72.089-61.15-83.507 0 1.329-.121 2.538-.121 3.021zm27.191 147.558c-1.329-.604-2.296.363-2.9-4.834-.263-1.664-1.071-3.194-2.296-4.351-.894-1.225-1.078-2.835-.483-4.23.599-2.081.884-4.24.846-6.405-.121-1.934.242-4.23 2.78-5.317-.793-.982-1.332-2.144-1.571-3.384-3.867-1.329-4.713-1.45-5.438-3.263-1.138-3.337-1.948-6.778-2.417-10.272-.242-1.208-.363-2.296-.483-3.384-1.208-2.296-3.988-7.493-6.042-11.36-.725-1.45-1.571-2.78-1.934-3.625-1.934-3.263 0-7.614.846-10.151.967-2.538 1.692-4.713.846-7.372-.473-1.337-.837-2.712-1.088-4.109-.121-1.088-1.088-2.296-2.175 1.208-1.088 3.505-3.263 8.822-4.471 14.26-.793 3.201-1.158 6.493-1.088 9.789.146 2.457.718 4.87 1.692 7.13 2.417 4.955 5.438 9.668 4.955 12.448-.113 1.177-.441 2.324-.967 3.384-.483 5.438-2.78 15.952-3.988 18.973s-6.042 13.898-7.13 18.49c-1.21 5.312-2.826 10.525-4.834 15.59 13.797-2.618 26.768-8.504 37.826-17.161.242-.846.242-1.571-.483-2.054zm-104.414-123.025c1.131 1.437 2.579 2.595 4.23 3.384 4.592 2.417 5.438 4.109 5.438 8.097s.846 12.327 2.054 13.656c.799-.701 1.491-1.516 2.054-2.417 1.208 2.417 3.867 7.009 8.097 9.789.363.121.121 1.208.846 1.45 1.45.363 10.514 1.813 10.756 3.625 1.934-1.934 4.955-6.526 5.438-8.218 1.733-3.369 3.841-6.531 6.284-9.426-.053-.687-.013-1.379.121-2.054-.725.604-1.692 2.054-3.142 2.659-1.571.725-6.768 3.021-10.514 4.834-1.329.604-3.625 1.45-4.592-5.438s0-10.514.604-12.085c.725-1.571 1.934-3.021 4.23-2.296 2.417.725 6.163 2.054 7.13 2.054.121-.725.846-2.175-1.692-2.417-1.813-.242-6.526-1.571-9.064-5.197-1.194-1.659-1.868-3.637-1.934-5.68-5.317.846-17.644 2.417-20.424 3.142-2.659.725-5.076 1.208-5.922-4.955-.363-2.659-.967-6.284.846-4.955 2.012-1.682 4.669-2.391 7.251-1.934.739.149 1.391.583 1.813 1.208.242.846-.242 2.417-.604 3.746-.846 2.538-2.417 4.351 2.659 3.142 5.438-1.208 12.206-2.175 13.898-2.538.242-1.813 1.813-4.713 3.625-6.768 1.087-1.24 1.836-2.738 2.175-4.351 0-.725-.604-.846-1.45 0-1.088.846-4.23 2.78-7.009 2.054-1.208-.363-2.659-2.417-3.263-3.625 1.115-2.102 2.496-4.051 4.109-5.801-10.065 3.199-19.449 8.24-27.675 14.865-.093 2.04.152 4.082.725 6.042.573 2.292 1.556 4.462 2.9 6.405zm6.526 128.1c3.867-1.45 6.888-1.45 9.789 2.659.846 1.088 1.571 4.351 8.822 1.45-3.867-4.592-6.163-10.031-8.218-17.402-3.384-11.481-10.876-24.653-8.097-30.575-1.571-1.571-3.505-7.372-5.438-6.647-1.329.363-3.142.363-1.692-3.988.963-2.601 2.306-5.045 3.988-7.251 2.538-3.505 6.647-7.734 13.173-12.81.483-.483.725-.846.363-1.208-.591-.703-1.283-1.314-2.054-1.813-.604-.363-1.395-.204-1.813.363-.604.483-1.571 1.208-2.054 1.571-.604.363-5.076-3.988-7.372-7.251-1.447-1.964-3.357-3.542-5.559-4.592.846-1.088 3.021-3.263 2.296-3.021-1.45.483-3.867.725-6.405-1.934-3.142-3.263-1.934-4.955-2.659-5.438-.604-.363-3.988.363-6.526-3.625-2.538-3.867-3.505-5.68-1.571-8.459 1.088-1.45 1.45-2.054 1.208-3.867-.363-1.813 0-2.9 2.296-5.076 2.417-2.296 3.746-4.351 4.834-4.109.725.121-1.692-2.9-3.021-5.076-.373-.469-.659-1.002-.846-1.571-.555-1.362-.961-2.781-1.208-4.23-16.398 16.407-25.62 38.678-25.62 61.875 0 23.256 9.269 45.579 25.741 61.996 3.896 3.756 8.056 7.23 12.448 10.393.656-.86 1.677-1.366 2.757-1.366.913 0 1.791.361 2.439 1.003z" fill="#fff"/><path d="m185.842 78.899c7.614 1.934 13.414 8.218 15.952 11.602.725.967 1.329.846 1.571.121 1.054-3.034 1.625-6.215 1.692-9.426 0-7.855 1.088-10.997 3.021-14.623-8.891.529-17.077 5.067-22.236 12.327z" fill="#a63732"/><path d="m185.842 78.899c7.614 1.934 13.414 8.218 15.952 11.602.725.967 1.329.846 1.571.121 1.054-3.034 1.625-6.215 1.692-9.426 0-7.855 1.088-10.997 3.021-14.623-8.891.529-17.077 5.067-22.236 12.327z" fill="none" stroke="#a63732" stroke-width=".36252"/><path d="m181.129 103.068c14.502 1.329 18.973-6.768 19.94-7.976.846-1.208-.121-1.934-.725-2.659-2.417-3.505-8.097-9.668-15.71-11.602-2.85 4.566-4.358 9.844-4.351 15.227.036 2.36.319 4.709.846 7.009z" fill="#a63732"/><path d="m181.129 103.068c14.502 1.329 18.973-6.768 19.94-7.976.846-1.208-.121-1.934-.725-2.659-2.417-3.505-8.097-9.668-15.71-11.602-2.85 4.566-4.358 9.844-4.351 15.227.036 2.36.319 4.709.846 7.009z" fill="none" stroke="#a63732" stroke-width=".36252"/><path d="m238.533 102.464c-6.163-2.538-13.414-.242-18.49 4.351-5.197 4.471-7.855 7.855-9.668 18.611h-.604c-7.345.022-14.431-2.743-19.819-7.734 8.822-2.175 16.194-6.284 24.653-14.139 8.339-7.855 12.448-17.04 13.535-21.39 1.208-4.351-.363-1.813-1.208.121-3.492 7.286-8.331 13.847-14.26 19.336-8.459 7.976-15.106 11.843-24.049 14.865-2.961-3.114-5.226-6.821-6.647-10.876 3.021.242 12.448-.846 17.161-4.713 6.284-5.197 7.009-11.239 7.855-19.819s2.054-11.118 4.109-14.502c15.608.746 28.068 13.742 28.158 29.366.011 2.196-.232 4.386-.725 6.526z" fill="#a63732"/><path d="m238.533 102.464c-6.163-2.538-13.414-.242-18.49 4.351-5.197 4.471-7.855 7.855-9.668 18.611h-.604c-7.345.022-14.431-2.743-19.819-7.734 8.822-2.175 16.194-6.284 24.653-14.139 8.339-7.855 12.448-17.04 13.535-21.39 1.208-4.351-.363-1.813-1.208.121-3.492 7.286-8.331 13.847-14.26 19.336-8.459 7.976-15.106 11.843-24.049 14.865-2.961-3.114-5.226-6.821-6.647-10.876 3.021.242 12.448-.846 17.161-4.713 6.284-5.197 7.009-11.239 7.855-19.819s2.054-11.118 4.109-14.502c15.608.746 28.068 13.742 28.158 29.366.011 2.196-.232 4.386-.725 6.526z" fill="none" stroke="#a63732" stroke-width=".36252"/><path d="m237.687 105.365c-1.45-1.934-6.405-2.9-14.381 2.054-.846.483-1.329.846-.363 1.692 2.511 2.705 4.553 5.809 6.042 9.185 3.99-3.467 6.992-7.929 8.701-12.931z" fill="#a63732"/><path d="m237.687 105.365c-1.45-1.934-6.405-2.9-14.381 2.054-.846.483-1.329.846-.363 1.692 2.511 2.705 4.553 5.809 6.042 9.185 3.99-3.467 6.992-7.929 8.701-12.931z" fill="none" stroke="#a63732" stroke-width=".36252"/><path d="m226.568 120.229c-1.692-4.109-3.021-7.13-4.713-9.185-.725-1.208-.967-1.571-2.538-.242-4.471 3.867-6.163 9.789-7.13 14.502 5.168-.341 10.143-2.098 14.381-5.076z" fill="#a63732"/><path d="m226.568 120.229c-1.692-4.109-3.021-7.13-4.713-9.185-.725-1.208-.967-1.571-2.538-.242-4.471 3.867-6.163 9.789-7.13 14.502 5.168-.341 10.143-2.098 14.381-5.076z" fill="none" stroke="#a63732" stroke-width=".36252"/><path d="m262.823 304.766c.604-.242 1.329-.604 1.813-.363.363.363 2.538 1.934 3.988 3.142s1.813 1.571.725 2.296c-1.088.604-2.175 1.208-1.934.725.286-.736.147-1.572-.363-2.175-1.073-.991-2.202-1.919-3.384-2.78l-.846-.846z" fill="#ba9653"/><path d="m262.823 304.766c.604-.242 1.329-.604 1.813-.363.363.363 2.538 1.934 3.988 3.142s1.813 1.571.725 2.296c-1.088.604-2.175 1.208-1.934.725.286-.736.147-1.572-.363-2.175-1.073-.991-2.202-1.919-3.384-2.78l-.846-.846z" fill="none" stroke="#ba9653" stroke-width=".36252"/><path d="m257.385 306.337c-.232.221-.364.527-.364.846 0 .32.132.625.364.846.604.483 3.746 3.142 4.23 3.625.576.556 1.396.784 2.175.604.846-.242-.967.967-1.692 1.208-.818.209-1.688-.02-2.296-.604-.725-.604-4.955-4.592-5.801-5.438s.242-.846.967-.967c.808.014 1.615-.026 2.417-.121z" fill="#ba9653"/><path d="m257.385 306.337c-.232.221-.364.527-.364.846 0 .32.132.625.364.846.604.483 3.746 3.142 4.23 3.625.576.556 1.396.784 2.175.604.846-.242-.967.967-1.692 1.208-.818.209-1.688-.02-2.296-.604-.725-.604-4.955-4.592-5.801-5.438s.242-.846.967-.967c.808.014 1.615-.026 2.417-.121z" fill="none" stroke="#ba9653" stroke-width=".36252"/><path d="m252.189 282.288c.363.846.363 1.692-.846 1.45-1.329-.121-6.888-.725-8.459-.725-.483 0-.242-.846-.846-.483s-.363 1.208-.363 2.175v2.175c0 .967.604 2.417 3.142 2.538s4.834-.121 5.68-.725c.725-.483-.121-1.329-.846-1.329-.604 0-4.834.363-5.801 0-.846-.242-1.45-1.329-.846-1.813.846-.483 2.296.121 3.625.121 1.45 0 3.021-.363 3.505-.121.363.242.846.121.846 1.934 0 .363.967.483 1.329.483.363 0 .604.725.483 1.692-.121.846.121 1.088-1.692 1.088h-10.031c-.483 0-.483-.363-.483-1.208-.121-.846-.363-6.768-.483-7.251-.121-.483 1.088-.483 2.175-.242 1.239.21 2.491.332 3.746.363 1.571.121 3.988.363 3.988.363s1.208.121 1.329-.242c.363-.363.725-.483.846-.242z" fill="#ba9653"/><path d="m252.189 282.288c.363.846.363 1.692-.846 1.45-1.329-.121-6.888-.725-8.459-.725-.483 0-.242-.846-.846-.483s-.363 1.208-.363 2.175v2.175c0 .967.604 2.417 3.142 2.538s4.834-.121 5.68-.725c.725-.483-.121-1.329-.846-1.329-.604 0-4.834.363-5.801 0-.846-.242-1.45-1.329-.846-1.813.846-.483 2.296.121 3.625.121 1.45 0 3.021-.363 3.505-.121.363.242.846.121.846 1.934 0 .363.967.483 1.329.483.363 0 .604.725.483 1.692-.121.846.121 1.088-1.692 1.088h-10.031c-.483 0-.483-.363-.483-1.208-.121-.846-.363-6.768-.483-7.251-.121-.483 1.088-.483 2.175-.242 1.239.21 2.491.332 3.746.363 1.571.121 3.988.363 3.988.363s1.208.121 1.329-.242c.363-.363.725-.483.846-.242z" fill="none" stroke="#ba9653" stroke-width=".36252"/><path d="m218.471 153.1c-1.208-.363-2.175 1.088-2.659 2.296-.604 1.088-1.208 2.296.483 4.834 1.813 2.538 2.9 4.109 6.042 3.867 1.303-.178 2.481-.876 3.263-1.934.483-.604.483.483-.121 1.692-.725 1.088-1.329 3.746 0 5.438 1.45 1.813 4.351 3.263 8.218 1.088 2.567-1.468 4.695-3.596 6.163-6.163.604-1.208.604-1.813 0-2.659-.725-.725-2.9-4.23-3.263-11.239-.363-4.23.363-7.009-2.175-8.459-2.659-1.571-8.701-5.076-9.426-12.085-.242-2.659-.121-6.647-2.659-4.471-1.769 1.197-2.852 3.181-2.9 5.317-.363 1.571 1.088 3.746 2.175 5.197 1.088 1.571 2.417 4.834 3.505 5.68.967.846 1.571 1.571 2.538 1.571.846.121 4.23.121 5.076.363.846.363 1.208 1.329-.725 1.329-2.23.082-4.451.324-6.647.725-1.45.242-2.78.363-3.505 3.142-.604 2.78-1.571 6.163-1.571 7.13-.121.967-.725 1.571-.725 2.175 0 .483 1.088 3.263 3.625.483 1.773-1.917 3.131-4.18 3.988-6.647.483-1.329 1.088-1.208.604.846-.483 2.054-.604 7.251.363 8.943.967 1.934 3.142 3.867 5.801 2.659.672-.473 1.474-.726 2.296-.725.725.121-.121 1.45-.846 1.934-.604.604-2.78 3.021-6.647-.363-1.321-1.409-2.203-3.173-2.538-5.076-.025-.442-.396-.792-.839-.792-.303 0-.584.164-.732.429-.483.604-3.021 3.021-4.713 1.208-1.813-1.692-2.538-2.659-1.571-6.163.242-.725.604-1.329.121-1.571z" fill="#f9b282"/><path d="m218.471 153.1c-1.208-.363-2.175 1.088-2.659 2.296-.604 1.088-1.208 2.296.483 4.834 1.813 2.538 2.9 4.109 6.042 3.867 1.303-.178 2.481-.876 3.263-1.934.483-.604.483.483-.121 1.692-.725 1.088-1.329 3.746 0 5.438 1.45 1.813 4.351 3.263 8.218 1.088 2.567-1.468 4.695-3.596 6.163-6.163.604-1.208.604-1.813 0-2.659-.725-.725-2.9-4.23-3.263-11.239-.363-4.23.363-7.009-2.175-8.459-2.659-1.571-8.701-5.076-9.426-12.085-.242-2.659-.121-6.647-2.659-4.471-1.769 1.197-2.852 3.181-2.9 5.317-.363 1.571 1.088 3.746 2.175 5.197 1.088 1.571 2.417 4.834 3.505 5.68.967.846 1.571 1.571 2.538 1.571.846.121 4.23.121 5.076.363.846.363 1.208 1.329-.725 1.329-2.23.082-4.451.324-6.647.725-1.45.242-2.78.363-3.505 3.142-.604 2.78-1.571 6.163-1.571 7.13-.121.967-.725 1.571-.725 2.175 0 .483 1.088 3.263 3.625.483 1.773-1.917 3.131-4.18 3.988-6.647.483-1.329 1.088-1.208.604.846-.483 2.054-.604 7.251.363 8.943.967 1.934 3.142 3.867 5.801 2.659.672-.473 1.474-.726 2.296-.725.725.121-.121 1.45-.846 1.934-.604.604-2.78 3.021-6.647-.363-1.321-1.409-2.203-3.173-2.538-5.076-.025-.442-.396-.792-.839-.792-.303 0-.584.164-.732.429-.483.604-3.021 3.021-4.713 1.208-1.813-1.692-2.538-2.659-1.571-6.163.242-.725.604-1.329.121-1.571z" fill="none" stroke="#f9b282" stroke-linecap="round" stroke-width=".36252"/><path d="m220.405 147.904c-.363 1.208-.725 2.78-.967 3.384-.121.483-.967 1.813-1.813.121-.779-1.276-.579-2.935.483-3.988.363-.363.967-1.088 1.329-.725.363.363 1.088.967.967 1.208z" fill="#f9b282"/><path d="m220.405 147.904c-.363 1.208-.725 2.78-.967 3.384-.121.483-.967 1.813-1.813.121-.779-1.276-.579-2.935.483-3.988.363-.363.967-1.088 1.329-.725.363.363 1.088.967.967 1.208z" fill="none" stroke="#f9b282" stroke-linecap="round" stroke-width=".36252"/><path d="m224.635 143.553c-.725.363-2.417.363-3.021 1.692-.363.846-1.934-.121-1.088-1.208.725-.967 1.208-.846 1.813-1.208.363-.242.604-1.088 1.571-.604.846.483.967 1.208.725 1.329z" fill="#f9b282"/><path d="m224.635 143.553c-.725.363-2.417.363-3.021 1.692-.363.846-1.934-.121-1.088-1.208.725-.967 1.208-.846 1.813-1.208.363-.242.604-1.088 1.571-.604.846.483.967 1.208.725 1.329z" fill="none" stroke="#f9b282" stroke-linecap="round" stroke-width=".36252"/><path d="m286.389 97.147c-2.659.242-5.076 1.813-7.493 3.505s-11.239 9.185-13.293 10.635c2.175 1.088 2.78 3.384 2.054 7.009-.242.846 0 1.208.483.604s3.142-3.384 3.142-5.68c-.074-1.388-.534-2.727-1.329-3.867-.121-.363.725-1.45 1.813.846 1.088 2.417.725 5.68-2.296 9.305-3.142 3.625-5.559 3.625-6.888 4.23-1.329.725-2.659 1.692-1.45 3.625 1.208 2.054 3.505 1.208 4.471.604.967-.725 2.296-1.45 5.317-1.208 3.021.363 3.988-1.571 1.934-3.625-.604-.604-2.296-2.175-.242-2.175 1.208 0 2.659 2.78 3.505 3.505s2.78 1.088 5.317 1.208c2.538.121 6.526 1.088 6.526 3.505 0 1.571-.846 2.054-1.934.846-.483-.483-1.088.242-1.45.725-1.692 1.571-5.68 5.922-8.701 6.647-2.9.725-3.988-.121-7.855-2.175s-7.372-4.23-8.459-4.834c-.967-.604-3.142-2.175-2.175.846 1.088 3.021 3.625 6.163 8.58 7.855 5.076 1.571 5.922 2.175 7.009 2.78 1.088.483.483 1.088-1.088.846-1.208-.121-2.659-1.208-1.571 1.208 1.088 2.538 2.78 5.317 7.976 4.592 5.197-.604 5.317-1.692 8.58-7.009.483-.967 1.088-.363.725 2.175 1.756-.825 3.575-1.512 5.438-2.054 3.486-.825 6.418-3.18 7.976-6.405 1.329-2.417 2.054-3.263 1.813-5.801 0-.967 1.329-2.9 2.78-4.23 1.45-1.208 5.317-6.284 3.263-9.789-1.934-3.505-5.317-1.813-6.888.846s-3.384 5.438-3.505 10.031c-1.007-.39-2.16-.038-2.78.846-.242.483-4.351 0-5.801.363s-1.934-.483-.363-2.417c1.45-1.934 6.768-9.185 6.526-14.381-.089-1.061.034-2.129.363-3.142.242-1.571.363-1.571-1.45-2.659-1.329-.725-1.329-2.659-1.571-4.109-.242-1.571-.483-1.571-2.296-1.208-1.45.604-3.625-.725-4.713-2.417z" fill="#f9b282"/><path d="m286.389 97.147c-2.659.242-5.076 1.813-7.493 3.505s-11.239 9.185-13.293 10.635c2.175 1.088 2.78 3.384 2.054 7.009-.242.846 0 1.208.483.604s3.142-3.384 3.142-5.68c-.074-1.388-.534-2.727-1.329-3.867-.121-.363.725-1.45 1.813.846 1.088 2.417.725 5.68-2.296 9.305-3.142 3.625-5.559 3.625-6.888 4.23-1.329.725-2.659 1.692-1.45 3.625 1.208 2.054 3.505 1.208 4.471.604.967-.725 2.296-1.45 5.317-1.208 3.021.363 3.988-1.571 1.934-3.625-.604-.604-2.296-2.175-.242-2.175 1.208 0 2.659 2.78 3.505 3.505s2.78 1.088 5.317 1.208c2.538.121 6.526 1.088 6.526 3.505 0 1.571-.846 2.054-1.934.846-.483-.483-1.088.242-1.45.725-1.692 1.571-5.68 5.922-8.701 6.647-2.9.725-3.988-.121-7.855-2.175s-7.372-4.23-8.459-4.834c-.967-.604-3.142-2.175-2.175.846 1.088 3.021 3.625 6.163 8.58 7.855 5.076 1.571 5.922 2.175 7.009 2.78 1.088.483.483 1.088-1.088.846-1.208-.121-2.659-1.208-1.571 1.208 1.088 2.538 2.78 5.317 7.976 4.592 5.197-.604 5.317-1.692 8.58-7.009.483-.967 1.088-.363.725 2.175 1.756-.825 3.575-1.512 5.438-2.054 3.486-.825 6.418-3.18 7.976-6.405 1.329-2.417 2.054-3.263 1.813-5.801 0-.967 1.329-2.9 2.78-4.23 1.45-1.208 5.317-6.284 3.263-9.789-1.934-3.505-5.317-1.813-6.888.846s-3.384 5.438-3.505 10.031c-1.007-.39-2.16-.038-2.78.846-.242.483-4.351 0-5.801.363s-1.934-.483-.363-2.417c1.45-1.934 6.768-9.185 6.526-14.381-.089-1.061.034-2.129.363-3.142.242-1.571.363-1.571-1.45-2.659-1.329-.725-1.329-2.659-1.571-4.109-.242-1.571-.483-1.571-2.296-1.208-1.45.604-3.625-.725-4.713-2.417z" fill="none" stroke="#f9b282" stroke-width=".36252"/><path d="m275.513 126.513c-.604 1.208-2.054 2.296-5.317 1.813-1.571-.121-3.142-.121-3.505 1.088-.121.967-.846.846-1.934.846-1.088-.121-2.296-.242-2.296.121-.121.363 4.592 3.142 6.163 3.867 1.45.604 3.746 2.417 5.68 2.175 2.417-.242 4.471-1.45 8.097-5.317 1.571-1.571 2.659-2.417 1.329-3.021-1.035-.413-2.152-.579-3.263-.483-1.208 0-3.988-.242-4.955-1.088z" fill="#f9b282"/><path d="m275.513 126.513c-.604 1.208-2.054 2.296-5.317 1.813-1.571-.121-3.142-.121-3.505 1.088-.121.967-.846.846-1.934.846-1.088-.121-2.296-.242-2.296.121-.121.363 4.592 3.142 6.163 3.867 1.45.604 3.746 2.417 5.68 2.175 2.417-.242 4.471-1.45 8.097-5.317 1.571-1.571 2.659-2.417 1.329-3.021-1.035-.413-2.152-.579-3.263-.483-1.208 0-3.988-.242-4.955-1.088z" fill="none" stroke="#f9b282" stroke-width=".36252"/><path d="m257.989 126.513c-1.329 0-1.45-.967-.604-2.417.728-1.312 1.667-2.497 2.78-3.505.216.677.638 1.269 1.208 1.692-1.149.881-1.747 2.309-1.571 3.746l-1.813.483z" fill="#f9b282"/><path d="m257.989 126.513c-1.329 0-1.45-.967-.604-2.417.728-1.312 1.667-2.497 2.78-3.505.216.677.638 1.269 1.208 1.692-1.149.881-1.747 2.309-1.571 3.746l-1.813.483z" fill="none" stroke="#f9b282" stroke-width=".36252"/><path d="m279.017 112.616c.242-1.208.121-2.417-1.934-.725-1.813-1.329-3.384-2.9-3.867-3.263-.34-.125-.567-.451-.567-.814 0-.314.171-.605.446-.757.604-.725 1.813.483 1.571-1.45-.121-.725 1.45-.242 1.813-.483.363-.121-.242-1.088 1.571-.725.483.242.242-.846 1.45-.725 1.088.121 1.571.604 1.813-.242.242-.967.604-1.45 1.934-.604.967.604 1.329.242 1.45-.242 0-.363.967-.121 1.813.363 1.943 1.027 3.667 2.423 5.076 4.109.604.725.846 1.329.483 1.45s-.846 0-.846.725c-.121.846-.483 1.45-.967.604-.483-.846-.483.121-.846-.846-.242-.846-.725.363-.967-.242-.242-.725-.604.121-.846-.483-.242-.363-1.088.363-1.329-.121-.363-.483-.967.483-1.329-.121-.483-.604-.483.725-1.208.363-.846-.242-.483.725-1.208.483-.846-.363-.604.846-1.208.725-.725-.121-.725.121-.846.846-.121.846-.483 3.988-.483 4.592 0 .725 1.571.604 3.988.242 3.094-.41 6.04-1.572 8.58-3.384.846-.604 1.571-.604 1.692-.483.121.242-.242 1.088-.846 1.571-1.609 1.512-3.625 2.521-5.801 2.9-3.625.604-6.647 1.208-7.251 1.088-.604-.121.242.967 1.329.725.604-.242 1.813 2.054 3.746 2.054 1.571 0 3.988-1.813 4.592-2.296.725-.483 3.021-1.571 1.45 0-1.571 1.692-3.263 3.384-4.955 3.505-2.142-.037-4.234-.665-6.042-1.813-1.813-1.208-2.417-1.813-2.175-3.746.33-.901.573-1.832.725-2.78z"/><path d="m279.017 112.616c.242-1.208.121-2.417-1.934-.725-1.813-1.329-3.384-2.9-3.867-3.263-.34-.125-.567-.451-.567-.814 0-.314.171-.605.446-.757.604-.725 1.813.483 1.571-1.45-.121-.725 1.45-.242 1.813-.483.363-.121-.242-1.088 1.571-.725.483.242.242-.846 1.45-.725 1.088.121 1.571.604 1.813-.242.242-.967.604-1.45 1.934-.604.967.604 1.329.242 1.45-.242 0-.363.967-.121 1.813.363 1.943 1.027 3.667 2.423 5.076 4.109.604.725.846 1.329.483 1.45s-.846 0-.846.725c-.121.846-.483 1.45-.967.604-.483-.846-.483.121-.846-.846-.242-.846-.725.363-.967-.242-.242-.725-.604.121-.846-.483-.242-.363-1.088.363-1.329-.121-.363-.483-.967.483-1.329-.121-.483-.604-.483.725-1.208.363-.846-.242-.483.725-1.208.483-.846-.363-.604.846-1.208.725-.725-.121-.725.121-.846.846-.121.846-.483 3.988-.483 4.592 0 .725 1.571.604 3.988.242 3.094-.41 6.04-1.572 8.58-3.384.846-.604 1.571-.604 1.692-.483.121.242-.242 1.088-.846 1.571-1.609 1.512-3.625 2.521-5.801 2.9-3.625.604-6.647 1.208-7.251 1.088-.604-.121.242.967 1.329.725.604-.242 1.813 2.054 3.746 2.054 1.571 0 3.988-1.813 4.592-2.296.725-.483 3.021-1.571 1.45 0-1.571 1.692-3.263 3.384-4.955 3.505-2.142-.037-4.234-.665-6.042-1.813-1.813-1.208-2.417-1.813-2.175-3.746.33-.901.573-1.832.725-2.78z" fill="none" stroke="#f9b282" stroke-width=".36252"/><path d="m306.329 118.658c-1.088.725-1.692 1.088-1.813 2.296 0 1.329-.363 3.625-.846 3.746-.604.242-.483-1.208-.725-.725-.242.725-1.088.363-1.329-.242 0-.242-2.417-.242-.604-2.9 1.813-2.538 3.021-3.746 4.23-4.351 1.208-.604 3.263.604 1.088 2.175z"/><path d="m306.329 118.658c-1.088.725-1.692 1.088-1.813 2.296 0 1.329-.363 3.625-.846 3.746-.604.242-.483-1.208-.725-.725-.242.725-1.088.363-1.329-.242 0-.242-2.417-.242-.604-2.9 1.813-2.538 3.021-3.746 4.23-4.351 1.208-.604 3.263.604 1.088 2.175z" fill="none" stroke="#f9b282" stroke-width=".36252"/><path d="m352.252 230.081c-.483-1.088.363-2.9 2.659-1.571 2.296 1.208 4.109 2.417 2.417 7.614-1.692 5.076-2.9 8.097-3.505 10.272-.725 2.175-3.263 4.955-2.417 1.208.846-3.625 1.329-8.097.967-10.272-.725-4.23.604-3.867.242-5.801-.121-.604-.242-.967-.363-1.45z" fill="#f9b282"/><path d="m352.252 230.081c-.483-1.088.363-2.9 2.659-1.571 2.296 1.208 4.109 2.417 2.417 7.614-1.692 5.076-2.9 8.097-3.505 10.272-.725 2.175-3.263 4.955-2.417 1.208.846-3.625 1.329-8.097.967-10.272-.725-4.23.604-3.867.242-5.801-.121-.604-.242-.967-.363-1.45z" fill="none" stroke="#f9b282" stroke-linecap="round" stroke-width=".36252"/><path d="m361.074 234.553c.725 2.054 1.45 6.647.363 8.58-1.208 1.813-4.592 7.009-5.922 8.339-1.329 1.329-2.296.725-1.45-.604.725-1.45 1.934-3.384 1.934-3.988 0-.725-.121-1.45 1.088-3.505 1.088-2.175 3.021-9.426 3.142-10.031.242-.483.725.725.846 1.208z" fill="#f9b282"/><path d="m361.074 234.553c.725 2.054 1.45 6.647.363 8.58-1.208 1.813-4.592 7.009-5.922 8.339-1.329 1.329-2.296.725-1.45-.604.725-1.45 1.934-3.384 1.934-3.988 0-.725-.121-1.45 1.088-3.505 1.088-2.175 3.021-9.426 3.142-10.031.242-.483.725.725.846 1.208z" fill="none" stroke="#f9b282" stroke-linecap="round" stroke-width=".36252"/><path d="m336.904 251.955c-.483-1.692-.846-4.109-1.813-5.559.846-2.054 3.263-7.614 7.493-9.305.363-.121.725-.604.483-.967-.121-.363.483-.725.846.604.461 1.67.825 3.364 1.088 5.076.043.901-.08 1.802-.363 2.659-.242 1.088-.725 3.625-.363 4.955.242 1.329.725 2.296 3.384 1.692 1.329-.242 1.208-.725 1.571-1.813s1.45-4.351 1.813-6.163c.293-2.415.211-4.861-.242-7.251-.363-1.088.121-4.834-.242-5.559-.242-.846-.363-1.934-2.78-2.659-2.296-.846-3.021-.967-4.592.604s-2.175 2.296-2.9 3.021c-.725.846-2.538.121-.967-1.45l3.505-3.384-.483-1.208h-.846c-2.238 2.204-5.039 3.752-8.097 4.471-.846.121-2.417.363-1.329 1.813.363.363.363 1.45 1.088 1.088.725-.363 1.692-2.054 2.659-1.329.846.846-.121 2.659-1.329 3.384-1.088.846-2.296 1.692-3.142 2.296-.846.363-1.329.846-1.208 2.417.212 2.083-.035 4.186-.725 6.163-.725 2.054-.363 2.659.483 4.109.725 1.329 1.934 2.538 2.296 4.834.363 2.296.483 2.78 2.054 2.659 1.15-.072 2.172-.768 2.659-1.813v-3.384z" fill="#f9b282"/><path d="m336.904 251.955c-.483-1.692-.846-4.109-1.813-5.559.846-2.054 3.263-7.614 7.493-9.305.363-.121.725-.604.483-.967-.121-.363.483-.725.846.604.461 1.67.825 3.364 1.088 5.076.043.901-.08 1.802-.363 2.659-.242 1.088-.725 3.625-.363 4.955.242 1.329.725 2.296 3.384 1.692 1.329-.242 1.208-.725 1.571-1.813s1.45-4.351 1.813-6.163c.293-2.415.211-4.861-.242-7.251-.363-1.088.121-4.834-.242-5.559-.242-.846-.363-1.934-2.78-2.659-2.296-.846-3.021-.967-4.592.604s-2.175 2.296-2.9 3.021c-.725.846-2.538.121-.967-1.45l3.505-3.384-.483-1.208h-.846c-2.238 2.204-5.039 3.752-8.097 4.471-.846.121-2.417.363-1.329 1.813.363.363.363 1.45 1.088 1.088.725-.363 1.692-2.054 2.659-1.329.846.846-.121 2.659-1.329 3.384-1.088.846-2.296 1.692-3.142 2.296-.846.363-1.329.846-1.208 2.417.212 2.083-.035 4.186-.725 6.163-.725 2.054-.363 2.659.483 4.109.725 1.329 1.934 2.538 2.296 4.834.363 2.296.483 2.78 2.054 2.659 1.15-.072 2.172-.768 2.659-1.813v-3.384z" fill="none" stroke="#f9b282" stroke-linecap="round" stroke-width=".36252"/><path d="m337.508 256.306c-.989 1.303-1.615 2.847-1.813 4.471 0 1.571-1.571 3.263-1.45 3.988s2.296 2.78 3.505 4.834c1.919 3.075 2.887 6.65 2.78 10.272-.196 4.445-.844 8.858-1.934 13.173-.121.846-.725 1.692.725 3.021s3.625 3.746 4.592 9.305c.846 5.438 1.45 8.459 1.813 8.701.363.363.242.846.242 1.813 0 1.088.967 7.009 1.571 8.097.725 1.208.604-6.284.483-8.459 0-2.296.121-12.568.483-14.019.363-1.571.725-3.142-.483-5.076-1.329-1.934-3.625-5.076-1.934-10.514 1.692-5.438 4.351-5.438 3.505-7.493-.839-1.831-1.983-3.507-3.384-4.955-1.208-1.208-.242-4.109-.363-5.317-.121-2.296-1.934-2.659-2.054-5.197-.242-2.538-.363-4.592 1.571-7.13 1.813-2.538-.725-2.417-1.571-3.988s-1.208-3.625-.483-7.009c.363-1.692.121-2.175-.363-2.296-.363-.121-2.417-.604-2.417-.604l-2.78 5.922c.378 1.255.581 2.557.604 3.867l-.846 4.592z" fill="#a63732"/><path d="m337.508 256.306c-.989 1.303-1.615 2.847-1.813 4.471 0 1.571-1.571 3.263-1.45 3.988s2.296 2.78 3.505 4.834c1.919 3.075 2.887 6.65 2.78 10.272-.196 4.445-.844 8.858-1.934 13.173-.121.846-.725 1.692.725 3.021s3.625 3.746 4.592 9.305c.846 5.438 1.45 8.459 1.813 8.701.363.363.242.846.242 1.813 0 1.088.967 7.009 1.571 8.097.725 1.208.604-6.284.483-8.459 0-2.296.121-12.568.483-14.019.363-1.571.725-3.142-.483-5.076-1.329-1.934-3.625-5.076-1.934-10.514 1.692-5.438 4.351-5.438 3.505-7.493-.839-1.831-1.983-3.507-3.384-4.955-1.208-1.208-.242-4.109-.363-5.317-.121-2.296-1.934-2.659-2.054-5.197-.242-2.538-.363-4.592 1.571-7.13 1.813-2.538-.725-2.417-1.571-3.988s-1.208-3.625-.483-7.009c.363-1.692.121-2.175-.363-2.296-.363-.121-2.417-.604-2.417-.604l-2.78 5.922c.378 1.255.581 2.557.604 3.867l-.846 4.592z" fill="none" stroke="#a63732" stroke-width=".36252"/><path d="m310.317 142.103c-2.296 3.021-5.801 10.876-7.614 15.71-1.692 4.955-5.438 16.556-2.78 24.291 2.78 7.734 8.097 2.78 9.305-.121 1.208-2.9 3.142-7.855 3.746-9.185.483-1.329.725-2.054 1.813 1.088 1.107 3.642 1.956 7.357 2.538 11.118 0 .725-.967 2.538-2.175 5.438-1.088 3.021-1.813 4.955-.604 6.768 1.088 1.813 5.438 9.305 6.888 12.689.846 1.934 1.571 2.296 3.867 1.813 3.155-.882 6.261-1.931 9.305-3.142 1.571-.846.846-2.054.363-3.625-.725-2.417-3.505-15.952-3.505-17.765s.363-4.23-1.934-1.571c-.846.967-1.934 0-1.692-1.208.363-1.329 3.142-19.698 3.263-21.874-1.571-3.505-6.284-14.381-7.614-16.436-1.329-1.934-1.813-2.054-3.746-.967-1.934.967-6.405 2.538-7.976-1.208-.363-.604-.846-2.175.363-2.296l-.846-.363c0-.121-.604.363-.967.846zm24.654 67.434c-1.692.967-7.734 3.625-10.151 3.988s-1.813 1.088-1.45 2.9c.483 1.934 1.934 7.493 2.659 9.547.846 1.934 1.813 1.934 3.867 1.934 4.298-.268 8.385-1.971 11.602-4.834-.967-1.208-2.78-7.13-3.384-9.547-.604-2.78-.604-5.438-3.142-3.988zm-53.779-54.141c-.383.933-1.288 1.552-2.296 1.571-1.571 0-2.78-.483-3.746.846-.846 1.208-6.163 7.614-7.251 11.481 1.088 2.296 2.659 6.526 3.746 9.547 3.625-3.142 15.348-14.502 17.523-16.677.846-.846.967-1.571-.242-2.417-1.208-.846-5.801-3.746-6.526-4.23-.725-.483-1.088-.483-1.208-.121zm-29.608 16.436c-.949 4.17-2.453 8.194-4.471 11.964.846 1.571 1.571 2.78 2.78 3.384 3.221-2.466 6.214-5.217 8.943-8.218 1.45-1.692 3.142-4.23 3.142-4.713 0-.604-.604-.725-1.45-.604-.846.242-4.351-1.208-7.734-1.813-.846-.363-1.088-.363-1.208 0zm-2.054-2.78c-1.088-.242-4.592-3.988-5.801-6.042-1.208-2.054-1.45-1.934-1.934-.363-.819 2.247-1.958 4.364-3.384 6.284-1.208 1.571-4.471 5.801-5.317 6.647-.846.967 0 1.329.725 2.054s4.592 5.438 5.438 6.526c.846.967 1.813 2.9 3.988.846 2.836-2.675 4.99-5.99 6.284-9.668 1.208-3.867 1.208-5.922 2.296-5.68l.121-.846-.363-.483-.483-.483c.141.319.095.692-.121.967-.242.604-.967.363-1.45.242zm57.403-86.286c-2.538 3.021-7.614 5.68-16.194 7.734-8.459 2.175-16.677 8.218-20.061 11.118-3.505 3.021-12.206 10.031-16.315 11.843-1.208.483-3.625 2.054-.483 2.417 2.296.363 3.867-.967 8.701-4.592 4.955-3.505 8.701-6.042 12.448-9.668 3.505-3.505 9.668-6.647 16.556-8.459 6.768-1.934 15.59-4.834 18.127-7.734 1.208-1.208 1.329-1.934.242-3.021-1.208-1.208-1.934-.846-3.021.363zm-43.022 29.487c-.725.363-1.088.846-1.934 3.625-.846 2.659-.725 4.23 0 4.955.44.362 1.004.535 1.571.483.363 0 .604.121.604-.604-.121-.846-.121-4.23 2.417-5.801.483-.242-.121-2.296-1.813-1.934-.483.121.121-1.208-.846-.725zm-29.004 10.756c1.329 0 2.175 0 2.054 1.571l-.846 4.955c-.121 1.45-.121 1.934.725 1.934s-1.208.846-2.296 1.088c-1.208.121-2.9.846-3.746-3.988-.363-1.45-.242-3.867-.483-4.351 1.411-.765 2.987-1.18 4.592-1.208zm24.895 3.988c.363 1.934.846 1.934.483 2.175-.363.242-.725-.725-2.296-.483-1.45.242-13.293 2.054-14.139 2.175-2.659.363-2.78-.121-.242-.725 2.417-.483 11.36-2.054 14.019-2.538zm-14.139 143.569c1.208.725 4.109 1.571 9.064-.483 5.076-2.054 10.514-.725 11.36 2.9.846 3.505.967 8.097-.725 10.031-1.208 1.692-2.538 1.571-3.988 1.088-2.659-.846-8.943-3.746-10.756-4.592-2.196-1.053-4.577-1.67-7.009-1.813-.725-1.813-.725-4.955-.121-6.042.604-1.088.604-2.296 1.088-1.934.341.309.705.591 1.088.846zm19.698 16.556c1.816-.037 3.468 1.081 4.109 2.78.604 1.813 4.23 2.175 5.801 2.175 1.571-.121 1.329.725 1.208 1.692 0 .846-.363 3.746-.363 4.834 0 1.208.363 5.076.483 5.801.242.846-.483 1.208-1.329 1.571s-3.867 1.208-5.801-.121c-1.088-.725-2.296-1.813-1.088-1.813 1.208-.121-1.571-10.756-2.296-12.568-.725-1.934-2.9-4.351-.725-4.351zm-32.388-22.115c.604.121.846.725 1.208 1.329.445.538.392 1.339-.121 1.813-1.088 1.208-2.296 6.284-2.054 10.031-.905-.247-1.841-.369-2.78-.363-.242-2.054-.121-8.459.846-10.514.846-2.175 1.813-2.659 2.9-2.296zm.242 57.283c2.417 2.659 6.768 6.647 10.031 8.097 2.615 1.311 5.548 1.856 8.459 1.571 2.296-.242 1.813.725 0 1.088-1.934.242-6.284.242-9.064-1.208-2.78-1.571-7.251-4.351-10.031-8.459-.846-.967-.121-1.934.604-1.088zm48.944-6.647c-2.846 1.488-5.844 2.663-8.943 3.505.313.936.476 1.914.483 2.9 2.054 0 6.042-1.45 9.305-3.505.725-.483 1.088-1.088.725-1.692-.242-.604-.604-1.692-1.571-1.208zm-22.236-7.614c-.483-.483 2.175-1.088 2.78-1.088.838.553 1.609 1.201 2.296 1.934.363.242.242.363-.121.604-.868.304-1.756.546-2.659.725-.818-.668-1.585-1.395-2.296-2.175zm4.955-39.034c-.725-.604-.725-.846-.242-1.45.266-.48.638-.893 1.088-1.208.363-.121.846-.242 1.571.725 1.809 2.725 3.463 5.549 4.955 8.459.846 1.571 1.692.483 1.329-.363-.387-1.05-.873-2.062-1.45-3.021 1.207-3.632 1.899-7.415 2.054-11.239.061-2.561-.391-5.109-1.329-7.493 2.659 0 8.097 0 10.272-.725 2.175-.604.363-.846-.483-.725-3.794.143-7.592-.018-11.36-.483-7.734-.846-15.227-5.317-17.644-8.218-.363-.483-2.659-.242-.725 1.208 1.813 1.571 6.647 5.922 13.656 7.251 1.571.363 4.109.725 4.471 6.526.215 3.382.174 6.776-.121 10.151 0 .604-.363.725-.846.121-.801-1.225-1.777-2.324-2.9-3.263-.669-.448-1.56-.399-2.175.121-.889.672-1.7 1.442-2.417 2.296l2.296 1.329zm-15.227 18.248c-.604 0-4.834.363-5.801 0-.846-.242-1.45-1.329-.846-1.813.846-.483 2.296.242 3.625.242 1.45 0 3.021-.363 3.505-.242.363.242.846.242.846 1.934zm-10.152 25.862c-1.208-.846-2.659-4.23-2.9-11.239.066-2.767.598-5.505 1.571-8.097.725-1.934-.483-1.208-.725-.483-.726 1.706-1.254 3.491-1.571 5.317-.502 3-.502 6.064 0 9.064.294 2.124.738 4.224 1.329 6.284z" fill="#fff"/><path d="m277.93 82.645c.149-.504.351-.99.604-1.45-.725.483-1.45.725-2.054 1.088.363.604.967 1.571 1.45.363z" fill="#ba9653"/><path d="m277.93 82.645c.149-.504.351-.99.604-1.45-.725.483-1.45.725-2.054 1.088.363.604.967 1.571 1.45.363z" fill="none" stroke="#ba9653" stroke-width=".36252"/><path d="m294.848 83.491c-.242-.967-1.208.604-2.296 1.934-1.208 1.45-2.9.604-3.021-.121-.36-1.047-.89-2.027-1.571-2.9-1.088-1.329.967-3.142 1.813-3.384.748-.167 1.476-.41 2.175-.725.242-.242-.121-1.571-.363-2.659-3.831 1.208-7.551 2.745-11.118 4.592 1.088.363.725 2.538.604 2.78-.121.363-.483 2.296.363 1.088.486-.798 1.202-1.43 2.054-1.813.846-.242 1.813-.242 1.813 1.088.121 1.329-.483 1.208-.725 2.054-.121.846 0 .846.483.967s.725.725.363 1.692c-.242.846-1.692.967-3.021.846-1.329-.242-1.45 0-.967.363.511.532.848 1.206.967 1.934 3.945-1.872 8.136-3.174 12.448-3.867.181-1.283.181-2.584 0-3.867z" fill="#ba9653"/><path d="m294.848 83.491c-.242-.967-1.208.604-2.296 1.934-1.208 1.45-2.9.604-3.021-.121-.36-1.047-.89-2.027-1.571-2.9-1.088-1.329.967-3.142 1.813-3.384.748-.167 1.476-.41 2.175-.725.242-.242-.121-1.571-.363-2.659-3.831 1.208-7.551 2.745-11.118 4.592 1.088.363.725 2.538.604 2.78-.121.363-.483 2.296.363 1.088.486-.798 1.202-1.43 2.054-1.813.846-.242 1.813-.242 1.813 1.088.121 1.329-.483 1.208-.725 2.054-.121.846 0 .846.483.967s.725.725.363 1.692c-.242.846-1.692.967-3.021.846-1.329-.242-1.45 0-.967.363.511.532.848 1.206.967 1.934 3.945-1.872 8.136-3.174 12.448-3.867.181-1.283.181-2.584 0-3.867z" fill="none" stroke="#ba9653" stroke-width=".36252"/><path d="m265.24 101.981c-.483-.846-1.088-.967-1.329-.242-.242.604-.725 2.9-2.175 3.505-.483.121-.846.242-1.208.363.604.483 1.088.967 1.813 1.45 1.026-1.147 2.116-2.237 3.263-3.263-.003-.622-.127-1.238-.363-1.813z" fill="#ba9653"/><path d="m265.24 101.981c-.483-.846-1.088-.967-1.329-.242-.242.604-.725 2.9-2.175 3.505-.483.121-.846.242-1.208.363.604.483 1.088.967 1.813 1.45 1.026-1.147 2.116-2.237 3.263-3.263-.003-.622-.127-1.238-.363-1.813z" fill="none" stroke="#ba9653" stroke-width=".36252"/><path d="m279.259 90.863c-.604-.121-.967.604-1.329 1.088-.363.919-1.318 1.472-2.296 1.329-1.208-.121-1.45-.483-1.813-1.571-.205-.87-1.047-1.449-1.934-1.329-.846 0-1.45-1.088-.483-2.175.846-1.088 1.813-.604 2.659-.604.725 0 1.088-.846.483-1.208-.679-.524-1.184-1.24-1.45-2.054-3.488 2.244-6.801 4.748-9.91 7.493.53.094 1.053.215 1.571.363.69.193 1.149.857 1.088 1.571 0 .846.121 1.088.725.483.483-.483-.121-2.296 1.692-2.9 1.692-.725 1.934.604 1.813 1.45 0 .967 0 1.692.967 2.175.846.363 1.813 1.813-.121 2.538-1.25.551-2.543.996-3.867 1.329-.846.242-.604 1.088.121 1.571l.846.725c2.384-2.113 4.885-4.091 7.493-5.922 1.355-.972 2.766-1.86 4.23-2.659.121-.604.242-1.45-.483-1.692z" fill="#ba9653"/><path d="m279.259 90.863c-.604-.121-.967.604-1.329 1.088-.363.919-1.318 1.472-2.296 1.329-1.208-.121-1.45-.483-1.813-1.571-.205-.87-1.047-1.449-1.934-1.329-.846 0-1.45-1.088-.483-2.175.846-1.088 1.813-.604 2.659-.604.725 0 1.088-.846.483-1.208-.679-.524-1.184-1.24-1.45-2.054-3.488 2.244-6.801 4.748-9.91 7.493.53.094 1.053.215 1.571.363.69.193 1.149.857 1.088 1.571 0 .846.121 1.088.725.483.483-.483-.121-2.296 1.692-2.9 1.692-.725 1.934.604 1.813 1.45 0 .967 0 1.692.967 2.175.846.363 1.813 1.813-.121 2.538-1.25.551-2.543.996-3.867 1.329-.846.242-.604 1.088.121 1.571l.846.725c2.384-2.113 4.885-4.091 7.493-5.922 1.355-.972 2.766-1.86 4.23-2.659.121-.604.242-1.45-.483-1.692z" fill="none" stroke="#ba9653" stroke-width=".36252"/><path d="m260.89 99.564c.121-.846-.725-1.208-1.088-1.45-.483 0-1.088-.725-1.329-1.329-.514.568-.922 1.223-1.208 1.934.242.604.363 1.208.604 1.692 1.088 0 2.9 0 3.021-.846z" fill="#ba9653"/><path d="m260.89 99.564c.121-.846-.725-1.208-1.088-1.45-.483 0-1.088-.725-1.329-1.329-.514.568-.922 1.223-1.208 1.934.242.604.363 1.208.604 1.692 1.088 0 2.9 0 3.021-.846z" fill="none" stroke="#ba9653" stroke-width=".36252"/><path d="m300.528 143.432c-3.463-.129-6.917.447-10.151 1.692.604.363 1.208 1.208 2.417.725 1.813-.604 2.417 1.329 1.571 1.813-.725.604-1.088 1.813.483.846s3.021.483 2.417 1.45c-.725 1.088-1.571.242-1.329 1.692.121 1.45-.121 2.78-1.45 3.021-1.329.242-1.571-1.692-2.175-1.571s.121 3.505-.121 3.505c-.897.232-1.701.739-2.296 1.45h.003c.064 0 .118.053.118.119v.002c5.076 3.625 6.405 1.571 7.251-.121 1.192-3.191 2.162-6.462 2.9-9.789.232-1.601.353-3.217.363-4.834z" fill="#ba9653"/><path d="m300.528 143.432c-3.463-.129-6.917.447-10.151 1.692.604.363 1.208 1.208 2.417.725 1.813-.604 2.417 1.329 1.571 1.813-.725.604-1.088 1.813.483.846s3.021.483 2.417 1.45c-.725 1.088-1.571.242-1.329 1.692.121 1.45-.121 2.78-1.45 3.021-1.329.242-1.571-1.692-2.175-1.571s.121 3.505-.121 3.505c-.897.232-1.701.739-2.296 1.45h.003c.064 0 .118.053.118.119v.002c5.076 3.625 6.405 1.571 7.251-.121 1.192-3.191 2.162-6.462 2.9-9.789.232-1.601.353-3.217.363-4.834z" fill="none" stroke="#ba9653" stroke-width=".36252"/><path d="m289.289 153.584c.242-.604-.483-1.208-1.329-.846-.846.604-1.934 1.329-2.78 0-.846-1.45.967-1.571.967-2.175.121-.725-.483-.846-.242-1.813.363-1.088 1.571-.846 2.417-.242.967.604.604-.967.483-1.571-.06-.401-.06-.808 0-1.208-1.065.402-2.08.93-3.021 1.571-4.834 2.9-4.955 5.438-3.867 6.405.967.846 3.142 1.208 6.647 3.505.064-1.238.308-2.458.725-3.625z" fill="#ba9653"/><path d="m289.289 153.584c.242-.604-.483-1.208-1.329-.846-.846.604-1.934 1.329-2.78 0-.846-1.45.967-1.571.967-2.175.121-.725-.483-.846-.242-1.813.363-1.088 1.571-.846 2.417-.242.967.604.604-.967.483-1.571-.06-.401-.06-.808 0-1.208-1.065.402-2.08.93-3.021 1.571-4.834 2.9-4.955 5.438-3.867 6.405.967.846 3.142 1.208 6.647 3.505.064-1.238.308-2.458.725-3.625z" fill="none" stroke="#ba9653" stroke-width=".36252"/><path d="m273.941 150.804c-2.262-1.367-4.103-3.332-5.317-5.68-1.215-2.348.121-.483-.363-.483-2.111-.119-4.19-.567-6.163-1.329-3.505-1.208-3.988-.483-4.351.967-.687 2.889-1.011 5.853-.967 8.822 0 4.471 1.934 7.251 3.142 6.888.604-.242 2.054-.967 3.746-1.813 0-.967.121-2.417.121-3.263.242-.967-.967-.604-1.45 0-.363.483-1.329 1.45-2.175 1.329s-1.45-1.692-1.208-3.021c.121-1.45-1.571-1.934-.483-3.867 1.088-1.813 1.934.483 2.78.363.967-.242.483-.725 0-2.175s1.329-1.813 2.417-.846c.725.725 1.088-.846 2.054-.604 1.088.242 1.692.967 1.088 2.054-.483.725-.846 2.538 0 1.571.967-.967 1.813-1.571 2.659-.846.846.604.363 2.054.121 2.659-.242.725 1.45 1.571.242 2.417s-2.538-.604-3.263-.363c-.604.121-.725.967.121 1.571.512.407 1.082.733 1.692.967 1.776-.613 3.479-1.424 5.076-2.417l1.208.121c0-1.692-.242-2.659-.725-3.021z" fill="#ba9653"/><path d="m273.941 150.804c-2.262-1.367-4.103-3.332-5.317-5.68-1.215-2.348.121-.483-.363-.483-2.111-.119-4.19-.567-6.163-1.329-3.505-1.208-3.988-.483-4.351.967-.687 2.889-1.011 5.853-.967 8.822 0 4.471 1.934 7.251 3.142 6.888.604-.242 2.054-.967 3.746-1.813 0-.967.121-2.417.121-3.263.242-.967-.967-.604-1.45 0-.363.483-1.329 1.45-2.175 1.329s-1.45-1.692-1.208-3.021c.121-1.45-1.571-1.934-.483-3.867 1.088-1.813 1.934.483 2.78.363.967-.242.483-.725 0-2.175s1.329-1.813 2.417-.846c.725.725 1.088-.846 2.054-.604 1.088.242 1.692.967 1.088 2.054-.483.725-.846 2.538 0 1.571.967-.967 1.813-1.571 2.659-.846.846.604.363 2.054.121 2.659-.242.725 1.45 1.571.242 2.417s-2.538-.604-3.263-.363c-.604.121-.725.967.121 1.571.512.407 1.082.733 1.692.967 1.776-.613 3.479-1.424 5.076-2.417l1.208.121c0-1.692-.242-2.659-.725-3.021z" fill="none" stroke="#ba9653" stroke-width=".36252"/><path d="m267.053 171.469c-.846-1.692-1.088-.363-3.142 2.78-2.135 2.943-4.477 5.729-7.009 8.339 2.296.363 7.251 1.571 4.23 4.109-3.142 2.659-1.813 2.417-.363 2.296 1.45-.242 3.867.604 2.054 3.867-1.813 3.142-3.021 5.438-4.713 6.405-1.692 1.088-4.23.967-4.713-1.45s-2.175 0-2.296 1.571c-.122 1.77-.122 3.547 0 5.317l-3.625-.242c-.042-1.937.038-3.874.242-5.801.242-1.45.121-3.142-2.054-2.417-.922.285-1.921.198-2.78-.242-4.23 3.625-6.405 6.284-7.734 8.58 1.215 1.179 3.006 1.556 4.592.967 2.054-.846 5.438.121 3.384 3.384-2.054 3.142-1.934 4.713.121 2.78 2.054-1.934 5.317-5.438 6.405-1.813.604 2.296-1.571 3.021-1.45 4.955s1.934 3.746-.725 6.042-3.746-1.571-5.438-1.088c-.884.321-1.403 1.255-1.208 2.175 2.296 3.384 5.68 8.097 6.888 10.031 1.934 3.142 1.934 6.888 2.659 6.284s2.538-2.296 3.142-2.78c.695-.428 1.038-1.261.846-2.054-.89-3.389-1.258-6.893-1.088-10.393.363-4.351 2.417-9.185 3.867-11.964 1.45-2.659 5.801-11.239 6.888-13.414 1.088-2.296 3.021-4.955 3.384-7.009.483-2.054 2.296-6.888 3.021-9.185-.75-3.459-1.885-6.824-3.384-10.031z" fill="#ba9653"/><path d="m267.053 171.469c-.846-1.692-1.088-.363-3.142 2.78-2.135 2.943-4.477 5.729-7.009 8.339 2.296.363 7.251 1.571 4.23 4.109-3.142 2.659-1.813 2.417-.363 2.296 1.45-.242 3.867.604 2.054 3.867-1.813 3.142-3.021 5.438-4.713 6.405-1.692 1.088-4.23.967-4.713-1.45s-2.175 0-2.296 1.571c-.122 1.77-.122 3.547 0 5.317l-3.625-.242c-.042-1.937.038-3.874.242-5.801.242-1.45.121-3.142-2.054-2.417-.922.285-1.921.198-2.78-.242-4.23 3.625-6.405 6.284-7.734 8.58 1.215 1.179 3.006 1.556 4.592.967 2.054-.846 5.438.121 3.384 3.384-2.054 3.142-1.934 4.713.121 2.78 2.054-1.934 5.317-5.438 6.405-1.813.604 2.296-1.571 3.021-1.45 4.955s1.934 3.746-.725 6.042-3.746-1.571-5.438-1.088c-.884.321-1.403 1.255-1.208 2.175 2.296 3.384 5.68 8.097 6.888 10.031 1.934 3.142 1.934 6.888 2.659 6.284s2.538-2.296 3.142-2.78c.695-.428 1.038-1.261.846-2.054-.89-3.389-1.258-6.893-1.088-10.393.363-4.351 2.417-9.185 3.867-11.964 1.45-2.659 5.801-11.239 6.888-13.414 1.088-2.296 3.021-4.955 3.384-7.009.483-2.054 2.296-6.888 3.021-9.185-.75-3.459-1.885-6.824-3.384-10.031z" fill="none" stroke="#ba9653" stroke-width=".36252"/><path d="m307.9 213.162c-2.417-3.988-2.9-5.68-3.263-9.789-.123-3.07.039-6.144.483-9.185-.846-.121-1.692 0-1.813 1.208-.152 1.963-.644 3.884-1.45 5.68-.604 1.208-2.417 1.208-3.625 1.208-1.088.121-1.088-.604-.363-2.296s1.088-2.417.846-3.988c-.242-1.45-.846-.121-1.571 1.208-.725 1.208-2.538 3.867-4.713 3.625-2.175-.363-1.571-3.625-1.45-4.713.242-1.088-.363-1.329-1.208-1.45-.846-.242-2.659-.604-1.571-3.384.846-2.659 1.934-2.417 3.142-1.934 1.329.483 1.571-.363.363-.846s-2.538-1.571-2.417-2.78c.242-3.505 2.417-3.142 4.109-2.78 1.746.103 3.445-.612 4.592-1.934v-.242c-2.538-9.547 2.296-21.27 3.505-24.532 2.448-5.266 5.193-10.39 8.218-15.348l-4.834-2.417c-1.329-.604-2.054-1.088-2.417-.483l-1.571 1.692c-1.208 1.934-.121 1.571.121 1.571.483 0 2.054 2.054 2.296 2.659.363.363 0 .725-.604 2.296-.846 1.934-1.45 6.526-2.296 9.185-2.175 8.218-5.801 7.372-7.372 6.405-1.571-1.088-2.054.483-3.625 2.78-.483.483-1.45 1.571-2.659 2.78 1.571.725 3.625 2.659 1.208 4.592-3.021 2.296-3.505 3.505-2.054 3.142 1.45-.242 2.78-2.417 4.351-.846 1.571 1.45-.483 3.142-1.45 3.625-.846.483-2.538 1.329-2.054 3.142.483 1.813.846 4.23-1.571 4.713-2.296.604-3.263-.363-3.867-1.571-.725-1.208-1.329-.363-1.571 1.088-.264 1.029-.425 2.082-.483 3.142 0 .604-1.692-.242-2.417-.967-.725-.846-1.692 1.208-2.538.242-.846-1.088.967-4.23 1.571-5.317.604-1.088.363-2.659-3.384-.846-1.208 2.054-2.175 4.955-3.625 9.547-2.317 6.228-5.232 12.218-8.701 17.886-5.076 8.218-6.042 15.831-5.197 20.665.725 4.713 1.329 4.351 2.417 4.351.967 0 3.505 3.142 5.197 5.197 1.692 1.934 2.417 1.088 3.263.363 4.951-3.591 10.256-6.669 15.831-9.185 3.868-1.86 7.866-3.435 11.964-4.713.077-1.545.278-3.081.604-4.592.121-.967-.725-1.208-1.692 0-.846 1.208-3.384 4.23-5.076 3.384-1.692-.725-3.142-2.538-2.175-4.23.846-1.571-.363-1.934-1.088-2.78s-.725-4.23 1.45-4.471c2.054-.242 2.659 1.571 4.109 2.054 1.45.363 2.659.363.846-1.571-1.813-2.054-3.988-1.208-2.9-3.988 1.208-2.659 2.78-2.538 4.713-1.934 1.813.483 2.78-.483 3.988-1.329s3.625-1.934 5.317 0-1.208 3.746-1.934 4.351c-1.208 1.329-1.45 3.625 0 2.296s3.746-6.526 5.438-2.296c.846 2.417-.846 3.505-.604 4.955.363 1.571 2.9 3.505.846 5.438-2.054 1.934-5.076.363-6.284-.846-1.208-1.088-2.538-1.692-1.934.363.397 1.333.6 2.717.604 4.109 4.109-1.088 7.734-1.813 9.547-1.692 2.659.242 4.713 1.088 4.592-1.45-.363-2.538-1.692-4.23-4.109-8.218z" fill="#ba9653"/><path d="m307.9 213.162c-2.417-3.988-2.9-5.68-3.263-9.789-.123-3.07.039-6.144.483-9.185-.846-.121-1.692 0-1.813 1.208-.152 1.963-.644 3.884-1.45 5.68-.604 1.208-2.417 1.208-3.625 1.208-1.088.121-1.088-.604-.363-2.296s1.088-2.417.846-3.988c-.242-1.45-.846-.121-1.571 1.208-.725 1.208-2.538 3.867-4.713 3.625-2.175-.363-1.571-3.625-1.45-4.713.242-1.088-.363-1.329-1.208-1.45-.846-.242-2.659-.604-1.571-3.384.846-2.659 1.934-2.417 3.142-1.934 1.329.483 1.571-.363.363-.846s-2.538-1.571-2.417-2.78c.242-3.505 2.417-3.142 4.109-2.78 1.746.103 3.445-.612 4.592-1.934v-.242c-2.538-9.547 2.296-21.27 3.505-24.532 2.448-5.266 5.193-10.39 8.218-15.348l-4.834-2.417c-1.329-.604-2.054-1.088-2.417-.483l-1.571 1.692c-1.208 1.934-.121 1.571.121 1.571.483 0 2.054 2.054 2.296 2.659.363.363 0 .725-.604 2.296-.846 1.934-1.45 6.526-2.296 9.185-2.175 8.218-5.801 7.372-7.372 6.405-1.571-1.088-2.054.483-3.625 2.78-.483.483-1.45 1.571-2.659 2.78 1.571.725 3.625 2.659 1.208 4.592-3.021 2.296-3.505 3.505-2.054 3.142 1.45-.242 2.78-2.417 4.351-.846 1.571 1.45-.483 3.142-1.45 3.625-.846.483-2.538 1.329-2.054 3.142.483 1.813.846 4.23-1.571 4.713-2.296.604-3.263-.363-3.867-1.571-.725-1.208-1.329-.363-1.571 1.088-.264 1.029-.425 2.082-.483 3.142 0 .604-1.692-.242-2.417-.967-.725-.846-1.692 1.208-2.538.242-.846-1.088.967-4.23 1.571-5.317.604-1.088.363-2.659-3.384-.846-1.208 2.054-2.175 4.955-3.625 9.547-2.317 6.228-5.232 12.218-8.701 17.886-5.076 8.218-6.042 15.831-5.197 20.665.725 4.713 1.329 4.351 2.417 4.351.967 0 3.505 3.142 5.197 5.197 1.692 1.934 2.417 1.088 3.263.363 4.951-3.591 10.256-6.669 15.831-9.185 3.868-1.86 7.866-3.435 11.964-4.713.077-1.545.278-3.081.604-4.592.121-.967-.725-1.208-1.692 0-.846 1.208-3.384 4.23-5.076 3.384-1.692-.725-3.142-2.538-2.175-4.23.846-1.571-.363-1.934-1.088-2.78s-.725-4.23 1.45-4.471c2.054-.242 2.659 1.571 4.109 2.054 1.45.363 2.659.363.846-1.571-1.813-2.054-3.988-1.208-2.9-3.988 1.208-2.659 2.78-2.538 4.713-1.934 1.813.483 2.78-.483 3.988-1.329s3.625-1.934 5.317 0-1.208 3.746-1.934 4.351c-1.208 1.329-1.45 3.625 0 2.296s3.746-6.526 5.438-2.296c.846 2.417-.846 3.505-.604 4.955.363 1.571 2.9 3.505.846 5.438-2.054 1.934-5.076.363-6.284-.846-1.208-1.088-2.538-1.692-1.934.363.397 1.333.6 2.717.604 4.109 4.109-1.088 7.734-1.813 9.547-1.692 2.659.242 4.713 1.088 4.592-1.45-.363-2.538-1.692-4.23-4.109-8.218z" fill="none" stroke="#ba9653" stroke-width=".36252"/><path d="m274.667 229.84c-2.296.725-2.659-.363-4.23-.846-1.45-.483-1.571.725-.483 2.296s2.175 3.142.846 3.142c-1.208 0-2.175.121-2.296 1.088s-2.175-.121-2.659-2.175c-.483-1.934-.846-5.68-1.934-3.867-1.088 1.934-1.934 5.076-4.592 3.625-2.659-1.45-.846-3.263-2.175-4.592s-2.659-3.021-1.208-5.438c1.208-2.296 2.417-.363 3.625-.363s1.45-1.088.363-1.934c-1.208-.846-2.538-4.955 2.659-4.592 2.072-.005 4.095-.637 5.801-1.813 1.692-1.208 6.042-.604 4.23 2.538-1.813 3.142-1.208 3.746-.121 2.659 1.088-1.208 2.417-3.142 4.351-2.659s1.088 2.054-.121 3.746c-1.208 1.692-.483 2.78.483 3.505.846.725 2.659 4.23-2.538 5.68z" fill="#ba9653"/><path d="m274.667 229.84c-2.296.725-2.659-.363-4.23-.846-1.45-.483-1.571.725-.483 2.296s2.175 3.142.846 3.142c-1.208 0-2.175.121-2.296 1.088s-2.175-.121-2.659-2.175c-.483-1.934-.846-5.68-1.934-3.867-1.088 1.934-1.934 5.076-4.592 3.625-2.659-1.45-.846-3.263-2.175-4.592s-2.659-3.021-1.208-5.438c1.208-2.296 2.417-.363 3.625-.363s1.45-1.088.363-1.934c-1.208-.846-2.538-4.955 2.659-4.592 2.072-.005 4.095-.637 5.801-1.813 1.692-1.208 6.042-.604 4.23 2.538-1.813 3.142-1.208 3.746-.121 2.659 1.088-1.208 2.417-3.142 4.351-2.659s1.088 2.054-.121 3.746c-1.208 1.692-.483 2.78.483 3.505.846.725 2.659 4.23-2.538 5.68z" fill="none" stroke="#ba9653" stroke-width=".36252"/><path d="m284.093 207.724c-1.259.029-2.517-.093-3.746-.363-.121 1.813-1.813 4.351-3.625 7.009-.121.242-1.208.242-1.692-.121-.363-.363-1.813-1.088-.725-2.175 1.088-1.088 2.78-3.505 2.417-4.592-.242-.967-1.088-1.934-2.175-.483-1.088 1.45-2.9 4.351-4.955 4.351-1.934.121-3.867-1.571-3.021-3.384.967-1.813 1.208-2.78 0-4.351-1.329-1.571-.846-3.625 1.934-4.955 1.197-.281 2.459.034 3.384.846 1.088.846 1.571 0 .121-.846-1.329-.846-2.538-1.813-2.659-3.746-.121-1.813.846-3.625 3.384-2.659 1.616.827 3.584.587 4.955-.604 1.088-.846 5.438-1.934 4.834 1.934-.483 2.78-1.813 2.9-2.175 4.351-.483 1.571.725.483 1.329-.483.725-1.208 2.296-5.801 5.317-2.296.725.846.483 2.296-.483 3.867-.846 1.571-.121 2.538.483 3.384.604.967 1.813 5.076-2.9 5.317z" fill="#ba9653"/><path d="m284.093 207.724c-1.259.029-2.517-.093-3.746-.363-.121 1.813-1.813 4.351-3.625 7.009-.121.242-1.208.242-1.692-.121-.363-.363-1.813-1.088-.725-2.175 1.088-1.088 2.78-3.505 2.417-4.592-.242-.967-1.088-1.934-2.175-.483-1.088 1.45-2.9 4.351-4.955 4.351-1.934.121-3.867-1.571-3.021-3.384.967-1.813 1.208-2.78 0-4.351-1.329-1.571-.846-3.625 1.934-4.955 1.197-.281 2.459.034 3.384.846 1.088.846 1.571 0 .121-.846-1.329-.846-2.538-1.813-2.659-3.746-.121-1.813.846-3.625 3.384-2.659 1.616.827 3.584.587 4.955-.604 1.088-.846 5.438-1.934 4.834 1.934-.483 2.78-1.813 2.9-2.175 4.351-.483 1.571.725.483 1.329-.483.725-1.208 2.296-5.801 5.317-2.296.725.846.483 2.296-.483 3.867-.846 1.571-.121 2.538.483 3.384.604.967 1.813 5.076-2.9 5.317z" fill="none" stroke="#ba9653" stroke-width=".36252"/><path d="m282.401 88.929c1.329.121 2.659.121 3.021-.846.363-.846.121-1.45-.363-1.571-.483-.242-.604-.242-.483-1.088.121-.725.846-.725.725-1.934 0-1.329-.967-1.45-1.813-1.088-.967.242-1.208.604-2.054 1.813-.846 1.088-.483-.725-.363-1.088.242-.242.483-2.538-.604-2.9-.725.363-1.329.725-1.934.967-.216.463-.378.951-.483 1.45-.483 1.208-1.088.242-1.45-.363-1.087.579-2.136 1.225-3.142 1.934l-.363.121c.268.847.824 1.574 1.571 2.054.604.483.242 1.208-.604 1.208-.725 0-1.571-.483-2.659.604-.846 1.088-.242 2.175.604 2.175.878-.085 1.698.479 1.934 1.329.363 1.088.604 1.45 1.813 1.571.972.108 1.906-.433 2.296-1.329.242-.483.725-1.329 1.208-1.208.846.363.725 1.088.483 1.934l2.78-1.45c-.197-.7-.526-1.356-.967-1.934-.483-.242-.363-.483.846-.363z" fill="#008248"/><path d="m282.401 88.929c1.329.121 2.659.121 3.021-.846.363-.846.121-1.45-.363-1.571-.483-.242-.604-.242-.483-1.088.121-.725.846-.725.725-1.934 0-1.329-.967-1.45-1.813-1.088-.967.242-1.208.604-2.054 1.813-.846 1.088-.483-.725-.363-1.088.242-.242.483-2.538-.604-2.9-.725.363-1.329.725-1.934.967-.216.463-.378.951-.483 1.45-.483 1.208-1.088.242-1.45-.363-1.087.579-2.136 1.225-3.142 1.934l-.363.121c.268.847.824 1.574 1.571 2.054.604.483.242 1.208-.604 1.208-.725 0-1.571-.483-2.659.604-.846 1.088-.242 2.175.604 2.175.878-.085 1.698.479 1.934 1.329.363 1.088.604 1.45 1.813 1.571.972.108 1.906-.433 2.296-1.329.242-.483.725-1.329 1.208-1.208.846.363.725 1.088.483 1.934l2.78-1.45c-.197-.7-.526-1.356-.967-1.934-.483-.242-.363-.483.846-.363z" fill="none" stroke="#00a55c" stroke-width=".36252"/><path d="m292.915 75.394c-.46.048-.908.171-1.329.363.242 1.088.604 2.417.363 2.659-.7.282-1.43.484-2.175.604-.846.242-2.78 2.175-1.813 3.505.774.809 1.317 1.811 1.571 2.9.331.538.919.866 1.551.866.581 0 1.128-.277 1.47-.745 1.208-1.45 2.054-2.9 2.417-1.934.181 1.283.181 2.584 0 3.867.248.019.496-.022.725-.121.363-5.317-.846-9.185-2.78-11.964z" fill="#008248"/><path d="m292.915 75.394c-.46.048-.908.171-1.329.363.242 1.088.604 2.417.363 2.659-.7.282-1.43.484-2.175.604-.846.242-2.78 2.175-1.813 3.505.774.809 1.317 1.811 1.571 2.9.331.538.919.866 1.551.866.581 0 1.128-.277 1.47-.745 1.208-1.45 2.054-2.9 2.417-1.934.181 1.283.181 2.584 0 3.867.248.019.496-.022.725-.121.363-5.317-.846-9.185-2.78-11.964z" fill="none" stroke="#00a55c" stroke-width=".36252"/><path d="m267.174 100.531c-.725-.483-.846-1.208-.121-1.571 1.325-.275 2.62-.68 3.867-1.208 1.934-.846.967-2.296.121-2.659-.967-.363-.967-1.208-.967-2.175.121-.846-.121-2.175-1.813-1.45-1.813.604-1.208 2.296-1.692 2.9-.604.604-.846.363-.725-.483.121-.725-.604-1.329-1.088-1.571-.514-.161-1.038-.283-1.571-.363-1.726 1.497-3.304 3.156-4.713 4.955.275.614.741 1.123 1.329 1.45.628.09 1.101.633 1.101 1.269l-.013.181c0 .725-1.813.725-3.021.846.61 1.908 1.597 3.675 2.9 5.197.334-.136.658-.298.967-.483 1.45-.604 1.934-2.78 2.296-3.384.121-.725.725-.604 1.208.242.256.533.42 1.105.483 1.692.846-.846 1.692-1.571 2.417-2.296-.292-.389-.615-.752-.967-1.088z" fill="#008248"/><path d="m267.174 100.531c-.725-.483-.846-1.208-.121-1.571 1.325-.275 2.62-.68 3.867-1.208 1.934-.846.967-2.296.121-2.659-.967-.363-.967-1.208-.967-2.175.121-.846-.121-2.175-1.813-1.45-1.813.604-1.208 2.296-1.692 2.9-.604.604-.846.363-.725-.483.121-.725-.604-1.329-1.088-1.571-.514-.161-1.038-.283-1.571-.363-1.726 1.497-3.304 3.156-4.713 4.955.275.614.741 1.123 1.329 1.45.628.09 1.101.633 1.101 1.269l-.013.181c0 .725-1.813.725-3.021.846.61 1.908 1.597 3.675 2.9 5.197.334-.136.658-.298.967-.483 1.45-.604 1.934-2.78 2.296-3.384.121-.725.725-.604 1.208.242.256.533.42 1.105.483 1.692.846-.846 1.692-1.571 2.417-2.296-.292-.389-.615-.752-.967-1.088z" fill="none" stroke="#00a55c" stroke-width=".36252"/><path d="m292.069 156.605c.363 0-.483-3.384.121-3.505s.967 1.813 2.175 1.571c1.329-.242 1.692-1.571 1.45-3.021-.121-1.45.725-.725 1.329-1.692.725-1.088-.725-2.417-2.296-1.45-1.692.967-1.329-.242-.483-.846.846-.483.242-2.417-1.571-1.813-1.329.483-2.054-.363-2.659-.725-.464.151-.91.353-1.329.604-.06.441-.06.888 0 1.329.121.604.483 2.175-.483 1.45-.846-.604-2.054-.846-2.417.242-.242 1.088.363 1.208.242 1.813 0 .725-1.813.846-.967 2.175.846 1.45 1.934.604 2.78.121s1.571.121 1.329.846c-.43 1.163-.674 2.387-.725 3.625.43.241.835.524 1.208.846.55-.784 1.367-1.342 2.296-1.571z" fill="#008248"/><path d="m292.069 156.605c.363 0-.483-3.384.121-3.505s.967 1.813 2.175 1.571c1.329-.242 1.692-1.571 1.45-3.021-.121-1.45.725-.725 1.329-1.692.725-1.088-.725-2.417-2.296-1.45-1.692.967-1.329-.242-.483-.846.846-.483.242-2.417-1.571-1.813-1.329.483-2.054-.363-2.659-.725-.464.151-.91.353-1.329.604-.06.441-.06.888 0 1.329.121.604.483 2.175-.483 1.45-.846-.604-2.054-.846-2.417.242-.242 1.088.363 1.208.242 1.813 0 .725-1.813.846-.967 2.175.846 1.45 1.934.604 2.78.121s1.571.121 1.329.846c-.43 1.163-.674 2.387-.725 3.625.43.241.835.524 1.208.846.55-.784 1.367-1.342 2.296-1.571z" fill="none" stroke="#00a55c" stroke-width=".36252"/><path d="m266.449 153.342c.725-.121 2.054 1.329 3.263.483 1.208-.846-.483-1.692-.242-2.417.121-.725.725-2.054-.121-2.659-.846-.725-1.692-.121-2.659.846-.846.967-.604-.846-.121-1.692.604-.967 0-1.692-.967-1.813-1.088-.242-1.45 1.208-2.054.604-1.208-1.088-2.9-.604-2.417.846.483 1.329.846 1.813 0 2.054-.967.121-1.813-2.175-2.78-.242-1.088 1.813.604 2.417.363 3.746-.121 1.45.483 3.021 1.329 3.021.846.242 1.692-.725 2.175-1.329.483-.483 1.571-.967 1.45.121-.103 1.044-.143 2.094-.121 3.142 1.489-.774 3.022-1.46 4.592-2.054h.121c-.483-.242-1.088-.604-1.692-.967-.967-.604-.725-1.45-.121-1.692z" fill="#008248"/><path d="m266.449 153.342c.725-.121 2.054 1.329 3.263.483 1.208-.846-.483-1.692-.242-2.417.121-.725.725-2.054-.121-2.659-.846-.725-1.692-.121-2.659.846-.846.967-.604-.846-.121-1.692.604-.967 0-1.692-.967-1.813-1.088-.242-1.45 1.208-2.054.604-1.208-1.088-2.9-.604-2.417.846.483 1.329.846 1.813 0 2.054-.967.121-1.813-2.175-2.78-.242-1.088 1.813.604 2.417.363 3.746-.121 1.45.483 3.021 1.329 3.021.846.242 1.692-.725 2.175-1.329.483-.483 1.571-.967 1.45.121-.103 1.044-.143 2.094-.121 3.142 1.489-.774 3.022-1.46 4.592-2.054h.121c-.483-.242-1.088-.604-1.692-.967-.967-.604-.725-1.45-.121-1.692z" fill="none" stroke="#00a55c" stroke-width=".36252"/><path d="m245.663 196.123c2.175-.725 2.296 1.088 2.054 2.417-.324 1.957-.405 3.946-.242 5.922l3.625.121c-.123-1.77-.123-3.547 0-5.317.121-1.571 1.692-3.988 2.296-1.571.483 2.417 3.021 2.538 4.713 1.571 1.692-1.088 2.9-3.263 4.713-6.526 1.813-3.142-.604-3.988-2.054-3.867s-2.78.363.363-2.296c3.021-2.417-1.934-3.625-4.23-4.109-3.98 4.203-8.174 8.197-12.568 11.964-.483.483-1.088.967-1.45 1.329.363.483 1.329.846 2.78.363z" fill="#008248"/><path d="m245.663 196.123c2.175-.725 2.296 1.088 2.054 2.417-.324 1.957-.405 3.946-.242 5.922l3.625.121c-.123-1.77-.123-3.547 0-5.317.121-1.571 1.692-3.988 2.296-1.571.483 2.417 3.021 2.538 4.713 1.571 1.692-1.088 2.9-3.263 4.713-6.526 1.813-3.142-.604-3.988-2.054-3.867s-2.78.363.363-2.296c3.021-2.417-1.934-3.625-4.23-4.109-3.98 4.203-8.174 8.197-12.568 11.964-.483.483-1.088.967-1.45 1.329.363.483 1.329.846 2.78.363z" fill="none" stroke="#00a55c" stroke-width=".36252"/><path d="m241.916 219.809c1.813-.604 2.9 3.263 5.559.967 2.659-2.175.725-4.109.604-6.042 0-1.813 2.054-2.538 1.45-4.955-.967-3.505-4.23-.121-6.284 1.813s-2.175.363-.121-2.78c2.054-3.142-1.329-4.23-3.384-3.384-1.586.589-3.378.212-4.592-.967-.725 1.329-1.329 2.417-1.934 3.625-1.813 3.746-.604 3.867.725 3.867 1.208 0 4.109 5.438 4.471 6.526.242.363 1.208 1.692 2.417 3.505-.275-.894.207-1.859 1.088-2.175z" fill="#008248"/><path d="m241.916 219.809c1.813-.604 2.9 3.263 5.559.967 2.659-2.175.725-4.109.604-6.042 0-1.813 2.054-2.538 1.45-4.955-.967-3.505-4.23-.121-6.284 1.813s-2.175.363-.121-2.78c2.054-3.142-1.329-4.23-3.384-3.384-1.586.589-3.378.212-4.592-.967-.725 1.329-1.329 2.417-1.934 3.625-1.813 3.746-.604 3.867.725 3.867 1.208 0 4.109 5.438 4.471 6.526.242.363 1.208 1.692 2.417 3.505-.275-.894.207-1.859 1.088-2.175z" fill="none" stroke="#00a55c" stroke-width=".36252"/><path d="m269.47 195.035c-.242-1.813.846-3.625 3.384-2.659 1.631.846 3.635.553 4.955-.725 1.088-.846 5.438-1.813 4.713 1.934-.363 2.9-1.813 3.021-2.175 4.471-.363 1.45.725.483 1.45-.604.725-1.088 2.175-5.68 5.317-2.175.725.725.483 2.175-.483 3.746-.605 1.13-.461 2.522.363 3.505.604.725 1.934 4.955-2.78 5.197-1.259.038-2.518-.084-3.746-.363-.121 1.813-1.934 4.351-3.625 7.009-.121.242-1.208.242-1.692-.121-.483-.363-1.813-1.088-.725-2.175 1.088-1.088 2.659-3.505 2.417-4.592-.363-.967-1.088-1.934-2.175-.483-1.208 1.45-3.021 4.351-4.955 4.351-1.934.121-3.867-1.571-3.021-3.384.967-1.813 1.208-2.78-.121-4.351-1.208-1.571-.725-3.625 2.054-4.955 1.197-.281 2.459.034 3.384.846 1.088.846 1.571 0 .121-.846-1.472-.641-2.491-2.028-2.659-3.625z" fill="#008248"/><path d="m269.47 195.035c-.242-1.813.846-3.625 3.384-2.659 1.631.846 3.635.553 4.955-.725 1.088-.846 5.438-1.813 4.713 1.934-.363 2.9-1.813 3.021-2.175 4.471-.363 1.45.725.483 1.45-.604.725-1.088 2.175-5.68 5.317-2.175.725.725.483 2.175-.483 3.746-.605 1.13-.461 2.522.363 3.505.604.725 1.934 4.955-2.78 5.197-1.259.038-2.518-.084-3.746-.363-.121 1.813-1.934 4.351-3.625 7.009-.121.242-1.208.242-1.692-.121-.483-.363-1.813-1.088-.725-2.175 1.088-1.088 2.659-3.505 2.417-4.592-.363-.967-1.088-1.934-2.175-.483-1.208 1.45-3.021 4.351-4.955 4.351-1.934.121-3.867-1.571-3.021-3.384.967-1.813 1.208-2.78-.121-4.351-1.208-1.571-.725-3.625 2.054-4.955 1.197-.281 2.459.034 3.384.846 1.088.846 1.571 0 .121-.846-1.472-.641-2.491-2.028-2.659-3.625z" fill="none" stroke="#00a55c" stroke-width=".36252"/><path d="m293.277 182.708c-1.692-.363-3.867-.604-4.109 2.9-.121 1.208 1.208 2.296 2.417 2.78 1.208.363.967 1.208-.363.846-1.208-.483-2.296-.846-3.263 1.934-.846 2.659.846 3.021 1.571 3.263.846.121 1.571.363 1.329 1.45-.121 1.208-.725 4.351 1.45 4.713 2.175.242 3.988-2.296 4.713-3.625.604-1.329 1.45-2.659 1.571-1.088.242 1.45-.121 2.175-.846 3.867s-.725 2.417.363 2.296c1.088 0 3.021 0 3.505-1.208.808-1.803 1.337-3.718 1.571-5.68.121-1.088 1.088-1.208 1.692-1.208.242-1.934.604-3.746.846-5.317-3.746.483-6.888-3.988-7.976-7.855-1.088 1.45-3.021 2.417-4.471 1.934z" fill="#008248"/><path d="m293.277 182.708c-1.692-.363-3.867-.604-4.109 2.9-.121 1.208 1.208 2.296 2.417 2.78 1.208.363.967 1.208-.363.846-1.208-.483-2.296-.846-3.263 1.934-.846 2.659.846 3.021 1.571 3.263.846.121 1.571.363 1.329 1.45-.121 1.208-.725 4.351 1.45 4.713 2.175.242 3.988-2.296 4.713-3.625.604-1.329 1.45-2.659 1.571-1.088.242 1.45-.121 2.175-.846 3.867s-.725 2.417.363 2.296c1.088 0 3.021 0 3.505-1.208.808-1.803 1.337-3.718 1.571-5.68.121-1.088 1.088-1.208 1.692-1.208.242-1.934.604-3.746.846-5.317-3.746.483-6.888-3.988-7.976-7.855-1.088 1.45-3.021 2.417-4.471 1.934z" fill="none" stroke="#00a55c" stroke-width=".36252"/><path d="m275.754 182.104c-.725 1.208-2.538 4.351-1.692 5.438.846 1.088 1.813-1.088 2.659-.363.725.846 2.417 1.571 2.417 1.088.052-1.054.174-2.104.363-3.142.363-1.571.967-2.417 1.571-1.208.66 1.53 2.429 2.281 3.988 1.692 2.296-.483 2.054-3.021 1.571-4.713-.483-1.813 1.208-2.659 2.054-3.142s3.021-2.175 1.45-3.625-3.021.725-4.351.967c-1.45.242-.846-.967 1.934-3.263 2.538-1.934.483-3.746-1.088-4.471-3.988 4.109-11.118 10.635-12.81 12.206-.541.599-1.026 1.247-1.45 1.934 3.746-1.934 3.988-.363 3.384.604z" fill="#008248"/><path d="m275.754 182.104c-.725 1.208-2.538 4.351-1.692 5.438.846 1.088 1.813-1.088 2.659-.363.725.846 2.417 1.571 2.417 1.088.052-1.054.174-2.104.363-3.142.363-1.571.967-2.417 1.571-1.208.66 1.53 2.429 2.281 3.988 1.692 2.296-.483 2.054-3.021 1.571-4.713-.483-1.813 1.208-2.659 2.054-3.142s3.021-2.175 1.45-3.625-3.021.725-4.351.967c-1.45.242-.846-.967 1.934-3.263 2.538-1.934.483-3.746-1.088-4.471-3.988 4.109-11.118 10.635-12.81 12.206-.541.599-1.026 1.247-1.45 1.934 3.746-1.934 3.988-.363 3.384.604z" fill="none" stroke="#00a55c" stroke-width=".36252"/><path d="m299.078 219.809c1.208 1.208 4.109 2.78 6.163.846 2.054-1.813-.483-3.867-.725-5.438-.363-1.45 1.45-2.417.483-4.834-1.692-4.23-3.988.725-5.438 2.175s-1.208-.967.121-2.175c.604-.725 3.505-2.417 1.813-4.471-1.692-1.934-4.109-.846-5.317 0s-2.175 1.934-3.988 1.329c-1.934-.483-3.505-.725-4.592 1.934-1.208 2.78.967 1.934 2.78 3.988 1.813 1.934.604 2.054-.846 1.571-1.329-.483-1.934-2.296-4.109-1.934-2.054.242-2.054 3.505-1.45 4.351.725.846 1.934 1.208 1.088 2.9-.967 1.571.483 3.505 2.175 4.23s4.23-2.296 5.197-3.505c.846-1.208 1.813-.846 1.571 0-.316 1.554-.518 3.13-.604 4.713 1.45-.483 2.78-.846 4.23-1.208-.048-1.388-.252-2.765-.604-4.109-.604-1.934.846-1.45 2.054-.363z" fill="#008248"/><path d="m299.078 219.809c1.208 1.208 4.109 2.78 6.163.846 2.054-1.813-.483-3.867-.725-5.438-.363-1.45 1.45-2.417.483-4.834-1.692-4.23-3.988.725-5.438 2.175s-1.208-.967.121-2.175c.604-.725 3.505-2.417 1.813-4.471-1.692-1.934-4.109-.846-5.317 0s-2.175 1.934-3.988 1.329c-1.934-.483-3.505-.725-4.592 1.934-1.208 2.78.967 1.934 2.78 3.988 1.813 1.934.604 2.054-.846 1.571-1.329-.483-1.934-2.296-4.109-1.934-2.054.242-2.054 3.505-1.45 4.351.725.846 1.934 1.208 1.088 2.9-.967 1.571.483 3.505 2.175 4.23s4.23-2.296 5.197-3.505c.846-1.208 1.813-.846 1.571 0-.316 1.554-.518 3.13-.604 4.713 1.45-.483 2.78-.846 4.23-1.208-.048-1.388-.252-2.765-.604-4.109-.604-1.934.846-1.45 2.054-.363z" fill="none" stroke="#00a55c" stroke-width=".36252"/><path d="m262.461 216.184c2.088.111 4.147-.533 5.801-1.813 1.692-1.208 6.163-.483 4.351 2.659-1.813 3.021-1.208 3.746-.121 2.538.967-1.088 2.296-3.142 4.23-2.538 1.934.483 1.208 1.934 0 3.746-.415.429-.648 1.003-.648 1.6 0 .762.379 1.476 1.01 1.904.967.604 2.659 4.23-2.538 5.68-2.296.725-2.659-.363-4.109-.846-1.571-.604-1.571.725-.604 2.296 1.088 1.571 2.175 3.142.967 3.142s-2.175.121-2.417 1.088c-.121.846-2.175-.121-2.538-2.175-.483-1.934-.967-5.801-2.054-3.867-.967 1.934-1.934 4.955-4.592 3.505-2.659-1.45-.846-3.263-2.175-4.592-1.329-1.208-2.538-3.021-1.208-5.317 1.329-2.417 2.417-.363 3.625-.363s1.45-1.208.363-2.054c-1.088-.846-2.417-4.834 2.659-4.592z" fill="#008248"/><path d="m262.461 216.184c2.088.111 4.147-.533 5.801-1.813 1.692-1.208 6.163-.483 4.351 2.659-1.813 3.021-1.208 3.746-.121 2.538.967-1.088 2.296-3.142 4.23-2.538 1.934.483 1.208 1.934 0 3.746-.415.429-.648 1.003-.648 1.6 0 .762.379 1.476 1.01 1.904.967.604 2.659 4.23-2.538 5.68-2.296.725-2.659-.363-4.109-.846-1.571-.604-1.571.725-.604 2.296 1.088 1.571 2.175 3.142.967 3.142s-2.175.121-2.417 1.088c-.121.846-2.175-.121-2.538-2.175-.483-1.934-.967-5.801-2.054-3.867-.967 1.934-1.934 4.955-4.592 3.505-2.659-1.45-.846-3.263-2.175-4.592-1.329-1.208-2.538-3.021-1.208-5.317 1.329-2.417 2.417-.363 3.625-.363s1.45-1.208.363-2.054c-1.088-.846-2.417-4.834 2.659-4.592z" fill="none" stroke="#00a55c" stroke-width=".36252"/><path d="m281.072 150.562c-.604 1.45-1.329 3.384-1.692 4.23-.363.967-2.054.604-1.934 0 .242-1.45-1.813-.483-1.571-1.692.242-.846-.121-2.417.846-2.417 1.088 0 3.021-.121 4.351-.121z" fill="#ba9653"/><path d="m281.072 150.562c-.604 1.45-1.329 3.384-1.692 4.23-.363.967-2.054.604-1.934 0 .242-1.45-1.813-.483-1.571-1.692.242-.846-.121-2.417.846-2.417 1.088 0 3.021-.121 4.351-.121z" fill="none" stroke="#ba9653" stroke-width=".36252"/><path d="m277.93 82.645c.149-.504.351-.99.604-1.45-.725.483-1.45.725-2.054 1.088.363.604.967 1.571 1.45.363zm16.918.846c-.242-.967-1.208.604-2.296 1.934-1.208 1.45-2.9.604-3.021-.121-.36-1.047-.89-2.027-1.571-2.9-1.088-1.329.967-3.142 1.813-3.384.748-.167 1.476-.41 2.175-.725.242-.242-.121-1.571-.363-2.659-3.831 1.208-7.551 2.745-11.118 4.592 1.088.363.725 2.538.604 2.78-.121.363-.483 2.296.363 1.088.486-.798 1.202-1.43 2.054-1.813.846-.242 1.813-.242 1.813 1.088.121 1.329-.483 1.208-.725 2.054-.121.846 0 .846.483.967s.725.725.363 1.692c-.242.846-1.692.967-3.021.846-1.329-.242-1.45 0-.967.363.511.532.848 1.206.967 1.934 3.945-1.872 8.136-3.174 12.448-3.867.181-1.283.181-2.584 0-3.867zm-29.608 18.49c-.483-.846-1.088-.967-1.329-.242-.242.604-.725 2.9-2.175 3.505-.483.121-.846.242-1.208.363.604.483 1.088.967 1.813 1.45 1.026-1.147 2.116-2.237 3.263-3.263-.003-.622-.127-1.238-.363-1.813zm14.019-11.118c-.604-.121-.967.604-1.329 1.088-.363.919-1.318 1.472-2.296 1.329-1.208-.121-1.45-.483-1.813-1.571-.205-.87-1.047-1.449-1.934-1.329-.846 0-1.45-1.088-.483-2.175.846-1.088 1.813-.604 2.659-.604.725 0 1.088-.846.483-1.208-.679-.524-1.184-1.24-1.45-2.054-3.488 2.244-6.801 4.748-9.91 7.493.53.094 1.053.215 1.571.363.69.193 1.149.857 1.088 1.571 0 .846.121 1.088.725.483.483-.483-.121-2.296 1.692-2.9 1.692-.725 1.934.604 1.813 1.45 0 .967 0 1.692.967 2.175.846.363 1.813 1.813-.121 2.538-1.25.551-2.543.996-3.867 1.329-.846.242-.604 1.088.121 1.571l.846.725c2.384-2.113 4.885-4.091 7.493-5.922 1.355-.972 2.766-1.86 4.23-2.659.121-.604.242-1.45-.483-1.692zm-18.369 8.701c.121-.846-.725-1.208-1.088-1.45-.483 0-1.088-.725-1.329-1.329-.514.568-.922 1.223-1.208 1.934.242.604.363 1.208.604 1.692 1.088 0 2.9 0 3.021-.846zm39.638 43.868c-3.463-.129-6.917.447-10.151 1.692.604.363 1.208 1.208 2.417.725 1.813-.604 2.417 1.329 1.571 1.813-.725.604-1.088 1.813.483.846s3.021.483 2.417 1.45c-.725 1.088-1.571.242-1.329 1.692.121 1.45-.121 2.78-1.45 3.021-1.329.242-1.571-1.692-2.175-1.571s.121 3.505-.121 3.505c-.897.232-1.701.739-2.296 1.45h.003c.064 0 .118.053.118.119v.002c5.076 3.625 6.405 1.571 7.251-.121 1.192-3.191 2.162-6.462 2.9-9.789.232-1.601.353-3.217.363-4.834zm-11.239 10.152c.242-.604-.483-1.208-1.329-.846-.846.604-1.934 1.329-2.78 0-.846-1.45.967-1.571.967-2.175.121-.725-.483-.846-.242-1.813.363-1.088 1.571-.846 2.417-.242.967.604.604-.967.483-1.571-.06-.401-.06-.808 0-1.208-1.065.402-2.08.93-3.021 1.571-4.834 2.9-4.955 5.438-3.867 6.405.967.846 3.142 1.208 6.647 3.505.064-1.238.308-2.458.725-3.625zm-15.348-2.78c-2.262-1.367-4.103-3.332-5.317-5.68-1.215-2.348.121-.483-.363-.483-2.111-.119-4.19-.567-6.163-1.329-3.505-1.208-3.988-.483-4.351.967-.687 2.889-1.011 5.853-.967 8.822 0 4.471 1.934 7.251 3.142 6.888.604-.242 2.054-.967 3.746-1.813 0-.967.121-2.417.121-3.263.242-.967-.967-.604-1.45 0-.363.483-1.329 1.45-2.175 1.329s-1.45-1.692-1.208-3.021c.121-1.45-1.571-1.934-.483-3.867 1.088-1.813 1.934.483 2.78.363.967-.242.483-.725 0-2.175s1.329-1.813 2.417-.846c.725.725 1.088-.846 2.054-.604 1.088.242 1.692.967 1.088 2.054-.483.725-.846 2.538 0 1.571.967-.967 1.813-1.571 2.659-.846.846.604.363 2.054.121 2.659-.242.725 1.45 1.571.242 2.417s-2.538-.604-3.263-.363c-.604.121-.725.967.121 1.571.512.407 1.082.733 1.692.967 1.776-.613 3.479-1.424 5.076-2.417l1.208.121c0-1.692-.242-2.659-.725-3.021zm-6.888 20.665c-.846-1.692-1.088-.363-3.142 2.78-2.135 2.943-4.477 5.729-7.009 8.339 2.296.363 7.251 1.571 4.23 4.109-3.142 2.659-1.813 2.417-.363 2.296 1.45-.242 3.867.604 2.054 3.867-1.813 3.142-3.021 5.438-4.713 6.405-1.692 1.088-4.23.967-4.713-1.45s-2.175 0-2.296 1.571c-.122 1.77-.122 3.547 0 5.317l-3.625-.242c-.042-1.937.038-3.874.242-5.801.242-1.45.121-3.142-2.054-2.417-.922.285-1.921.198-2.78-.242-4.23 3.625-6.405 6.284-7.734 8.58 1.215 1.179 3.006 1.556 4.592.967 2.054-.846 5.438.121 3.384 3.384-2.054 3.142-1.934 4.713.121 2.78 2.054-1.934 5.317-5.438 6.405-1.813.604 2.296-1.571 3.021-1.45 4.955s1.934 3.746-.725 6.042-3.746-1.571-5.438-1.088c-.884.321-1.403 1.255-1.208 2.175 2.296 3.384 5.68 8.097 6.888 10.031 1.934 3.142 1.934 6.888 2.659 6.284s2.538-2.296 3.142-2.78c.695-.428 1.038-1.261.846-2.054-.89-3.389-1.258-6.893-1.088-10.393.363-4.351 2.417-9.185 3.867-11.964 1.45-2.659 5.801-11.239 6.888-13.414 1.088-2.296 3.021-4.955 3.384-7.009.483-2.054 2.296-6.888 3.021-9.185-.75-3.459-1.885-6.824-3.384-10.031zm40.847 41.693c-2.417-3.988-2.9-5.68-3.263-9.789-.123-3.07.039-6.144.483-9.185-.846-.121-1.692 0-1.813 1.208-.152 1.963-.644 3.884-1.45 5.68-.604 1.208-2.417 1.208-3.625 1.208-1.088.121-1.088-.604-.363-2.296s1.088-2.417.846-3.988c-.242-1.45-.846-.121-1.571 1.208-.725 1.208-2.538 3.867-4.713 3.625-2.175-.363-1.571-3.625-1.45-4.713.242-1.088-.363-1.329-1.208-1.45-.846-.242-2.659-.604-1.571-3.384.846-2.659 1.934-2.417 3.142-1.934 1.329.483 1.571-.363.363-.846s-2.538-1.571-2.417-2.78c.242-3.505 2.417-3.142 4.109-2.78 1.746.103 3.445-.612 4.592-1.934v-.242c-2.538-9.547 2.296-21.27 3.505-24.532 2.448-5.266 5.193-10.39 8.218-15.348l-4.834-2.417c-1.329-.604-2.054-1.088-2.417-.483l-1.571 1.692c-1.208 1.934-.121 1.571.121 1.571.483 0 2.054 2.054 2.296 2.659.363.363 0 .725-.604 2.296-.846 1.934-1.45 6.526-2.296 9.185-2.175 8.218-5.801 7.372-7.372 6.405-1.571-1.088-2.054.483-3.625 2.78-.483.483-1.45 1.571-2.659 2.78 1.571.725 3.625 2.659 1.208 4.592-3.021 2.296-3.505 3.505-2.054 3.142 1.45-.242 2.78-2.417 4.351-.846 1.571 1.45-.483 3.142-1.45 3.625-.846.483-2.538 1.329-2.054 3.142.483 1.813.846 4.23-1.571 4.713-2.296.604-3.263-.363-3.867-1.571-.725-1.208-1.329-.363-1.571 1.088-.264 1.029-.425 2.082-.483 3.142 0 .604-1.692-.242-2.417-.967-.725-.846-1.692 1.208-2.538.242-.846-1.088.967-4.23 1.571-5.317.604-1.088.363-2.659-3.384-.846-1.208 2.054-2.175 4.955-3.625 9.547-2.317 6.228-5.232 12.218-8.701 17.886-5.076 8.218-6.042 15.831-5.197 20.665.725 4.713 1.329 4.351 2.417 4.351.967 0 3.505 3.142 5.197 5.197 1.692 1.934 2.417 1.088 3.263.363 4.951-3.591 10.256-6.669 15.831-9.185 3.868-1.86 7.866-3.435 11.964-4.713.077-1.545.278-3.081.604-4.592.121-.967-.725-1.208-1.692 0-.846 1.208-3.384 4.23-5.076 3.384-1.692-.725-3.142-2.538-2.175-4.23.846-1.571-.363-1.934-1.088-2.78s-.725-4.23 1.45-4.471c2.054-.242 2.659 1.571 4.109 2.054 1.45.363 2.659.363.846-1.571-1.813-2.054-3.988-1.208-2.9-3.988 1.208-2.659 2.78-2.538 4.713-1.934 1.813.483 2.78-.483 3.988-1.329s3.625-1.934 5.317 0-1.208 3.746-1.934 4.351c-1.208 1.329-1.45 3.625 0 2.296s3.746-6.526 5.438-2.296c.846 2.417-.846 3.505-.604 4.955.363 1.571 2.9 3.505.846 5.438-2.054 1.934-5.076.363-6.284-.846-1.208-1.088-2.538-1.692-1.934.363.397 1.333.6 2.717.604 4.109 4.109-1.088 7.734-1.813 9.547-1.692 2.659.242 4.713 1.088 4.592-1.45-.363-2.538-1.692-4.23-4.109-8.218z" fill="#ba9653"/><path d="m274.667 229.84c-2.296.725-2.659-.363-4.23-.846-1.45-.483-1.571.725-.483 2.296s2.175 3.142.846 3.142c-1.208 0-2.175.121-2.296 1.088s-2.175-.121-2.659-2.175c-.483-1.934-.846-5.68-1.934-3.867-1.088 1.934-1.934 5.076-4.592 3.625-2.659-1.45-.846-3.263-2.175-4.592s-2.659-3.021-1.208-5.438c1.208-2.296 2.417-.363 3.625-.363s1.45-1.088.363-1.934c-1.208-.846-2.538-4.955 2.659-4.592 2.072-.005 4.095-.637 5.801-1.813 1.692-1.208 6.042-.604 4.23 2.538-1.813 3.142-1.208 3.746-.121 2.659 1.088-1.208 2.417-3.142 4.351-2.659s1.088 2.054-.121 3.746c-1.208 1.692-.483 2.78.483 3.505.846.725 2.659 4.23-2.538 5.68zm9.426-22.116c-1.259.029-2.517-.093-3.746-.363-.121 1.813-1.813 4.351-3.625 7.009-.121.242-1.208.242-1.692-.121-.363-.363-1.813-1.088-.725-2.175 1.088-1.088 2.78-3.505 2.417-4.592-.242-.967-1.088-1.934-2.175-.483-1.088 1.45-2.9 4.351-4.955 4.351-1.934.121-3.867-1.571-3.021-3.384.967-1.813 1.208-2.78 0-4.351-1.329-1.571-.846-3.625 1.934-4.955 1.197-.281 2.459.034 3.384.846 1.088.846 1.571 0 .121-.846-1.329-.846-2.538-1.813-2.659-3.746-.121-1.813.846-3.625 3.384-2.659 1.616.827 3.584.587 4.955-.604 1.088-.846 5.438-1.934 4.834 1.934-.483 2.78-1.813 2.9-2.175 4.351-.483 1.571.725.483 1.329-.483.725-1.208 2.296-5.801 5.317-2.296.725.846.483 2.296-.483 3.867-.846 1.571-.121 2.538.483 3.384.604.967 1.813 5.076-2.9 5.317z" fill="#008348"/><path d="m361.557 133.16 2.9-2.054 6.163 9.185 3.746-2.538-6.405-9.064 2.78-1.934 6.768 9.426 3.746-2.538-10.151-14.139-16.677 11.843 9.185 12.931 3.746-2.538zm11.965 32.025 5.438-2.538-3.625-8.097 12.689-5.317-2.296-5.197-18.007 7.855 5.801 13.293zm3.262 8.58.604 4.955 12.085-1.329.483 5.197 5.317-.363-1.329-17.644-5.438.483.363 7.251zm.605 17.161.121 5.922h17.765l-.121-6.042-17.765.121zm8.459 14.381c-3.141-.628-6.406.025-9.064 1.813-2.105 1.52-3.503 3.834-3.867 6.405-.27 2.273-.064 4.578.604 6.768l4.713-1.571c-.532-1.395-.574-2.929-.121-4.351.967-3.263 3.505-4.713 6.768-4.23 3.384.604 5.197 3.625 4.592 7.251-.26 1.622-1.238 3.043-2.659 3.867l2.9 3.384c2.289-1.417 3.938-3.673 4.592-6.284.604-3.384-.242-5.68-1.813-8.459-1.431-2.433-3.865-4.115-6.647-4.592zm-3.263 24.774c-2.538-.604-5.922 2.175-7.493 3.625-.967.967-4.23 4.23-5.801 3.746-1.329-.483-.846-2.538-.363-3.867.486-1.911 1.646-3.585 3.263-4.713l-3.021-1.208c-1.665 1.314-2.922 3.075-3.625 5.076-.777 2.04-1.066 4.234-.846 6.405.363 2.175 1.208 3.625 3.625 3.384 1.813-.121 6.526-3.263 9.305-5.801 1.329-1.208 2.538-1.45 3.142-1.088.967.483.846 2.296.604 3.263-.483 1.45-1.208 3.625-2.296 4.471l3.988 2.659c1.597-1.803 2.646-4.026 3.021-6.405 1.088-5.68-1.934-9.185-3.505-9.547zm-22.357-117.828c-.373-2.702-1.552-5.23-3.384-7.251-2.259-1.946-5.292-2.748-8.218-2.175-3.02.44-5.73 2.101-7.493 4.592-1.814 2.557-2.552 5.727-2.054 8.822.604 2.78 1.813 4.351 4.351 6.163 1.956 1.194 4.136 1.976 6.405 2.296l.483-4.955c-1.53-.045-2.991-.648-4.109-1.692-2.323-1.936-2.798-5.362-1.088-7.855 2.054-2.78 5.559-3.263 8.701-1.208 1.208.846 1.692 2.054 1.934 4.109l4.471-.846zm-181.516 102.36c.121-1.45.121-3.867 1.45-4.109 1.45-.363 2.417 1.088 2.659 2.417.483 2.054.967 3.625.242 5.438l3.746-.363c.544-2.018.544-4.145 0-6.163-.363-2.102-1.428-4.02-3.021-5.438-1.571-1.45-2.78-1.813-5.197-1.329-1.45.242-4.109 2.9-4.23 8.097 0 .967-.242 2.9-1.088 3.021-1.088 0-1.934-1.329-2.175-2.417-.292-1.993-.085-4.028.604-5.922h-3.867c-.662 2.524-.786 5.159-.363 7.734 1.088 5.076 4.23 6.768 6.647 6.405 2.78-.363 4.23-3.142 4.592-7.372zm-7.976-21.632 14.139-.121-.121-4.351-14.019.121v-5.922h-4.592l.242 16.798 4.471-.121-.121-6.405zm25.378-43.869-10.876-6.284h.121l14.26-.242 3.384-5.317-17.523-10.151-2.78 4.109 12.085 7.614-16.436.363-2.296 4.471 17.402 10.031 2.659-4.592zm-17.523 10.272h.059c3.083 0 5.62 2.537 5.62 5.62s-2.537 5.62-5.62 5.62h-.118c-3.083 0-5.62-2.537-5.62-5.62s2.537-5.62 5.62-5.62zm0 16.436c5.967 0 10.876-4.91 10.876-10.876 0-5.967-4.91-10.876-10.876-10.876-5.967 0-10.876 4.91-10.876 10.876.017 5.96 4.917 10.859 10.876 10.876zm7.009 66.105c-3.06-.033-5.559-2.559-5.559-5.62 0-3.083 2.537-5.62 5.62-5.62s5.62 2.537 5.62 5.62v.06c-.091 3.06-2.618 5.534-5.68 5.559zm10.876-5.559c0-5.967-4.91-10.876-10.876-10.876-5.967 0-10.876 4.91-10.876 10.876 0 5.967 4.91 10.876 10.876 10.876 5.944-.059 10.817-4.933 10.876-10.876zm9.548 25.257-.483-.483c-1.208-1.45-5.197-5.68-3.505-7.251 1.571-1.45 5.317 3.505 6.405 4.834l.483.483zm-6.768 6.042c-1.45-1.692-5.801-5.076-3.867-6.768 1.692-1.692 6.042 3.505 6.526 4.23zm-.604-18.973c-1.941 1.953-2.338 4.985-.967 7.372-1.692-.846-5.076-1.208-6.647.242-3.988 3.384.846 8.218 4.713 12.085l5.438 5.438 14.381-11.964-5.801-6.768c-2.175-2.538-7.855-9.305-11.118-6.405z" fill="#fff"/></svg>