<svg clip-rule="evenodd" fill-rule="evenodd" viewBox="0 0 560 400" xmlns="http://www.w3.org/2000/svg"><path d="m409.841 110.662c-6.113 16.083-14.118 32.895-18.121 39.809-6.768 11.572-20.232 18.486-28.091 21.178 0 0-3.858 9.316-7.86 14.411h16.083v21.833l15.429 7.35-15.429 7.714v18.487l-14.919 9.169s-11.863-1.456-17.685-2.11l-47.16 27.292c-9.315 42.72-11.717 55.019-11.717 55.019s-2.256-11.717-11.717-55.019l-47.164-27.287c-5.75.655-17.685 2.11-17.685 2.11l-14.919-9.169v-18.487l-15.429-7.641 15.429-7.35v-21.979h16.083c-3.93-4.876-7.932-14.555-7.932-14.555-4.658-1.602-9.315-3.712-13.318-6.259-6.404-4.003-11.572-9.315-14.919-14.774-5.968-11.426-13.611-28.383-17.686-39.809-2.765-6.914-6.113-17.466-6.113-17.466s8.807 4.148 11.426 5.459c-4.148-12.664-7.86-29.402-7.86-29.402s60.333 39.809 102.684 73.65l.655-.51v-2.256c0-.509 0-1.309.291-2.401.51-1.456 1.602-3.056 4.003-4.658-3.057-2.401-8.806-6.113-9.315-6.768-4.003-3.566-4.804-7.569-4.513-9.461l.656-4.512 22.925 17.029c12.518-3.566 21.323-1.893 27.946 0l22.925-17.029.655 4.512c.291 2.111-.291 5.968-4.512 9.461-.51.51-6.113 4.367-9.315 6.768 2.547 1.602 3.566 3.202 4.003 4.658.291 1.092.291 1.893.291 2.401v2.256l.655.51c43.447-34.642 102.834-73.577 102.834-73.577s-3.056 13.828-7.86 29.402c2.401-1.092 11.426-5.459 11.426-5.459-1.601 8.442-5.167 17.466-5.167 17.466l.009-.004z" fill="#a1a1a4"/><path d="m211.014 188.607h-19.286v20.887l-11.572 5.604 11.572 6.113v18.486l12.809 7.86c4.658-.655 10.625-1.456 17.685-2.11l49.27 28.383 9.024 41.265c0-.145 9.17-41.265 9.17-41.265l49.27-28.383c6.914.801 13.027 1.456 17.685 2.11l12.664-7.86v-18.486l11.572-5.968-11.572-5.749v-20.888h-19.286s3.057-2.911 6.768-9.315c1.602-2.692 3.057-6.113 4.804-9.97 13.973-4.148 24.234-13.172 28.747-21.833 12.008-21.833 21.032-48.761 21.032-48.761s-5.167 2.547-11.426 5.604c4.949-15.429 8.151-28.601 8.151-28.601s-55.238 36.607-98.394 70.958l-3.712-2.256c0-.291.145-3.347.145-3.711 0 0 .51-3.567-5.967-5.75-.51-.146-.801-.291-1.092-.291 3.056-2.401 8.005-5.968 11.426-8.37 5.604-3.857 4.949-8.151 4.949-8.151l-20.523 15.283c-15.72-5.167-28.892 0-28.892 0l-20.523-15.283s-.656 4.148 4.949 8.151c3.566 2.401 8.515 5.968 11.572 8.37-.291.145-.801.291-1.092.291-6.404 2.256-5.968 5.75-5.968 5.75 0 .291.146 3.347.146 3.711l-3.712 1.893c-43.175-34.269-98.34-70.802-98.34-70.802s3.056 13.172 8.151 28.601c-6.769-3.202-11.426-5.604-11.426-5.604s8.951 27 20.887 48.761c4.367 8.806 14.774 17.685 28.747 21.833 0 0 2.401 5.459 4.367 9.315 2.547 4.949 7.205 10.189 7.205 10.189l.015-.009z" fill="#1d1160"/><path d="m397.25 90.794c-39.738 24.307-75.175 51.599-93.669 66.518-.141.655-.504 1.31-.655 1.747 19.441-12.663 53.136-34.643 90.979-59.241 0 0 0 .801 3.344-9.024zm-233.763.073c3.202 9.607 3.348 9.024 3.348 9.024 37.844 24.38 71.757 46.578 91.193 59.242-.363-.51-.514-1.165-.655-1.82-18.271-14.919-53.787-42.211-93.886-66.446zm117.49 44.705c-3.133-.018-6.427.344-9.71 1.145 3.425 4.803 2.921 11.572 2.921 11.572-1.32-6.113-5.318-8.952-7.716-10.262-.947.291-2.045.583-3.354 1.092 2.548 1.019 5.611 3.567 7.716 8.37 1.017 2.401 1.602 11.573 6.769 13.829-4.291 4.002-9.61 2.91-13.608-.656 4.946 10.771 13.316 14.922 16.52 16.231 2.841-2.186 4.291-8.808 2.911-15.576 5.167-2.256 5.822-11.428 6.769-13.829 2.115-5.021 5.167-7.278 7.716-8.37l-3.344-1.092c-2.407 1.238-6.406 4.294-7.716 10.262 0 0-.443-6.769 2.911-11.572-2.659-.728-5.641-1.127-8.784-1.145zm72.536 34.843-3.717 1.088c-12.511 3.345-36.092 6.548-36.092 6.548 11.352.151 21.174 1.098 26.634 1.753 1.168-1.461 2.548-3.062 3.062-4.513 0 0-.514 4.291-1.461 7.061-1.078 3.546-2.599 6.537-3.163 7.202.967-.715 9.71-7.454 14.737-19.14zm-14.737 19.14-.181.141c.03.01.101-.04.181-.141zm-131.472-19.069c5.459 12.522 14.92 19.291 14.92 19.291s-1.893-3.354-3.348-7.353c-.946-2.689-1.456-7.061-1.456-7.061.51 1.309 1.965 3.062 3.057 4.513 5.459-.655 15.21-1.45 26.638-1.743 0 0-23.727-3.354-36.099-6.558l-3.712-1.088zm19.577 64.045c-1.747.151-3.346.292-4.948.514l33.553 19.431c-1.823-1.964-3.274-3.858-4.513-5.973l-24.092-13.971zm107.207 0-24.095 13.971c-1.088 2.115-2.548 4.009-4.513 5.973l33.554-19.431c-1.602-.222-3.203-.363-4.946-.514zm-55.674 1.168c-6.769.141-11.866.947-15.432 1.884.796.947 1.743 1.753 2.548 2.548 3.999 3.858 7.565 5.611 7.565 10.919 0 1.602-.796 3.062-1.894 4.15-.655.947-1.964 1.602-3.052 2.256-.292.222-.806.363-1.088.504 4.503 2.77 7.706 3.858 9.015 4.372 0 0-2.538.433-5.601.141 1.017 1.602 1.964 3.062 2.911 4.805.806-.292 3.344-1.743 6.91-1.743 3.717 0 6.114 1.45 6.628 1.743.796-1.743 1.964-3.203 2.911-4.805-2.911.514-5.601-.141-5.601-.141 1.309-.514 4.654-1.461 9.015-4.372-.282-.212-.796-.363-1.088-.504-.947-.514-2.105-1.309-3.052-2.256-1.098-1.088-1.894-2.397-1.894-4.15 0-5.167 3.566-7.061 7.565-10.919.806-.796 1.602-1.743 2.548-2.548-3.707-.937-8.663-1.743-15.432-1.884l-1.743 22.342h-.151l-1.592-22.342zm-17.466 2.256c-3.354 1.309-5.318 2.548-6.406 3.344 2.397 2.256 6.91 5.167 14.918 6.91-.876-2.397-3.425-5.016-6.114-7.857l-2.397-2.397zm39.002.141-2.397 2.397c-2.619 2.7-5.167 5.318-6.114 7.867 8.149-1.753 12.521-4.664 14.918-6.92-.947-.937-3.062-2.256-6.406-3.344zm-45.268 6.185c2.256 4.372 5.46 8.371 9.458 10.919.151.071 4.664-1.38 5.611-3.344-10.627-2.407-15.069-7.575-15.069-7.575zm51.674.071s-4.372 5.318-15.069 7.575c.947 1.894 5.611 3.344 5.611 3.344 3.999-2.911 7.353-6.547 9.458-10.919z" fill="#00788c"/><path d="m394.268 99.745c-37.844 24.525-71.619 46.578-90.969 59.241-.806 2.11-1.602 3.857-2.548 5.604l76.414-41.555-59.532 43.01 2.911-.51 31.439-3.057s21.324-2.11 33.261-17.976c5.601-8.661 15.059-33.549 15.059-33.549l-14.042 7.058c4.513-10.625 8.008-18.266 8.008-18.266zm-227.427.145s3.347 7.496 8.005 18.121l-13.754-6.913s9.46 24.889 14.991 33.55c11.935 15.865 33.258 17.975 33.258 17.975l31.441 3.058 2.91.509-59.531-43.01 76.199 41.555c-.947-1.747-1.753-3.492-2.548-5.603-19.359-12.664-53.127-34.716-90.971-59.242zm101.887 53.782c.071 0-5.097 8.662 4.513 8.152 0 0-3.858-2.548-4.513-8.152zm23.792 0c-.655 5.604-4.513 8.152-4.513 8.152 9.469.51 4.513-8.152 4.513-8.152zm-63.75 30.643v8.371l1.165 1.088h5.749v-3.052h-2.255v.937h-2.184v-5.087h2.184v.655h2.255v-2.911h-6.914zm12.227 0v9.458h2.256v-3.052h2.689v3.052h2.256v-9.458h-2.256v4.291h-2.689v-4.291zm12.37 0v9.317h2.407v-3.062h2.76v3.062h2.186v-8.23l-1.088-1.088h-6.265zm7.353 9.317v.141l.071-.141zm18.635-9.317v9.458h5.822v-2.115h-3.425v-7.343zm10.476 0v8.371l1.088 1.088h6.265v-8.371l-1.098-1.088zm12.521 0v2.256h2.105v7.202h2.548v-7.202l1.894-.151v-2.105zm11.352 0v2.256h2.105v7.202h2.548v-7.202l1.753-.151v-2.105zm11.856 0v9.458h6.921v-2.115h-4.665v-1.45h4.665v-2.186h-4.665v-1.45h4.665v-2.256h-6.921zm-59.38.212v9.317h2.397v-3.274h1.753l1.45 3.203h2.407l-1.531-3.203h.947v-4.946l-1.098-1.098h-6.326zm-10.405 1.823h2.76v2.256h-2.76zm12.803.071h2.77v1.894h-2.77zm23.51.081h2.689v5.157h-2.689zm48.764 7.132 2.548 2.911v15.281l13.316 5.752v8.512s-3.062-.292-6.92-.947v-2.689l-6.396-.806v8.663c7.051.796 13.608 1.743 19.713 2.911-.141-4.805-.141-11.866-.141-15.361 2.115-.937 3.999-1.884 5.973-2.901-6.406-3.062-12.813-5.611-19.441-8.159v-7.343h6.92v2.689h6.547v-8.512h-22.12zm-143.298.141v18.927s-5.313 2.538-5.313 2.689l5.313 2.76v15.432c2.11-.292 4.148-.796 6.404-1.088v-14.777l7.349-3.052v16.52c2.111-.292 4.148-.655 6.404-.806v-36.605h-6.404v13.175l-7.349 3.052v-16.227zm47.738 5.46 2.548 3.052v25.333c2.256-.151 4.15-.151 6.406-.292v-9.831h-.071c1.602 0 3.052-.141 4.805-.141 1.309 3.052 2.397 6.547 3.556 9.61l6.406-.151c-1.309-3.052-2.397-6.547-3.566-9.61h2.548v-15.059l-2.911-2.911h-19.723zm-25.106.141 2.402 2.911v24.094l2.547 3.052c5.604-.655 11.717-1.088 17.83-1.45v-25.545l-3.057-3.062h-19.723zm101.233 0v5.973h5.601v23.289c2.397.141 4.655.292 7.062.655v-23.943h5.601v-5.973h-18.263zm-51.09.081 2.538 3.052v24.528h6.557c-.071-.222-.071-21.687-.071-21.687h7.343v21.536c2.256 0 4.513 0 6.769.151v-24.528l-3.052-3.052h-20.085zm25.686.141 2.397 3.052v24.749c6.557.141 13.175.514 19.431.947v-6.547h-.141v-.081c-4.15-.141-8.371-.504-12.521-.655v-4.513c4.15.151 8.371.292 12.521.514v-6.406c-4.15-.141-8.371-.141-12.521-.292v-4.795h12.521v-5.973zm-67.027 5.752h7.35v16.661c-2.547.151-4.803.292-7.35.514v-17.174zm25.184 0h7.343v5.752c-2.538 0-4.805 0-7.343.141zm26.2 66.733c-3.062 0-3.858.806-4.805 1.461l4.946 19.864 4.664-19.723c-.655-.796-1.753-1.602-4.805-1.602z" fill="#fff"/></svg>