<svg clip-rule="evenodd" fill-rule="evenodd" viewBox="0 0 560 400" xmlns="http://www.w3.org/2000/svg"><path d="m390.287 168.826c-.943-16.294-8.214-30.972-12.524-39.725l-.539-.943-1.885-3.771.404 4.175c.404 5.79 1.751 25.72-4.175 37.167-7.406 15.217-29.087 13.735-36.224 13.331h-.404c-11.716-.808-49.825-2.155-61.54-2.155-15.351.135-32.319 1.347-46.054 2.424-6.733.539-12.524.943-16.429 1.077-.404 0-.808.135-1.481.135-19.122 1.751-31.241-3.905-35.955-16.833-2.828-7.945-2.828-23.7-2.828-31.241v-5.386l-1.481 2.693c-6.876 12.234-11.14 25.761-12.524 39.725-1.347 24.239 11.312 32.992 20.873 37.301 10.1 4.713 20.334 5.386 23.7 5.656h.135c.757.112 1.524.157 2.289.135 1.129-.039 2.258.052 3.367.269-1.885.404-4.309.808-6.329 1.077-2.289.539-4.444.808-5.521 1.077-2.289.539-11.985 2.693-17.102 4.578-4.309 1.481-9.157 3.771-9.292 3.771l-.808.404.673.808s1.616 2.155 3.232 3.905c6.6 5.936 15.406 8.823 24.239 7.945 9.022-1.077 14.005-3.367 15.89-4.309.972 3.432 2.141 6.804 3.501 10.1 4.04 10.1 13.466 29.626 16.967 36.359 2.828 5.521 5.656 10.369 7.541 13.601l.673 1.212c-.571 1.754-1.709 3.27-3.232 4.309-.269.269-.404.539-.673.673l-.135.269v.404c-.135 1.751-.539 18.853 10.908 31.241l.135.135h.135c5.79 2.289 13.197 4.578 25.316 4.578 12.254 0 22.623-2.963 26.259-4.713l.135-.135.135-.135c7.945-9.426 11.716-23.835 11.716-28.952v-.269l-.269-.269-.539-.539c-1.883-1.666-3.202-3.879-3.771-6.329 1.077-1.616 2.963-5.656 4.578-8.888.567-1.44 1.242-2.836 2.02-4.175 3.367-6.733 13.197-28.01 17.237-37.975 2.424-6.464 3.771-9.561 4.444-10.908 1.751.943 6.464 3.097 15.351 4.04 11.446 1.077 22.354-6.464 25.451-10.773.539-.673 1.347-1.616 1.481-1.751l.673-.808-.943-.404c-.135 0-.404-.135-2.289-.808l-6.329-2.02-6.329-2.155c-1.751-.539-9.561-2.289-15.082-3.501l-4.309-.943 1.347-.269c13.197-2.828 48.209-8.888 46.189-43.496z"/><path d="m169.308 133.814c-.404 9.022-.269 18.853 1.751 27.471-1.829-1.944-3.763-3.786-5.79-5.521-1.885 2.02-3.501 4.175-5.386 6.06 1.938-9.699 5.106-19.112 9.426-28.01z" fill="#ce1141"/><path d="m169.308 133.814c-.404 9.022-.269 18.853 1.751 27.471-1.829-1.944-3.763-3.786-5.79-5.521-1.885 2.02-3.501 4.175-5.386 6.06 1.938-9.699 5.106-19.112 9.426-28.01z" fill="none" stroke="#ce1141" stroke-width=".26928"/><path d="m386.786 157.784.539 2.424-4.713-3.367c-2.155.943-4.175 2.289-6.194 3.232 1.469-8.852 1.92-17.843 1.347-26.798 4.175 7.676 6.464 16.025 9.022 24.508z" fill="#ce1141"/><path d="m386.786 157.784.539 2.424-4.713-3.367c-2.155.943-4.175 2.289-6.194 3.232 1.469-8.852 1.92-17.843 1.347-26.798 4.175 7.676 6.464 16.025 9.022 24.508z" fill="none" stroke="#ce1141" stroke-width=".26928"/><path d="m273.671 243.16c4.848 7.541 13.87 9.696 22.219 7.541 3.071-.687 6.054-1.726 8.888-3.097-2.899 8.213-4.313 16.878-4.175 25.586.025 7.552 1.252 15.053 3.636 22.219-1.212-.269-2.289-1.212-3.636-1.751-16.563-8.349-39.86-8.08-56.154.539.808-2.559 1.616-5.521 2.289-8.214 2.424-12.524.673-25.586-3.636-37.032 8.753 3.636 21.546 4.444 28.683-3.636.56-.775 1.192-1.496 1.885-2.155z" fill="#ce1141"/><path d="m273.671 243.16c4.848 7.541 13.87 9.696 22.219 7.541 3.071-.687 6.054-1.726 8.888-3.097-2.899 8.213-4.313 16.878-4.175 25.586.025 7.552 1.252 15.053 3.636 22.219-1.212-.269-2.289-1.212-3.636-1.751-16.563-8.349-39.86-8.08-56.154.539.808-2.559 1.616-5.521 2.289-8.214 2.424-12.524.673-25.586-3.636-37.032 8.753 3.636 21.546 4.444 28.683-3.636.56-.775 1.192-1.496 1.885-2.155z" fill="none" stroke="#ce1141" stroke-width=".26928"/><path d="m236.773 249.354c-.404 3.501-1.616 7.541-5.386 8.888-3.097.808-5.79-.943-7.81-3.097-.938-1.025-1.588-2.279-1.885-3.636 4.713 3.097 10.908.673 14.947-2.289l.135.135z" fill="#ce1141"/><path d="m236.773 249.354c-.404 3.501-1.616 7.541-5.386 8.888-3.097.808-5.79-.943-7.81-3.097-.938-1.025-1.588-2.279-1.885-3.636 4.713 3.097 10.908.673 14.947-2.289l.135.135z" fill="none" stroke="#ce1141" stroke-width=".26928"/><path d="m325.515 249.758c-1.077 3.232-3.905 6.464-7.137 7.137-2.472.383-4.941-.797-6.194-2.963-.847-1.19-1.359-2.584-1.481-4.04 4.175 3.367 10.773 2.559 14.813-.135z" fill="#ce1141"/><path d="m325.515 249.758c-1.077 3.232-3.905 6.464-7.137 7.137-2.472.383-4.941-.797-6.194-2.963-.847-1.19-1.359-2.584-1.481-4.04 4.175 3.367 10.773 2.559 14.813-.135z" fill="none" stroke="#ce1141" stroke-width=".26928"/><path d="m316.358 258.915c1.779.176 3.575-.054 5.252-.673-4.713 11.716-10.369 23.027-16.159 34.339-2.02-5.656-1.481-11.716-1.212-18.045.899-7.368 2.523-14.631 4.848-21.681 1.616 2.693 4.175 5.521 7.272 6.06z" fill="#ce1141"/><path d="m316.358 258.915c1.779.176 3.575-.054 5.252-.673-4.713 11.716-10.369 23.027-16.159 34.339-2.02-5.656-1.481-11.716-1.212-18.045.899-7.368 2.523-14.631 4.848-21.681 1.616 2.693 4.175 5.521 7.272 6.06z" fill="none" stroke="#ce1141" stroke-width=".26928"/><path d="m242.698 292.446v.135c-7.137-10.773-12.524-22.219-17.641-33.665 2.289 1.212 6.194 2.02 8.618.404 2.174-1.7 3.735-4.066 4.444-6.733 5.79 11.581 7.137 26.663 4.578 39.86z" fill="#ce1141"/><path d="m242.698 292.446v.135c-7.137-10.773-12.524-22.219-17.641-33.665 2.289 1.212 6.194 2.02 8.618.404 2.174-1.7 3.735-4.066 4.444-6.733 5.79 11.581 7.137 26.663 4.578 39.86z" fill="none" stroke="#ce1141" stroke-width=".26928"/><path d="m309.087 301.603c-.939 9.854-4.837 19.197-11.177 26.798-14.678 5.79-34.473 6.329-49.151.135-7.272-7.81-9.965-17.91-10.369-28.683 15.621-11.312 39.994-13.87 57.904-5.79 4.444 2.155 8.888 4.309 12.793 7.541z" fill="#ce1141"/><path d="m309.087 301.603c-.939 9.854-4.837 19.197-11.177 26.798-14.678 5.79-34.473 6.329-49.151.135-7.272-7.81-9.965-17.91-10.369-28.683 15.621-11.312 39.994-13.87 57.904-5.79 4.444 2.155 8.888 4.309 12.793 7.541z" fill="none" stroke="#ce1141" stroke-width=".26928"/><path d="m369.55 220.537c-13.287-4.733-27.241-7.324-41.341-7.676-1.212-14.947-2.963-24.239-5.925-32.723-6.868-.404-37.301-1.616-49.151-1.616-11.716 0-41.745 1.885-48.478 2.289-3.836 10.553-6.325 21.547-7.406 32.723-14.978 1.157-29.738 4.281-43.9 9.292-1.885.673-2.693 1.347-2.693 1.212 5.146 6.54 12.957 10.445 21.277 10.638 4.04.135 11.716-.673 16.563-2.828 1.347-.539 4.04-1.751 4.04-1.751.526.904.976 1.85 1.347 2.828 1.347 3.771 3.097 9.292 4.309 11.581 1.751 3.636 4.578 6.329 9.157 6.464 3.022-.169 5.825-1.645 7.676-4.04-11.85-.673-16.833-7.002-17.641-16.563-2.828-.404-3.636-.673-3.905-2.289-.352-1.715.094-3.5 1.212-4.848 1.347-1.885 3.636-3.636 9.292-1.885 3.218 1.252 6.184 3.077 8.753 5.386 2.424 2.289 9.561 9.696 13.87 12.12 4.578 2.693 13.331 5.252 18.987-.404 3.598-3.401 5.967-7.901 6.733-12.793-8.925-.242-17.828-1.007-26.663-2.289-2.424-.404-1.347-2.693.539-2.155 0 0 15.486 2.02 26.528 2.155 0-1.347 0-3.501.135-6.06-9.307-.196-18.584-1.142-27.74-2.828-2.02-.539-1.616-2.828.269-2.289 9.09 1.487 18.266 2.387 27.471 2.693 0-1.885.135-4.713.135-7.272-9.114-.135-18.206-.945-27.202-2.424-2.289-.404-1.751-2.424 0-2.155 9.019 1.232 18.101 1.951 27.202 2.155v-6.06c0-2.289 2.02-2.424 2.02-.135v6.06c8.575-.209 17.124-1.019 25.586-2.424 2.693-.539 2.424 1.751 1.212 1.885-8.842 1.705-17.8 2.74-26.798 3.097v7.272c8.214-.269 17.91-.539 26.124-2.424 3.097-.673 3.367 1.751.808 2.155-8.861 1.51-17.813 2.41-26.798 2.693 0 2.02 0 4.578.135 6.06 9.33-.285 18.636-1.094 27.875-2.424 2.155-.404 2.559 1.885.269 2.289-2.289.269-17.775 2.289-27.74 2.559 1.077 3.367 1.212 8.214 6.06 12.389 4.578 4.04 12.524 3.636 18.045.404 4.309-2.559 11.177-9.965 13.601-12.254 2.02-1.751 6.868-6.194 13.331-6.06 6.329.135 6.464 3.367 6.868 4.309.269 1.077.539 2.828-.943 3.771-1.077.673-2.155.404-3.232.943-.808 5.252-2.424 11.177-6.598 14.274-4.444 3.367-11.312 3.771-11.312 3.771s.943 1.077 1.212 1.347c1.795 1.28 4.002 1.856 6.194 1.616 2.858-.486 5.494-1.852 7.541-3.905 2.155-2.828 4.175-8.618 5.656-12.389.539-1.347 1.885-3.905 2.289-4.982 1.347.539 1.885.943 4.309 1.885 4.948 1.859 10.201 2.773 15.486 2.693 6.598-.135 14.139-4.175 18.583-8.349.673-.673 2.289-2.559 2.289-2.559s-4.309-1.751-5.521-2.155z" fill="#ce1141"/><path d="m369.55 220.537c-13.287-4.733-27.241-7.324-41.341-7.676-1.212-14.947-2.963-24.239-5.925-32.723-6.868-.404-37.301-1.616-49.151-1.616-11.716 0-41.745 1.885-48.478 2.289-3.836 10.553-6.325 21.547-7.406 32.723-14.978 1.157-29.738 4.281-43.9 9.292-1.885.673-2.693 1.347-2.693 1.212 5.146 6.54 12.957 10.445 21.277 10.638 4.04.135 11.716-.673 16.563-2.828 1.347-.539 4.04-1.751 4.04-1.751.526.904.976 1.85 1.347 2.828 1.347 3.771 3.097 9.292 4.309 11.581 1.751 3.636 4.578 6.329 9.157 6.464 3.022-.169 5.825-1.645 7.676-4.04-11.85-.673-16.833-7.002-17.641-16.563-2.828-.404-3.636-.673-3.905-2.289-.352-1.715.094-3.5 1.212-4.848 1.347-1.885 3.636-3.636 9.292-1.885 3.218 1.252 6.184 3.077 8.753 5.386 2.424 2.289 9.561 9.696 13.87 12.12 4.578 2.693 13.331 5.252 18.987-.404 3.598-3.401 5.967-7.901 6.733-12.793-8.925-.242-17.828-1.007-26.663-2.289-2.424-.404-1.347-2.693.539-2.155 0 0 15.486 2.02 26.528 2.155 0-1.347 0-3.501.135-6.06-9.307-.196-18.584-1.142-27.74-2.828-2.02-.539-1.616-2.828.269-2.289 9.09 1.487 18.266 2.387 27.471 2.693 0-1.885.135-4.713.135-7.272-9.114-.135-18.206-.945-27.202-2.424-2.289-.404-1.751-2.424 0-2.155 9.019 1.232 18.101 1.951 27.202 2.155v-6.06c0-2.289 2.02-2.424 2.02-.135v6.06c8.575-.209 17.124-1.019 25.586-2.424 2.693-.539 2.424 1.751 1.212 1.885-8.842 1.705-17.8 2.74-26.798 3.097v7.272c8.214-.269 17.91-.539 26.124-2.424 3.097-.673 3.367 1.751.808 2.155-8.861 1.51-17.813 2.41-26.798 2.693 0 2.02 0 4.578.135 6.06 9.33-.285 18.636-1.094 27.875-2.424 2.155-.404 2.559 1.885.269 2.289-2.289.269-17.775 2.289-27.74 2.559 1.077 3.367 1.212 8.214 6.06 12.389 4.578 4.04 12.524 3.636 18.045.404 4.309-2.559 11.177-9.965 13.601-12.254 2.02-1.751 6.868-6.194 13.331-6.06 6.329.135 6.464 3.367 6.868 4.309.269 1.077.539 2.828-.943 3.771-1.077.673-2.155.404-3.232.943-.808 5.252-2.424 11.177-6.598 14.274-4.444 3.367-11.312 3.771-11.312 3.771s.943 1.077 1.212 1.347c1.795 1.28 4.002 1.856 6.194 1.616 2.858-.486 5.494-1.852 7.541-3.905 2.155-2.828 4.175-8.618 5.656-12.389.539-1.347 1.885-3.905 2.289-4.982 1.347.539 1.885.943 4.309 1.885 4.948 1.859 10.201 2.773 15.486 2.693 6.598-.135 14.139-4.175 18.583-8.349.673-.673 2.289-2.559 2.289-2.559s-4.309-1.751-5.521-2.155z" fill="none" stroke="#ce1141" stroke-width=".26928"/><path d="m298.583 303.219c1.212 2.289.269 4.848-1.077 6.868-2.442 3.041-6.464 4.364-10.234 3.367-2.326-.74-4.325-2.263-5.656-4.309-.539 1.885.808 3.232.673 4.982-.131.201-.356.322-.596.322-.178 0-.35-.066-.481-.187-2.155-2.828-2.963-7.137-1.077-10.234 2.289-4.309 6.733-6.06 11.446-5.656 2.973.402 5.579 2.207 7.002 4.848z"/><path d="m298.583 303.219c1.212 2.289.269 4.848-1.077 6.868-2.442 3.041-6.464 4.364-10.234 3.367-2.326-.74-4.325-2.263-5.656-4.309-.539 1.885.808 3.232.673 4.982-.131.201-.356.322-.596.322-.178 0-.35-.066-.481-.187-2.155-2.828-2.963-7.137-1.077-10.234 2.289-4.309 6.733-6.06 11.446-5.656 2.973.402 5.579 2.207 7.002 4.848z" fill="none" stroke="#ce1141" stroke-width=".26928"/><path d="m266.129 304.7c1.885 3.097.943 7.137-.808 10.1-.269.404-.673.808-1.212.404-.808-.943.269-1.751.404-2.693.246-.784.292-1.617.135-2.424-2.322 3.407-6.441 5.15-10.504 4.444-3.044-.732-5.555-2.89-6.733-5.79-.564-1.867-.268-3.893.808-5.521 2.828-3.771 7.945-4.578 12.12-3.232 2.442.809 4.503 2.487 5.79 4.713z"/><path d="m266.129 304.7c1.885 3.097.943 7.137-.808 10.1-.269.404-.673.808-1.212.404-.808-.943.269-1.751.404-2.693.246-.784.292-1.617.135-2.424-2.322 3.407-6.441 5.15-10.504 4.444-3.044-.732-5.555-2.89-6.733-5.79-.564-1.867-.268-3.893.808-5.521 2.828-3.771 7.945-4.578 12.12-3.232 2.442.809 4.503 2.487 5.79 4.713z" fill="none" stroke="#ce1141" stroke-width=".26928"/><path d="m298.314 325.034c-.269.673-.404.673-.943 1.347-1.481-.404-3.097-.943-4.713-1.481-13.466-5.252-30.568-3.771-43.226 1.481-.415-.285-.705-.719-.808-1.212 14.678-6.598 34.877-7.406 49.69-.135z"/><path d="m298.314 325.034c-.269.673-.404.673-.943 1.347-1.481-.404-3.097-.943-4.713-1.481-13.466-5.252-30.568-3.771-43.226 1.481-.415-.285-.705-.719-.808-1.212 14.678-6.598 34.877-7.406 49.69-.135z" fill="none" stroke="#ce1141" stroke-width=".26928"/><path d="m300.738 253.529c-2.155 10.638-8.888 22.892-20.199 25.99-8.888 2.289-18.853.404-24.912-7.002-4.18-5.343-6.666-11.817-7.137-18.583.414-.218.881-.311 1.347-.269.943 10.1 6.194 21.142 16.294 24.239 9.141 2.903 19.181-.034 25.316-7.406 3.905-5.179 6.617-11.157 7.945-17.506.506-.026.999.171 1.347.539z"/><path d="m300.738 253.529c-2.155 10.638-8.888 22.892-20.199 25.99-8.888 2.289-18.853.404-24.912-7.002-4.18-5.343-6.666-11.817-7.137-18.583.414-.218.881-.311 1.347-.269.943 10.1 6.194 21.142 16.294 24.239 9.141 2.903 19.181-.034 25.316-7.406 3.905-5.179 6.617-11.157 7.945-17.506.506-.026.999.171 1.347.539z" fill="none" stroke="#ce1141" stroke-width=".26928"/><path d="m168.365 67.696c-2.149-1.795-4.877-2.752-7.676-2.693-3.097.135-14.543 4.04-14.543 21.007 0 17.102 10.369 22.623 16.563 22.623s12.524-4.713 14.543-13.062c.269-1.212.135-1.347-1.077-1.885l-4.04-1.616c-.943-.269-1.077-.269-1.616 1.347-.404 1.212-2.155 6.06-6.329 6.06-4.175 0-5.925-6.06-5.925-12.524 0-6.329 1.077-12.389 6.194-12.389s6.194 5.386 6.598 7.406c.135.943.269.943 1.212.943h3.771c.808 0 .808 0 .808-1.751v-14.005c0-.808-.135-.808-1.751-.808h-3.367c-.673 0-.673.135-1.077 1.077-.404.539-1.212 1.347-2.289.269zm153.649 6.867 7.81 24.643c.404 1.077.404 1.212 1.077 1.212h1.077c1.347 0 1.347 0 1.347 1.077v4.713c0 1.616-.135 1.616-.943 1.616h-15.486c-1.347 0-1.347-.135-1.347-1.077v-4.848c0-1.481.135-1.481 1.212-1.481h1.481c.808 0 .808-.269.539-1.212l-1.212-3.771c-.404-.673-.539-.673-1.481-.673h-9.426l2.02-5.656h5.79c.943 0 1.077-.135.808-.808l-3.501-10.908c-.135-.673-.404-.673-.539-.135l-3.501 11.042c-.269.808-.269.808 1.077.808l-2.02 5.656c-1.077 0-1.077 0-1.347.673l-1.212 3.771c-.269 1.077-.269 1.212.404 1.212h1.481c1.212 0 1.212.135 1.212 1.481v4.848c0 .943-.135 1.077-1.347 1.077h-10.638c-.943 0-.943-.135-.943-1.616v-4.713c0-.943.135-1.077 1.212-1.077h1.077l.145.011c.47 0 .872-.352.933-.819l7.945-24.912c.269-.673.269-.808-.943-.808h-1.481c-1.212 0-1.212-.135-1.212-1.077v-4.982c0-1.481 0-1.481 1.751-1.481h20.603c1.212 0 1.212.135 1.212 1.481v4.713c0 1.077 0 1.077-1.481 1.077h-1.616c-.808-.135-.808.135-.539.943zm37.301 18.718h2.693c1.212 0 1.212.135 1.212.808 0 2.424-1.751 5.386-6.194 5.386-4.175 0-5.925-6.06-5.925-12.524 0-6.329 1.077-12.389 6.194-12.389 3.085-.091 5.842 1.991 6.598 4.982.135.943.135.943 1.212.943h3.771c.808 0 .808 0 .808-1.885v-11.446c0-.808-.135-.808-1.751-.808h-3.367c-.673 0-.673 0-1.212 1.077-.135.539-1.077 1.347-2.155.269-2.16-1.775-4.88-2.729-7.676-2.693-3.097.135-14.543 4.04-14.543 21.007 0 17.102 10.234 22.623 16.563 22.623 9.426 0 16.698-7.137 16.698-20.603 0-1.347-.135-1.481-2.02-1.481h-11.177c-1.077 0-1.212.135-1.212 1.347v4.444c0 .943.135.943 1.481.943zm36.224-27.201c-10.234 0-18.449 9.696-18.449 21.411 0 11.85 8.214 21.277 18.449 21.277 10.1 0 18.314-9.426 18.314-21.277 0-11.716-8.214-21.411-18.314-21.411l-.135 7.676c3.771 0 6.868 6.194 6.868 13.735s-2.963 13.735-6.868 13.735c-3.771 0-6.868-6.194-6.868-13.735s3.097-13.735 6.868-13.735zm-206.705 33.396v-24.643c0-.943-.135-1.077-1.077-1.077h-1.212c-1.212 0-1.212-.135-1.212-.943v-5.386c0-.943.135-1.077 1.481-1.077h14.543c1.077 0 1.212 0 1.212 1.077v4.982c0 1.077-.135 1.077-1.212 1.077h-.808c-.673 0-.808 0-.673.943v7.137c0 1.751 0 1.885 1.481 1.885h7.81c1.481 0 1.481-.135 1.481-1.885v-7.137c0-.943-.135-.943-.673-.943h-.808c-1.212 0-1.347 0-1.347-1.077v-4.982c0-1.077.269-1.077 1.347-1.077h14.409c1.616 0 1.616 0 1.616 1.077v5.386c0 .943-.135.943-1.347.943h-1.212c-.943 0-.943.135-.943 1.077v24.643c0 .943.135.943 1.212.943h1.212c1.077 0 1.077 0 1.077 1.481v4.848c0 .808 0 1.077-1.347 1.077h-15.351c-.943 0-.943 0-.943-1.616v-4.713c-.135-1.077 0-1.077 1.212-1.077h.808c.943 0 .943-.135.943-1.077v-7.676c0-1.751-.135-1.885-1.347-1.885h-7.81c-1.212 0-1.347.135-1.347 1.885v7.676c0 1.077 0 1.077.943 1.077h.808c1.212 0 1.212 0 1.212 1.077v4.713c0 1.616 0 1.616-.943 1.616h-15.486c-1.212 0-1.212 0-1.212-1.077v-4.848c0-1.481.135-1.481.943-1.481h1.347c1.212 0 1.212 0 1.212-.943zm47.131-24.913c0-.943 0-.943-.673-.943h-1.347c-1.347 0-1.347-.135-1.347-1.077v-5.117c0-1.077.135-1.077 1.212-1.077h14.409c1.616 0 1.616 0 1.616 1.077v5.386c0 .943-.135.943-1.347.943h-.673c-.943 0-.943.135-.943 1.077v24.643c0 .943.135.943 1.212.943h1.077c.943 0 .943 0 .943 1.481v4.848c0 .808 0 1.077-1.212 1.077h-15.351c-.943 0-.943 0-.943-1.616v-4.713c-.135-1.077 0-1.077 1.212-1.077h1.212c.943 0 .943 0 .943-1.077zm42.149-6.867c-2.16-1.775-4.88-2.729-7.676-2.693-3.097.135-14.543 4.04-14.543 21.007 0 17.102 10.234 22.623 16.563 22.623 6.194 0 12.524-4.713 14.543-13.062.269-1.212.135-1.347-1.077-1.885l-4.04-1.616c-.943-.269-1.077-.269-1.616 1.347-.404 1.212-2.155 6.06-6.329 6.06-4.175 0-5.925-6.06-5.925-12.524 0-6.329 1.077-12.389 6.194-12.389s6.194 5.386 6.598 7.406c.135.943.269.943 1.212.943h3.771c.808 0 .808 0 .808-1.751v-14.005c0-.808-.135-.808-1.751-.808h-3.367c-.673 0-.673.135-1.077 1.077-.404.539-1.212 1.347-2.289.269zm-91.704 59.655v24.508c0 .808-.135.808-.943.808h-1.347c-1.077 0-1.212.269-1.212 1.347v5.117c0 .943.269.943 1.347.943h22.488l-7.676-7.81c-1.481 0-1.616 0-1.616-1.616v-7.002c0-1.347.135-1.481 1.616-1.481v-6.329c-1.616 0-1.616-.135-1.616-1.481v-7.137c0-1.481.135-1.481 1.481-1.481 1.481 0 7.406.135 7.406 5.252s-5.386 4.848-7.272 4.848v6.464c1.616 0 7.272.135 7.272 5.252s-5.386 4.982-7.272 4.982l7.676 7.81c5.656 0 9.83-5.117 9.83-10.908 0-5.79-3.636-8.08-6.598-10.234 2.155-1.616 5.79-4.04 5.79-9.83 0-6.464-6.329-10.504-10.234-10.504h-20.738c-1.751 0-1.885 0-1.885 1.347v5.252c0 .808.135.943 1.347.943h1.347c.808-.269.808-.135.808.943zm68.812-.404v21.142c0 5.386-2.828 13.331-13.466 13.331-10.773 0-15.89-7.945-15.89-13.331v-21.142c0-.943-.135-.943-.943-.943h-1.212c-1.212 0-1.212 0-1.212-1.077v-4.713c0-1.616.135-1.616 1.481-1.616h14.409c1.077 0 1.347 0 1.347 1.347v4.713c0 1.077-.135 1.077-1.616 1.077h-1.212c-.673 0-.808.135-.808.943v20.603c.09 3.392 2.937 6.117 6.329 6.06l.402.015c3.181 0 5.799-2.618 5.799-5.799l-.007-.275v-20.334c0-1.212-.135-1.212-1.077-1.212h-1.077c-1.212 0-1.347 0-1.347-1.077v-4.713c0-1.212 0-1.347 1.212-1.347h10.638c1.885 0 1.885 0 1.885 1.347v4.982c0 1.077 0 1.077-1.347 1.077h-1.347c-.943.135-.943.135-.943.943zm50.229 25.72h-1.481c-.943 0-1.077.269-1.077 1.616v4.848c0 .943.135.943 1.212.943h26.528c1.212 0 1.347 0 1.347-1.481v-11.985c0-1.077-.135-1.077-1.347-1.077h-3.771c-1.212 0-1.347 0-1.347 1.481v4.175c0 1.616-.135 1.751-1.212 1.751h-5.925c-1.751 0-1.885-.269-1.885-1.347v-23.97c0-1.616 0-1.616.943-1.616h1.481c1.212 0 1.212-.135 1.212-1.077v-4.713c0-1.347 0-1.481-1.347-1.481h-14.139c-1.885 0-1.885.135-1.885 1.481v4.848c0 1.077.135 1.212 1.347 1.212h1.212c.943 0 .943 0 .943 1.481v23.835c.135 1.077 0 1.077-.808 1.077zm61.54-4.04c0 8.753-8.349 12.524-11.85 12.524-2.777-.072-5.463-1.014-7.676-2.693-1.077-1.077-2.289.135-2.693.673-.539.943-.673 1.077-1.077 1.077h-1.751c-1.751 0-1.616 0-1.616-.943v-11.446c0-1.885 0-1.885.673-1.885h2.693c.943 0 .943.135 1.212.943 1.027 3.306 4.079 5.595 7.541 5.656 2.02 0 3.636-.539 3.636-2.289 0-3.905-2.289-4.848-6.329-7.002-4.04-2.02-10.1-4.444-10.1-13.331-.024-6.505 5.089-11.974 11.581-12.389 2.657.052 5.222 1.001 7.272 2.693.31.246.694.379 1.089.379.696 0 1.328-.414 1.605-1.053.673-1.077.673-1.077 1.212-1.077h1.751c1.616 0 1.751 0 1.751.943v11.446c0 1.751 0 1.885-.808 1.885h-2.559c-1.077 0-1.077-.135-1.347-.943-1.222-3.338-4.39-5.594-7.945-5.656l-.227-.01c-1.359 0-2.477 1.118-2.477 2.477l.01.227c0 2.424 2.693 4.578 7.272 6.868 4.578 2.155 9.157 5.521 9.157 12.928zm-98.438 4.04h-1.481c-.943 0-1.077.269-1.077 1.616v4.848c0 .943.135.943 1.347.943h26.528c1.077 0 1.212 0 1.212-1.481v-11.985c0-1.077-.135-1.077-1.212-1.077h-3.905c-1.212 0-1.347 0-1.347 1.481v4.175c0 1.616-.135 1.751-1.212 1.751h-5.925c-1.751 0-1.751-.269-1.751-1.347v-23.97c0-1.616 0-1.616.808-1.616h1.481c1.212 0 1.212-.135 1.212-1.077v-4.713c0-1.347 0-1.481-1.347-1.481h-14.139c-1.751 0-1.751.135-1.751 1.481v4.848c0 1.077 0 1.212 1.212 1.212h1.212c.943 0 .943 0 .943 1.481v23.835c.135 1.077 0 1.077-.808 1.077z"/><path d="m173.348 168.153c5.79 11.177 17.506 14.813 29.491 14.139 6.598 0 13.062-.673 19.661-1.077v.404c-3.343 9.378-5.691 19.083-7.002 28.952-17.237.673-34.877-.808-47.536-12.254-8.753-8.753-10.908-20.873-9.022-32.857l6.329-6.868c2.828 3.097 7.406 5.521 8.08 9.561zm214.516-4.982c.404 1.751.404 3.367.673 5.252.808 13.197-4.982 25.451-16.294 32.184-12.389 7.541-26.663 9.965-41.88 10.504-.269-1.347-.404-3.232-.673-4.713-1.062-8.744-2.818-17.389-5.252-25.855 16.294-.269 36.089 4.04 46.862-10.908 1.347-2.155 2.828-3.905 4.04-6.194 2.424-1.077 4.713-2.693 7.137-3.905 2.02.943 3.367 2.559 5.386 3.636zm-61.81 67.196c.135 5.117-1.616 10.369-6.194 12.793-2.161 1.106-4.578 1.617-7.002 1.481-.067-.492-.067-.99 0-1.481 3.636 0 7.272-1.347 9.292-4.309 1.252-2.363 1.901-5 1.885-7.676.598-.429 1.292-.706 2.02-.808zm-91.839 13.735c-.748.212-1.541.212-2.289 0h-.017c-6.512 0-11.869-5.357-11.869-11.869 0-.307.012-.616.036-.924.74-.269 1.55-.269 2.289 0 0 4.713 1.885 10.908 11.581 10.908.673 1.077 0 1.212.269 1.885z" fill="#fff"/></svg>