<svg clip-rule="evenodd" fill-rule="evenodd" viewBox="0 0 560 400" xmlns="http://www.w3.org/2000/svg"><path d="m284.753 20.017-4.247 9.322c-3.577 7.824-5.266 16.031-6.107 24.436-.814 8.22-.814 16.879-.855 25.988l-.67 72.466c-26.139 10.833-50.554 26.528-65.059 38.483-.328.513-7.352 11.36-11.339 17.549 5.512-1.354 19.607-4.835 19.607-4.835l-4.555 5.745c-27.595 34.653-18.082 56.764-16.913 59.171l.068.137.055.13c2.859 8.008 9.451 14.15 19.607 18.205 6.675 2.66 14.93 3.72 25.229 3.235 10.361-.479 21.242-2.763 32.095-6.265l-.048 7.106c-9.308 5.081-16.81 13.958-20.811 24.641-1.525 4.192-2.483 8.665-2.715 13.268-.034.752-.021 3.296-.294 6.757-.26 3.269-.8 7.393-1.99 11.531l-.65 2.332-2.462 5.758c.239.978 6.894-1.258 9.882-2.339.458-.157 1.122-.445 2.018-.93 1.593-.889 3.659-2.353 6.203-4.794 1.539-1.491 2.92-3.201 4.083-4.76 1.128-1.505 2.175-2.995 3.084-4.247 1.313-1.805 2.53-3.618 3.741-5.328l.096 15.415.055 10.245v2.749c-.465.657-1.019 1.518-1.593 2.578-1.375 2.53-4.746 10.758-5.116 15.374-.082 1.101 3.173.944 7.913.67.65-.027 1.58-.116 2.708-.267 2.168-.294 5.095-.828 8.056-1.751 5.3-1.655 13.794-5.451 14.971-13.999l.431-3.03.185-1.552c10.491-9.67 13.35-20.066 12.933-28.758-.15-3.071-.711-5.888-1.409-8.282l4.076.698 4.78.828.841-4.794c2.838-16.4-6.456-30.003-24.921-32.69v-9.39l.014-2.736c18.151-8.733 34.988-19.997 47.634-30.974l4.056-21.078c-2.893 1.607-6.422 3.42-6.422 3.42l-.109.055c-17.419 7.632-33.285 13.685-45.158 17.939l.027-67.166c3.009-1.696 5.957-3.187 8.761-4.363 8.713-3.679 15.497-5.697 18.11-5.04 2.619.65 1.833 3.625 1.833 3.625-.807 2.524-1.792 5.102-3.474 8.398-.937 1.86-7.065 15.162-11.059 22.986 12.31-7.024 38.729-23.998 57.981-35.221v-10.819l-2.537-2.578c-17.07-16.229-43.031-16.325-69.621-8.986l.014-65.743c.048-9.103.144-17.788-.588-25.851-.732-8.255-2.353-16.236-5.916-23.492l-4.514-9.192.007.014zm-12.249 173.15-.52 58.22c-16.715 5.054-26.166 6.388-33.183 4.753l-.082-.014-.93-.28-.082-.041c-2.783-1.081-3.604-3.604-3.645-4.924-.397-16.434 31.261-50.629 31.576-50.971 2.113-2.264 4.418-4.534 6.866-6.75z" fill="#ffb81c"/><path d="m324.372 142.011c-9.164.267-18.841 2.011-28.614 4.753v15.292c20.004-9.581 42.771-12.338 27.329 17.911l40.699-24.962c-10.334-9.834-24.149-13.445-39.413-12.994zm-51.518 12.837c-25.899 10.853-49.911 26.399-63.527 37.662 8.727-2.435 17.645-4.35 26.474-6.367-97.1 92.839 1.6 129.791 106.148 41.472-36.958 16.229-66.708 25.236-66.708 25.236-76.542 23.82-52.058-25.92-17.111-63.144 2.462-2.626 7.995-7.906 14.519-13.117l.198-21.748.007.007z" fill="#6f2633"/><path d="m341.219 241.419c-26.672 23.167-67.663 44.633-101.746 46.223-7.984.376-16.755-.094-24.244-3.078-10.233-4.095-15.901-10.01-18.32-16.935 3.154 4.155 7.967 7.728 14.84 10.481 7.489 2.992 16.268 3.454 24.244 3.078 36.785-1.718 81.597-26.569 107.799-51.736l-2.573 11.968zm-123.408-40.897c-5.309 1.291-10.686 2.624-15.49 3.804.675-.889 5.616-7.66 6.736-9.147 5.864-1.359 11.883-2.718 17.345-3.984-2.624 2.642-5.565 5.796-8.591 9.327m148.148-43.598.111 8.549-50.249 30.408c.547-.547 6.223-11.515 6.548-12.284l43.59-26.672zm-65.842 6.309c-1.428.598-2.898 1.282-4.368 2.017v8.267c2.659-1.462 5.283-2.753 7.848-3.83 9.036-3.804 16.772-6.223 21.03-4.847.633-10.113-10.335-7.583-24.509-1.607m-27.492 17.251c-4.522 3.702-8.703 7.566-12.182 11.301-9.84 10.583-32.545 38.144-32.203 52.634.094 3.787 1.436 6.437 3.625 8.232-.085-.564-.128-1.154-.154-1.787-.342-14.481 22.372-42.051 32.211-52.626 2.548-2.736 5.463-5.54 8.617-8.301l.085-9.455zm18.243 110.055-.009-14.251c-2.265 1.026-4.556 2.009-6.847 2.941l-.034 14.661c-.009 2.855-4.633 3.334-4.445 1.214l.085-14.157c-1.034.393-2.077.778-3.112 1.146l-.06 11.626-.581.402c-9.062 4.24-16.593 12.609-20.363 22.671l-.137.376c-1.368 3.744-2.214 7.728-2.419 11.814-.077 1.539.111 10.412-2.453 19.38.009-.034 2.377-.393 6.95-4.804 2.53-2.436 4.804-5.89 6.608-8.378 4.18-5.736 7.523-11.592 12.464-14.105l.034 5.138c.06 9.805.197 36.417.18 36.537-.034.145-4.223 4.565-4.813 12.148-.026.316 20.611-1.146 22.09-11.831 0 0-3.975-2.607-3.847-2.701 29.057-20.158 12.9-44.35 12.9-44.35 7.036 1.009 10.942 1.684 12.806 2.009 2.53-14.618-6.155-26.646-24.996-27.484m-11.19 76.322c.034.231-2.616 1.838-5.001 5.505 1.051-2.736 2.291-5.488 4.112-7.856 2.966.65 6.249-1.188 8.993-2.385-3.616 4.565-5.805 4.189-8.104 4.736m-.385-5.651.162-41.769c.325-.325 2.847-1.487 3.855-1.564l-.35 42.931c-.009 1.778-3.676 1.761-3.667.402m8.583-4.787c9.044-21.765 2.453-37.939 2.539-38.221 11.173 1.641 14.875 25.92-2.539 38.221m11.652-8.352c4.266-9.044 5.531-24.954-4.343-32.057l3.368.034c9.908 7.933 5.514 28.416.975 32.023m12.832-34.263c-16.251-4.445-35.255-.462-43.906 10.01-3.582 4.291-6.788 10.626-13.097 17.149 1.351-7.848 1.282-10.395 1.513-13.225 1.017-12.549 7.557-23.116 20.636-29.382h.026l.009.393c.256 2.06 3.146 3.402 6.471 2.992 2.676-.333 4.779-1.701 5.369-3.3l.043-.068c4.685 1.017 8.814 3.471 10.617 6.3-8.42-.368-20.731 2.394-30.852 14.105 13.909-11.045 29.895-11.105 40.153-8.523.35-6.146-8.027-12.661-12.669-15.217 8.361 2.727 17.302 10.028 15.687 18.764m-32.579-64.936.812-145.96.18-37.99c.71 1.342 3.36 6.625 3.599 25.313l-.256 157.193c1.983-.667 4.24-1.436 6.736-2.308l.068-166.656c.094-17.884.419-34.109-6.001-47.163-6.557 14.37-6.437 30.553-6.531 48.445l-1.428 170.033c.769-.239 1.71-.547 2.821-.906" fill="#041e42"/></svg>