<svg clip-rule="evenodd" fill-rule="evenodd" viewBox="0 0 560 400" xmlns="http://www.w3.org/2000/svg"><path d="m400.6 203.584c1.509-3.647 7.168-17.606 7.168-17.606l-23.894 13.204c-.126.126-7.168 3.898-17.229 8.3 5.552-13.814 10.215-27.97 13.959-42.38 8.426-32.068 12.953-67.405 13.079-68.915l1.886-14.21s-45.021 12.45-49.297 13.582c-15.971-19.241-40.619-30.559-66.399-30.559-26.032 0-50.68 11.444-66.651 30.81-4.401-1.258-49.422-13.833-49.422-13.833l1.886 14.21c0 .503 4.779 36.721 13.582 69.292 3.923 13.919 8.625 27.606 14.085 40.997-10.689-4.653-19.744-8.803-19.995-8.929l-22.133-10.564s5.282 13.33 6.791 16.977c-.377 0-8.048-3.018-8.048-3.018l7.42 19.87v-.126c.503 1.509 3.647 9.935 27.541 74.196l3.395 8.803s5.282-1.761 6.917-2.264c1.258 3.521 4.779 12.827 4.779 12.827l9.683-4.904c7.294-3.773 23.139-10.186 35.841-12.198 15.217 20.75 27.038 31.565 27.666 31.942l6.539 5.911 6.414-5.911c.629-.503 12.576-11.695 27.415-31.816 11.422 1.678 22.453 5.383 32.571 10.941l9.432 5.156 4.15-9.809c.271-.862.608-1.704 1.006-2.515.755.126 5.282 1.761 5.282 1.761l3.521-8.803c.629-1.761 15.971-37.35 30.685-71.807l9.809-22.888c.126 0-9.432 4.276-9.432 4.276z" fill="#fff"/><path d="m385.76 202.703c-8.557 4.504-17.375 8.494-26.409 11.947 7.119-16.377 12.963-33.278 17.48-50.554 8.426-32.068 12.953-68.034 13.079-68.411l1.006-8.426-8.174 2.264s-100.731 27.792-103.623 28.672c-2.892-.755-110.666-30.81-110.666-30.81l1.132 8.426c0 .377 4.653 36.218 13.456 68.663 5.408 19.618 11.57 34.835 17.606 49.171-14.462-5.659-28.798-12.45-28.924-12.576l-13.079-6.162 5.282 13.33c12.827 32.068 19.366 49.674 27.666 72.058l10.564 28.547 5.659-2.892c8.551-4.276 26.032-11.192 39.613-12.953 15.468 21.63 27.792 32.697 28.421 33.2l3.773 3.521 3.773-3.521c.629-.503 13.079-12.324 28.295-33.2 15.845 1.635 29.427 8.048 36.344 11.821l5.659 3.018 2.389-5.785c6.288-15.217 37.35-91.676 37.727-92.431l6.036-14.839-14.085 7.923z"/><path d="m397.078 206.35c-.252.126-25.151 10.689-45.524 15.72 7.923-18.235 14.839-34.709 21.379-58.98 8.426-31.816 12.827-67.531 12.953-67.908l.252-2.515-2.389.629s-103.875 28.672-104.755 28.924c-.755-.252-105.887-29.553-105.887-29.553l.252 2.515c.126.377 4.779 36.092 13.456 68.16 5.785 21.127 12.45 37.098 18.989 52.44 0 0 1.132 2.767 2.138 5.156-17.606-4.401-41.5-12.827-41.751-12.953l-3.395-1.132 1.258 3.27c10.438 27.792 15.845 42.631 21.504 58.477l11.444 31.691 1.509-.503c16.503-4.88 33.364-8.454 50.428-10.689 15.217 21.882 29.301 34.206 29.427 34.331l1.132.88 1.132-.88c10.775-10.463 20.543-21.915 29.175-34.206 13.456.88 38.733 6.665 48.29 10.312l1.509.629.629-1.509c6.288-15.091 38.733-89.413 38.984-90.042l1.635-3.898-3.773 1.635z" fill="#fff"/><path d="m345.895 226.848 1.383-3.018c8.803-20.247 15.72-36.218 22.385-61.621 7.042-26.786 11.444-56.339 12.576-64.89-4.653 1.258-102.743 28.295-102.743 28.295l-.503.126s-97.21-27.038-101.988-28.295c1.258 8.677 5.659 38.23 13.079 65.268 5.659 20.876 12.324 36.595 18.738 51.937l4.653 11.192 37.098 59.86.629.88c12.701 18.612 24.648 30.182 28.295 33.451 3.521-3.27 15.091-14.839 28.169-33.2l.503-.755 37.727-59.231z" fill="#c4ced4"/><path d="m209.073 190.505c-1.006-1.383-5.282-8.174-5.282-19.492v-1.006c-2.986-8.093-4.519-16.65-4.527-25.277 0-21.001 9.054-39.991 23.642-53.824 31.939-29.683 81.996-29.683 113.935 0 15.074 13.836 23.697 33.363 23.768 53.824.017 7.61-1.216 15.173-3.647 22.385.067 13.889-3.957 27.493-11.57 39.11-.456.436-.963.815-1.509 1.132h-.126c-.126.126-.126.126-.126.377 0 0-.252.88-.503 1.635l.252-.126-.377.503c-14.501 19.571-37.515 31.079-61.872 30.936-33.577.126-61.998-21.001-72.058-50.177z"/><path d="m388.778 213.015c-.503.126-51.309 22.007-109.66 21.756-51.309-.252-109.534-22.133-110.037-22.385l-12.198-4.653 4.401 11.695c0 .377 0 .377 27.541 74.196l2.012 5.282 5.408-1.635c26.793-8.355 54.682-12.678 82.748-12.827 35.589 0 66.651 7.294 79.478 11.695l5.408 1.761 2.138-5.282c.88-2.012 18.863-44.015 30.81-71.933l5.911-13.707-13.959 6.036z" fill="#007dc5"/><path d="m389.281 220.058-5.156 1.886s-11.444 4.276-11.57 4.276c-2.886.854-5.577 2.264-7.923 4.15-1.246 1.113-2.345 2.381-3.27 3.773.141-.319.226-.659.252-1.006l1.635-4.276-4.401 1.258-10.438 2.767c-1.006.252-8.174 1.635-10.312 2.138l-2.389.377-12.198 2.138c-.629 0-5.282.88-7.797 3.27-.502.598-.963 1.228-1.383 1.886l.755-4.15-3.144.377-9.809.88-.377 2.515c-.261-.324-.556-.619-.88-.88-1.886-1.383-5.03-1.383-5.911-1.258l-14.462.377-11.695-.126c-2.473.095-4.852.977-6.791 2.515l-1.006 1.258v-2.264l-.126-2.012s-11.821-1.132-12.198-1.132l-14.336-1.761.629 3.144.126.88c-3.27-3.773-8.3-5.03-8.551-5.156-.126 0-14.713-3.27-14.713-3.27l1.006 3.773.629 2.767c-.364-.744-.784-1.459-1.258-2.138-2.019-2.853-4.876-5.006-8.174-6.162-3.647-1.258-10.941-3.018-11.192-3.018l-4.15-1.006c-3.773-1.635-12.198-4.276-14.965-5.282l-4.653-1.509 1.761 4.653 24.145 65.142s9.557-2.641 10.061-2.767c0 0 9.935-2.389 10.689-2.515.377-.126 10.438-1.886 10.438-1.886v-.126c2.767-.377 8.3-1.258 8.803-1.258.503-.126 5.282-.88 8.048-1.132l10.061-1.006c1.006-.126 4.276-.377 6.036-1.886.627-.416 1.144-.977 1.509-1.635l.126 2.767 11.947-.377c.503-.126 3.647-.377 5.659-2.389.282-.266.534-.561.755-.88l-.126 3.144s9.18.252 9.683.252l10.815.252 7.797.629 9.935 1.132c2.429.192 4.866-.287 7.042-1.383l.755-.629-.755 2.892 10.061 1.761v-.126c.377.126 7.42 1.383 9.054 1.635l1.006.377c.252 0 5.282 1.258 9.054.755 4.653-.503 9.432-4.276 11.57-9.18l10.061-23.013c.126-.503 14.21-33.2 14.21-33.2z" fill="#fff"/><path d="m299.869 276.145 6.288.503 6.036-35.338-8.048.755zm26.157-32.194-3.018 12.576 7.797-.126 5.282-18.486-12.198 2.012s-4.401.755-6.414 2.767c-2.767 2.767-3.395 7.797-3.395 7.797l-4.904 26.409 7.797.88c1.984.185 3.98-.161 5.785-1.006 1.886-.88 3.018-3.018 3.647-4.904s2.515-9.432 2.515-9.432h-7.168l-1.635 7.545c-.213 1.042-.641 2.027-1.258 2.892-.824.92-2.041 1.389-3.27 1.258l5.156-23.516c.455-1.716 1.131-3.364 2.012-4.904.72-1.102 1.953-1.766 3.27-1.761zm13.582 13.205 6.665-21.379-6.917 1.509-12.073 41.751 5.408.755 5.659-17.732 1.635-.126s1.132.377 1.132 1.383c-.048.777-.218 1.541-.503 2.264l-4.779 14.713 6.288 1.258 5.282-15.342c.445-1.207.658-2.487.629-3.773-.121-1.221-.553-2.39-1.258-3.395-.704-1.005 1.258 0 3.018-1.761 1.761-1.635 1.761-3.018 2.138-4.276.503-1.258 7.545-20.498 7.545-20.498l-9.18 2.264-5.282 17.229c-.244 1.07-.67 2.091-1.258 3.018-.88 1.258-1.509 1.761-2.012 1.761-.691.228-1.411.355-2.138.377zm31.565-21.127-5.911 15.845 8.048-.377 11.57-27.163-11.57 4.15c-2.59.833-5.016 2.11-7.168 3.773-2.399 2.434-4.394 5.237-5.911 8.3-.629 1.509-3.27 7.42-3.647 9.306-.503 1.886-4.401 12.324-4.401 12.324h9.18l-3.898 10.438c-.369 1.549-1.053 3.005-2.012 4.276-.917 1.131-2.213 1.891-3.647 2.138l5.156-13.33h-5.659l-6.162 16.6c2.622.7 5.336.998 8.048.88 3.647-.377 7.797-3.27 9.683-7.797 2.012-4.401 8.551-19.618 8.551-19.618l-10.941.629 3.395-9.683s2.264-5.659 3.898-7.545c.936-1.241 2.087-2.306 3.395-3.144zm-198.193-12.199 23.516 63.13 6.917-2.012-17.48-51.057s2.641.252 4.904 4.276c1.685 3.014 2.995 6.224 3.898 9.557.629 2.515 11.695 36.595 11.695 36.595l7.042-1.635-13.456-44.895s1.635 0 3.395 3.018c1.033 1.749 1.877 3.604 2.515 5.533l10.312 35.841 6.791-1.383-8.677-33.2s-2.012-5.911-4.15-8.929c-1.673-2.542-4.154-4.449-7.042-5.408-3.395-1.132-10.941-3.144-10.941-3.144l1.132 3.395c-1.436-1.568-3.087-2.923-4.904-4.024-1.886-1.132-15.468-5.659-15.468-5.659zm55.082 34.583-3.773-16.348c1.288.324 2.49.924 3.521 1.761 1.383 1.258 1.761 4.779 1.761 4.779l1.886 9.809h-3.395zm7.797 20.121 5.911-.755-5.03-26.283s-1.132-5.785-2.641-8.174c-2.641-3.898-8.174-5.408-8.174-5.408l-10.815-2.138 11.192 44.266 6.665-1.006-4.15-16.6h3.898l3.144 16.097zm1.509-38.733 7.545 37.727 7.923-.88s3.773-.126 4.779-1.006c1.279-1.008 2.059-2.524 2.138-4.15l-.88-29.427-7.797-.755 2.767 27.792s.252 2.515-1.006 3.773c-.555.658-1.41.99-2.264.88l-4.024-32.948-9.18-1.006zm25.654 36.092 9.432-.377c1.568-.152 3.056-.765 4.276-1.761.999-1.183 1.652-2.62 1.886-4.15l.126-5.282h-6.414l.126 5.282c.082.904-.189 1.806-.755 2.515-.629.629-2.767.629-2.767.629v-10.689h9.809l.252-3.144h-10.186v-9.306c-.073-.75.205-1.494.755-2.012.86-.541 1.884-.764 2.892-.629v9.557h6.791l.88-13.707-11.318-.252c-1.831.096-3.588.755-5.03 1.886-2.389 2.138-2.012 7.042-2.012 7.042l1.258 24.397zm30.056-28.043-.503 8.3c-.006.582-.181 1.15-.503 1.635-.25.348-.602.611-1.006.755l-2.264-.126.629-12.198 1.635-.126c.488-.013.969.118 1.383.377.629.252.629 1.383.629 1.383zm6.288-4.024c-1.258-1.258-4.276-1.132-4.276-1.132l-12.324.377-1.258 32.445 6.162.126.755-13.33s2.012-.629 3.018.755c.378.552.556 1.219.503 1.886l-.755 10.689 6.036.377 1.132-10.815c.207-1.093.121-2.222-.252-3.27-.399-.764-1.073-1.349-1.886-1.635s.88 0 2.138-1.383c.855-1.027 1.342-2.311 1.383-3.647l.755-7.545c-.126 0 .252-2.515-1.132-3.898zm-5.282 46.404 7.671-1.886-7.797-.755c-.377 0-7.671-.629-11.318-.629l-3.647-10.941-1.258 3.647c-.126.252-1.761 4.779-2.641 7.294-4.276 0-9.935.503-10.061.503l-8.3.88 8.048 1.761c2.515.503 7.545 2.264 7.923 4.401-.629 2.515-2.264 6.917-2.264 6.917l-1.635 4.024s8.803-6.162 10.061-6.917c1.258.755 9.809 6.791 9.809 6.791s-3.521-10.186-3.773-11.067c.88-1.258 5.282-3.144 9.18-4.024z"/><path d="m282.766 294.128c.629-2.138 4.276-3.773 7.168-4.779-2.892-.252-6.539-.503-8.426-.503h-.377s-1.509-4.15-2.264-6.288c-.629 1.886-1.635 4.653-2.012 5.911l-.126.503h-.503c-2.012 0-4.904.126-7.042.252 2.515 1.132 5.533 2.767 5.911 5.156v.377c-.377 1.383-1.132 3.773-1.761 5.408 2.012-1.509 5.659-4.024 5.659-4.024s3.898 2.641 5.911 4.024c-.88-2.138-2.138-5.659-2.138-5.659v-.377zm-79.353-149.273c0-39.739 34.331-72.058 76.46-72.058 42.128 0 76.46 32.319 76.46 72.058 0 39.613-34.206 71.933-76.46 71.933-42.128 0-76.46-32.319-76.46-71.933z" fill="#fff"/><path d="m233.721 102.098 3.144-2.641c2.138-1.635 2.767-3.898 1.635-5.282-1.509-1.886-3.898-1.258-6.414.629l-2.515 2.138zm-.252-5.659.126-.126c1.006-.755 1.761-.88 2.389-.126.503.629.126 1.509-.755 2.138l-.126.252-1.635-2.138zm19.241-7.294 2.264-1.006.629.629 3.27-1.383-5.533-4.779-3.395 1.258-.377 7.294 3.27-1.258-.126-.755zm-.126-1.761-.126-2.012v-.126c.171.281.384.536.629.755l.755.88zm16.097-8.802 3.27-.377.503 4.401 2.767-.252.252 2.138-6.036.629-.755-6.539zm18.738-.378 3.395.503-.755 4.401 2.767.377-.377 2.138-5.911-.88.88-6.539zm18.863 10.69 2.264 1.006-.126.88 3.27 1.509-.377-7.42-3.395-1.383-5.533 4.779 3.27 1.509.629-.88zm1.132-1.132 1.383-1.635v.126l-.126.88-.126 1.132-1.132-.503zm15.217 8.677.126.252c.256.657.64 1.255 1.132 1.761.252.252.755.503.88.252.126-.252-.126-.629-.252-.755l-.503-.503c-.88-1.006-1.383-2.012-.755-2.892 1.006-1.132 3.144-.629 4.653.629.73.663 1.366 1.425 1.886 2.264l-1.761.755c-.268-.612-.704-1.135-1.258-1.509-.126-.252-.629-.503-.755-.252-.126.252.126.503.377.755l.377.503c1.006 1.006 1.383 2.138.629 3.018-1.006 1.132-3.018.503-4.527-.755-.946-.696-1.721-1.599-2.264-2.641l2.012-.88zm21.378 29.93c-.503-.377-1.509-1.006-1.509-1.006-.205-.125-.378-.298-.503-.503-.099-.605-.267-1.196-.503-1.761-6.642-8.529-15.051-15.523-24.648-20.498-1.042-.451-2.143-.747-3.27-.88-.233-.005-.457-.094-.629-.252-.82-.827-1.806-1.47-2.892-1.886-9.223-3.756-19.091-5.678-29.05-5.659-3.071.017-6.136.227-9.18.629l4.024-5.408c-15.845-.503-27.289 11.947-27.289 11.947-3.793 1.736-7.449 3.755-10.941 6.036-4.76 1.588-8.641 5.103-10.689 9.683-2.138 1.635-6.288 7.168-6.288 7.168-.973.646-1.897 1.359-2.767 2.138-3.661 3.949-6.182 8.817-7.294 14.085-.096.101-.143.239-.126.377-.126.377-.126.88-.252 1.383l-.503 2.892.126-.126c.006.137-.039.271-.126.377-.56 1.563-1.022 3.159-1.383 4.779-.126.629-2.389 7.168-2.389 7.168-5.659 19.87 1.886 31.816 3.144 33.703 10.061 29.175 38.481 50.051 71.807 50.051 24.363.17 47.389-11.343 61.872-30.936.272-.596.442-1.233.503-1.886.026-.255.165-.485.377-.629 1.006-.503 1.383-.88 1.383-1.006 7.611-11.617 11.637-25.221 11.57-39.11.18-14.6-4.219-28.897-12.576-40.871z"/><path d="m249.315 112.033c.126-.252.377-.377.503-.503l.377-.377h.126c.003-2.292.3-4.574.88-6.791 6.917-9.557 18.235-12.073 18.235-12.073 1.383-.503.503.126.503.126-7.168 8.048-6.414 14.588-6.414 14.588l6.917 24.774s-5.533-2.012-9.809-10.564c-2.012 17.354 14.462 31.439 14.462 31.439.629.629-.503-.126-.503-.126-4.024-2.012-8.803-6.414-10.061-7.545.252 1.383 8.3 41.374 8.426 41.625.045.263.13.518.252.755l2.641-6.791 2.389 20.247c-10.564 9.683-21.63 5.911-22.259 5.659.137.202.263.412.377.629s9.054 17.606 45.901 15.845c0 0 .88 0 .755.126-.096.009-.187.054-.252.126-.572.185-1.162.312-1.761.377-44.392 11.821-67.405-25.906-68.411-27.541-1.417-2.017-2.638-4.165-3.647-6.414 0-.126 0-.377.126-.126 0 0 4.653 4.779 18.109 6.036h.126c-10.312-11.318-14.713-19.618-15.342-20.876 0 0-1.258-1.886-2.767-7.168 0 0 .126-.252.126 0 .503 1.006 4.024 6.036 8.174 7.168-3.521-5.659-5.785-14.588-6.036-15.845 4.779 6.665 13.33 7.168 13.33 7.168v-.003c0-.067-.056-.123-.124-.123h-.002v.126c-13.959-13.959-10.941-29.05-5.282-39.991 2.628-5.104 5.973-9.804 9.935-13.959z" fill="#fff"/><path d="m291.066 203.961-9.18 9.557 11.318-8.677-5.911-20.121 2.641-24.145-4.527 23.013zm-2.264-49.045c.189-.031.365-.119.503-.252.961-.501 1.815-1.184 2.515-2.012 2.494-2.588 3.814-6.093 3.647-9.683-.038-2.564-.461-5.108-1.258-7.545-.126 3.395-1.132 15.845-5.408 19.492zm4.276-41.123c3.144-4.779 8.426-5.156 10.689-5.156-1.704-.568-3.486-.866-5.282-.88-1.841-.039-3.674.26-5.408.88-1.006.377-1.635.629-1.886.755.72 1.426 1.35 2.897 1.886 4.401zm-8.049 12.828.126-.126zm3.898-2.641h.003c.067 0 .123.056.123.123v1.386c0 10.312-2.641 21.63-3.773 25.654 3.352-7.606 5.066-15.834 5.03-24.145.008-3.034-.244-6.064-.755-9.054-.121-.889-.288-1.77-.503-2.641-1.006 7.797-4.024 11.318-4.024 11.318l-.126.126c-.126 0-.126 0-.252-.126-2.834-5.053-6.537-9.566-10.941-13.33-1.766-1.56-3.708-2.911-5.785-4.024 9.306 20.121 12.073 35.589 12.827 40.745v-1.761c-.172-6.254-.887-12.481-2.138-18.612-1.006-5.408-2.138-9.306-2.138-9.306v-.252h.252c4.15 3.27 7.168 12.45 7.545 14.21 1.149-1.722 2.078-3.581 2.767-5.533.755-2.389 1.509-4.653 1.509-4.653l.377-.126zm-78.345 41.877c0 9.557 1.635 19.492 9.935 32.319 7.923 16.474 22.259 25.277 29.05 28.672 2.264 1.006 3.647 1.635 3.647 1.635 9.264 4.444 19.404 6.765 29.679 6.791 13.935-.118 27.533-4.316 39.11-12.073 2.012-1.383 3.144-2.264 3.144-2.264l.88-.88c0 .126-.252.252-.377.252l-.755.503c-14.713 8.551-28.169 11.192-39.236 11.192-17.354 0-28.421-6.414-28.421-6.414-36.721-19.115-37.224-52.315-37.224-52.315v-.003c0-.067.056-.123.123-.123h.255c4.653 9.18 10.438 12.198 12.953 13.204.28.156.574.283.88.377-10.689-13.33-13.707-24.648-13.707-33.074 0-11.318 5.408-17.606 5.408-17.606l.126-.126h.002c.068 0 .124.056.124.124v.002c-.657 3.44-.993 6.935-1.006 10.438-.05 3.784.458 7.556 1.509 11.192.324.984.701 1.95 1.132 2.892-.347-2.584-.516-5.19-.503-7.797-.018-16.248 6.407-31.858 17.857-43.386-2.389 1.006-5.156 3.521-7.42 5.911-2.515 2.515-4.527 5.03-4.527 5.03h-.126c-.126 0-.126 0-.126-.126.203-2.003.848-3.935 1.886-5.659-1.942 1.969-3.518 4.268-4.653 6.791-.765 1.535-1.396 3.134-1.886 4.779v.126c-3.207 3.716-5.874 7.865-7.923 12.324-.912 1.906-1.668 3.883-2.264 5.911l-.252.88s0 .126-.252.126-.126-.126-.126-.252v-.126c.006-.256.049-.51.126-.755 0-4.779 2.012-9.935 2.767-11.947-5.533 5.911-6.917 14.085-6.917 20.498-.012 3.642.41 7.273 1.258 10.815.15 4.095.612 8.173 1.383 12.198.88 3.773 1.509 6.539 1.509 6.539.176.402.303.825.377 1.258v.126h-.126c-.252 0-.252-.126-.377-.252-.126 0-.126-.126-.252-.377l-.252-.503c-4.024-6.036-5.911-15.845-6.288-18.235-.104.454-.147.919-.126 1.383z" fill="#c4ced4"/><path d="m334.2 123.602s-17.857-23.894-51.434-23.894h-.755c-.197.004-.381.096-.503.252 0 .252.252.377.503.503 2.708 2.132 5.233 4.487 7.545 7.042v.126l.126-.126c.689-.314 1.404-.567 2.138-.755 1.888-.495 3.832-.748 5.785-.755 3.78.002 7.498.954 10.815 2.767-1.761.88-10.061 5.03-11.947 9.935l.126.126s8.426 7.545 25.78 7.545c3.03.028 6.057-.182 9.054-.629.512-.012 1.021-.096 1.509-.252.755-.252 1.635-.503 1.635-1.383-.148-.15-.275-.32-.377-.503zm-36.092 33.452c-.126-.126-.252-.126-.252 0-.126 0-.126.126 0 .126.185.194.354.405.503.629 1.006 1.383 2.892 4.653 2.892 10.438-.121 5.423-1.452 10.752-3.898 15.594-.025-1.861-.236-3.714-.629-5.533-.629-3.27-1.761-6.665-4.401-7.42h-.252l-1.509 14.21 5.659 21.127-11.192 9.054c-.126 0-.126 0-.126.126v.002c0 .068.056.124.124.124h.002c3.858 1.004 7.836 1.47 11.821 1.383 4.776-.024 9.537-.529 14.21-1.509.81-.238 1.463-.845 1.761-1.635.869-4.602 1.29-9.277 1.258-13.959.126-12.45-2.515-30.182-15.971-42.757zm18.486 56.716c-.252-.126-.252-.377-.252-.755v-.629c.397-1.53.692-3.084.88-4.653.618-3.867.913-7.779.88-11.695 0-12.701-3.018-30.433-17.229-44.14-.068-.068-.156-.112-.252-.126l-.377-.377c.014-.095.058-.183.126-.252h.252c.216.001.43.044.629.126 2.429.808 4.629 2.188 6.414 4.024-.126-.629-.377-2.012-.755-3.773-.914-3.027-2.408-5.846-4.401-8.3l-.377-.377c-.126-.252-.252-.252-.252-.503v-.252h.252c.126 0 .252.126.629.377.88.377 36.595 17.606 37.853 52.315v.629c.066 1.294-.387 2.562-1.258 3.521-.377.377-8.803 10.941-21.379 14.839-.226.147-.486.233-.755.252-.126 0-.503 0-.629-.252zm26.786-25.403c-.755-28.672-27.918-48.165-41.5-56.213-2.42-1.513-4.94-2.859-7.545-4.024l-.629-.252h.88c3.276.014 6.393 1.435 8.551 3.898-.041-1.239-.253-2.466-.629-3.647l-.252-.377.377.126c3.898 1.509 8.803 2.012 13.707 2.012 4.294-.04 8.58-.376 12.827-1.006 3.395-.377 5.659-.88 5.659-.88h.503c2.012 0 2.641 1.132 2.641 1.258 4.653 5.156 10.312 16.977 11.318 31.188.126 1.761.126 3.521.126 5.156 0 10.689-2.264 18.989-3.898 22.385-.629 1.258-1.132 1.886-1.635 1.886-.377-.126-.503-.629-.503-1.509z" fill="#007dc5"/><path d="m265.034 95.685.126-.126c-.377.126-7.797 2.389-9.935 13.456 0 0 0 .252.126 0 .629-1.006 2.892-4.527 5.03-3.521v-.252c.126-.88.88-4.779 4.653-9.557zm-5.533 100.73c-1.635-3.144-11.821-25.403-11.821-25.403-3.144 1.132-7.042-1.509-7.042-1.509 5.03 13.204 16.851 24.774 18.738 26.912.252.377.252.252.252.252-.126 0-.126-.252-.126-.252zm-10.186-72.184c-9.18 20.876 11.444 29.553 11.821 29.679l-1.132-4.904-.629-2.641c-.479-.263-.985-.474-1.509-.629-.126 0-.252-.126-.377-.252-.233-.005-.457-.094-.629-.252-9.054-4.779-8.174-16.223-7.545-19.995v-.377c.085-.242.128-.498.126-.755z"/><path d="m262.896 183.085-1.509-26.283 8.929 29.301s-2.892-6.917-7.42-3.018zm7.42-51.308-6.791-24.774v.503l1.886 15.72c.086.198.129.413.126.629 0 .88-.503 2.012-4.779-2.389-.126-.252-.252-.252-.252-.252 4.276 8.677 9.809 10.564 9.809 10.564zm-16.223 4.527c-.573-1.131-.874-2.38-.88-3.647.048-2.298 1.107-4.462 2.892-5.911l.126-.126c-.163-2.093-.163-4.195 0-6.288-2.264 3.27-7.042 11.192-1.258 17.354-.126-.126-.252-.252-.252-.377-.226-.325-.437-.66-.629-1.006z" fill="#c4ced4"/><path d="m260.13 139.448c-2.135-3.931-3.459-8.25-3.898-12.701v-.126c-1.808 1.485-2.868 3.697-2.892 6.036.046 1.208.301 2.4.755 3.521.263.345.475.726.629 1.132.126 0 .252.252.252.377l.377.377c1.401 1.408 3.296 2.221 5.282 2.264-.22-.26-.391-.559-.503-.88z"/><path d="m268.304 186.481s-4.401-1.132-4.024 7.923c.026-.267.112-.525.252-.755 1.258-3.018 2.515-4.15 3.647-4.276.88 0 1.635.88 2.138 2.012.555 1.35 1.018 2.737 1.383 4.15.359 1.19.612 2.411.755 3.647.115.791.157 1.591.126 2.389v.126c.126-1.006 2.012-13.456-4.276-15.217z" fill="#c4ced4"/><path d="m272.579 201.697c-.126-1.132-.126-1.886-.252-2.515-.126-1.006-.377-2.264-.629-3.521-.35-1.474-.856-2.908-1.509-4.276-.503-1.132-1.258-1.886-2.138-1.886-1.132 0-2.264 1.258-3.647 4.15-.025.307-.11.607-.252.88l2.264 4.653s1.258-12.701 6.162 2.515z"/></svg>