<svg clip-rule="evenodd" fill-rule="evenodd" viewBox="0 0 560 400" xmlns="http://www.w3.org/2000/svg"><path d="m280.076 50c82.221.141 149.825 67.779 149.925 150.001 0 82.725-67.274 150-149.925 150h-.098c-82.276 0-149.978-67.702-149.978-149.978 0-39.772 15.821-77.955 43.95-106.073 28.07-28.232 66.314-44.069 106.126-43.95" fill="#ffc627"/><path d="m280.076 338.076c76.05 0 137.925-61.875 137.925-138.075 0-76.051-61.875-138.001-137.925-138.001-76.201-.074-138.076 61.875-138.076 137.926 0 76.2 61.875 138.15 138.076 138.15" fill="#8b2332"/><path d="m152.2 199.926c0-70.425 57.375-127.726 127.801-127.726 70.088 0 127.763 57.675 127.763 127.763 0 70.089-57.675 127.763-127.763 127.763-70.425.075-127.801-57.3-127.801-127.8" fill="#0d2240"/><path d="m380.65 146.451 2.851-1.575-9.151-14.25-2.549 1.874c-15.6-19.725-43.35-41.7-69.751-45 19.875 9.076 42.225 32.251 55.876 50.101l-14.326 10.425 1.725 2.625-64.8 42.075-64.8-42.075 1.725-2.625-14.401-10.425c13.726-17.85 36.001-41.025 55.951-50.101-26.325 3.3-54.075 25.276-69.6 44.925l-2.7-1.95-9.151 14.174 2.851 1.65-.075.15c-11.4 22.425-19.801 57-11.625 82.35-.225-21.899 11.55-51.974 22.125-71.999l15.45 8.699 1.575-2.474 60.15 37.8-79.35 51.6-.15-.15-10.65 2.85.15.3c-.526 1.95.45 5.625 2.7 9.15 2.25 3.6 5.101 5.925 7.275 6.375l.15.299 7.05-8.55-.075-.149 158.025-99.376 1.575 2.475 15.525-8.7c10.575 20.025 22.35 50.175 22.2 72 8.101-25.425-.374-60.075-11.775-82.5" fill="#ffc627"/><path d="m372.476 252.276-.15.15-72.975-47.401-12.751 7.575 79.275 49.876-.074.15 7.049 8.55.225-.3c2.1-.375 4.95-2.775 7.275-6.375 2.175-3.525 3.224-7.125 2.7-9.15l.15-.3-10.725-2.775zm-79.5-152.025-5.475 7.2-7.575-18.151v83.776l25.5-32.7 25.65 6.675z" fill="#ffc627"/><path d="m292.976 119.9v-19.65l-5.475 7.2 5.475 12.449zm-13.05-30.6-46.275 56.475 20.399-5.25 25.876 32.55v-83.776z" fill="#fff"/><path d="m252.775 300.502c6.502-6.266 14.937-10.153 23.925-11.025v-12.525h-34.575c.68 8.853 4.451 17.192 10.65 23.551m23.85 11.623v-14.849c-6.708.821-12.999 3.705-18 8.25 5.359 3.661 11.546 5.93 18 6.6" fill="#ffc627"/><path d="m284.35 235.251v14.775c6.699-.774 12.98-3.665 17.925-8.25-5.347-3.618-11.505-5.859-17.925-6.525m23.85 11.625c-6.48 6.243-14.891 10.104-23.85 10.95v11.4h34.5c-1.036-8.405-4.775-16.25-10.65-22.35m-31.575 3.15v-14.775c-6.437.645-12.606 2.917-17.925 6.6 4.979 4.522 11.247 7.381 17.925 8.176" fill="#fff"/><path d="m284.35 276.951v12.525c8.979.824 17.405 4.719 23.85 11.025 6.249-6.331 10.051-14.68 10.725-23.551h-34.575z" fill="#ffc627"/><path d="m242.126 269.226h34.5v-11.4c-8.973-.875-17.399-4.731-23.925-10.95-5.853 6.106-9.565 13.952-10.575 22.35" fill="#fff"/><path d="m284.35 312.126c6.437-.645 12.606-2.916 17.925-6.6-4.954-4.572-11.231-7.461-17.925-8.25v14.849z" fill="#ffc627"/></svg>