<svg clip-rule="evenodd" fill-rule="evenodd" viewBox="0 0 560 400" xmlns="http://www.w3.org/2000/svg"><path d="m429.999 199.999c0 82.287-67.712 149.999-149.999 149.999s-149.999-67.712-149.999-149.999 67.712-149.999 149.999-149.999h.029c82.272 0 149.971 67.699 149.971 149.972v.027" fill="#b5b3b3"/><path d="m425.676 199.999c0 79.916-65.76 145.677-145.677 145.677-79.916 0-145.677-65.76-145.677-145.677 0-79.916 65.76-145.677 145.677-145.677h.018c79.906 0 145.659 65.753 145.659 145.66z" fill="#1d428a"/><path d="m404.218 199.999v.026c0 68.158-56.086 124.244-124.244 124.244-68.159 0-124.245-56.086-124.245-124.244 0-68.149 56.07-124.23 124.219-124.244h.039c68.146 0 124.224 56.071 124.231 124.218" fill="#c8102e"/><g fill="#fff"><path d="m279.999 75.782c-68.144 0-124.218 56.073-124.218 124.218 0 68.144 56.073 124.219 124.218 124.219 68.144 0 124.219-56.074 124.219-124.219-.08-68.114-56.105-124.137-124.219-124.218m-117.031 127.864h22.865v-7.291h-22.865c.105-2.76.208-5.522.521-8.229 8.073-40.781 57.239-72.292 116.51-72.292s108.385 31.458 116.511 72.292c.26 2.707.417 5.468.52 8.229h-22.864v7.291h22.812c-.105 2.76-.208 5.521-.521 8.229-8.125 40.781-57.239 72.292-116.51 72.292-59.27 0-108.385-31.459-116.51-72.292-.261-2.709-.418-5.417-.469-8.229m117.031-120.729c48.174.059 91.625 29.8 109.115 74.687-20.833-28.489-61.927-47.916-109.115-47.916s-88.332 19.427-109.114 47.916c17.477-44.897 60.935-74.643 109.114-74.687m0 234.218c-48.174-.06-91.623-29.801-109.114-74.687 20.833 28.489 61.926 47.916 109.114 47.916s88.334-19.427 109.115-47.916c-17.503 44.878-60.945 74.612-109.115 74.687"/><path d="m284.947 178.906h1.511c1.459.052 3.906.468 3.906 3.125 0 1.25.105 5.208.156 6.667v.572c.024.837.093 1.671.208 2.5.625 2.292 2.396 3.698 5.208 3.958h2.552v-14.062c-.118-1.501-.681-2.934-1.614-4.115l-.208-.261c1.398-1.527 2.113-3.56 1.979-5.624v-1.354c0-10.886-.417-13.073-5.521-13.646h-16.978v38.542h8.801zm.053-16.095h1.771c2.291.053 3.177.053 3.072 4.115 0 3.23 0 3.438-.052 5.052v.313c-.012.473-.177.93-.468 1.302-.191.197-.455.31-.729.312h-3.593v-11.094zm16.302 40.418c-1.907-.077-3.816.098-5.677.52-4.323 1.042-6.407 3.906-6.407 8.802v23.49c0 5.99 4.323 7.24 10.781 7.24 7.813 0 12.292-2.76 12.292-7.604v-24.479c0-7.968-5.052-7.968-10.989-7.968zm-14.792.052v.26c.074 1.613-.466 3.196-1.51 4.428-.994 1.017-2.384 1.551-3.803 1.458h-.312v33.333h-9.063v-33.28h-5.885v-6.198h20.573zm55.209 0v39.479h-9.062l-6.198-15.885v15.885h-8.906v-39.427l.208-.052c.395-.07.796-.105 1.198-.105 2.76 0 9.479 1.667 13.698 16.876h.052v-16.771zm-124.947-.052c5.208.573 5.677 2.812 5.677 14.062v1.407c0 4.635-2.292 7.291-6.355 7.291h-7.656v16.77h-9.114v-33.437c-2.869-.396-5.022-2.886-5.001-5.782v-.26h.26l22.188-.052zm19.479.052v39.427h-8.75v-39.427zm11.458 0c1.719-.052 10.729 0 13.178 0h.26l.105.208c.052.554.052 1.112 0 1.667-.108.734-.355 1.441-.729 2.083-.625 1.231-1.902 2.001-3.282 1.979h-6.875v2.24c0 2.656 2.292 3.802 4.375 4.791.521.208 1.094.521 1.615.781.488.282.958.595 1.406.938.887.603 1.445 1.586 1.51 2.656.156 2.761.156 15.99-.104 17.917-.886 2.5-3.125 3.958-6.458 4.115h-9.532l-.052-5.261h7.24l-.052-14.219c-.128-.22-.332-.387-.573-.468l-.469-.156-.26-.052c-2.552-.781-5.261-2.031-6.458-5.417-.729-2.083-.104-9.479-.104-9.582.002-.227.02-.454.052-.678.417-2.292 2.083-3.542 4.739-3.542zm104.479 0c1.719-.052 10.729 0 13.178 0h.26l.105.208c.052.554.052 1.112 0 1.667-.108.734-.355 1.441-.729 2.083-.625 1.231-1.902 2.001-3.282 1.979h-6.875v2.24c0 2.656 2.292 3.802 4.375 4.791.521.208 1.094.521 1.615.781.488.282.958.595 1.406.938.887.603 1.445 1.586 1.51 2.656.156 2.761.156 15.99-.104 17.917-.886 2.5-3.125 3.958-6.458 4.115h-9.532l-.052-5.261h7.24l-.052-14.219c-.128-.22-.332-.387-.573-.468l-.469-.156-.26-.052c-2.552-.781-5.261-2.031-6.458-5.417-.729-2.083-.104-9.479-.104-9.582.002-.227.02-.454.052-.678.417-2.292 2.083-3.542 4.739-3.542zm-53.75 8.854c.013-.822.099-1.642.261-2.447l.155-.156c.414-.063.832-.097 1.251-.105h.155c2.97.053 3.073.938 3.073 6.302v16.458c.007.487-.01.974-.052 1.459.002.456-.05.91-.156 1.354l-.156.156c-.52.052-1.041.104-1.563.104-.846.075-1.688-.187-2.344-.729-.677-.728-.728-1.926-.677-3.333v-16.667c0 .105 0-1.771.052-2.396zm-85.207 8.646c0-.015.052-9.427 0-9.792 0-1.146-.886-1.563-1.875-1.666-.365-.053-3.073 0-3.073 0v11.458h4.949zm102.082-64.063c-1.906-.074-3.815.101-5.677.521-4.27.99-6.354 3.855-6.354 8.594v22.969c0 5.885 4.271 7.083 10.677 7.083 7.761 0 12.24-2.709 12.24-7.396v-23.958c0-7.813-5.052-7.813-10.886-7.813zm-43.75.053v.26c.076 1.573-.445 3.118-1.458 4.323-.998.972-2.36 1.482-3.75 1.406h-.313v32.552h-8.802v-32.499h-5.729v-6.042zm92.448-.053v.261c.076 1.573-.445 3.118-1.459 4.323-.978 1.008-2.348 1.54-3.75 1.458h-.312v32.552h-8.802v-32.552h-5.73v-6.042zm-24.531 0v38.542h-8.594v-38.542zm-92.605 0v5.938h-9.219v8.698h6.355v8.334h-6.355v9.374h9.219v6.198h-17.813l.053-38.542zm-50.938 0h21.979c5.834.209 5.834 2.865 5.834 12.761v17.864c0 4.688-2.5 7.864-6.25 7.864h-16.354v-32.448c-1.561.029-3.062-.617-4.115-1.771-.864-1.149-1.272-2.578-1.146-4.01l.052-.261zm18.907 32.344c.052-2.396.26-20.468-.105-23.542 0-.052.053-2.136-1.093-2.604-1.219-.23-2.464-.283-3.698-.156v26.302zm97.551-23.593c.012-.805.099-1.607.261-2.396l.156-.156c.413-.064.831-.099 1.25-.105h.156c2.969.053 3.02.938 3.02 6.198v16.145c.008.469-.008.94-.052 1.407.002.439-.05.876-.156 1.301l-.156.156c-.52.052-1.041.105-1.563.105-.833.1-1.67-.166-2.291-.729-.678-.729-.729-1.875-.678-3.23v-16.302c.052 0 .052-1.771.052-2.396z"/></g></svg>