<svg clip-rule="evenodd" fill-rule="evenodd" viewBox="0 0 560 400" xmlns="http://www.w3.org/2000/svg"><path d="m282.865 75.826-8.155-10.826h-5.577v1.031l1.312.937v15.888h4.265v-10.732l8.202 10.732h4.218v-17.856h-4.264v10.826zm-29.855 9.748 12.231-2.155-.609-3.656-7.827 1.359-.609-3.421 6.373-1.125-.281-1.594-.374-2.062-6.374 1.125-.562-3.234 7.123-1.218.329-3.843-11.576 2.063-.937.14-1.266.234.188 1.032 1.406.702 2.766 15.653zm-20.34 6.655 6.28-2.296c5.811-2.109 8.062-6.89 6.28-11.81-1.781-4.922-6.561-7.124-12.419-5.015l-5.53 2.015-.703.234-1.406.515.374.984 1.782.515 5.343 14.857zm-.61-14.857 2.25-.796c2.296-.843 5.389-.515 6.702 3.14 1.312 3.609-.844 5.859-3.14 6.702l-2.25.796zm-15.512 23.716 11.061-6.421-1.078-3.89-8.061 4.64-6.936-12.045-2.906 1.641-.984.61-.984.562.515.891 1.406.14 7.967 13.873zm-10.873-4.031c-3.328-3.843-8.951-4.499-13.358-.656-4.405 3.843-4.546 9.468-1.218 13.311s8.951 4.546 13.358.703c4.452-3.843 4.593-9.514 1.218-13.358m-11.061 9.654c-2.063-2.39-2.063-5.343.281-7.358 2.297-2.016 5.296-1.641 7.359.75 2.062 2.344 2.062 5.389-.282 7.405-2.343 2.015-5.343 1.546-7.358-.797m-7.03 5.484-3.515 4.5-.937 1.172-1.5 1.922 2.812 2.203 2.811-3.562c.831 1.701.592 3.739-.609 5.203-1.922 2.437-4.922 2.577-7.359.655-2.484-1.922-3.047-4.874-1.125-7.311.293-.363.622-.692.985-.984.5-.391 1.074-.678 1.687-.844l1.453-1.874 1.827-2.344.094-.094-.282-.047c-3.182-.431-6.368.833-8.388 3.328-.153.162-.294.335-.422.515-3.609 4.593-2.671 10.171 1.359 13.311 4.031 3.14 9.655 2.718 13.264-1.875l.374-.469c2.218-2.917 2.477-6.897.656-10.076-.155-.292-.327-.573-.515-.844-.55-.723-1.18-1.383-1.875-1.968-.328-.188-.562-.374-.796-.515m121.105-33.699 1.546 1.453c1.313 1.218 1.969 1.828 1.687 2.766-.187.75-1.124 1.124-2.437.75-1.829-.654-3.382-1.911-4.405-3.562l-1.313 4.5c1.428 1.333 3.169 2.284 5.062 2.765 3.422.984 6.749-.234 7.734-3.562.75-2.625-.656-4.405-2.578-6.186l-1.782-1.735c-.843-.796-1.031-1.312-.843-1.922.188-.75 1.077-1.031 2.203-.75 1.696.562 3.183 1.624 4.265 3.047l1.172-4.077c-1.312-1.191-2.885-2.058-4.593-2.531-3.703-1.077-6.702.563-7.499 3.422-.703 2.015-.094 3.89 1.781 5.624" fill="#fdb927"/><path d="m323.497 92.464 4.125 1.922 5.951-12.841 5.109 2.39 1.546-3.374-14.294-6.655-1.547 3.374 5.108 2.344-5.999 12.841zm11.53 3.328-1.077 1.594 3.093 2.062 1.312-1.453 1.968-.984 2.766 1.828 2.765 1.827-.187 2.203-.844 1.735 3.093 2.108 1.077-1.593 4.077-16.451-2.108-1.453-1.687-1.124-.469-.329-1.406-.937-.61.891.469 1.218zm13.358-4.827-1.641 6.139-1.734-1.171-1.734-1.172 5.108-3.796zm10.122 6.326 4.124 3.89-9.654 10.358 3.328 3.093 9.654-10.358 4.124 3.796 2.531-2.671-11.577-10.78-2.53 2.671zm13.029 23.386 3.984 5.109 2.906-2.25-3.984-5.108 2.578-2.015 4.452 5.717 3.515-1.5-7.311-9.373.047-.047-1.406-1.781-.796.655.047 1.735-12.467 9.794 7.64 9.795 2.906-2.297-4.874-6.28 2.765-2.156z" fill="#fdb927"/><path d="m385.362 195.149c0 58.825-48.406 107.231-107.232 107.231-58.825 0-107.232-48.405-107.232-107.231 0-58.825 48.406-107.232 107.232-107.232 58.823.005 107.227 48.407 107.232 107.232" fill="#1d428a"/><g fill="#fdb927"><path d="m348.243 124.989c-18.59-18.604-43.839-29.067-70.139-29.067-54.395 0-99.155 44.76-99.155 99.154 0 26.301 10.464 51.549 29.068 70.14 18.589 18.604 43.839 29.068 70.139 29.068 54.395 0 99.155-44.76 99.155-99.155 0-26.301-10.465-51.549-29.068-70.14m-136.429 3.796c17.584-17.54 41.431-27.401 66.267-27.401 51.474 0 93.83 42.356 93.83 93.829 0 13.223-2.796 26.298-8.202 38.366-11.389-3.843-22.59-8.155-33.557-13.03-1.453-.655-2.906-1.265-4.312-1.922l-4.265-2.015-2.156-1.031-2.108-1.032-4.218-2.108c-1.406-.703-2.812-1.453-4.171-2.203l-2.109-1.125-2.063-1.125-4.124-2.296-4.077-2.39c-10.912-6.359-21.358-13.485-31.26-21.325-4.921-3.936-9.748-8.014-14.294-12.372-2.297-2.156-4.5-4.406-6.655-6.702-.515-.562-1.077-1.125-1.593-1.734-.515-.563-1.032-1.172-1.547-1.782-.515-.609-1.031-1.172-1.5-1.781l-.047-.094c-.188-6.889-.281-11.013-.281-11.013l-4.687-1.125v6.28h-3.983v-6.608l-5.015 1.218.047 2.39-2.344 1.265c.048 1.968.094 4.546.141 7.592-1.922 3.328-22.683 39.228-38.243 50.288-.58-4.24-.877-8.515-.891-12.794-.107-24.847 9.778-48.723 27.417-66.223m123.213 112.34-9.654.328-7.873-20.386 1.546.75 4.312 2.156 4.359 2.062c.422.188.843.375 1.218.563l6.092 14.528zm-2.343-12.794c3.89 1.781 7.826 3.468 11.764 5.108l3.233 7.218-9.701.328-5.296-12.653zm-10.311 13.217-9.889.328-10.264-29.151 1.968 1.125 2.109 1.171 4.218 2.344 3.234 1.734 8.624 22.45zm-12.748.421-8.811.282-12.841-38.338c1.968 1.266 3.936 2.531 5.952 3.75l4.124 2.53.562.329zm-11.764.422-9.232.329-15.232-48.883c3.515 2.625 7.124 5.156 10.733 7.64l13.732 40.915zm-12.139.422-8.905.281-18.137-61.068c1.265 1.125 2.578 2.203 3.89 3.281 2.297 1.922 4.593 3.75 6.983 5.577zm-11.763.375-9.842.328-21.653-77.283c1.874 2.108 3.843 4.124 5.858 6.139 2.109 2.109 4.265 4.124 6.421 6.14zm-12.701.421-8.53.281-11.904-45.367c-.375-11.717-.703-22.497-.937-31.214l21.371 76.299zm-11.389.375-7.358.234c-.469-10.78-.891-22.121-1.265-33.135zm104.045 6.514c-.656.843-1.265 1.734-1.968 2.578l-109.06-2.156-.047-1.032zm-3.234-9.889-2.484-5.625c4.124 1.687 8.296 3.281 12.467 4.781l-.281.469zm-116.042-68.613v5.765h-4.359v5.343h4.359v5.765h-4.359v5.343h4.359v10.826h-4.359v5.343h4.359v11.155h-4.359v5.343h4.359v17.528l-4.031.14v-81.595h3.984v3.609h-4.359v5.343h4.405v.094zm-42.087 61.63 12.232-41.196c5.958-8.001 11.346-16.411 16.122-25.168l-21.934 78.267c-2.432-3.803-4.578-7.782-6.421-11.904m-1.734-4.031c-2.169-5.501-3.801-11.198-4.874-17.013 5.185-4.261 9.927-9.034 14.154-14.247zm32.666-61.255c0 8.296-.141 18.278-.329 28.918l-12.607 48.038-8.717.281zm-.61 40.962c-.328 11.904-.75 24.183-1.359 35.619l-8.062.281 9.42-35.9zm-16.731 46.023 14.763.515c-.281 4.546-.609 8.858-.984 12.889-2.851-2.269-5.573-4.694-8.155-7.265-1.968-1.968-3.843-4.03-5.624-6.139m71.987 33.604c-11.502.027-22.911-2.07-33.651-6.187-.422-6.421-.843-14.107-1.265-22.497l-8.577-2.906v20.949c-1.359-.703-2.718-1.453-4.031-2.249v-19.872l4.031.141v.141h4.359l7.921.281 98.749 3.514-1.172 1.218c-17.564 17.635-41.474 27.531-66.364 27.465"/><path d="m310.047 309.363-1.078-5.53-5.952 1.172-6.749 1.313-5.951 1.172 1.077 5.483 5.906-1.124 3.046 15.559-5.905 1.172 1.031 5.484 5.999-1.125 6.749-1.312 5.905-1.172-1.077-5.53-5.906 1.172-3.046-15.56 5.952-1.172zm34.447-6.561c3.28 7.03.703 15.232-7.312 18.935-8.014 3.749-15.935.422-19.216-6.609-3.28-7.03-.702-15.185 7.312-18.934 8.014-3.703 15.935-.422 19.216 6.608m-6.328 2.952c-2.015-4.311-6.186-6.139-10.404-4.171-4.265 1.968-5.484 6.327-3.468 10.639 2.015 4.265 6.139 6.187 10.404 4.218 4.218-1.968 5.484-6.421 3.468-10.686m25.918-25.213c-3.374-3.937-8.67-3.655-12.653-.234l-7.5 6.42-1.172.984-1.405 1.219 1.031 1.171 2.296-.187 15.701 18.418 5.202-4.452-6.42-7.5 1.5-1.265 11.576 3.093 6.28-5.343-13.404-3.14c1.489-2.993 1.084-6.597-1.031-9.186m-6.092 9.608-2.437 2.062-3.984-4.64 2.531-2.156c1.453-1.218 3.28-1.5 4.593.047 1.359 1.5.843 3.328-.703 4.687m31.446-10.638c-1.684 2.439-3.979 4.394-6.654 5.671l-5.671-4.265c2.906-.537 5.539-2.06 7.452-4.312 1.266-1.687 1.172-3.187.281-3.89-1.171-.891-2.39-.328-4.827.891l-2.906 1.359c-3.514 1.687-6.514 1.546-9.045-.375-3.609-2.718-4.265-7.827-.75-12.513 1.597-2.173 3.685-3.94 6.092-5.155l5.155 3.89c-2.567.804-4.857 2.314-6.608 4.359-1.031 1.359-1.078 2.765-.141 3.468.75.563 1.594.563 3.188-.188l3.421-1.64c3.562-1.735 6.889-2.766 10.17-.282 4.218 3.281 4.077 8.718.843 12.982m-105.638 36.651c.188-5.203-3.936-8.53-9.186-8.717l-9.889-.329-1.5-.047-1.875-.047-.047 1.593 1.828 1.406-.844 24.184 6.843.234.328-9.889 1.968.047 6.468 10.123 8.248.281-7.78-11.342c3.119-1.217 5.25-4.156 5.437-7.499m-10.967 2.952-3.187-.093.234-6.093 3.327.094c1.922.047 3.422 1.077 3.374 3.14-.093 2.015-1.687 2.999-3.749 2.952m-19.494-5.387c1.453-4.968-1.687-9.28-6.702-10.733l-9.467-2.812-1.453-.421-1.782-.516-.469 1.5 1.406 1.827-6.889 23.2 6.561 1.922 2.811-9.468 1.922.563 3.703 11.388 7.921 2.344-4.687-12.935c3.322-.363 6.127-2.669 7.124-5.858m-11.342.14-3.047-.891 1.734-5.858 3.188.937c1.827.562 3.046 1.922 2.484 3.89-.61 1.922-2.39 2.485-4.359 1.922"/><path d="m221.094 291.976-2.39-1.406-.937-.562-1.968-1.172-.796 1.359.655 1.5-17.763 14.623-1.5 2.53 4.874 2.859 1.828-2.344 2.906-1.687 4.312 2.531 4.312 2.531-.093 3.327-1.125 2.719 4.874 2.859 1.5-2.531 4.687-25.308-3.374-1.828zm-8.062 13.685-2.718-1.594 7.359-6.28-1.922 9.468zm-8.155-24.183-1.687-1.828-1.171 1.077.234 1.922-14.623 6.328 9.467-15.982-2.952-3.233-16.638 8.155 8.905-16.544-5.108-5.624-.656-.703-1.172 1.031.328 2.625-11.623 22.871 4.686 5.108 11.155-4.64-5.577 10.685 4.64 5.109 26.855-10.78z"/></g></svg>