<svg clip-rule="evenodd" fill-rule="evenodd" viewBox="0 0 560 400" xmlns="http://www.w3.org/2000/svg"><path d="m429.999 199.958v.041c0 82.287-67.712 149.999-149.999 149.999s-149.999-67.712-149.999-149.999 67.712-149.999 149.999-149.999h.041c82.263.003 149.955 67.695 149.958 149.958z" fill="#bec0c2"/><path d="m421.414 199.958c-.035 77.497-63.814 141.248-141.311 141.248-77.521 0-141.311-63.789-141.311-141.311 0-77.52 63.789-141.311 141.311-141.311 77.496 0 141.275 63.751 141.311 141.248z" fill="#002d62"/><path d="m280.041 65.209h-.082c-73.922 0-134.751 60.828-134.751 134.749 0 73.922 60.829 134.751 134.751 134.751s134.751-60.829 134.751-134.751c.019-73.898-60.771-134.724-134.668-134.749z" fill="#fdbb30"/><path d="m372.272 199.958c0 52.003-41.373 94.195-92.231 94.195-51.022 0-92.232-42.191-92.232-94.195 0-52.003 41.21-94.112 92.232-94.112 50.94 0 92.231 42.109 92.231 94.112z" fill="#002d62"/><path d="m366.386 199.958c0 48.651-38.594 88.062-86.345 88.062-47.67 0-86.345-39.411-86.345-88.062 0-48.65 38.594-88.062 86.345-88.062s86.345 39.412 86.345 88.062z" fill="#fff"/><path d="m185.355 173.63-.899 3.434-27.555-6.787.899-3.515zm3.843-42.355 11.857 9.076-2.044 2.698-22.486-17.252 1.145-1.553 16.271 4.252-12.265-9.404 2.044-2.698 22.485 17.171-1.063 1.634zm29.027-43.581 5.561-2.862c2.371-1.227 5.314-1.144 6.868 1.799 3.515 7.032 5.151 10.057 8.748 16.925.32.642.487 1.349.487 2.066 0 1.9-1.169 3.617-2.939 4.312l-5.806 2.943-12.919-25.184zm14.8 20.769 1.472-.818c1.201-.475 1.799-1.856 1.324-3.057l-.097-.214c-2.944-5.723-5.07-9.812-8.014-15.617-.526-1.103-1.867-1.578-2.971-1.052l-.136.071-1.718.899 10.139 19.788zm43.418-8.668-3.516.246-1.635-28.372 3.762-.246 1.39 28.372zm41.373 7.523 1.227-5.479-4.742-1.799-2.862 4.824-3.352-1.309 15.127-24.612 3.515 1.309-5.396 28.372-3.516-1.308zm3.925-19.379-.163-.082-5.805 9.567 3.843 1.39zm38.266 30.417-10.956 10.303-2.372-2.453 20.687-19.46 1.227 1.308-6.787 15.536 11.366-10.711 2.289 2.453-20.686 19.46-1.308-1.39 6.541-15.044zm14.146 52.821 4.987-2.534-1.635-4.825-5.56.9-1.144-3.434 28.699-3.843 1.227 3.516-25.347 13.818zm17.58-9.076-.163-.246-11.039 1.554 1.309 3.842 9.894-5.151zm-224.611 97.057-1.718-3.271 25.103-13.001 4.17 7.932c.818 1.635.409 2.862-.818 3.516-4.496 2.289-6.786 3.515-11.284 5.886-.347.201-.741.307-1.142.307-.939 0-1.786-.578-2.129-1.452l-2.534-4.906zm12.347-6.46 2.043 3.843 10.058-5.315-2.044-3.843zm25.101 51.594 2.78-4.906-4.087-3.189-4.171 3.68-2.78-2.208 21.75-18.97 2.944 2.371-13.491 25.51-2.944-2.289zm9.73-17.334-.163-.246-8.341 7.358 3.189 2.535 5.315-9.648zm40.638 30.008 3.598.899-1.799 7.277c-.219 1.04-1.145 1.791-2.209 1.791-.158 0-.314-.016-.468-.049l-.103-.024c-2.534-.572-4.252-1.063-6.868-1.718-1.048-.235-1.8-1.174-1.8-2.249 0-.169.018-.338.056-.504l.027-.11 5.642-22.976c.256-1.212 1.465-1.997 2.677-1.741l.103.024c2.534.572 4.333 1.144 6.949 1.717 1.229.328 1.97 1.607 1.643 2.835l-.008.027-1.39 5.724-3.598-.818 1.227-5.07-4.252-.981-5.233 21.586 4.252.981 1.553-6.623zm52.248 9.73-9.157 1.717-4.906-27.964 8.994-1.635.491 3.025-5.479.899 1.635 9.158 5.151-.9.491 3.025-5.07.9 1.799 9.73 5.396-.9.654 2.944zm41.783-17.825-3.108 1.962-15.944-23.466 7.768-5.315c.394-.341.899-.529 1.42-.529.814 0 1.562.458 1.932 1.183 2.208 3.189 3.68 5.314 5.887 8.585.32.397.495.892.495 1.401 0 .81-.441 1.558-1.149 1.952l-.409.327 10.385 8.913-3.353 2.289-11.693-10.303-.081-1.308 2.453-1.635-5.152-7.523-3.843 2.616 14.391 20.851zm28.864-42.845 5.642 3.598 1.635-2.616-5.479-3.516-10.548.572c-.654.08-1.318-.064-1.881-.409-2.043-1.308-2.943-1.962-5.233-3.271-.64-.407-1.028-1.114-1.028-1.873 0-.421.12-.834.346-1.19l.029-.043c1.062-1.881 2.044-3.271 3.189-5.07.379-.68 1.099-1.101 1.876-1.101.475 0 .936.156 1.312.447l4.987 3.189-1.962 3.025-4.333-2.78-1.635 2.699 4.252 2.616 10.057-.654c.885-.114 1.784.089 2.534.572 2.616 1.718 3.516 2.208 6.296 3.925 1.064.637 1.43 2.028.818 3.106-1.144 1.881-2.044 3.271-3.271 5.07-.386.675-1.106 1.092-1.882 1.092-.472 0-.931-.154-1.307-.437l-6.214-4.006 1.799-2.943z" fill="#002d62"/><path d="m252.485 146.483-23.385 105.969h46.28s5.151-21.096 5.56-22.976h20.033c15.044.081 27.31-4.987 35.569-14.718 15.127-16.436 12.51-40.393 1.144-54.13-8.097-9.816-20.227-15.445-32.952-15.29h-52.003l-.246 1.144z" fill="#bec0c2"/><path d="m277.587 225.305-5.56 22.976h-37.694l21.75-98.609h48.569c11.501-.174 22.473 4.92 29.762 13.818 10.794 13.001 11.856 34.669-1.063 48.651-7.931 9.239-19.623 13.409-32.379 13.246z" fill="#002d62"/><path d="m251.014 172.24h21.258c2.453 0 5.07 1.962 4.006 5.151-.737 2.039-1.257 4.149-1.553 6.296-.163 1.553 1.635 2.616 2.616 2.616h43.418c.818 0 1.227-.246 1.227-.654.017-.933-.065-1.865-.246-2.78-.163-.9-.246-1.144-1.063-1.144-5.396 0-7.604-2.453-13.328-6.051-5.642-3.68-13.981-5.806-21.177-5.806h-34.832l-.327 2.372zm26.328 28.046c-.761-1.722-1.389-3.498-1.88-5.315-.491-2.208-2.453-4.006-5.806-4.006h-22.813l.654-2.535 73.998.082c.654 0 .572.327.491 1.144 0 .818-.246 2.29-.328 3.189-.081.982-.818.737-1.471.737-2.337-.062-4.639.564-6.623 1.799-3.025 2.371-9.649 6.46-13.247 7.523-4.006 1.144-18.642 5.723-22.976-2.616zm-34.505 9.321h38.594c1.55-.056 3.074.404 4.333 1.309 3.587 2.741 7.668 4.767 12.02 5.968 1.962.654 5.479-.163 8.585-1.88 7.686-4.416 12.674-12.675 14.391-18.071.409-1.39-.409-1.308-1.39-1.227-3.271.246-6.705 3.189-11.203 6.133-4.579 2.78-13.655 5.56-22.404 5.56h-42.355l-.572 2.208zm56.746-51.758c1.168-.224 2.373-.168 3.515.163 7.442 2.944 14.309 10.548 17.253 18.643.572 1.635.735 2.534 0 2.616-3.353.409-4.824-1.309-8.913-3.925-3.866-2.645-8.112-4.685-12.591-6.051-4.989-1.553-13.982-1.88-15.046-1.88-1.144 0-1.063-.491-.572-.982 4.423-4.494 10.142-7.495 16.353-8.585zm35.158 27.8c-.026.393-.343.709-.735.737h-8.504c-1.062 0-1.062-.491-1.062-1.145-.175-.861-.257-1.738-.246-2.616 0-.654-.328-1.471.654-1.88 2.331-1.192 4.263-3.04 5.56-5.315.246-.654.818-1.718 1.39-.818 2.127 3.189 2.78 7.114 2.943 11.038zm-3.025 15.209c-.081.327-.735.572-.818 0-1.208-2.881-3.415-5.234-6.214-6.623-.572-.328-.572-.737-.572-1.391.082-.572.328-2.534.409-3.27 0-.654.328-1.145.818-1.145h8.83c.246 0 .654.328.654.491-.129 4.162-1.19 8.241-3.108 11.938zm-22.894 16.517c-.654.163-2.044-.082.082-1.309 6.377-3.761 12.182-12.428 13.655-17.498.654-1.962.654-2.044 1.472-1.799 1.528.689 2.831 1.794 3.761 3.189 1.144 1.635 1.717 4.906.981 5.724-4.832 6.389-12.015 10.598-19.951 11.693zm16.271-39.493c-1.471.818-1.799.572-2.125-.491-2.78-9.73-11.038-17.008-14.391-19.215-.572-.327-.49-.653 0-.572 8.014 1.145 15.944 5.479 19.87 11.447 2.371 3.434-1.881 8.014-3.353 8.832z" fill="#fdbb30"/></svg>