<svg clip-rule="evenodd" fill-rule="evenodd" viewBox="0 0 560 400" xmlns="http://www.w3.org/2000/svg"><path d="m152.254 186.641c-2.506 2.289-3.891 5.56-3.791 8.952v65.951l-.007.425c0 6.405 5.271 11.676 11.676 11.676.481 0 .963-.03 1.44-.089 5.891-.503 11.829-.959 17.721-1.37v-12.469c-5.892.32-11.83.64-17.721 1.005v-64.307c5.891.365 11.829.685 17.721 1.005v-12.469c-5.892-.411-11.83-.867-17.721-1.37-3.408-.453-6.843.675-9.317 3.06" fill="#061922"/><path d="m195.14 185.956c-4.384-.274-8.769-.548-13.154-.868v86.915c9.591-.685 19.183-1.249 28.774-1.69v-11.92c-5.207.183-10.414.365-15.62.593zm18.223 84.219c4.476-.228 8.952-.411 13.428-.548v-82.118l-13.428-.548v83.215zm38.275-81.982c-7.399-.136-14.799-.365-22.198-.593v81.937l13.2-.411v-34.757c3.014 0 5.983 0 8.951-.046 3.41.073 6.728-1.115 9.317-3.334 2.5-1.971 3.952-4.993 3.928-8.175v-22.928c-.016-3.161-1.461-6.152-3.928-8.13-2.543-2.292-5.848-3.563-9.271-3.563m0 34.621c-3.015 0-5.984 0-8.952-.046v-23.155c3.015.045 5.983.091 8.952.137v23.065zm116.602 8.312c2.538-2.179 3.979-5.379 3.928-8.724v-24.617c.077-3.259-1.378-6.373-3.928-8.404-2.532-2.264-5.887-3.388-9.272-3.106-7.399.411-14.752.776-22.151 1.051v82.393c4.385.183 8.815.365 13.2.593v-35.442c3.654 11.83 7.307 23.842 10.961 36.036 4.385.229 8.769.503 13.2.823-3.837-12.788-7.673-25.302-11.51-37.634 2.085-.486 4.005-1.51 5.572-2.968m-18.223-32.428c2.968-.092 5.983-.229 8.951-.32v24.161c-2.968.045-5.983.045-8.951.045zm-60.288-10.231c-7.399.045-14.798.045-22.197 0v80.246c4.43-.045 8.815-.045 13.245-.045v-34.346h8.998c3.404.089 6.723-1.082 9.317-3.288 2.5-1.971 3.951-4.992 3.928-8.175v-23.019c.011-3.142-1.442-6.116-3.928-8.039-2.578-2.269-5.931-3.463-9.363-3.334m0 34.346h-8.998v-22.882c3.015 0 5.983 0 8.998-.046zm15.894 46.037c9.637.183 19.228.457 28.865.823v-11.738c-5.207-.137-10.413-.274-15.619-.365v-23.202l11.327.045v-11.692l-11.327.045v-23.201c5.207-.092 10.413-.229 15.619-.365v-11.739c-9.591.365-19.213.64-28.865.823zm105.915-60.059v-13.199l.001-.147c0-6.541-5.383-11.924-11.924-11.924-.396 0-.791.019-1.185.059-3.699.32-7.399.593-11.098.868-3.565.214-6.916 1.784-9.363 4.384-2.44 2.316-3.813 5.542-3.791 8.906v24.663c-.053 3.33 1.329 6.526 3.791 8.769 2.517 2.407 5.88 3.736 9.363 3.7l11.098.136v25.714c-3.699-.228-7.399-.411-11.098-.64v-12.606l-13.154-.411v12.332c-.02 3.389 1.351 6.643 3.791 8.998 2.485 2.528 5.823 4.042 9.363 4.247 3.699.274 7.399.593 11.098.868 3.359.397 6.729-.688 9.226-2.969 2.583-2.277 4.011-5.601 3.883-9.043v-26.398c.075-3.499-1.336-6.87-3.883-9.272-2.386-2.529-5.75-3.911-9.226-3.791-3.699.046-7.399.092-11.098.137v-25.211c3.699-.183 7.399-.411 11.098-.639v12.879c4.385-.091 8.769-.274 13.108-.411" fill="#061922"/><path d="m162.347 184.997c5.207.456 10.642.868 16.123 1.279v-.548c-5.618-.411-11.327-.868-16.899-1.325-.41-.038-.822-.053-1.233-.045-2.764-.067-5.444.969-7.444 2.877-2.325 2.126-3.61 5.164-3.517 8.312v65.951c-.071 2.551.734 5.051 2.284 7.08-1.159-1.894-1.746-4.084-1.69-6.303v-65.906c-.108-3.201 1.196-6.292 3.563-8.45 2.037-1.944 4.767-2.996 7.582-2.923.411-.023.823-.023 1.233 0m31.923 2.33v-.548c-3.791-.229-7.627-.457-11.418-.731v85.042l.593-.046v-84.402h.092c3.471.228 7.079.456 10.733.685m31.652 1.552v-.548c-3.836-.137-7.764-.32-11.692-.503v81.434l.593-.045v-80.794h.092c3.608.183 7.307.32 11.007.456m26.49.778c2.506.002 4.961.714 7.079 2.055-2.27-1.696-5.022-2.624-7.855-2.649-7.08-.136-14.251-.32-21.284-.593v80.155h.594v-79.516h.091c7.08.228 14.296.411 21.375.548m108.244-1.919c2.226-.057 4.419.547 6.303 1.736-2.029-1.55-4.529-2.355-7.08-2.284-.289-.006-.58.008-.867.045-6.988.411-14.159.731-21.33 1.005v80.703l.593.045v-80.201h.092c7.216-.274 14.432-.64 21.421-1.051h.868m-79.836 2.24c3.243 0 6.531 0 9.728-.045h.136c2.509-.05 4.981.615 7.125 1.919-2.274-1.706-5.06-2.593-7.901-2.512h-.137l-9.728.045c-3.791 0-7.719 0-11.6-.045v78.465h.593v-77.871h.092l11.692.045" fill="#bec0c2"/><path d="m333.62 188.376c-8.952.32-18.087.594-27.084.777v78.877h.594v-78.329h.091c8.723-.183 17.63-.411 26.445-.731v-.594h-.045zm65.631-3.379c.394-.038.791-.054 1.187-.046 2.027-.04 4.024.499 5.755 1.553-1.863-1.448-4.172-2.207-6.531-2.147-.381-.007-.762.007-1.142.045-3.7.32-7.399.594-11.099.868-3.336.211-6.472 1.681-8.769 4.111-2.279 2.162-3.569 5.171-3.562 8.312v24.663c-.064 2.452.746 4.849 2.283 6.76-1.139-1.785-1.728-3.867-1.69-5.984v-24.663c-.013-3.192 1.294-6.251 3.608-8.449 2.34-2.455 5.521-3.941 8.906-4.156 3.654-.229 7.353-.548 11.053-.868" fill="#bec0c2"/><path d="m148.463 287.851c87.354-10.871 175.72-10.871 263.074 0v-4.568c-87.4-10.094-175.673-10.094-263.074 0z" fill="#1d428a"/><path d="m180.205 300c65.429-17.081 134.16-17.081 199.589 0v-4.293c-65.487-16.624-134.102-16.624-199.589 0z" fill="#c8102e"/><path d="m253.875 175.542c-35.246-.856-70.428-3.478-105.412-7.855v4.567c37.177 4.293 74.629 6.76 112.126 7.399-2.353-1.174-4.598-2.549-6.714-4.111m52.249 0c-2.115 1.562-4.361 2.937-6.714 4.111 37.497-.639 74.949-3.106 112.126-7.399v-4.567c-34.984 4.377-70.166 6.999-105.412 7.855" fill="#1d428a"/><path d="m245.106 166.774c-21.907-1.943-43.615-5.7-64.9-11.236v4.293c22.509 5.673 45.458 9.432 68.6 11.235-1.317-1.357-2.552-2.79-3.7-4.292m69.788 0c-1.148 1.53-2.399 2.979-3.745 4.339 23.143-1.797 46.092-5.555 68.6-11.236v-4.293c-21.274 5.506-42.966 9.249-64.855 11.191" fill="#c8102e"/><path d="m239.443 140.557c0-22.249 18.309-40.557 40.557-40.557 22.249 0 40.557 18.309 40.557 40.557 0 22.25-18.309 40.557-40.557 40.557h-.004c-22.247 0-40.553-18.306-40.553-40.552z" fill="#fff"/><path d="m280 100c-22.249 0-40.557 18.309-40.557 40.557 0 22.25 18.309 40.557 40.557 40.557 22.249 0 40.557-18.308 40.557-40.557-.014-22.244-18.313-40.543-40.557-40.557m29.322 18.041c4.616 5.961 7.28 13.205 7.627 20.735h-15.3c.385-7.531 3.063-14.768 7.673-20.735m-58.598 0c4.616 5.961 7.28 13.205 7.627 20.735h-15.3c.355-7.537 3.037-14.782 7.673-20.735m0 45.033c-4.616-5.961-7.281-13.204-7.628-20.735h15.3c-.398 7.529-3.074 14.762-7.672 20.735m31.057 14.432v-10.596h-3.563v10.596c-9.588-.43-18.632-4.615-25.166-11.646 5.405-6.683 8.513-14.934 8.861-23.522v-3.563c-.349-8.588-3.456-16.838-8.861-23.521 6.539-7.023 15.58-11.207 25.166-11.647v10.504h3.563v-10.504c9.588.43 18.632 4.616 25.166 11.647-5.405 6.682-8.513 14.933-8.861 23.521v3.563c.349 8.588 3.456 16.839 8.861 23.522-6.534 7.031-15.578 11.216-25.166 11.646m27.541-14.432c-4.636-5.95-7.302-13.2-7.628-20.735h15.3c-.368 7.534-3.048 14.776-7.672 20.735" fill="#061922"/><path d="m271.002 123.567v33.843h18.041v-4.659h-13.245v-29.185h-4.796z" fill="#c8102e"/><path d="m295.208 134.894v-13.931c0-2.1-.822-2.923-2.923-2.923h-24.617c-2.056 0-2.877.868-2.877 2.923v39.187c0 2.1.822 2.923 2.877 2.923h24.617c2.056 0 2.923-.868 2.923-2.923v-13.976h-4.887v12.606h-20.643v-36.492h20.643v12.606z" fill="#1d428a"/><path d="m289.043 151.427v-27.86h-11.738l-.137 27.86h4.704l.092-8.678h2.375l-.045 8.678h4.75zm-4.704-13.29h-2.375v-9.911h2.375z" fill="#c8102e"/></svg>