<svg clip-rule="evenodd" fill-rule="evenodd" viewBox="0 0 560 400" xmlns="http://www.w3.org/2000/svg"><path d="m205.678 140.247c.6-6.84 25.08-15.84 64.92-17.28-4.999 3.738-8.322 9.306-9.24 15.48l-.36 2.88c-.227 1.873-.629 3.721-1.2 5.52-1.56 3.96-5.88 7.32-10.44 9.72-15.96-1.92-29.4-5.4-37.2-9.6-4.32-2.16-6.72-4.68-6.48-6.72zm152.4-2.04c1.56 1.68 1.44 2.76 1.44 3.12-.12 1.92-2.52 4.32-6.6 6.36-8.52 4.44-23.16 7.8-40.44 9.6.813-.489 1.655-.93 2.52-1.32l.24-.12c5.04-2.04 10.68-4.32 10.92-12.6.12-1.32.12-5.28.84-6.72.96-1.92 3.36-4.68 5.4-5.52l-3.48-.6h-.48c1.064-.788 1.927-1.816 2.52-3 14.16 3 23.64 6.96 27.12 10.8zm17.28-10.32c-7.32-8.28-23.88-14.88-45-18.84 0-2.4 1.56-3.48 4.2-5.4 1.55-1.068 3.033-2.23 4.44-3.48 6.84-6.6-1.2-16.44-1.44-16.92l-4.44-5.4 1.08 6.96c.72 4.68-.96 6.36-6.24 9.96-.585.45-1.146.931-1.68 1.44.382-3.694.138-7.427-.72-11.04-.96-4.32-3.12-6.12-3.12-6.12l-.6 6.36c0 .12-.48 5.04-7.08 11.04.557-.651 1.078-1.332 1.56-2.04 3.24-4.8 2.28-10.08 1.2-16.32l-.24-1.32c-1.08-6.36.6-10.44 1.68-11.16 1.08-1.32 3.24-3.48 3.24-3.48s-1.08-.48-4.32-.12c-4.08.6-11.04 3.12-10.92 8.76.232 2.348.798 4.651 1.68 6.84.72 2.28 1.44 4.44.72 5.4-.48.84-1.92 1.56-4.32 2.04-9.84 1.8-17.28 6.24-21 12.72-1.28 2.148-2.174 4.503-2.64 6.96-24.12.12-47.04 3.12-64.68 8.52-19.92 6.12-30.84 14.52-31.68 24.24-.48 5.16 1.92 12.48 14.64 19.56h-.12l3.6 1.8 1.92.84c6.606 2.9 13.478 5.15 20.52 6.72-2.707 1.522-5.242 3.333-7.56 5.4-12.321 10.143-19.471 25.291-19.471 41.25 0 29.311 24.119 53.43 53.43 53.43 25.24 0 47.205-17.884 52.321-42.6 4.32-12.84 3.84-26.64 3.6-31.92-.48-11.88 5.4-18.48 9.12-21.36 16.8-2.16 31.8-5.88 42.84-10.8l1.8-.84 3.84-1.8-.12-.12c9-5.04 14.04-10.8 14.52-17.04.48-4.32-1.08-8.4-4.56-12.12zm-142.08 175.08 6.84-27.72h-11.28l-6.84 27.72zm24.6-21 .72 11.4h-5.88l5.88 9.6h10.32l-1.56-27.72h-16.92s-13.92 27.72-13.8 27.72h10.8zm-26.04 46.68-2.4 9.48h10.56l6.84-27.84h-10.56l-2.52 10.8h-7.92l2.52-10.8h-10.56l-6.84 27.84h10.56l2.28-9.48zm25.2 3.12.72-3.72h13.08l1.68-6.12h-13.08l.84-4.08h13.08l2.04-7.56h-23.76l-6.96 27.84h23.76l1.68-6.36zm67.92-28.8 6.84-27.72h-11.28l-6.84 27.72zm18.6-6.24c1.56 2.04 3.24 6.12-3.72 9.24-8.16 3.72 0 13.08-11.04 13.08h-4.56l-4.68 19.08h-11.28l4.56-19.08h-7.68l2.4-8.76h19.68c11.52 0 3.36-8.04 9.36-9.12 4.08-.72 6.6-1.44 6.96-4.44zm-141-7.2-1.8-14.28h-13.92l-6.84 27.72h10.32l3.72-14.52h.12l2.04 14.52h6l8.4-14.52h.12l-3.36 14.52h9.72l6.84-27.72h-13.32zm91.8 0-1.8-14.28h-13.92l-6.84 27.72h10.32l3.72-14.52h.12l2.04 14.52h6l8.4-14.52h.12l-3.36 14.52h9.72l6.96-27.72h-13.44l-7.92 14.28zm-1.68 27.6.72 11.4h-5.88l5.88 9.6h10.32l-1.56-27.84h-16.92s-13.92 27.84-13.8 27.84h10.8z"/><path d="m200.638 216.807c1.629 8.491 6.438 16.048 13.44 21.12 2.401 1.71 5.026 3.083 7.8 4.08-1.68-2.88-3.72-5.88-5.76-8.88-3.84-5.64-7.8-11.52-10.32-17.76-2.57-6.348-3.318-13.29-2.16-20.04-2.083 5.689-3.139 11.702-3.12 17.76 0 1.32.12 2.52.12 3.72zm8.64-2.76c2.4 5.88 6.24 11.52 9.96 16.92 2.815 4.063 5.419 8.268 7.8 12.6 2.379.486 4.783.846 7.2 1.08-2.697-3.92-4.913-8.151-6.6-12.6-7.44-18.48-6.48-41.28 2.76-54.48 4.613-6.46 10.703-11.726 17.76-15.36 6.24-3.36 10.2-4.44 14.28-6.84 4.32-2.52 6.6-6.84 3.72-16.56-.659-2.216-.903-4.535-.72-6.84-1.145 2.08-1.879 4.362-2.16 6.72-.345 3.006-.948 5.977-1.8 8.88-3.84 10.08-22.44 15.6-24.84 16.44-6.342 1.84-12.228 4.988-17.28 9.24-11.472 10.17-15.496 26.458-10.08 40.8zm77.76-91.08.36 1.8c.48 3.6-.6 6.48-4.8 7.08-4.44.72-6-3.12-6.36-6.24 0-1.2.12-2.04.12-2.64h-2.16c-1.88 1.097-3.614 2.428-5.16 3.96-.84 1.92-1.92 4.56-.24 10.68 2.88 10.92 1.56 17.52-7.08 21.24-11.16 4.8-18.36 7.68-27.84 19.68-4.56 5.64-7.08 15.24-7.44 24.72-.265 9.35 1.368 18.658 4.8 27.36 1.988 5.032 4.609 9.791 7.8 14.16 3.027-.164 6.036-.565 9-1.2-3.347-3.9-5.329-8.79-5.64-13.92-1.08-17.76 8.4-25.2 23.04-36.84l6.6-5.52c26.16-22.2 18.48-44.76 21.36-64.08-2.114-.2-4.237-.28-6.36-.24zm10.44.36c-.73 3.966-1.211 7.974-1.44 12-1.08 16.8-.48 35.88-21.84 54.72l-6.36 5.16c-14.28 11.4-22.44 18.6-21.84 34.08.118 4.972 2.24 9.691 5.88 13.08 4.088-1.205 8.032-2.855 11.76-4.92 18.48-10.56 30.12-26.28 34.56-46.44 2.76-12.72 2.76-23.04 2.64-31.44 0-4.2.6-12.36.6-12.36.6-5.16 1.32-12.6 7.44-22.08l.6-.96c-3.72-.36-7.8-.6-12-.84zm6.24 54c-.6 3.12-.72 6.48-1.08 9.84-.24 1.2-.48 2.52-.6 3.72-.022.37-.103.735-.24 1.08-4.56 21.24-16.68 37.68-36.24 48.72-3.216 1.853-6.589 3.419-10.08 4.68 5.76 3.72 12.36 4.92 16.92 4.2 17.52-2.52 26.04-13.92 30.12-26.16 4.2-12.48 3.72-25.8 3.48-31.32-.6-18.48 13.56-25.32 13.56-25.32-10.92-.6-14.64 4.2-15.84 10.56zm-11.64 68.04c-5.213 4.283-11.542 6.99-18.24 7.8-7.923 1.094-15.957-1.12-22.2-6.12l-.48-.36c-2.993.791-6.042 1.353-9.12 1.68 6.96 7.56 16.32 11.88 28.68 12.6h.12c8.422-3.25 15.835-8.675 21.48-15.72zm-65.04 12.72c.001-4.004-.944-7.952-2.76-11.52-4.392-1.263-8.591-3.12-12.48-5.52-2.237-1.609-4.289-3.46-6.12-5.52 4.606 9.552 12.073 17.439 21.36 22.56zm35.64 5.28c-6.543-1.292-12.727-3.995-18.12-7.92-2.694-2.037-5.15-4.372-7.32-6.96-2.822.024-5.639-.258-8.4-.84 1.615 3.907 2.234 8.155 1.8 12.36 6.702 3.059 13.993 4.616 21.36 4.56 3.587.003 7.166-.359 10.68-1.08.12-.12 0-.12 0-.12zm59.88-126.48c-1.2 3.96-5.16 3.48-6.36 1.32-1.8-3.36-1.08-6 .84-7.8 1.8-1.8 4.92-2.76 7.92-4.2h.12c-3.48-.6-7.2-1.08-11.04-1.56-.12.12-.12.12-.24.12-.29.423-.611.824-.96 1.2-4.44 6.386-7.092 13.844-7.68 21.6l-.12 1.68c-.385 3.466-.505 6.956-.36 10.44v1.68c-.12 1.44-.12 2.88-.12 4.2.12-.6.12-.72.12-.48 1.68-5.64 4.92-9 9.48-10.92 5.04-1.92 9.84-3.72 10.08-10.92.12-3 .36-6 .96-7.44.696-1.575 1.93-2.851 3.48-3.6-2.4-.12-5.04.84-6.12 4.68z" fill="#98002e"/><path d="m328.438 108.567c.36-4.8 4.92-5.64 9.36-9.72 5.64-5.4-1.8-14.28-1.8-14.28.96 6-1.8 8.28-6.84 11.88-1.637 1.044-2.734 2.757-3 4.68-.068 2.374-.308 4.741-.72 7.08 1.006.061 2.008.181 3 .36z" fill="#f9a01b"/><path d="m328.438 108.567c.36-4.8 4.92-5.64 9.36-9.72 5.64-5.4-1.8-14.28-1.8-14.28.96 6-1.8 8.28-6.84 11.88-1.637 1.044-2.734 2.757-3 4.68-.068 2.374-.308 4.741-.72 7.08 1.006.061 2.008.181 3 .36z" fill="none" stroke="#f9a01b" stroke-width=".12"/><path d="m312.958 100.287c-1.293.974-2.535 2.016-3.72 3.12-.84.84-1.68 1.56-2.4 2.4 4.92.36 9.72.96 14.4 1.56 2.88-5.4 4.32-11.4 2.52-21.84 0 0-.36 7.08-10.8 14.76z" fill="#f9a01b"/><path d="m312.958 100.287c-1.293.974-2.535 2.016-3.72 3.12-.84.84-1.68 1.56-2.4 2.4 4.92.36 9.72.96 14.4 1.56 2.88-5.4 4.32-11.4 2.52-21.84 0 0-.36 7.08-10.8 14.76z" fill="none" stroke="#f9a01b" stroke-width=".12"/><path d="m285.358 104.727c5.64.12 11.16.24 16.68.72.13-.223.291-.425.48-.6 3.6-3.84 9.24-7.2 12.24-11.52s1.8-9.72.6-16.2c-1.92-11.16 2.88-13.2 2.88-13.2s-9.48 1.32-9.24 6.72c.24 7.32 7.8 14.16-3.6 16.32-12.48 2.28-20.28 9-21.96 17.88.635-.096 1.278-.136 1.92-.12z" fill="#f9a01b"/><path d="m285.358 104.727c5.64.12 11.16.24 16.68.72.13-.223.291-.425.48-.6 3.6-3.84 9.24-7.2 12.24-11.52s1.8-9.72.6-16.2c-1.92-11.16 2.88-13.2 2.88-13.2s-9.48 1.32-9.24 6.72c.24 7.32 7.8 14.16-3.6 16.32-12.48 2.28-20.28 9-21.96 17.88.635-.096 1.278-.136 1.92-.12z" fill="none" stroke="#f9a01b" stroke-width=".12"/><path d="m285.358 107.607c-52.32-.48-95.88 12.96-97.32 30.12-.6 6.84 5.52 13.2 16.44 18.48 8.1 3.679 16.596 6.417 25.32 8.16 2.04-.84 3.96-1.56 6.24-2.28 2.866-.853 5.672-1.895 8.4-3.12-14.64-2.04-26.4-5.4-33.72-9.36-5.4-2.88-8.28-6.12-7.92-9.6.96-11.52 37.56-20.4 81.6-20.04 44.16.48 79.08 10.2 78 21.6-.24 3.24-3.24 6.12-8.16 8.76-9.24 4.92-25.44 8.52-45.24 10.32-.677.993-1.279 2.036-1.8 3.12 9-3.36 19.44 1.68 19.44 1.68.414.171.815.372 1.2.6 13.08-2.4 24.36-5.76 32.76-9.72 9.96-4.68 16.08-10.56 16.56-16.68 1.44-17.16-39.6-31.44-91.8-32.04z" fill="#fff"/></svg>