<svg clip-rule="evenodd" fill-rule="evenodd" viewBox="0 0 560 400" xmlns="http://www.w3.org/2000/svg"><ellipse cx="280.098735" cy="199.822623" fill="#9ea2a2" rx="150.034014" ry="150.076104" stroke-width="1.403"/><ellipse cx="280.856355" cy="199.612173" fill="#0c2340" rx="144.744704" ry="144.772764" stroke-width="1.403"/><path d="m281.123 104.081c-7.344-.042-14.592.766-21.617 2.354-.647 2.09-1.522 6.162-.055 9.865.885 2.232 2.601 4.041 5.017 5.448 6.628-2.699 13.825-5.458 20.767-7.779 8.765-3.201 16.553-4.963 22.606-5.895l-.477-.15c-4.306-1.253-8.625-2.19-12.943-2.826-4.451-.655-8.892-.989-13.299-1.016zm-28.299 4.122c-13.701 4.156-26.347 11.327-36.94 20.985.463 0 .983.015 1.473.027 9.078-.539 22.001-.167 29.385.132 3.117-1.401 6.911-3.069 11.119-4.853-1.832-1.701-3.226-3.692-4.129-5.992-1.429-3.65-1.375-7.358-.908-10.298zm68.17 4.828-.004.112c-.265-.007-20.42-.468-45.368 11.63-.439.255-.87.53-1.295.819 7.814 2.288 14.271 2.756 18.907 3.073 1.093.076 2.062.142 2.905.22l.692.06c3.013.255 7.225.734 12.186 1.621 3.689-4.521 8.145-7.336 11.144-8.002 3.539 1.326 5.346 3.392 6.632 6.339 4.901 2.055 8.183 5.674 10.345 9.998 11.341 4.939 22.743 12.251 31.458 23.081-9.133-21.116-25.763-38.835-47.601-48.951v-.001zm-51.972 17.249c-2.063 2.281-3.761 4.689-5.036 6.713 2.589 2.696 7.538 7.876 9.991 10.634 4.235 2.549 8.482 5.311 12.694 8.263 6.706-7.552 12.665-13.678 18.542-19.828-2.854-.407-5.811-.746-8.894-1.01l-.764-.065c-.794-.079-1.713-.137-2.739-.21-5.282-.356-13.675-1.009-23.792-4.497h-.001zm-53.348 5.072c-2.466-.004-4.557.087-6.144.196-7.949 8.749-14.359 19.095-18.71 30.719 9.746-10.115 24.405-20.87 40.689-17.686 1.288-2.285 2.591-4.573 3.776-6.652-5.086-3.334-8.262-5.751-17.026-6.538-.901-.025-1.765-.038-2.585-.039zm124.068 11.105c2.909 13.034-.391 27.843-.391 27.843s7.086 4.101 8.807 11.924c.007.004.945.403 1.69 1.554 1.981 2.428 4.507 8.032.445 19.05 0 0-2.41-5.144-7.51.394-.44.613-.864 1.22-1.282 1.819 9.714 13.369 17.114 27.32 20.882 40.94 4.322-7.084 7.807-14.84 10.24-23.191 3.383-11.624 4.442-23.369 3.494-34.756-2.467-11.372-10.499-32.318-36.373-45.579h-.001zm-89.06 2.229c-2.623 1.254-5.497 2.714-8.269 4.317 7.803 5.118 13.61 13.774 18.029 23.942 6.204-2.155 10.486-2.198 10.486-2.198 4.167-5.301 8.015-9.949 11.625-14.149-4.17-2.916-8.367-5.644-12.554-8.151-4.592-1.652-15.557-3.246-19.318-3.761v-.001zm-25.792 5.455c-17.072.569-32.159 18.384-38.25 26.638-4.257 20.716-1.432 41.481 6.974 59.575 4.517-4.233 8.861-8.615 12.994-12.982-.324-13.75 1.521-27.007 5.545-39.678 3.376-10.621 7.92-19.598 12.756-27.08.734-1.449 1.961-3.721 3.418-6.351-1.153-.123-2.3-.16-3.439-.122h.001zm11.749 2.563c-1.46 1.058-2.782 2.143-3.892 3.235-11.16 15.7-19.107 36.202-19.876 60.676 11.921-13.125 21.732-25.286 28.424-31.726 4.637-4.458 9.324-7.507 13.567-9.596-4.438-10.234-10.298-18.595-18.222-22.59v.001zm101.156 57.956c-6.252 10.158-9.324 19.715-9.674 36.481-.192 9.183 4.334 16.258 7.695 27.178 8.326-5.865 15.752-13.065 21.91-21.413-2.767-13.713-9.974-28.211-19.931-42.246z" fill="#236192"/><path d="m319.893 126.748c-1.843-.053-4.211 1.598-7.114 6.886 6.196-6.635 11.648-2.359 11.648-2.359-.662-1.575-2.164-4.458-4.533-4.526zm-58.051 1.31-13.296 6.674s-9.517-.784-14.521-.931c4.563 2.943 8.523 6.325 8.523 6.325l-5.884 9.763 12.55-6.825s7.92 1.334 15.132 2.805c-4.122-4.709-9.136-8.192-9.136-8.192l6.632-9.617v-.001zm5.353 57.436c-7.248 3.622-18.146 14.485-18.146 14.485 5.254-3.575 16.174-5.189 16.174-5.189.226-4.479 1.972-9.297 1.972-9.297z" fill="#78be20"/><path d="m280.436 91.947c-53.61 0-99.561 40.111-106.894 93.292-3.044 22.084.7 44.061 10.594 63.518 1.239-1.031 2.472-2.086 3.692-3.155-9.08-18.354-12.48-38.987-9.618-59.721 7.009-50.867 50.957-89.222 102.226-89.222 4.724 0 9.513.328 14.233.979 27.298 3.763 51.519 17.961 68.204 39.985 16.686 22.019 23.805 49.181 20.04 76.477-4.152 30.121-21.256 55.849-45.156 71.831.323 1.605.609 3.291.846 5.064 25.912-16.608 44.534-44.026 48.979-76.251 3.933-28.542-3.511-56.943-20.957-79.967-17.447-23.024-42.769-37.87-71.312-41.803-4.932-.68-9.938-1.028-14.877-1.028h.001zm47.193 44.781c.215.673-.028 3.041-.22 4.905l-.028-.039c-4.326.786-13.861-.293-16.954-1.916-11.725 12.576-24.508 30.072-34.127 46.144-4.172 8.495-8.262 18.466-9.283 26.567 0 0-1.328-3.664-1.641-8.549-5.325 2.056-23.419 10.948-27.293 38.219 0 0 11.505-11.867 24.219-16.493 0 0-8.054 21.092 7.318 58.468 0 0 6.222-22.921 19.235-28.702 7.882 39.139 30.985 39.779 37.724 66.41 0 0 7.058-13.795-1.438-37.241 0 0 2.932.815 5.413 3.744 0 0-.386-6.856-6.796-21.655-4.179-7.922-5.489-18.609-5.489-18.609-3.752 3.4-4.709 14.884-4.709 14.884-11.47-31.117 21.084-61.952 27.024-66.502 2.902-2.225 4.688-2.258 5.769-1.727 1.117-2.316 1.017-3.8-.327-4.768 0 0-.568-.386-.693-.45-3.455-1.845-9.646 3.528-13.689 5.752-4.04 2.225-9.928 6.967-12.804.436-2.874-6.531 3.738-16.747 6.027-23.172 5.054-14.213 5.239-22.576 4.17-27.103 4.672 5.273 6.14 15.382 6.14 15.382s1.735-18.982-7.546-23.982l-.001-.003zm-101.205 108.399s-21.702 15.902-43.895 17.174c0 0 21.963 5.176 31.249 1.382-.892-.584-1.889-1.425-2.88-2.688 0 0 8.97-5.775 15.477-15.753l.048-.115z" fill="#9ea2a2"/><path d="m291.895 65.144-.529 3.979 5.068.673-1.882 14.205 4.082.543 1.884-14.209 5.066.673.526-3.978-14.215-1.887zm-35.19 1.624-.586.098-5.124 19.661 4.463-.771 2.551-9.648 5.611 8.241 4.497-.777zm61.035 3.301-5.217 17.59 3.947 1.171 5.217-17.587-3.947-1.175zm-79.531.968-13.29 5.379 1.504 3.719 4.735-1.915 5.378 13.281 3.818-1.54-5.375-13.288 4.735-1.916zm97.343 4.998-8.577 16.425 3.629 1.899 3.953-7.57 1.871 7.011.473.25 6.814-2.481-3.954 7.57 3.662 1.913 8.576-16.427-.554-.29-12.083 4.413-3.254-12.342-.024-.09zm-123.305 8.507c-5.205 0-9.425 4.219-9.425 9.425 0 5.205 4.219 9.422 9.425 9.422 5.205 0 9.426-4.216 9.426-9.422 0-5.205-4.221-9.425-9.426-9.425zm0 4.282c2.842 0 5.141 2.3 5.141 5.142 0 2.838-2.299 5.144-5.141 5.144s-5.142-2.306-5.142-5.144c0-2.842 2.3-5.142 5.142-5.142zm152.034 4.901-2.686 3.093-1.833 2.108-.146.168-2.539 2.922-2.178 2.511-2.689 3.09 3.093 2.688 2.682 2.33c1.175 1.02 2.551 1.585 3.986 1.63 1.699.053 3.317-.658 4.438-1.953.983-1.129 1.453-2.557 1.355-4.021 1.035-.279 1.986-.868 2.739-1.734 1.156-1.328 1.627-2.964 1.326-4.594-.244-1.324-.975-2.526-2.171-3.563l-2.284-1.989zm.404 5.778 2.288 1.988c.961.835 1.104 1.614.438 2.382-.818.941-1.84.4-2.556-.222l-2.149-1.867 1.978-2.281zm-174.392 2.233-.362.007c-2.051.06-3.985 1.066-5.747 2.986-1.111 1.216-1.79 2.651-1.917 4.047-.154 1.634.449 3.122 1.739 4.305 1.999 1.829 4.348 1.953 7.183.372l1.972-1.091c1.023-.575 1.685-.794 2.23-.289.655.593.498 1.436-.461 2.502l-.029.031c-1.271 1.386-2.709 1.491-3.679 1.449l-.351-.015-.447 4.574.389.02c1.523.081 4.508-.247 7.339-3.344l.08-.086c1.438-1.6 2.204-3.184 2.284-4.709.083-1.585-.575-3.023-1.953-4.284-2.044-1.87-4.268-1.909-7.434-.136l-2.209 1.234c-.814.459-1.283.477-1.737.06-.53-.485-.432-1.234.261-2.003l.007-.011c.795-.865 1.668-1.31 2.755-1.396l.366-.027-.278-4.197zm169.89 2.969 2.525 2.194c1.038.899 1.283 1.972.624 2.728-.659.753-1.721.722-2.648-.083l-2.682-2.334zm23.785 8.039-14.384 11.388 7.739 9.778 3.211-2.542-5.181-6.549 2.408-1.903 4.462 5.636 3.214-2.54-4.465-5.636 2.372-1.878 5.18 6.548 3.187-2.522-7.74-9.779h-.001zm-212.137 6.169-6.917 10.374 15.263 10.178 6.918-10.374-3.406-2.274-4.634 6.949-2.556-1.7 3.991-5.985-3.409-2.274-3.989 5.984-2.518-1.676 4.633-6.95-3.378-2.251h.001zm227.244 15.578-16.453 8.109 1.818 3.696 7.615-3.752-5.203 8.646 2.17 4.399s3.763-6.337 4.03-6.755c1.574 1.665 4.159 1.889 6.448.764 3.432-1.693 4.514-5.093 2.606-8.959zm-1.801 5.482 1.161 2.361c.832 1.69.44 2.861-1.055 3.598-1.512.746-2.704.353-3.536-1.337l-1.164-2.361zm-239.602 2.627-1.57 3.842 8.862 3.62-12.921 5.894-.25.619 17.125 6.999 1.551-3.796-8.904-3.636 12.98-5.918.25-.623-17.124-7.002zm251.721 14.384-16.407 10.897.153.635 11.046 2.566-8.67 7.281.153.64 19.57 2.213-1.021-4.223-9.418-1.111 7.747-6.496-.149-.623-9.873-2.32 7.889-5.224-1.02-4.236zm-261.666 14.958-.638 4.096 9.457 1.477-11.217 8.715-.101.663 18.278 2.86.635-4.054-9.5-1.487 11.264-8.747.105-.663zm192.233 8.507c.903 1.397.936 3.327.829 4.562 1.212-.299 2.119-.344 2.793-.299-.199-.555-.577-1.389-1.254-2.213-.964-1.17-2.368-2.048-2.368-2.048v-.001zm-9.572 1.849c1.007 2.985.794 6.005.55 7.681 1.411-.972 2.695-1.773 3.863-2.428-.213-.508-.541-1.234-1.038-2.115-.933-1.675-3.375-3.138-3.375-3.138zm76.39 8.966c-5.207 0-9.425 4.221-9.425 9.426s4.218 9.419 9.425 9.419c5.205 0 9.426-4.214 9.426-9.419s-4.221-9.426-9.426-9.426zm0 4.284c2.842 0 5.144 2.3 5.144 5.142 0 2.838-2.302 5.141-5.144 5.141s-5.142-2.303-5.142-5.141c0-2.842 2.3-5.142 5.142-5.142zm-243.502 5.403-18.339.438.098 4.118 18.337-.438-.097-4.118zm.818 15.107-18.128 3.831.13.613 11.088 6.518-7.454 10.363-.055.074.125.586 18.13-3.828-.847-4.009-8.352 1.765 4.223-5.9-.115-.526-6.248-3.682 8.356-1.765-.854-4.041zm232.197 3.717-2.78 11.912 4.066.948 1.845-7.9 13.8 3.219.937-4.013-17.867-4.166zm13.276 22.932-20.297.919-.222.554 14.062 14.665 1.683-4.205-6.879-7.231 9.953-.461 1.699-4.239v-.001zm-27.264 15.507-6.667 10.54 3.459 2.188 4.466-7.058 2.595 1.64-3.842 6.081 3.459 2.188 3.849-6.076 2.554 1.614-4.463 7.06 3.427 2.17 6.667-10.54-15.502-9.805-.001-.001zm-9.29 19.535c-.327 0-3.268.024-5.275 1-1.053.511-1.971 1.161-2.72 1.915-.959.964-1.637 2.096-1.957 3.301-.53 2.017.053 4.128 1.521 5.517 1.411 1.328 3.392 1.751 5.304 1.126.633-.206 1.37-.569 2.225-.99 1.006-.492 2.522-1.272 3.222-1.313 1.689-.1 1.648 2.333-.512 3.39-.802.387-2.177.788-2.891.879l.516 4.128c.283-.034 2.782-.37 4.557-1.466 3.037-1.875 3.63-4.268 3.707-5.529.08-1.189-.417-2.946-1.7-4.18-1.084-1.042-2.546-1.525-4.111-1.363-1.439.151-3.131.986-4.625 1.718-.655.321-1.328.652-1.683.77-.461.15-.853.084-1.153-.198-.282-.267-.522-.78-.352-1.424.257-.959 1.177-1.91 2.469-2.539.865-.421 2.578-.581 3.452-.581l.007-4.162z" fill="#fff"/></svg>