<svg clip-rule="evenodd" fill-rule="evenodd" viewBox="0 0 560 400" xmlns="http://www.w3.org/2000/svg"><path d="m279.59 300-16.35-21.232c-20.801-6.864-35.279-25.664-36.618-47.533l-11.335-10.983c-9.643 4.155-18.111 8.556-18.111 8.556l-30.417-30.529 12.821-28.105-22.927-29.774h36.475l7.061-15.377 18.058-7.287 2.004-5.449 14.636 6.687 3.482-12.164 2.387-.795c11.578-3.856 24.92-5.934 38.577-6.01.392-.025 4.733.051 4.835.051.51 0 2.641.115 2.641.115 11.555.559 22.408 2.481 32.263 5.717l2.421.798 3.205 11.6 5.269-3.98 29.585 10.517 7.137 15.583h36.658l-23.172 29.895 12.626 27.702-30.893 31.808s-11.211-7.024-18.974-10.105l-9.429 10.771c-1.063 22.39-16.299 42.03-37.712 48.623z" fill="#fff"/><path d="m279.34 104.673-.115 10.121 1.832 1.872.608.044.031 4.361 3.03.088-.083-4.352.568-.031 1.713-1.709-.365-10.179c-.838-.07-2.705-.132-2.705-.132l.106 9.021-1.775.013-.026-9.073s-1.838-.044-2.819-.044zm-5.4.237c-1.024.062-1.633.045-2.806.172l-1 12.615-1.96.176 1.145-12.667-2.748.268-1.56 12.76-1.995.221 1.502-12.734-2.788.383-2.123 14.421 1.617 1.541 3.686-.343 1.59-1.353 1.256 1.093 3.387-.203 1.973-1.964zm16.543.247c-.547.592-1.246 1.063-1.7 1.661.259 4.237.474 8.487.793 12.698l1.792 1.951 4.969.335 1.537-2.348c-.417-3.853-1.1-7.811-1.449-11.94l-1.802-1.952-4.141-.405zm8.267.934 2.194 16.182 3.303.41-.704-4.753 1.986.221.903 4.876 3.312.572-1.001-5.85-1.159-1.383.656-.912-1.136-5.889-2.044-2.361-6.312-1.114zm-39.047.308-6.5 1.321c-.648 3.733-3.259 15.826-3.259 15.826 2.331-.406 4.774-.754 7.202-1.053.174-1.003.519-3.25.519-3.25l-3.471.506.639-3.334 3.383-.484c.225-1.229.287-1.672.493-2.969-1.47.194-2.226.314-3.464.537l.612-3.484 3.37-.634.475-2.982zm49.653 1.779s2.173 10.591 3.374 15.967l3.445.674-1.154-4.99 2.118.475 1.326 5.013 3.4.762-2.065-7.149-1.361-1.497.735-1.057-1.568-5.872c-1.556-.471-3.017-.881-3.017-.881l1.471 6.061-.568.784-1.181-.238s-1.211-4.874-1.826-7.241c-1.383-.446-3.128-.811-3.128-.811zm-17.561.031 1.696.19.929 9.796-1.744-.137zm-41.156.058c-1.094.245-3.268.823-3.268.823l-.833 3.22s-.924-1.748-1.308-2.617c-1.043.313-1.922.581-3.101.978-1.432 5.139-2.896 10.28-4.325 15.416l3.435-.785 2.762-9.486 1.092 2.365-1.613 6.594 3.516-.693 3.642-15.816zm51.692 1.501 1.669.309.785 4.012-1.867-.216zm-136.08 35.359 113.34 147.114 114.096-147.11-227.431-.004z" fill="#006bb6"/><path d="m384.99 149.384-105.386 135.881-104.69-135.883z" fill="#bec0c2"/><path d="m369.796 158.856-.037-.09-.079-.051-6.746-4.533 2.512-4.798.076-.146-.067-.152-9.283-20.342-.062-.124-.13-.048-25.018-8.91-.172-.062-.149.112-6.636 5.063-.068.054-.034.084-1.138 2.785s-10.371-2.604-25.605-4.127c-1.553-.155-5.697-.496-12.316-1.017l-.642-.051-.668-.051-.156-.011-.109.11-4.945 4.925.006-5.057s-14.024.792-23.208 2.04c-9.182 1.252-18.216 3.524-18.216 3.524l-1.661-3.557-.053-.113-.11-.051-11.806-5.404-.333-.149-.124.341-1.375 3.738-.31-.75-.13-.307-.31.127-16.894 6.771-.124.053-.059.124-31.164 68.466 25.588 25.625 1.192-.677c.77-.44 1.861-1.088 3.096-1.81 3.095-1.826 7.334-4.321 9.358-5.299l.415-.198c2.619-1.265 3.935-1.905 16.372-7.227l1.04-.389c.012-.003 1.396-.542 3.958-1.39 6.83-2.272 24.573-7.552 41.768-7.552h.195c.688 0 1.37.011 2.058.031 11.678.321 25.33 2.805 34.723 4.826 9.04 1.951 15.843 3.822 17.776 4.366l1.3.401c8.553 3.304 19.014 8.764 28.699 14.968l1.232.792 25.901-26.672z" fill="#006bb6"/><path d="m279.01 170.895.075 10.073 4.145.15.092-5.743zm6.087 5.202c-.084 1.686-.085 4.057-.198 5.303 2.907.341 6.018 1.295 8.752 2.061 2.475.598 5.137 1.66 7.316 2.63l1.198-8.673c-5.746-.708-11.185-1.139-17.067-1.321zm-12.429.013c-3.922.133-7.816.378-11.681.745.335 2.198.838 5.485 1.185 7.774 0 0 3.573-2.093 10.725-2.885zm-18.76 1.537c-3.813.505-7.593 1.132-11.337 1.859 1.435 4.666 3.263 10.927 4.695 15.641 3.329-2.478 5.332-5.024 8.836-7.158-.665-3.151-1.548-7.229-2.193-10.342zm51.997.225-2.039 9.963c3.247 1.88 5.778 4.006 8.681 6.827l.569.436 4.576-15.134c-3.941-.814-7.767-1.525-11.787-2.092zm-71.873 3.488c-4.282 1.035-8.007 2.124-12.179 3.44 2.638 6.272 5.591 12.735 8.725 18.751 2.847-1.049 6.819-2.481 10.532-3.471l-7.079-18.72zm91.698.45-7.43 19.177 10.901 2.564 9.175-18.138c-4.228-1.379-8.31-2.518-12.645-3.603zm-110.863 5.29c-4.617 1.649-8.819 3.355-13.284 5.342l12.549 17.848c.629-.541 6.819-3.214 11.055-5.004-3.219-5.83-7.092-12.256-10.32-18.187zm130.161.625-10.052 18.072c8.685 3.372 20.83 10.176 25.662 13.421 2.227-2.131 14.31-14.815 15.971-16.557-10.047-5.894-20.601-10.905-31.581-14.936zm-154.446 9.963c-2.752 1.427-5.466 2.924-8.144 4.48l16.257 16.31c1.97-1.184 4.058-2.392 6.356-3.722z" fill="#bec0c2"/><path d="m280.041 179.124c-26.955.003-48.801 21.853-48.801 48.807 0 26.949 21.846 48.796 48.801 48.796 26.952 0 48.801-21.847 48.801-48.796 0-26.954-21.849-48.804-48.801-48.807" fill="#006bb6"/><path d="m224.869 123.481-6.845 19.468-10.972 9.448 9.999-25.242-10.748 4.29-29.625 64.998 4.633 4.647c2.749-1.604 5.537-3.143 8.365-4.612l9.443-23.993 8.289-7.408 1.983 2.308-8.189 23.55c4.477-1.973 9.035-3.78 13.663-5.417l5.938-19.42-5.123-8.457 10.606-10.082 6.202-20.657-7.62-3.423zm106.49.105-4.061 3.136 7.356 23.896 23.67 16.724 6.065 15.121-9.844-4.44-3.379-9.412-12.073-3.555 6.458 21.265c1.99.733 3.965 1.491 5.924 2.286 5.373 2.174 10.637 4.582 15.781 7.215 3.566 1.824 7.069 3.757 10.514 5.792l5.145-5.276-15.927-35.113-24.886-16.614-4.329-12.157 7.703 2.74 3.119 7.598 11.716 3.757-6.836-15.108-22.115-7.853zm-46.573 2.529-5.378 5.369-.018 37.338 5.647 5.779c5.824.181 11.589.616 17.283 1.304l-1.167-10.655-10.549-.625-1.696-29.863 8.942.436-1.049-8.223-12.015-.859zm-10.589.022-9.087.475-4.268 48.759c3.859-.367 7.75-.616 11.668-.749zm-14.425 1.118-8.439 1.229-2.766 16.011-3.136-15.068-9.919 2.484-13.804 51.332c3.98-1.243 8.005-2.361 12.081-3.348l7.585-34.515 3.81 18.535-2.462 14.046c3.684-.707 7.402-1.314 11.157-1.81l.022-.005zm40.011.075s4.308 32.874 6.338 49.068c3.887.55 7.736 1.223 11.553 2.004l-2.977-15.848 2.968-4.008 4.339 3.568 3.99 18.182c4.189 1.051 8.328 2.241 12.412 3.563l-7.446-26.667-7.677-6.276 4.369-5.832-3.634-13.535-9.263-2.057 3.643 13.623-5.77 7.713-4.268-22.411-8.58-1.088zm-21.019 55.418c-4.221.093-8.295.603-12.143 2.004 1.649 1.063 3.045 1.434 5.483 2.894 3.575-1.66 7.182-3.566 10.928-4.871-1.438-.044-2.861-.058-4.268-.027zm8.902.665c-4.443 1.136-13.055 5.238-13.055 5.238 14.633 4.095 31.878 3.26 43.38 14.843-6.794-10.887-18.365-18.042-30.325-20.081zm-23.882 2.282c-4.268 1.742-8.833 4.013-11.967 6.889 4.846.564 6.921.865 10.879 1.942 2.365-2.103 4.654-3.945 7.501-5.651zm8.532 3.92c-2.729 1.672-5.389 3.643-7.664 5.686 24.998 7.837 47.685 32.283 53.088 57.547 3.924-5.663 6.29-12.234 7.246-19.208.609-10.715.504-20.465-9.655-29.77-12.074-10.653-28.9-9.29-43.015-14.254zm-22.944 4.951c-4.443 3.918-8.636 9.913-10.637 14.962 4.192-4.262 9.411-7.686 16.032-6.206l.053.018c1.886-2.661 3.688-4.944 6.101-7.263-4.482-1.399-7.456-1.334-11.549-1.511zm13.61 2.295c-2.266 2.215-4.282 4.6-6.069 7.117l.008.066c8.384 3.64 10.584 12.61 13.747 24.503 4.124 15.498 7.968 31.224 19.644 43.332 6.569-1.564 13.414-4.46 19.627-10.047 1.917-1.917 4.779-4.593 5.968-6.518-4.079-25.475-27.921-51.4-52.926-58.454zm-10.967 8.285c-6.566-.125-11.533 4.748-15.452 10.218-5.099 17.957 1.676 36.452 13.042 45.996-8.795-18.295-7.303-39.172 3.744-56.124-.452-.054-.897-.084-1.334-.092zm3.537.704c-11.761 16.638-12.871 42.241-1.11 59.405 9.496 6.01 21.406 9.614 33.425 7.175-15.419-17.827-16.738-37.424-22.691-55.122-.778-2.312-3.896-9.81-9.624-11.457z" fill="#f58426"/></svg>