<svg clip-rule="evenodd" fill-rule="evenodd" stroke-linejoin="round" stroke-miterlimit="1.41421" viewBox="0 0 560 400" xmlns="http://www.w3.org/2000/svg"><g transform="matrix(.539998 0 0 .539998 145.001 65.0005)"><g fill-rule="nonzero"><path d="m268.556 69.945v.011l-.011.01zm15.565 74.181v-.01h.01c-.01 0-.01.01-.01.01zm215.727-54.313c-.021-.094.01-.187-.01-.281-.062-.239-.208-.426-.29-.654-.125-.323-.228-.645-.405-.936-.165-.259-.373-.467-.58-.696-.228-.239-.425-.488-.694-.696-.28-.197-.581-.333-.892-.478-.259-.125-.507-.27-.787-.353-.353-.094-.715-.104-1.088-.125-.249-.021-.477-.114-.736-.093-30.105 2.421-61.059 7.055-92.148 13.591 1.819-4.893 3.546-9.819 5.181-14.776 29.442-5.331 59.07-10.131 88.117-14.256.228-.032.404-.156.622-.219.311-.083.612-.166.891-.301.301-.156.56-.343.829-.54.249-.187.477-.364.684-.582.228-.25.404-.52.581-.811.155-.259.321-.509.435-.8.124-.311.176-.644.238-.987.042-.228.156-.426.166-.665 0-.093-.041-.187-.041-.28 0-.094.041-.187.031-.291-.011-.26-.135-.489-.187-.738-.062-.312-.114-.624-.228-.915-.135-.311-.331-.581-.518-.862-.166-.26-.311-.509-.528-.727-.228-.25-.519-.426-.798-.624-.249-.176-.467-.363-.747-.488-.331-.156-.684-.218-1.036-.291-.249-.062-.466-.187-.725-.208-25.825-2.016-52.707-2.504-79.982-1.6.736-2.764 1.461-5.559 2.166-8.396.58-2.338-.518-4.769-2.653-5.871-59.919-30.944-107.641-43.558-164.7-43.558-57.069 0-104.791 12.614-164.741 43.558-2.135 1.102-3.233 3.533-2.663 5.871l3.627 14.651c5.451 21.977 13.047 42.977 22.426 62.782-37.825 16.231-73.599 34.935-106.263 55.758-2.228 1.423-3.036 4.302-1.876 6.681.902 1.819 2.736 2.899 4.653 2.899.591 0 1.192-.104 1.772-.311 31.172-11.358 63.64-22.247 96.501-32.586-6.021 12.76-11.949 25.582-17.648 38.456l-.923 2.058c-3.15 6.941-7.471 16.459-4.404 24.45 1.451 3.782 4.29 6.608 9.202 8.676.601.156 1.192.291 1.793.395-22.964 16.085-44.592 33.095-64.582 50.811-1.979 1.756-2.321 4.728-.798 6.89 1.005 1.423 2.601 2.203 4.238 2.203.879 0 1.743-.225 2.508-.655 45.38-25.188 93.34-49.669 142.575-72.788 20.798 20.2 44.903 38.571 71.94 54.812 1.637.976 3.679.976 5.326 0 63.733-38.312 106.999-83.917 135.673-143.125 36.198-13.092 72.51-25.239 107.952-36.139.228-.073.394-.229.611-.322.28-.125.539-.25.788-.416.29-.208.528-.447.777-.696.197-.219.394-.416.56-.665.197-.291.321-.593.456-.915.114-.27.238-.54.3-.841.073-.343.073-.686.083-1.039 0-.229.083-.447.052-.676-.01-.093-.073-.177-.083-.27z" fill="#fefefe" transform="translate(0 100.735)"/><path d="m494.784 191.421c-36.074 11.087-72.811 23.39-110.035 36.888 3.316-6.952 6.425-14.121 9.368-21.509m.002 0c34.406-7.669 68.127-12.771 100.667-15.379m-464.461 197.661c28.778-25.509 61.225-49.782 96.781-72.123 6.684-3.398 13.378-6.764 20.104-10.1 2.767-1.371 8.187-4.011 15.006-7.294 4.58 5.164 9.326 10.172 14.238 15.056-51.058 23.878-99.91 48.806-146.129 74.461" fill="#0070b9"/><path d="m494.784 165.648c-29.898 4.25-60.355 9.185-91.268 14.827 1.71-5.299 3.317-10.713 4.871-16.22" fill="#ef5133"/><path d="m408.388 164.252c29.742-1.257 58.645-.769 86.397 1.393" fill="#ed2a37"/><path d="m5.182 288.045c33.4-21.291 70.396-40.68 110.345-57.524 1.327 2.681 2.705 5.352 4.093 7.981-2.134 4.405-4.28 8.8-6.394 13.227-37.141 11.493-73.194 23.619-108.044 36.316" fill="#ef5133"/><path d="m250.008 116.58c56.302 0 100.459 13.207 150.305 38.124-24.384 92.167-69.017 154.076-150.295 204.379-30.539-18.943-56.499-40.057-78.189-64.122 9.648-4.593 20.529-9.768 30.084-14.298 3.866.353 7.576.54 11.026.633-.217 5.31-1.886 9.207-4.559 12.002 1.554 1.777 3.14 3.564 4.725 5.31 4.218-3.783 6.923-9.352 7.14-17.291 9.887-.156 19.431-1.174 28.291-3.055-.497 14.516-2.518 25.209-6.642 29.448-.145.135-.218.239-.29.385-1.026 1.08-1.949 1.995-2.747 2.691 3.99-.727 7.897-1.652 11.762-2.743 4.975-10.318 5.037-28.388 5.109-31.526 9.234-2.328 17.441-4.666 24.83-7.201.29 8.489 3.669 16.594 10.135 19.587 2.912-2.058 5.731-4.25 8.456-6.515-1.637.249-11.855.956-11.71-15.535 21.628-8.178 35.711-18.028 48.105-32.752 3.275-7.409 5.918-15.181 7.783-23.234-14.819 23.452-28.478 37.137-55.142 47.871.757-4.728 2.125-10.381 4.332-17.156 7.772-3.262 15.887-7.159 20.778-9.175l11.658-12.282c2.933-11.347 5.845-22.704 8.757-34.051l-9.119 2.847 10.715-11.295c2.259-8.884 4.467-17.789 6.674-26.673-5.368.79-10.747 1.59-16.125 2.431.901-4.447 1.544-8.842 1.886-13.238-2.591-.654-5.182-1.288-7.793-1.87-.549 4.936-1.513 10.412-2.974 16.511l-.736.114c-5.036.852-10.197 2.515-14.684 6.308l1.44-4.375c-8.643 1.569-17.254 3.159-25.866 4.832l-8.581 9.04.28-.727 2.777-7.243c-8.518 1.756-17.016 3.554-25.524 5.414-1.772-11.524-3.554-21.935-5.098-30.362-2.415.28-4.829.623-7.223.966 1.554 8.52 3.368 19.192 5.181 30.975l-6.031 1.361-7.658 8.095c-5.368-5.694-16.26-2.099-23.131-.364-7.44 1.881-14.871 3.834-22.301 5.84-2.218.613-4.425 1.288-6.591 2.037-5.565-8.043-10.798-16.345-15.119-25.281l-.778-1.653c-2.249.915-4.484 1.864-6.704 2.847l.953 1.975c4.207 8.738 9.275 16.906 14.736 24.834-8.01 3.574-15.41 8.531-21.824 15.618 0 0-10.415 10.931-11.638 12.271-2.705 3.117-5.037 6.432-7.099 9.809-10.933-22.07-19.607-46.083-26.115-72.404 49.857-24.917 94.034-38.145 150.368-38.134zm5.503 139.519c5.181-2.286 10.363-4.552 15.524-6.827l2.425-2.525c1.015.166 2.186.197 3.502.072 2.021-.342 4.487-1.039 7.161-1.974-1.741 6.37-2.798 11.877-3.275 16.667-7.368 2.608-15.637 5.071-25.037 7.45-.01-4.114-.114-8.416-.3-12.864zm-35.856 16.199 4.86-2.265 12.477-10.059 2.777-7.689c1.803 3.658 2.778 5.092 4.57 8.78l4.104-1.808c.145 3.959.207 7.814.207 11.493-9.005 2.068-18.736 3.179-28.778 3.335z" fill="#fefefe"/><path d="m280.338 135.443c11.897 0 23.639.624 35.214 1.871 8.809 1.849 17.534 4.094 26.187 6.712 3.296 11.586 5.078 23.827 5.078 36.462 0 10.464-1.202 20.616-3.492 30.373-14.819 23.452-28.478 37.147-55.142 47.881.757-4.728 2.135-10.391 4.332-17.155 7.772-3.274 15.887-7.16 20.768-9.186l11.668-12.282c2.933-11.347 5.845-22.704 8.757-34.051l-9.119 2.847 10.725-11.295c2.249-8.884 4.467-17.779 6.664-26.663-5.368.779-10.747 1.579-16.125 2.421.901-4.437 1.544-8.843 1.886-13.238-2.589-.657-5.187-1.277-7.793-1.86-.539 4.925-1.513 10.412-2.974 16.511l-.736.115c-5.047.852-10.197 2.514-14.684 6.296l1.44-4.374c-8.643 1.569-17.254 3.169-25.866 4.832l-8.581 9.04.291-.728 2.767-7.232c-8.509 1.746-17.017 3.554-25.525 5.414-1.772-11.524-3.544-21.935-5.098-30.362 12.902-1.569 26.021-2.349 39.358-2.349zm55.204 98.652c-8.301 18.807-20.84 35.298-36.384 48.286-1.648.25-11.876.956-11.721-15.534 21.638-8.178 35.711-18.028 48.105-32.752zm-44.851 54.801c-12.052 8.511-25.545 15.046-40.063 19.14 4.963-10.318 5.026-28.388 5.109-31.515 9.223-2.328 17.43-4.676 24.819-7.201.29 8.479 3.669 16.584 10.135 19.576zm-51.825 21.894c-4.073.759-8.197 1.32-12.374 1.694-4.602-4.491-9.067-9.121-13.389-13.883 4.208-3.782 6.923-9.351 7.14-17.28 9.887-.166 19.431-1.174 28.291-3.065-.497 14.516-2.518 25.208-6.632 29.448-.155.135-.228.249-.29.384-1.047 1.091-1.959 1.995-2.746 2.702zm-30.478-17.498c-3.202-3.679-6.321-7.44-9.358-11.264l2.881-1.372c3.866.364 7.576.551 11.026.634-.207 5.31-1.886 9.217-4.549 12.002zm-57.245-94.599c-4.032-10.256-7.596-20.761-10.643-31.495 3.347-1.59 6.736-3.117 10.135-4.593l.943 1.985c4.207 8.739 9.275 16.896 14.736 24.824-5.368 2.39-10.467 5.413-15.171 9.279zm6.186-38.935c24.83-10.193 50.22-17.218 76.438-21 1.544 8.521 3.358 19.182 5.171 30.975l-6.031 1.351-7.658 8.105c-5.379-5.694-16.27-2.099-23.131-.374-7.44 1.902-14.881 3.834-22.301 5.84-2.218.613-4.425 1.288-6.591 2.036-5.565-8.042-10.798-16.345-15.119-25.281zm98.19 96.334c5.171-2.286 10.353-4.551 15.513-6.816l2.425-2.525c1.016.156 2.187.208 3.503.062 2.011-.343 4.477-1.039 7.171-1.964-1.751 6.36-2.798 11.867-3.285 16.657-7.368 2.618-15.638 5.071-25.037 7.461-.01-4.126-.114-8.417-.29-12.875zm-35.866 16.2 4.86-2.255 12.477-10.069 2.777-7.689c1.804 3.668 2.788 5.091 4.57 8.79l4.104-1.818c.145 3.969.207 7.824.207 11.513-9.005 2.047-18.736 3.159-28.778 3.315z" fill="#ef5133"/><path d="m252.441 343.749c-23.928-16.251-45.255-35.381-63.691-56.849l10.28-4.873c3.037 3.824 6.156 7.575 9.358 11.264 1.555 1.788 3.127 3.561 4.715 5.32 13.659 15.036 28.778 28.803 45.256 41.169-1.961 1.341-3.933 2.664-5.918 3.969zm-112.739-133.669c-6.995-15.347-12.881-31.308-17.576-47.819 41.722-19.743 84.925-30.393 130.781-31.63 21.442.187 42.282 2.432 62.655 6.682-11.585-1.237-23.327-1.871-35.224-1.871-13.347 0-26.456.79-39.358 2.349-2.415.28-4.819.613-7.213.966-26.229 3.782-51.608 10.806-76.438 21-2.248.925-4.477 1.87-6.705 2.857-3.388 1.466-6.777 2.993-10.124 4.583 3.046 10.734 6.601 21.239 10.643 31.495-2.311 1.891-4.539 4.011-6.643 6.338z" fill="#fcb424"/><path d="m87.645 149.219c53.929-27.838 101.237-42.988 162.368-42.988 61.101 0 108.418 15.15 162.327 42.988-25.048 101.186-72.873 168.197-162.327 221.97-33.763-20.283-63.266-44.047-87.795-71.624-6.819 3.283-12.239 5.912-15.016 7.284-8.446 4.218-16.892 8.458-25.297 12.749-9.482 4.853-20.011 12.189-30.933 9.352-11.938-5.195-4.073-19.774-.425-28.055 9.285-20.979 18.975-41.782 29.079-62.398-12.135-22.839-21.68-47.673-28.364-74.627zm162.368-32.638c-56.344-.011-100.511 13.217-150.378 38.134 6.519 26.3 15.182 50.355 26.126 72.404 2.051-3.377 4.383-6.691 7.098-9.819 1.213-1.33 11.638-12.261 11.638-12.261 6.404-7.097 13.814-12.054 21.814-15.618-5.461-7.928-10.518-16.095-14.736-24.834l-.943-1.975c2.228-.987 4.456-1.932 6.705-2.857l.777 1.663c4.321 8.925 9.544 17.228 15.12 25.281 2.165-.748 4.362-1.424 6.59-2.037 7.42-2.016 14.851-3.959 22.302-5.85 6.86-1.725 17.752-5.32 23.12.374l7.668-8.094 6.021-1.362c-1.803-11.783-3.627-22.454-5.171-30.975 2.394-.343 4.808-.686 7.213-.966 1.554 8.427 3.326 18.838 5.098 30.362 8.508-1.86 17.016-3.658 25.535-5.414l-2.778 7.232-.29.728 8.581-9.04c8.611-1.663 17.233-3.263 25.866-4.832l-1.441 4.385c4.488-3.793 9.648-5.455 14.685-6.307l.746-.115c1.451-6.099 2.425-11.575 2.964-16.511 2.611.582 5.212 1.216 7.803 1.86-.352 4.395-.995 8.801-1.896 13.238 5.378-.831 10.767-1.631 16.125-2.421-2.197 8.884-4.415 17.779-6.664 26.673l-10.726 11.285 9.12-2.847c-2.902 11.357-5.824 22.704-8.747 34.061l-11.668 12.272c-4.881 2.026-13.006 5.923-20.778 9.185-2.197 6.765-3.575 12.428-4.332 17.156 26.664-10.734 40.323-24.429 55.142-47.881-1.866 8.063-4.508 15.835-7.783 23.244-12.394 14.724-26.467 24.575-48.095 32.752-.155 16.491 10.073 15.774 11.711 15.524-2.726 2.276-5.555 4.468-8.467 6.515-6.467-2.982-9.845-11.087-10.135-19.576-7.389 2.535-15.586 4.873-24.82 7.201-.082 3.127-.145 21.208-5.109 31.526-3.876 1.094-7.801 2.009-11.762 2.743.788-.696 1.71-1.611 2.747-2.702.062-.135.134-.239.29-.374 4.114-4.239 6.135-14.932 6.632-29.448-8.86 1.881-18.405 2.889-28.281 3.055-.217 7.929-2.932 13.508-7.14 17.28-1.596-1.724-3.171-3.522-4.725-5.309 2.673-2.785 4.342-6.682 4.549-12.002-3.451-.083-7.15-.27-11.026-.634-9.555 4.531-20.426 9.726-30.084 14.309 21.69 24.065 47.66 45.179 78.189 64.112 81.277-50.292 125.911-112.212 150.305-204.369-49.856-24.917-94.003-38.124-150.305-38.124zm5.503 139.508c.186 4.458.28 8.76.29 12.875 9.41-2.39 17.669-4.843 25.037-7.461.487-4.79 1.534-10.298 3.285-16.657-2.684.946-5.15 1.632-7.161 1.964-1.316.135-2.487.094-3.513-.073l-2.414 2.536c-5.171 2.265-10.353 4.53-15.524 6.816zm-35.866 16.21.217 1.787c10.042-.145 19.773-1.267 28.789-3.335 0-3.679-.063-7.534-.218-11.503l-4.104 1.818c-1.782-3.688-2.767-5.122-4.559-8.78l-2.788 7.689-12.477 10.069z" fill="#081e3f"/><path d="m180.761 188.905c-12.684 3.46-24.001 8.894-33.058 18.942-5.202 5.975-8.912 12.823-12.373 19.826-10.135 20.668-19.856 41.512-29.162 62.543-2.425 5.486-9.886 18.828-1.948 22.278 8.788 2.286 19.773-5.112 27.524-9.071 8.425-4.292 16.861-8.552 25.327-12.76 14.415-7.17 27.338-15.867 36.105-29.843 3.492-5.902 6.094-12.23 8.653-18.548 5.503-13.581 11.109-27.161 16.819-40.69 2.146-5.071 5.887-11.462 4.695-17-2.404-7.429-14.923-2.889-20.374-1.527-7.399 1.891-14.809 3.834-22.208 5.85m-16.031 77.599c-6.705 3.003-13.379 6.016-20.063 9.102 9.689-22.527 19.741-44.899 30.239-67.094 5.866-1.87 11.752-3.688 17.669-5.507-9.606 21.031-18.871 42.208-27.845 63.499m114.718-100.875c-9.285 12.168-18.456 24.429-27.514 36.773 4.229-11.294 8.519-22.579 12.84-33.822-9.627 1.974-19.223 4.084-28.809 6.266-2.477 5.819-4.964 11.627-7.409 17.457 2.072-.582 4.155-1.154 6.217-1.725-7.554 18.308-14.902 36.68-22.114 55.082-2.951 7.485-5.894 14.974-8.83 22.465 9.628-4.551 19.255-9.071 28.913-13.519 4.373-12.105 8.778-24.2 13.244-36.264 4.094 8.23 8.166 16.48 12.208 24.751 6.207-2.795 12.446-5.538 18.695-8.261-3.804-8.686-7.659-17.352-11.545-26.018 6.912-10.516 13.876-20.99 20.913-31.422 1.977-.478 3.956-.946 5.938-1.403l4.446-13.592c-5.731 1.05-11.472 2.11-17.193 3.232m37.266-6.39c-5.171.862-9.845 2.525-13.7 6.411-3.161 3.429-4.84 7.492-6.249 11.835-4.114 12.968-8.259 25.946-12.394 38.924-1.617 5.133-4.259 14.475 3.938 13.779 2.798-.457 5.43-1.611 8.052-2.743 8.29-3.544 16.601-7.045 24.933-10.495 2.125-8.136 4.239-16.293 6.322-24.46-4.384 1.371-8.747 2.774-13.12 4.177-1.036 3.678-2.052 7.367-3.078 11.035-3.036 1.122-6.072 2.223-9.109 3.356 3.845-13.165 7.69-26.32 11.503-39.496 2.694-.582 5.379-1.153 8.083-1.714-.642 2.307-1.264 4.613-1.907 6.93 3.928-.945 7.866-1.88 11.794-2.774 1.493-5.935 2.982-11.872 4.466-17.81-6.508.966-13.026 1.974-19.534 3.045" fill="#fefefe"/><path d="m351.71 147.205c3.948 1.299 7.637 2.618 11.326 4 9.244 3.45 17.421 6.962 24.177 10.215-20.871 71.832-63.618 132.068-123.941 174.941l-4.923 3.419c-17.658-13.259-28.084-23.671-28.084-23.671l8.312-1.371c25.223-4.219 49.535-15.68 69.639-34.477 34.26-32.056 48.167-77.808 41.11-120.919-.176-.977-.373-1.954-.528-2.931l-.083-.426-.083-.457-.104-.478-.093-.447-.083-.499-.104-.467-.114-.52-.114-.488-.103-.468-.073-.394-.145-.551-.103-.52-.104-.384-.073-.385-.093-.374c-.383-1.548-.725-2.868-1.098-4.146 1.828.595 3.656 1.194 5.482 1.798m.663.842c3.689 1.267 7.492 2.608 11.119 3.969-3.689-1.413-7.399-2.723-11.119-3.969" fill="#0070b9"/></g><path d="m0 0h500v500h-500z" fill="none"/></g></svg>