<svg clip-rule="evenodd" fill-rule="evenodd" stroke-linejoin="round" stroke-miterlimit="1.41421" viewBox="0 0 560 400" xmlns="http://www.w3.org/2000/svg"><g transform="matrix(.54 0 0 .54 145 65)"><g fill-rule="nonzero"><path d="m432.68 71.414c3.677-1.618 7.982-3.473 11.947-5.132l12.822-5.369-42.031-13.634-10.103-47.239-25.418 38.016-43.092-10.975 14.48 18.817c-54.266-6.894-114.536-1.803-168.669 14.314l3.574-11.232-9.249 2.658c-73.711 21.137-138.225 78.537-168.38 149.799l-8.559 20.239 16.654-14.324c36.026-30.947 73.206-62.894 127.174-80l-15.037 34.976 13.111-7.183c11.844-6.492 25.212-11.48 39.476-14.922l19.26 6.616c30.156 10.336 56.326 19.291 82.032 35.739-.195 28.051 11.185 55.875 31.485 76.764 19.929 20.497 45.934 31.741 73.309 31.741h.814c62.845-.474 99.902-46.756 108.749-92.388 7.951-41.025-4.666-97.571-64.349-127.281" fill="#fefefe" transform="translate(0 103.95)"/><path d="m194.277 243.167c35.717-5.483 71.363-3.875 102.569 9.305l3.801-8.368c-50.487-16.261-113.95-15.427-161.223 10.471l13.461-31.308c-59.416 16.066-99.397 49.6-139.585 84.133 29.301-69.262 93.012-126.199 165.065-146.861l-3.667 11.49c63.093-20.6 132.344-24.506 188.413-15.242l-13.131-17.096 32.164 8.203 20.691-30.916 8.177 38.233 31.629 10.264s-23.039 9.656-21.937 10.109c119.789 49.373 81.445 213.424-32.463 214.3-57.614.474-102.312-51.62-100.365-106.114-29.291-19.292-58.685-28.577-93.599-40.603" fill="#c4cdd3"/><path d="m408.856 175.63c6.591-2.875 18.899-8.245 18.899-8.245l.916-.401-.958-.32s-19.795-6.513-24.048-7.894c-.639-4.483-3.77-26.021-3.77-26.021l-.144-1.041-7.199 11.717s-4.13 6.647-6.354 10.275c-4.687-1.196-25.141-6.41-25.141-6.41l-1.081-.268.68.876c.02.021 8.332 10.728 13.368 17.241-20.588-4.473-44.338-6.977-71.569-6.977-8.94 0-18.25.268-27.931.825-37.129 2.122-73.639 9.048-108.677 21.713l4.007-11.923-.711.216c-54.833 17.138-114.794 68.572-141.304 119.429l.597.453c37.479-35.172 88.202-63.265 133.673-73.487l-11.947 27.855.927-.443c21.154-10.223 48.931-14.747 76.965-14.747 28.673 0 57.613 4.74 79.983 12.892l-8.579 18.704c-20.392-9.357-49.889-15.664-74.36-15.664-4.356 0-8.558.196-12.524.618l-.061.753c28.899 8.161 58.828 17.385 82.547 36.408-.143 2.013-.216 4.031-.216 6.05.01 50.063 43.205 95.375 93.887 95.386.34 0 .69-.011 1.03-.011 55.863-.659 97.255-51.908 97.265-105.341.01-39.356-22.503-79.918-78.17-102.218" fill="#120c0d"/><path d="m378.384 267.333c-20.63 0-41.269-7.564-62.001-15.19-5.459 11.562-8.24 23.681-8.24 36.006 0 6.555.783 13.181 2.379 19.797 1.71.041 3.43.062 5.15.062 40.023 0 82.496-11.13 116.803-31.483-3.955-7.358-8.857-14.232-13.945-20.848-13.358 8.451-26.747 11.656-40.146 11.656" fill="#c4cdd3"/><path d="m314.23 315.785h-1.349c12.514 32.39 41.217 53.856 76.224 54.34 11.206-27.618 23.637-57.792 52.052-71.9-1.483-4.978-3.306-9.821-5.314-14.592-36.593 21.393-79.314 32.152-121.613 32.152m86.508-101.646c-12.441-4.751-20.372-6.225-21.113-6.359-3.481.474-8.209.938-12.03 1.701 21.155 8.429 36.768 18.652 52.464 36.161 8.064-6.379 15.15-13.603 20.063-22.476-14.388-14.005-41.485-31.163-109.068-36.481 28.539 6.791 54.781 15.953 70.034 26.784zm-189.485-9.381c4.192-.093 8.713-.145 13.502-.145 48.015.021 122.117 5.668 150.852 39.81l-.484.577c-9.939-5.544-29.826-14.726-42.227-14.716-.401 0-.793.01-1.174.031-4.264 4.709-8.033 9.924-11.411 15.324 19.208 7.08 38.653 14.118 57.922 14.108 12.102 0 24.131-2.762 36.047-10.027-33.307-36.316-89.674-52.155-142.849-52.155-21.113 0-41.732 2.493-60.178 7.193m227.209 67.97c9.289-6.328 17.313-12.934 24.594-21.425-4.583-8.719-12.503-18.509-18.188-23.548-5.294 9.337-12.071 17.045-20.31 23.826 4.851 6.472 9.98 14.026 13.904 21.147" fill="#c4cdd3"/><path d="m397.248 369.788c16.871-2.061 32.381-7.821 45.42-18.9 2.008-7.471 2.863-15.2 2.863-22.95 0-7.399-.783-14.829-2.111-22.053-25.45 12.232-36.016 39.098-46.171 63.903m55.794-36.873c0 2.555-.062 5.111-.185 7.667 9.897-13.397 15.201-25.032 18.137-42.149-7.22.639-14.378 1.855-21.186 4.112 2.225 10.089 3.234 20.188 3.234 30.37m-11.077-53.104c2.225 5.112 4.213 10.295 5.943 15.603 7.93-2.587 15.593-3.916 23.863-4.421.011-.588.011-1.165.011-1.752 0-10.955-1.617-19.385-5.181-29.865-7.59 7.77-15.603 14.386-24.636 20.435" fill="#c4cdd3"/><path d="m471.77 290.997c-8.27.505-15.922 1.834-23.863 4.421-1.73-5.318-3.708-10.491-5.943-15.602 9.033-6.06 17.056-12.676 24.636-20.446 3.563 10.491 5.18 18.92 5.18 29.875 0 .577 0 1.164-.01 1.752" fill="#c4cdd3"/><path d="m471.77 290.997c-8.27.505-15.922 1.834-23.863 4.421-1.73-5.318-3.708-10.491-5.943-15.602 9.033-6.06 17.056-12.676 24.636-20.446 3.563 10.491 5.18 18.92 5.18 29.875 0 .577 0 1.164-.01 1.752m-26.905-63.244c5.685 5.039 13.615 14.84 18.198 23.548-7.292 8.491-15.315 15.107-24.604 21.424-3.924-7.121-9.053-14.674-13.904-21.146 8.239-6.781 15.016-14.489 20.31-23.826" fill="#c4cdd3"/><path d="m444.865 227.753c5.685 5.039 13.615 14.84 18.198 23.548-7.292 8.491-15.315 15.107-24.604 21.424-3.924-7.121-9.053-14.674-13.904-21.146 8.239-6.781 15.016-14.489 20.31-23.826m-113.815-41.071c67.583 5.328 94.68 22.486 109.078 36.481-4.923 8.873-12.009 16.097-20.063 22.476-15.696-17.499-31.319-27.732-52.464-36.161 3.811-.753 8.538-1.227 12.019-1.701.742.134 8.672 1.608 21.114 6.358l.36-.669c-15.263-10.831-41.505-19.982-70.044-26.784" fill="#c4cdd3"/><path d="m331.05 186.682c67.583 5.328 94.68 22.486 109.078 36.481-4.923 8.873-12.009 16.097-20.063 22.476-15.696-17.499-31.319-27.732-52.464-36.161 3.811-.753 8.538-1.227 12.019-1.701.742.134 8.672 1.608 21.114 6.358l.36-.669c-15.263-10.831-41.505-19.982-70.044-26.784m-15.379 121.329c-1.72 0-3.44-.021-5.149-.062-1.597-6.626-2.38-13.242-2.38-19.796 0-12.336 2.781-24.455 8.25-36.007 20.722 7.615 41.361 15.19 61.991 15.19 13.399 0 26.788-3.205 40.146-11.666 5.087 6.626 9.99 13.5 13.945 20.858-34.307 20.353-76.78 31.483-116.803 31.483" fill="#c4cdd3"/><path d="m315.671 308.011c-1.72 0-3.44-.021-5.149-.062-1.597-6.626-2.38-13.242-2.38-19.796 0-12.336 2.781-24.455 8.25-36.007 20.722 7.615 41.361 15.19 61.991 15.19 13.399 0 26.788-3.205 40.146-11.666 5.087 6.626 9.99 13.5 13.945 20.858-34.307 20.353-76.78 31.483-116.803 31.483" fill="#c4cdd3"/><path d="m389.106 370.122c-35.007-.484-63.711-21.95-76.224-54.34h1.349c42.299 0 85.02-10.759 121.613-32.152 2.008 4.781 3.831 9.614 5.314 14.592-28.415 14.108-40.847 44.282-52.052 71.9" fill="#c4cdd3"/><path d="m389.106 370.122c-35.007-.484-63.711-21.95-76.224-54.34h1.349c42.299 0 85.02-10.759 121.613-32.152 2.008 4.781 3.831 9.614 5.314 14.592-28.415 14.108-40.847 44.282-52.052 71.9m63.752-29.537c.123-2.566.185-5.122.185-7.667 0-10.182-1.009-20.291-3.234-30.38 6.808-2.257 13.966-3.463 21.186-4.112-2.936 17.127-8.24 28.762-18.137 42.159" fill="#c4cdd3"/><path d="m452.858 340.585c.123-2.566.185-5.122.185-7.667 0-10.182-1.009-20.291-3.234-30.38 6.808-2.257 13.966-3.463 21.186-4.112-2.936 17.127-8.24 28.762-18.137 42.159m-38.582-90.87c-11.916 7.265-23.935 10.037-36.047 10.037-19.27 0-38.714-7.028-57.922-14.118 3.378-5.4 7.147-10.604 11.411-15.324.381-.011.773-.031 1.174-.031 12.4-.011 32.288 9.182 42.227 14.726l.484-.587c-28.724-34.142-102.837-39.789-150.852-39.81-4.779 0-9.31.062-13.502.145 18.456-4.689 39.065-7.183 60.188-7.183 53.175-.011 109.542 15.829 142.839 52.145" fill="#c4cdd3"/><path d="m414.276 249.715c-11.916 7.265-23.935 10.037-36.047 10.037-19.27 0-38.714-7.028-57.922-14.118 3.378-5.4 7.147-10.604 11.411-15.324.381-.011.773-.031 1.174-.031 12.4-.011 32.288 9.182 42.227 14.726l.484-.587c-28.724-34.142-102.837-39.789-150.852-39.81-4.779 0-9.31.062-13.502.145 18.456-4.689 39.065-7.183 60.188-7.183 53.175-.011 109.542 15.829 142.839 52.145m28.391 101.169c-13.039 11.078-28.549 16.849-45.419 18.9 10.154-24.805 20.721-51.66 46.171-63.903 1.328 7.224 2.111 14.654 2.111 22.053 0 7.75-.855 15.479-2.863 22.95" fill="#c4cdd3"/><path d="m442.667 350.884c-13.039 11.078-28.549 16.849-45.419 18.9 10.154-24.805 20.721-51.66 46.171-63.903 1.328 7.224 2.111 14.654 2.111 22.053 0 7.75-.855 15.479-2.863 22.95m-66.771-168.024 14.697-5.142 11.154 12.665-1.297-16.53 14.233-6.214-15.49-5.081-2.4-16.509-8.27 13.408-15.685-4.009 10.402 13.376z" fill="#c4cdd3"/><path d="m297.6 194.768 10.207-5.04 8.507 7.565-1.659-11.254 9.826-5.719-11.216-1.917-2.42-11.099-5.263 10.089-11.339-1.154 7.961 8.131zm-114.769 22.589 6.725-3.318 5.582 4.977-1.092-7.399 6.458-3.772-7.374-1.267-1.597-7.297-3.47 6.606-7.447-.731 5.232 5.348z" fill="#fefefe"/><path d="m436.932 318.923-.01-1.37-9.475 15.88 2.719-13.984-.67-.32c-13.883 16.849-19.187 28.958-23.502 43.88l-.206.711.7-.237c15.583-5.41 23.626-11.665 26.922-14.283l.072-.062.041-.082c2.318-5.029 3.409-15.221 3.42-27.711 0-.804-.011-1.608-.011-2.422m-31.679-36.772c-15.16 3.081-32.854 4.895-49.065 4.895-2.441 0-4.841-.042-7.189-.124l34.78-10.295-.092-.752c-22.967-1.082-40.692-1.515-63.134-12.037l-.319-.155-.175.31c-3.337 5.997-5.243 14.396-5.243 22.908 0 4.834.618 9.708 1.936 14.181l.083.268.268.01c.02 0 .813.02 2.286.02 10.031 0 51.238-1.102 86.111-18.508zm7.671 28.228c-17.54 13.036-30.743 23.579-56.604 28.453 23.945-12.449 40.012-21.012 55.111-36.316l-.464-.598c-26.778 15.603-61.651 22.28-86.255 23.208l-.67.021.361.566c20.258 32.071 45.882 34.946 54.214 34.946h.052c1.73 0 2.698-.114 2.719-.114l.175-.031.093-.144c10.876-17.199 17.786-33.76 31.783-49.424z" fill="#0077c0"/><path d="m394.966 203.508c-1.266-.67-2.564-1.299-3.913-1.907 20.711 6.152 34.677 14.149 42.484 20.23-1.205 1.782-2.544 3.503-3.914 5.173-9.589-9.945-21.299-18.045-34.657-23.496m63.803 116.048-.072-1.35c1.123-5.575 1.751-11.171 1.947-16.695 1.462-.391 2.966-.69 4.47-.968-1.607 6.853-3.605 13.087-6.344 19.013m8.651-36.357c-2.699.36-5.201.752-7.673 1.288-.556-4.009-1.36-7.976-2.379-11.882 2.688-2.257 5.263-4.555 7.868-7.008 1.494 5.761 2.122 11.171 2.184 17.602m-9.239-34.028c-2.296 2.473-4.521 4.668-6.776 6.719-2.513-5.4-5.449-10.584-8.847-15.479 1.771-2.133 3.481-4.338 5.087-6.647 4.326 4.792 8.085 10.398 10.536 15.407" fill="#fefefe"/></g><path d="m0 0h500v500h-500z" fill="none"/></g></svg>