<svg clip-rule="evenodd" fill-rule="evenodd" viewBox="0 0 560 400" xmlns="http://www.w3.org/2000/svg"><g transform="matrix(1.364 0 0 1.364 130 50)"><path d="m219.916 109.958c0 60.321-49.637 109.958-109.958 109.958s-109.958-49.637-109.958-109.958 49.637-109.958 109.958-109.958h.021c60.31 0 109.937 49.628 109.937 109.938z" fill="#fff"/><path d="m215.869 109.958c0 58.101-47.81 105.911-105.911 105.911s-105.911-47.81-105.911-105.911 47.81-105.911 105.911-105.911c58.101.001 105.91 47.81 105.911 105.911" fill="#006bb6"/><path d="m20.388 128.017 2.176 6.911h7.331l-5.918 4.314 2.138 6.796-5.727-4.161-5.803 4.161 2.176-6.796-5.956-4.314h7.33zm179.178 0 2.177 6.911h7.368l-5.956 4.314 2.177 6.796-5.766-4.161-5.765 4.161 2.177-6.796-5.957-4.314h7.293zm-153.445 37.035 2.177 6.872h7.33l-5.956 4.353 2.176 6.796-5.727-4.162-5.803 4.162 2.176-6.796-5.956-4.353h7.331zm130.118 0 2.176 6.872h7.33l-5.918 4.353 2.177 6.796-5.765-4.162-5.804 4.162 2.215-6.796-5.956-4.353h7.292zm-89.991 24.091 2.139 6.911h7.368l-5.956 4.314 2.176 6.796-5.727-4.161-5.803 4.161 2.176-6.796-5.956-4.314h7.331zm48.756 0 2.176 6.911h7.331l-5.956 4.314 2.176 6.796-5.727-4.161-5.803 4.161 2.176-6.796-5.956-4.314h7.331zm54.368-78.688c0 43.565-35.848 79.414-79.414 79.414-43.565 0-79.414-35.849-79.414-79.414 0-43.566 35.849-79.415 79.414-79.415h.012c43.559 0 79.402 35.844 79.402 79.402v.012" fill="#fff"/><path d="m35.278 126.07c8.576 40.962 49.329 67.62 90.296 59.064 19.859-3.986 37.272-15.87 48.221-32.911 10.941-16.982 14.833-37.581 10.843-57.384-8.583-40.944-49.296-67.604-90.257-59.103-35.243 7.357-60.721 38.701-60.721 74.704 0 5.252.543 10.49 1.618 15.63" fill="#006bb6"/><g fill="#fff"><path d="m135.921 51.008c.267 2.978-1.146 5.88-4.124 8.629-14.317-10.499-27.948-15.654-41.311-15.73-2.799.001-5.595.218-8.361.649 4.262-1.791 8.686-3.172 13.21-4.123 11.753-2.472 23.942-1.933 35.431 1.565 2.482 2.405 4.887 5.536 5.155 9.01m-14.929 123.245c15.043-13.821 22.03-43.41 26.192-61.088l.649-2.749c2.138-9.01 5.918-15.73 10.003-19.739 15.081 23.443 13.057 47.649 9.239 62.844-13.529 17.909-34.711 28.464-57.155 28.483 4.031-2.059 7.758-4.668 11.072-7.751m27.337-100.413c6.109-5.116 10.996-9.01 14.47-11.569 7.567 8.273 13.074 18.215 16.074 29.017-2.825-3.78-6.414-7.369-10.309-8.17-3.359-.688-6.796.267-10.041 2.558-3.077-4.211-6.486-8.168-10.194-11.836m-108.507 33.407c6.948-18.631 32.414-26.267 41.998-29.131l.42-.114c4.249-1.108 8.557-1.975 12.904-2.597 12.332-2.1 27.566-4.696 36.768-11.568 4.004 3.061 7.841 6.337 11.492 9.812-20.808 17.677-52.994 47.381-87.318 83.843-8.085-9.228-13.637-20.398-16.112-32.415-1.017-4.794-1.529-9.683-1.527-14.584.802-1.909 1.375-3.246 1.375-3.246m106.102-35.736c-3.643-3.482-7.466-6.77-11.454-9.85 3.474-3.398 5.078-7.064 4.734-10.958-.237-2.327-1.051-4.558-2.367-6.491 8.825 3.624 16.854 8.942 23.633 15.654-3.589 2.673-8.514 6.605-14.546 11.645m-16.8-9.736c-8.628 5.956-22.907 8.4-34.552 10.347-4.473.659-8.908 1.551-13.287 2.672l-.42.115c-9.201 2.749-32.338 9.66-41.883 26.344 1.395-10.7 5.193-20.947 11.11-29.971 5.086-7.815 11.587-14.614 19.166-20.045 16.952-7.139 35.966-6.643 59.866 10.538m38.753 24.588c5.002 1.031 10.347 9.43 12.905 14.241 2.229 15.61-.823 31.526-8.667 45.205.382-2.405.687-4.963.916-7.636 1.419-17.51-3.029-35.003-12.637-49.71 2.596-1.833 5.192-2.558 7.483-2.1m-22.068-10.385c3.715 3.64 7.1 7.6 10.118 11.836-4.887 4.658-9.049 12.37-11.301 21.839l-.65 2.787c-4.085 17.334-10.919 46.312-25.198 59.408-4.771 4.521-10.539 7.857-16.838 9.736-11.124-1.259-21.797-5.117-31.154-11.263-4.534-2.974-8.722-6.444-12.485-10.347 34.667-36.882 66.967-66.548 87.508-83.996"/><path d="m129.697 131.683 1.947-.535c1.184-.305 1.948-.687 1.948-2.405 0-1.413-.382-3.971-2.1-3.971-1.795 0-1.795 3.054-1.795 4.696zm-23.251-1.07c0-6.108-.229-11.377-4.353-11.377-3.36 0-3.971 5.269-3.971 11.377 0 6.109-.191 11.416 3.971 11.416 3.474-.038 4.353-5.307 4.353-11.416"/><path d="m129.697 131.683 1.947-.535c1.184-.305 1.948-.687 1.948-2.405 0-1.413-.382-3.971-2.1-3.971-1.795 0-1.795 3.054-1.795 4.696zm-32.071-15.082h.076c1.986-3.092 5.766-4.581 9.469-4.581 8.4 0 13.554 7.254 13.554 16.99 0 11.53-7.827 18.403-17.487 18.403-14.852 0-20.273-11.989-20.273-25.886 0-15.998 6.949-29.208 24.244-29.208 6.758 0 12.294 4.353 12.294 10.996l.003.192c0 3.418-2.812 6.229-6.229 6.229l-.303-.007c-4.658 0-6.147-3.894-6.834-7.33-.267-1.451.267-4.658-2.138-4.658-5.04 0-5.841 9.85-6.071 13.477zm8.82 14.012c0-6.108-.229-11.377-4.353-11.377-3.36 0-3.971 5.269-3.971 11.377 0 6.109-.191 11.416 3.971 11.416 3.474-.038 4.353-5.307 4.353-11.416"/><path d="m16.379 92.93c2.826.344 3.971 2.329 3.551 5.994l-.306 2.673 1.528.191c1.947.229 2.672.191 2.901-1.375l1.795.229-.84 7.254-1.795-.229c.153-1.603-.572-1.794-2.519-2.023l-5.651-.649c-1.947-.229-2.673-.191-2.902 1.374l-1.794-.229.954-7.941c.458-3.895 2.177-5.613 5.078-5.269zm1.527 7.712c.268-2.405-.42-3.703-2.138-3.894-1.489-.191-2.558.764-2.787 2.558-.153 1.26.306 1.527 1.68 1.68l3.131.382zm9.087-15.73c.573-1.489-.038-1.871-1.832-2.634l-5.231-2.177c-1.795-.763-2.52-.916-3.169.535l-1.68-.687 2.825-6.72 1.642.687c-.573 1.489.038 1.871 1.833 2.635l1.336.572 2.1-5.039-1.336-.573c-1.795-.764-2.52-.916-3.169.535l-1.642-.688 2.825-6.719 1.68.687c-.572 1.489.038 1.871 1.833 2.634l5.231 2.177c1.794.763 2.519.916 3.168-.535l1.68.687-2.825 6.72-1.642-.687c.573-1.489-.038-1.871-1.832-2.635l-2.291-.954-2.1 5.039 2.291.955c1.794.764 2.52.916 3.169-.535l1.641.688-2.825 6.719zm7.025-35.698c-.916 1.298-.42 1.833 1.146 3.016l4.543 3.398c1.565 1.184 2.215 1.489 3.207.267l1.451 1.069-4.352 5.804-1.451-1.069c.916-1.298.42-1.833-1.184-3.016l-4.543-3.398c-1.566-1.184-2.215-1.528-3.207-.268l-1.451-1.069 4.352-5.803zm16.418.84-1.146-1.375c1.184-1.069.802-1.68-.458-3.169l-3.665-4.352c-1.26-1.489-1.795-1.985-3.055-.993l-1.145-1.374 5.574-4.658 1.146 1.374c-1.184 1.069-.84 1.68.42 3.207l4.085 4.849c.955 1.107 1.374 1.298 2.52.344 1.527-1.298 2.176-3.589 1.642-6.491l1.603-.343 1.642 5.345zm17.295-13.325-.763-1.642c1.374-.84 1.298-1.756 1.26-3.359l-.382-11.264 3.054-1.374 8.4 8.209c.954.916 1.489 1.374 2.71.954l.764 1.642-6.643 3.016-.726-1.603.153-.077c.916-.42 1.26-.802.993-1.374-.092-.201-.222-.383-.382-.535l-1.527-1.527-4.276 1.947.267 2.1c.015.158.054.312.114.458.306.649.917.687 1.948.229l.725 1.604zm5.422-10.27-3.131-3.36.267 4.696zm17.028-.611c1.565-.267 1.604-.993 1.336-2.94l-.801-5.612c-.268-1.948-.497-2.635-2.1-2.444l-.268-1.794 7.331-1.031c5.651-.802 9.01 1.412 9.698 6.07.649 4.696-1.948 7.713-7.598 8.553l-7.331 1.03zm5.269-2.596c.191 1.45.458 1.832 1.985 1.603 2.902-.42 4.505-2.711 3.971-6.223-.496-3.513-2.635-5.269-5.574-4.849-1.528.229-1.642.649-1.451 2.1zm20.35.458c1.565.191 1.832-.497 2.1-2.444l.801-5.612c.268-1.947.268-2.673-1.298-2.94l.268-1.795 12.103 1.757 1.336 4.696-1.451.496c-1.184-2.443-2.864-3.856-5.116-4.161-1.451-.229-1.718.19-1.909 1.603l-.306 2.1.688.115c1.527.229 1.985-.191 2.329-1.986l1.527.229-.955 6.567-1.527-.229c.038-1.718-.458-2.596-1.642-2.749l-.687-.114-.496 3.398c-.191 1.412-.076 1.87 1.413 2.061 2.138.306 4.658-.725 6.643-3.092l1.26.954-2.94 4.696-12.409-1.832zm22.831 6.452.726-1.642c1.489.611 1.871 0 2.672-1.832l2.291-5.193c.802-1.794.993-2.481-.458-3.169l.725-1.641 6.644 2.901-.726 1.642c-1.489-.611-1.871 0-2.672 1.794l-2.558 5.804c-.573 1.336-.535 1.794.84 2.405 1.832.802 4.199.382 6.528-1.412l1.031 1.259-4.047 3.857zm37.378 10.805c-1.794 2.214-4.085 2.138-6.986-.191l-2.1-1.68-.955 1.184c-1.222 1.527-1.603 2.176-.382 3.207l-1.145 1.413-5.651-4.582 1.146-1.413c1.26.955 1.832.497 3.054-1.031l3.551-4.428c1.222-1.528 1.565-2.177.382-3.207l1.145-1.413 6.223 5.04c3.017 2.405 3.551 4.81 1.718 7.101zm-7.368-2.863c1.871 1.527 3.36 1.603 4.429.267.954-1.184.725-2.558-.688-3.704-.992-.801-1.45-.572-2.329.497l-1.985 2.443c.229.191.42.344.573.497zm8.476 16.111c.954 1.299 1.603.993 3.207-.152l4.658-3.246c1.603-1.107 2.138-1.641 1.26-2.978l1.489-1.03 4.161 5.956-1.451 1.031c-.954-1.299-1.603-.993-3.207.152l-1.183.84 3.131 4.467 1.183-.84c1.604-1.107 2.138-1.641 1.26-2.978l1.451-1.031 4.161 5.957-1.489 1.03c-.954-1.298-1.603-.992-3.207.153l-4.658 3.245c-1.603 1.108-2.138 1.642-1.26 2.978l-1.489 1.031-4.161-5.956 1.451-1.031c.954 1.298 1.603.993 3.207-.152l2.023-1.413-3.13-4.467-2.024 1.413c-1.604 1.107-2.138 1.641-1.26 2.978l-1.451 1.03-4.161-5.956zm26.458 25.008c-.611-1.489-1.336-1.336-3.169-.649l-5.307 2.024c-1.832.687-2.443 1.069-1.947 2.596l-1.68.649-2.596-6.796 1.68-.649c.611 1.489 1.336 1.298 3.169.611l5.307-2.024c1.833-.687 2.482-1.069 1.947-2.558l1.68-.649 2.596 6.796zm-9.506 12.6 1.794-.229c.382 1.565 1.298 1.756 2.825 2.176l10.882 2.94.42 3.321-10.309 5.613c-1.184.649-1.756.993-1.718 2.329l-1.795.229-.954-7.216 1.756-.229v.153c.115.992.42 1.45 1.031 1.374.227-.042.446-.119.649-.229l1.909-1.031-.611-4.658-2.1-.382c-.163-.031-.33-.044-.496-.038-.687.077-.916.687-.802 1.795l-1.756.229zm8.246 8.17 4.124-2.023-4.544-1.108zm-47.725 19.739c-1.467.001-2.862.643-3.818 1.757-.114-.23-.19-.459-.305-.65l-.802-1.565-11.416 3.36v6.261h2.1c.191 0 .306.039.344 0 .271.864.362 1.773.267 2.673v7.254l-2.1.306v6.872h15.807v-6.872l-2.062-.306v-2.138c.049-1.655.24-3.303.573-4.925.667.209 1.363.312 2.062.305 2.825 0 4.81-2.558 4.81-6.185.038-3.665-2.176-6.147-5.46-6.147zm19.816 7.293c-.115-.319-.179-.654-.191-.993 0-1.871-.764-6.223-7.674-6.223-3.818 0-11.34 2.939-11.34 9.774-.064 2.062.584 4.085 1.833 5.727-1.601 1.025-2.535 2.835-2.444 4.734 0 2.443 1.222 6.567 9.507 6.567 7.102 0 11.149-3.665 11.149-10.08.038-6.108-.497-8.132-.84-9.506zm-83.538-36.729c-.43-.503-1.057-.795-1.718-.802-1.031 0-1.871.649-2.863 1.718-3.43 3.584-8.213 5.567-13.172 5.46-6.873 0-14.127-3.169-19.892-8.667-.447-.443-1.051-.691-1.68-.688-2.825 0-3.551 4.506-3.551 4.582v22.641l1.795.267c6.012 1.036 12.174.815 18.097-.649-5.803 5.192-18.861 19.319-18.67 32.758.038 2.482 1.565 2.749 2.214 2.749.645-.01 1.261-.27 1.718-.725l.344-.267c2.477-1.547 5.367-2.306 8.285-2.177 2.641-.037 5.259.497 7.674 1.566.434.239.918.37 1.413.382.636.003 1.246-.26 1.68-.726.547-.687.758-1.585.572-2.443-.954-9.774 1.184-20.427 5.346-26.574l.611-.916c3.55-5.231 10.919-16.15 12.293-25.16.199-.811.016-1.67-.496-2.329zm52.574 43.257-.115-1.718c-.06-1.082-.226-2.157-.496-3.207l-.076-1.985-.382.572c-1.465-4.489-5.701-7.531-10.423-7.483-7.331 0-12.447 5.804-12.447 14.089 0 6.376 3.742 12.79 12.027 12.79 4.636.064 8.978-2.318 11.416-6.262l.305-.534-.229-6.147zm-8.896 3.971c-.723-.021-1.375-.451-1.68-1.107l4.047-1.107c-.626.895-1.432 1.649-2.367 2.214zm-18.403-24.015c-.42-.573-.878-1.26-1.26-1.833 3.997-.694 6.9-4.269 6.758-8.323 0-7.483-6.185-13.096-14.394-13.096-16.493 0-26.382 11.722-26.382 31.308 0 17.792 8.171 27.986 22.374 27.986 11.53 0 19.586-8.438 19.586-20.503.038-6.032-4.009-11.759-6.682-15.539z"/></g><path d="m134.584 139.662c-2.558 0-4.085-2.329-4.314-4.696l10.996-2.978c-.306-5.383-3.436-10.118-9.278-10.118-6.223 0-10.347 4.849-10.347 11.989 0 5.574 3.207 10.652 9.927 10.652 3.892.083 7.547-1.913 9.583-5.231l-2.176-2.596c-1.031 1.68-2.291 2.978-4.391 2.978zm-4.849-10.156c0-1.641 0-4.696 1.795-4.696 1.68 0 2.1 2.558 2.1 3.971l.017.273c0 1.108-.86 2.042-1.964 2.132l-1.948.535zm22.908 14.394h-11.606v-2.94l2.1-.305v-9.087c0-3.245-.42-4.811-2.749-4.811v-2.558l8.246-2.405c.86 1.884 1.327 3.924 1.375 5.994h.076c.84-2.482 1.871-5.956 4.544-5.956 2.367 0 3.398 1.833 3.398 4.047 0 2.253-.993 4.085-2.711 4.085-.95-.062-1.882-.294-2.749-.687-1.489-.496-1.986 6.033-1.986 7.407v3.971l2.062.305zm19.51-17.83c0 1.795-1.565 2.711-3.207 2.711-1.947-.109-3.55-1.614-3.78-3.551-.84 0-1.451.42-1.451 1.871 0 3.36 9.507.954 9.507 9.469 0 6.376-4.619 7.979-9.048 7.979-2.711 0-7.407-.343-7.407-4.467 0-1.871 1.031-3.283 2.901-3.283 2.864 0 3.36 2.634 3.857 4.505.134.397.54.64.954.573 1.527 0 2.634-.611 2.634-1.642 0-3.818-9.735-2.329-9.735-10.652 0-5.269 6.223-7.636 9.239-7.636 3.398 0 5.536 1.145 5.536 4.123" fill="#006bb6"/><path d="m107.247 112.058c-3.703 0-7.483 1.489-9.468 4.582h-.077l.382-5.346c.229-3.627 1.031-13.477 6.071-13.477 2.405 0 1.871 3.207 2.138 4.658.649 3.398 2.138 7.331 6.834 7.331l.282.006c3.428 0 6.249-2.821 6.249-6.249l-.002-.172c0-6.643-5.536-10.996-12.294-10.996-17.296 0-24.244 13.211-24.244 29.208 0 13.898 5.383 25.886 20.273 25.886 9.66 0 17.487-6.872 17.487-18.403-.077-9.774-5.231-17.028-13.631-17.028zm-5.154 29.971c-4.123 0-3.971-5.307-3.971-11.415 0-6.109.573-11.378 3.971-11.378 4.162 0 4.353 5.269 4.353 11.378.038 6.108-.84 11.415-4.353 11.415z" fill="#006bb6"/><path d="m50.092 92.09v20.617c11.53 1.718 25.313.573 35.087-13.668.42-.611.649-.191.382.343-2.711 5.536-9.163 10.653-14.737 15.043-5.345 4.2-19.701 19.243-19.51 32.491 0 1.031.038.726.954.077 4.353-3.246 12.867-3.322 18.098-.84.725.343.801.229.687-.687-.993-10.271 1.298-21.458 5.689-27.986 3.016-4.506 11.186-16.112 12.599-25.199.153-.955-.344-.802-1.527.458-9.24 9.774-25.924 9.507-36.729-.802-.649-.725-.955-.42-.993.153" fill="#ed174c"/><circle cx="70.107" cy="79.729" fill="#fff" r="19.776"/><path d="m70.098 60.668.649 2.1h2.253l-1.833 1.298.649 2.062-1.718-1.26-1.794 1.26.687-2.062-1.833-1.298h2.253zm13.134 7.674.687 2.062h2.253l-1.833 1.336.649 2.062-1.756-1.26-1.756 1.26.687-2.062-1.832-1.336h2.252zm-5.65-5.918.687 2.062h2.252l-1.832 1.336.649 2.062-1.718-1.26-1.757 1.26.65-2.062-1.833-1.336h2.253zm7.826 13.134.65 2.1h2.252l-1.832 1.336.687 2.062-1.757-1.26-1.756 1.26.649-2.062-1.794-1.336h2.214zm-.954 7.674.687 2.1h2.215l-1.795 1.336.649 2.062-1.756-1.298-1.756 1.298.649-2.1-1.795-1.298h2.253zm-4.238 6.109.649 2.1h2.253l-1.795 1.336.649 2.062-1.718-1.26-1.794 1.26.687-2.062-1.833-1.336h2.253zm-6.643 3.436.687 2.1h2.214l-1.832 1.336.687 2.062-1.756-1.26-1.757 1.26.649-2.062-1.794-1.336h2.214zm-16.876-25.122-.687 2.1h-2.214l1.794 1.298-.649 2.062 1.718-1.26 1.794 1.26-.687-2.062 1.833-1.298h-2.253zm5.498-5.231-.687 2.062h-2.215l1.795 1.336-.649 2.062 1.756-1.26 1.756 1.26-.649-2.062 1.795-1.336h-2.215zm-8.094 12.218-.649 2.1h-2.253l1.833 1.298-.649 2.1 1.718-1.298 1.756 1.298-.649-2.1 1.833-1.298h-2.215zm.725 7.636-.687 2.1h-2.252l1.832 1.336-.649 2.062 1.718-1.26 1.756 1.26-.649-2.062 1.795-1.336h-2.215zm4.2 6.261-.649 2.1h-2.253l1.833 1.336-.687 2.062 1.756-1.298 1.795 1.298-.688-2.062 1.795-1.336h-2.215zm6.643 3.971-.649 2.1h-2.252l1.832 1.336-.649 2.062 1.718-1.26 1.795 1.26-.687-2.1 1.832-1.298h-2.252z" fill="#006bb6"/></g></svg>