<svg clip-rule="evenodd" fill-rule="evenodd" viewBox="0 0 560 400" xmlns="http://www.w3.org/2000/svg"><path d="m237.107 222.724h7.854l-2.364 5.947zm-9.379 26.689-12.506 18.53 20.512-6.711 8.312 19.979 6.253-21.504 23.105 5.948-14.946-17.31 17.92-14.87-16.013.991 10.599-11.895h20.665l23.639-41.864v-27.605h-16.776l-8.007 14.26-1.524 10.752-12.049 21.428h-11.056l10.828-19.14v-27.223h-17.387l-7.778 14.184-1.372 10.828-18.911 33.781 2.898 7.473-3.661-3.965 1.525 20.36-22.038.991z" fill="#fff"/><path d="m138.204 199.542c-6.787 1.754-13.727 3.661-20.436 5.491-.763.229-1.449.533-2.135.687v-17.081c1.068-.305 1.982-.611 3.05-.839 5.567-1.678 11.134-3.126 16.7-4.575l2.898-.763v9.304c5.262-1.373 10.447-2.593 15.632-3.737v-11.362c-1.83-2.669-3.584-5.414-5.491-8.312l-3.965.991h-.228c-11.134 2.669-22.191 5.643-33.171 8.998-.414.103-.821.231-1.22.381-1.394.362-2.768.795-4.118 1.297-1.907 3.889-3.737 7.778-5.491 11.515v22.952c2.745 1.907 5.491 3.813 8.312 5.796 2.288-.687 4.499-1.449 6.786-2.06 7.016-2.134 14.031-3.965 20.971-5.795l2.288-.533v17.768c-.915.228-1.983.457-2.898.762-5.796 1.449-11.591 2.974-17.31 4.728-.992.229-1.983.534-2.974.839v-9.303c-5.109 1.525-10.295 3.126-15.403 4.728v11.438l5.414 7.778c1.297-.381 2.669-.839 4.042-1.22.447-.163.905-.29 1.372-.381 11.134-3.432 22.343-6.482 33.705-9.151 1.449-.382 2.745-.687 4.194-.992 1.907-3.66 3.66-7.396 5.566-10.98v-23.639l-8.312-6.558c-2.821.61-5.338 1.297-7.777 1.83zm321.796 19.598c-2.745-3.66-5.49-7.396-8.235-11.057-2.441-.762-4.956-1.524-7.397-2.288-6.786-1.982-13.574-3.889-20.436-5.566l-2.211-.534v-17.233l2.974.763c5.566 1.449 11.209 2.898 16.776 4.575.915.228 1.983.533 2.898.839v9.226c5.185 1.525 10.295 3.126 15.403 4.728v-11.363c-1.753-3.736-3.584-7.473-5.338-11.209l-4.042-1.22c-.076 0-.076 0-.152-.077-10.98-3.431-22.038-6.482-33.171-9.074-.397-.137-.805-.24-1.22-.305l-4.27-1.068c-1.907 2.822-3.813 5.72-5.643 8.541v22.953l8.387 10.295c2.288.61 4.652 1.143 6.863 1.678 7.016 1.83 14.031 3.736 21.046 5.719.763.152 1.449.458 2.135.61v17.768c-.914-.229-1.982-.534-2.898-.839-5.795-1.678-11.59-3.203-17.31-4.728-.991-.229-1.982-.458-2.974-.763v-9.303c-5.185-1.372-10.371-2.593-15.556-3.736v11.438c1.754 3.584 3.584 7.244 5.491 10.828 1.297.229 2.745.61 4.041.915l1.297.305c11.363 2.745 22.648 5.72 33.781 9.227 1.449.381 2.745.839 4.041 1.22 1.831-2.593 5.414-8.007 5.414-8.007.305.305.305-15.403.305-23.257zm-250.575-46.669v19.903c-1.296.229-2.363.305-3.66.457-6.786.915-13.574 1.907-20.284 2.974v-23.563c6.787-1.143 13.498-2.059 20.284-2.898 1.297-.229 2.364-.305 3.66-.458v3.584zm5.567-15.403-1.373.152c-14.717 1.678-29.358 3.965-43.923 6.711v70.536c5.185-1.067 10.524-1.982 15.785-2.821v-24.631c9.379-1.449 18.835-2.821 28.138-3.965l1.373-.152c1.372-.229 2.821-.305 4.194-.458 1.982-3.736 4.041-7.321 6.1-10.98v-25.316c-1.982-3.203-3.965-6.558-6.1-9.761-1.373.305-2.822.458-4.194.687zm155.637 35.23c-6.863-1.068-13.801-2.059-20.664-2.821v-20.818c7.015.839 13.878 1.83 20.893 2.973l3.508.534v20.818c-1.22-.305-2.516-.458-3.736-.687zm13.879 7.931 5.643-2.135v-24.402c-3.355-3.889-6.635-7.777-9.989-11.667-15.251-2.592-30.579-4.728-45.983-6.1v70.536c5.262.458 10.6.991 15.861 1.678v-27.605c4.042.458 8.159 1.068 12.201 1.602l4.041.533c2.745.381 5.414.915 8.159 1.22v27.605l.839.152c5.033.839 9.913 1.678 14.946 2.593v-29.969c-1.982-1.296-3.812-2.592-5.719-4.041zm-218.013-61.691c-2.288.381-4.423.839-6.634 1.297-.264.041-.52.118-.763.229v-5.643l.915-.152 5.49-1.068.992-.152v2.973c1.678-.229 3.355-.61 5.109-.914v-3.661c-.61-.991-1.143-1.83-1.83-2.745-.427.089-.86.14-1.297.153h-.077c-3.66.686-7.244 1.372-10.828 2.134l-.381.077c-.457.077-.914.152-1.296.229-.534 1.297-1.221 2.364-1.831 3.66v7.473c.992.687 1.831 1.373 2.745 2.135l2.288-.458c2.288-.457 4.575-.839 6.787-1.372.305 0 .533-.077.762-.077v5.72c-.229.077-.61.077-.915.152-1.907.381-3.812.763-5.719 1.068-.229.077-.61.077-.915.152v-2.973c-1.678.381-3.431.61-5.033.991v3.736c.61.914 1.144 1.753 1.831 2.669l1.296-.229c.229 0 .305-.076.458-.076 3.736-.763 7.321-1.449 10.98-2.135.458-.077.992-.152 1.373-.229.533-1.144 1.22-2.288 1.753-3.508v-7.702c-.914-.763-1.753-1.525-2.744-2.212-.839.153-1.678.229-2.516.458zm18.301 1.373c.991-3.736 1.907-7.549 2.745-11.439.991 3.509 1.83 7.092 2.744 10.6-1.753.305-3.66.61-5.49.839zm-.763-13.65c-2.059 7.931-4.118 15.861-6.329 23.792 1.601-.305 3.202-.61 4.88-.762.458-1.831.839-3.584 1.297-5.262 2.44-.381 4.881-.763 7.473-1.144l1.297 4.881 5.185-.763c-2.059-7.32-4.118-14.64-6.329-21.884l-7.474 1.143zm33.171 10.828c-2.592-4.804-5.338-9.532-8.006-14.336-1.754.152-3.584.381-5.414.61v22.876l4.575-.533v-15.328c2.669 4.804 5.261 9.685 7.931 14.489 1.83-.229 3.583-.381 5.49-.61v-22.876l-4.575.533v15.175zm28.138-3.507c.915-3.66 1.83-7.473 2.821-11.134.915 3.584 1.754 7.245 2.745 10.905-1.907.077-3.736.152-5.566.229zm-.762-13.802c-2.135 7.778-4.271 15.557-6.33 23.258 1.601-.077 3.203-.153 4.881-.305.457-1.678.839-3.431 1.296-5.185 2.516-.152 5.033-.229 7.473-.381.534 1.753.915 3.431 1.373 5.109 1.753-.076 3.508-.152 5.262-.152l-6.33-22.572c-2.669 0-5.185.077-7.625.229zm34.772 14.183c-2.669-5.109-5.414-10.066-8.083-15.098l-5.338.076v22.876l4.5-.076v-15.403c2.669 5.109 5.338 10.065 7.93 15.175h5.491v-22.724h-4.499v15.175zm11.972-10.981c2.135 0 4.194.152 6.253.229v18.682c1.678.152 3.432.152 5.11.229v-18.759c2.059.152 4.194.229 6.253.305v-4.042c-5.872-.305-11.744-.458-17.615-.61v3.965zm64.282 15.633c-2.669-5.414-5.261-10.753-8.006-16.167-1.83-.228-3.584-.381-5.414-.533v22.876c1.525.152 3.05.229 4.575.458v-15.327c2.592 5.414 5.262 10.752 7.931 16.242l5.338.686v-22.876c-1.449-.229-2.974-.381-4.499-.61v15.251h.076zm11.896-10.143c1.373.229 2.593.382 3.89.611v15.785c-1.297-.229-2.516-.381-3.89-.61v3.508c4.271.61 8.541 1.22 12.811 1.982v-3.508c-1.373-.152-2.593-.381-3.889-.61v-15.785c1.296.152 2.516.381 3.889.61v-3.508c-4.271-.61-8.541-1.297-12.811-1.983zm-37.898-2.516v13.878l-1.296-.077c-1.831-.229-3.584-.305-5.414-.381l-1.297-.076v-15.251l1.297.076c1.83.153 3.583.305 5.414.382l1.296.076zm3.126-4.957-1.372-.076c-3.736-.305-7.321-.534-10.98-.839h-.458c-.534 0-.991-.077-1.449-.077-.687.991-1.297 2.135-1.983 3.203v16.089l1.983 3.432c.458 0 .914.152 1.449.152h.458c3.66.229 7.244.458 10.98.839l1.372.077c.687-1.068 1.373-2.135 1.983-3.203v-16.089c-.61-1.144-1.297-2.288-1.983-3.509zm68.096 14.794v13.879c-.457-.077-.839-.229-1.372-.305l-5.338-.991c-.449-.138-.908-.24-1.373-.305v-15.25c.449.137.908.239 1.373.305l5.338 1.068c.533.077.915.152 1.372.229v1.372zm4.957-.762c-.611-1.22-1.297-2.593-1.831-3.813-.533-.076-.991-.152-1.449-.229-3.583-.762-7.167-1.449-10.904-2.134l-.458-.077c-.465-.065-.924-.167-1.373-.305-.689.982-1.326 2-1.906 3.051v16.09c.686 1.22 1.296 2.44 1.906 3.66l1.373.305c.154.012.307.037.458.076 3.66.687 7.321 1.297 10.904 2.059.473.146.957.248 1.449.305.61-1.068 1.297-1.983 1.831-3.051zm-153.12 44.151-18.607 33.095 3.126 7.702h11.515l-5.262 13.345-9.837-10.676 1.144 15.709-17.158.762 13.65 9.532-9.685 14.412 15.632-5.033 6.405 15.48 4.957-16.929 17.386 4.423-11.286-12.964 13.802-11.438-14.259.915 15.479-17.539h20.36l22.495-39.881v-24.25h-12.658l-7.321 12.887-1.22 10.447-13.039 23.257h-17.081l12.735-22.495v-24.02h-13.192l-7.015 12.81-1.068 10.447z"/><path d="m307.795 159.432h-5.947l-4.575 8.006h6.176zm-38.509 0h-6.33l-4.499 8.006h6.711zm-11.971 51.09-13.269 30.274-5.947-6.405.61 8.083-8.922.381 7.092 5.033-4.957 7.473 8.084-2.669 3.355 8.006 2.516-8.768 9.075 2.363-5.872-6.786 7.168-5.948-10.066.687h-.687l20.894-31.569h18.149l16.09-28.748h-6.253l-13.498 23.715h-32.485l13.574-23.715h-6.329l-16.396 28.748h18.073v-.153zm6.176-39.804h-5.872l-.762 6.939h6.024zm38.661 0h-5.795l-.762 6.939h5.947z" fill="#c4ced4"/><path d="m241.225 249.794c1.429.035 2.634-1.113 2.669-2.542v-.144c0-1.449-1.187-2.644-2.636-2.652h-.033c-1.435.041-2.593 1.233-2.593 2.669 0 1.435 1.158 2.627 2.593 2.669z"/></svg>