<svg clip-rule="evenodd" fill-rule="evenodd" viewBox="0 0 560 400" xmlns="http://www.w3.org/2000/svg"><path d="m429.999 200.149c-.082 82.231-67.768 149.85-149.999 149.85-82.287 0-149.999-67.712-149.999-149.999s67.712-149.999 149.999-149.999c82.32.062 150.018 67.829 149.999 150.149z" fill="#cd1141"/><path d="m279.999 342.245c-78.029-.01-142.232-64.221-142.232-142.251 0-77.41 63.187-141.339 140.592-142.241h1.661c78.027 0 142.232 64.206 142.232 142.232 0 37.169-14.57 72.897-40.564 99.467-26.347 27.043-62.444 42.459-100.198 42.793z"/><path d="m279.552 78.032-1.491 1.491v18.191l1.491 1.491h4.92l1.491-1.491v-18.191l-1.491-1.491zm14.463 24.453-5.07 4.92h-13.867l-4.92-4.92v-27.584l4.92-4.92h13.867l4.92 4.92v27.584h.149zm95.875 41.153-1.938-.596-16.252 7.903-.746 1.938 2.087 4.473 1.938.746 16.402-7.903.746-1.938-2.237-4.622zm-15.656 23.559-6.561-2.386-5.964-12.376 2.386-6.71 24.751-11.779 6.561 2.237 5.964 12.525-2.237 6.71-24.901 11.779zm-181.312-50.547v2.087l13.121 12.674h2.087l3.579-3.579v-2.237l-12.972-12.674h-2.237l-3.579 3.728zm27.435 6.561.149 7.008-9.692 9.99h-7.008l-19.682-19.085-.149-7.008 9.692-9.99 7.157-.149 19.533 19.235zm124.503-37.426-14.463 34.443-6.113-2.535-1.491-24.453-8.499 20.129-6.561-2.684 14.612-34.443 8.052 3.429.149 21.471 7.604-18.191 6.71 2.833zm-111.381 11.332 5.815-2.684c.313-.62.563-1.269.746-1.938l-1.938-4.622-2.087-.746-5.815 2.684 3.28 7.306zm15.209-3.429-1.64 5.815 10.437 10.139-7.306 3.28-9.692-9.394-3.429 1.64 4.92 11.332-6.71 2.833-14.91-34.294 16.103-7.008 6.859 2.833 5.368 12.823zm125.546 25.646-4.92-4.771-20.576 20.875-5.517-5.368 20.576-21.024-4.92-4.771 5.666-5.815 15.358 15.209-5.666 5.666zm-199.503 21.322-2.833 6.262 26.839 11.928-3.131 7.157-26.839-11.928-2.833 6.262-7.455-3.429 8.946-19.533 7.306 3.28zm205.02 95.427-3.728 7.008-2.684-1.342-.746 1.342-2.237 4.473.596 1.938 3.728 2.087-.447-.298 1.938-.596 4.473-8.35 6.859-2.087 11.332 5.815 1.938 6.71-6.412 12.376-6.71 2.087-5.666-2.982 3.728-7.008 2.833 1.491 3.131-5.815-.746-2.087-2.982-1.491-2.087.596-4.175 8.201-7.008 2.087-11.332-5.815-2.237-6.859 6.412-12.376 6.859-1.938 5.368 2.833zm-196.67 10.735 2.982 5.666c.671.314 1.369.564 2.087.746l4.473-2.386.596-2.087-2.982-5.666-7.157 3.728zm4.473 15.06-5.964-1.193-9.394 11.034-3.728-7.008 8.648-10.288-1.789-3.429-11.034 5.666-3.28-6.412 33.101-17.296 8.201 15.507-2.237 6.859-12.525 6.561zm51.74 38.618 5.219 2.237 1.938-.895 2.087-4.771-.746-1.938-5.368-2.237-3.131 7.604zm-2.833 6.561-5.368 12.972-6.561-2.684 14.314-34.592 15.805 6.561 2.684 6.71-5.219 12.674-5.219 2.684-10.437-4.324zm56.809-6.412-6.859.149.298 29.225-7.903.149-.298-29.374-6.71.149-.149-8.201 21.471-.149.149 8.052zm21.322-5.368-.895 1.938 6.412 16.998 1.938.746 4.771-1.789.895-1.938-6.412-16.998-1.938-.746zm22.068 17.594-2.684 6.412-12.972 4.92-6.412-2.833-9.841-25.795 2.833-6.412 12.972-4.92 6.412 2.833zm13.866-28.478 4.92-4.324.149-1.938-3.28-4.026-1.938-.149-4.92 4.175 5.07 6.262zm13.569-7.753.149 6.113 12.972 6.859-6.113 5.07-11.928-6.113-2.833 2.535 7.903 9.394-5.368 4.771-24.304-28.628 13.27-11.183 7.306.596zm-158.35 12.971 5.219-10.288-9.99 5.964zm-.149 17.743-5.815-5.368 2.684-5.517-8.052-7.455-5.368 3.28-5.815-5.517 33.847-20.278 5.815 5.368z" fill="#fff"/><path d="m309.075 275.297.298.298c.401-.02.799-.07 1.193-.149l.895-.298 2.386-1.044 5.815-2.684 1.044-.596.596-.298.596-.447 1.044-.596 1.193-.746 1.64-1.044 2.684-1.938 1.491-1.044 1.938-1.342 1.789-1.342.746-.596 1.342-1.193 1.193-1.193 1.938-2.087 2.237-2.237 2.684-3.131 1.491-1.938.447-.596 1.64-1.938 2.982-4.473.895-1.342 2.087-4.026 1.044-2.087 1.938-4.026 1.044-2.535 1.193-3.728s1.342-4.92 2.087-7.455c.149-.149.149-.447-.149-.746-.405-.614-.754-1.262-1.044-1.938-.167-.365-.365-.716-.596-1.044l-1.044-1.193c-.149-.298-.447-.447-.746-.746l-1.64-1.491-.746-.447c-1.557-1.322-3.32-2.379-5.219-3.131-.769-.363-1.567-.662-2.386-.895-.675-.267-1.374-.467-2.087-.596-.293-.175-.673-.112-.895.149-.149.149-.149.447-.149.895-.173 1.035-.273 2.081-.298 3.131-.173 1.035-.273 2.081-.298 3.131l-.298 2.982c-.125 1.252-.326 2.498-.596 3.728-.447 2.386-.895 4.771-1.342 7.008-.061.664-.211 1.315-.447 1.938-.414.969-.763 1.966-1.044 2.982-.488 2.182-1.136 4.324-1.938 6.412-.5 1.788-1.252 3.495-2.237 5.07 0 .149 0 .149-.149.447-.447 1.044-.895 2.087-1.342 3.28-.298.596-.746 1.193-1.044 1.938-.408.895-.907 1.743-1.491 2.535l-2.386 3.877c-.458.898-1.008 1.748-1.64 2.535l-.447.746c-.41.753-.911 1.455-1.491 2.087-1.044 1.342-2.087 2.684-3.131 3.877l-2.237 2.237-1.938 1.938c-.149.298-.298.298-.447.447-.463.265-.869.62-1.193 1.044-.793.86-1.695 1.612-2.684 2.237-.434.304-.834.655-1.193 1.044-1.072.963-2.278 1.767-3.579 2.386zm52.634-62.922.149-.149v-.596l.596-5.07.298-4.771v-5.517l-.447-5.368s-.746-4.92-1.193-7.455c-.149-.895-.746-1.193-1.491-1.64-.298-.149-.447-.298-.746-.298-.569-.132-1.12-.333-1.64-.596l-3.579-.895-4.473-.596-3.579-.149h-2.535c-.596 0-1.044 0-1.342.447-.298.298 0 .895 0 1.491.149 1.193.447 1.789.596 2.833.676 3.446 1.124 6.932 1.342 10.437l.149 4.771v1.193c.035.251.084.5.149.746.227.181.478.332.746.447.304-.002.608.047.895.149.409.046.81.145 1.193.298 1.342.447 2.833.895 4.324 1.491.923.388 1.82.835 2.684 1.342.077.084.184.138.298.149.596.447 1.193.895 1.64 1.193 1.33.933 2.534 2.037 3.579 3.28.117.266.331.48.596.596l1.491 2.087.298.149zm-36.084-57.554h1.342c.298 0 .596 0 .596-.447.149-.298 0-.447-.149-.746-.149-.298-1.044-1.789-1.044-1.789l-.895-1.491-3.877-5.368-.746-1.044-.746-1.044-1.193-1.342-3.131-3.28-1.193-1.342-4.771-4.473-3.877-2.982-1.491-.746-4.473-2.684-3.28-1.789-.596-.298-2.684-.895-3.877-1.491-.298-.149-1.193-.298-1.491-.298-2.237-.447h-1.193l-2.087-.447-2.386-.149-.895-.149h-1.491l-2.684.149-2.535.298h-1.938l-1.789.149-1.64.298-1.491.447-2.237.447h-.447l-2.087.746-1.193.447-.746.447-1.789.447-.746.447-1.044.596-2.684 1.193-3.429 1.342-1.044.447-2.386 1.342-2.087 1.342-1.938 1.044-.746.298-2.087 1.193-.447.149-2.386 1.789-1.938 1.342-.447.298-2.237 1.789-.746.596c-.434.359-.834.759-1.193 1.193l.746-.149 1.64-.596h.298l2.237-.895h.298l2.386-1.044 1.342-.298 1.193-.447 1.789-.746 4.473-1.64h.298l2.237-.746 1.789-.746.298.149 3.429.149 2.237.149h.149l4.324.447 6.113.298v.149l2.237 1.789h.149l2.237 2.237.149-.149 3.131.149.149-.149 7.604.447v.149l3.429 2.087h.149l5.964 2.833v.298l3.429-1.342 5.07 1.64.895 1.491h1.789l1.789 1.938h.149l1.491 1.64v.149h.149l3.877.895 1.491 2.237 3.579 1.342c1.962.519 3.954.917 5.964 1.193 1.782.225 3.586.225 5.368 0zm33.996 23.111c-.149-.447-.596-1.64-.596-1.64l-.149-.746-.298-.746-.596-1.938-.596-1.64-1.938-4.175-.895-2.087-.895-2.386-1.342-1.938-1.193-2.237-.746-1.342-.447-.447-5.368-7.455-.895-.895c-.011-.159-.139-.287-.298-.298s-1.64 2.684-2.386 3.579c-.746.746-2.237 2.087-2.237 2.087s-1.193.895-1.342 1.044c-.385.268-.783.518-1.193.746l-1.193.746c-.335.176-.685.326-1.044.447-.298.149-.447.149-.447.298-.149.149-.149.149-.149.447s.149.298.149.447c.435 1.121.933 2.215 1.491 3.28.846 1.52 1.546 3.118 2.087 4.771.225.486.424.984.596 1.491.447 1.491 1.044 2.833 1.342 4.175l.596 1.938c.149.596.298 1.342.447 1.789s.298.746.895.596h1.193l4.324-.149c.447 0 3.429.298 3.429.298s.895.149 1.491.298l3.429.596c.916.231 1.813.529 2.684.895l1.342.447c.157.026.307.076.447.149.298-.149.298-.298.298-.447zm-19.234-32.505c-.116-.267-.266-.518-.447-.746l-.298-.447-.746-1.044-.447-.746-1.044-.895c-.134-.121-.285-.221-.447-.298-1.789-1.342-5.219-4.175-5.219-4.175l-.895-.746-1.789-1.64-8.946-5.368-7.157-3.28-3.877-1.491-1.342-.447-4.622-1.64-3.28-.895-3.131-.596h-.447l-.298.298s.298.298.447.298c1.044.298 2.087.746 2.982 1.044l2.087.895c.458.042.883.256 1.193.596 1.491.746 2.982 1.64 4.622 2.535.906.562 1.756 1.21 2.535 1.938l1.789 1.342c.333.203.635.455.895.746.149.149.298.298.447.298.895.746 1.938 1.491 2.684 2.237.767.965 1.615 1.864 2.535 2.684.895.895 1.64 1.64 2.386 2.535.603.782 1.25 1.528 1.938 2.237l3.579 4.175c.149.149.149.298.298.596.708 1.249 1.506 2.444 2.386 3.579.68.783 1.28 1.631 1.789 2.535.24.577.539 1.126.895 1.64.298.149.596.447.746.447.226-.031.436-.137.596-.298l.596-.149c.362-.174.711-.374 1.044-.596.393-.107.752-.312 1.044-.596.539-.342 1.04-.742 1.491-1.193.447-.447 1.491-1.64 1.491-1.64l.746-.895 1.193-2.087c-.149 0 .149-.447 0-.746zm-3.728 30.119c-.447-1.491-.746-2.982-1.342-4.473-.381-1.216-.83-2.411-1.342-3.579l-.746-2.237-.447-1.193c-.661-1.823-1.511-3.572-2.535-5.219-.011-.114-.065-.221-.149-.298l-.298-.447c-.298-.149-.447 0-.895 0-.746 0-1.789.149-2.087.149-.447 0-1.938.149-3.131.149h-1.789l-3.877-.596c-1.491-.149-4.622-.895-4.622-.895l-2.535-.895-2.982-1.044-.149.149-4.622-.447-.149.149-2.535-1.938h-.298l-1.64-1.491v-.298l-1.789-.298-.298.149-1.491-.596-.149-.149-3.28.298-3.131-1.193-10.586.596-.149-.149-2.087.149-.149.298-5.219.298-.149-.149-7.455 4.324-.149.298-.298.298-.149-.149-3.728-.298h-7.008l-1.938-.149-.596-.298-6.859 5.368v.149l-2.386 1.938-2.684-1.342-.149.149-1.044-.298s-5.07 1.193-4.92 1.193l-4.771-.746-.298-.149-.746.895-1.938.895v.149l-3.728 2.982-5.368 3.728-5.964 4.473-2.684 1.938-.149 1.193-1.044 2.535-.447 2.237-.746 4.622-.447 1.938-.298 2.386-.596 4.92-.298 10.736.298.596.149 2.982s0 .596.149.596l13.27-13.569 4.175-1.789 3.728-.149 2.237-2.535.149-.447h.298l5.964-.596.298-.149h2.535l.746-.895 2.684-1.64 2.982-1.938h7.903l.149.149 3.131.298 2.535-.447 4.473-4.473 3.579-3.429 5.368-.596.149-.298.298.298 2.684 1.193.298-.149 2.386-.298h.149l2.237-.447h.149l2.535 2.087.149-.149 5.07-.149.447-.298 4.175.149.149.149.746-.149v-.149l1.64-.746h.298l1.789-.895.149-.149 2.087-.746.149-.298 5.815-2.237 1.044-.298.149-.149.298.298 1.64.746h.596l1.789 1.044.149-.149.447-.298h.149l.895-.447v-.149l1.342-.298 3.429.895.746-.149.596.298 2.535.447 2.386.895 1.342-.149.596.298.298-.149s4.771-.596 7.157-.746c1.64-.149 3.131-.298 4.622-.447l2.684-.298c.298.149.596-.149.298-.596zm3.579 24.453c0-.447-.149-.596-.149-.895-.124-.888-.174-1.787-.149-2.684l-.149-1.044c-.128-1.138-.178-2.284-.149-3.429l-.596-4.324c-.127-1.106-.326-2.201-.596-3.28-.127-1.154-.326-2.3-.596-3.429-.298-1.193-.447-1.193-1.64-1.193-.149 0-.298 0-.298.149-.487.123-.989.174-1.491.149-2.386.298-4.622.447-6.859.746l-6.71 2.386-9.692-.298-1.044-.447v.298l-2.982 2.087h-.298l-2.237 2.087-.149.298-5.815.746-5.219 4.175h-.596l-2.833 1.64-1.044.149-1.193.895-.298-.149-5.368-.447-.895 1.044v.149l-4.622 5.219-.149.298h-.149l-5.964 6.71h-1.64l-.149.149-4.92.895h-.447v.298l-8.201 4.473-3.579-.447-.746.298-3.579-.298-3.579 3.877-2.237.447h-1.193l-1.193.447h-.746v.149l-4.473 3.429-.596.149-6.859 5.368v.298l-4.324 10.437.298.447-7.157.596-2.237 2.087-.298.746 3.28 4.324 2.237 3.579 2.087 2.684 3.28 3.429v.298c.149 0 .596 0 .596.149l1.938.596 2.386.746v.004c0 .08.066.145.145.145h.153l4.026 1.64h.298l.149.149h.447l.895.746 1.64-.895h.149l.746-.596 6.113 1.491 4.473-2.237 9.841-.895 4.026-6.561 1.789-1.789h.298l1.342-1.342v-.149l2.535-2.386 1.193-1.193.298-.149 1.342-1.342 1.193-1.193.298-.149-.298-.895 1.044-4.324 2.237-.596.149-.149.596-.149v-.298l2.982-4.92h.298l1.193-2.535 2.087-1.044.298-.447.298.149 1.193-.596h.149l2.087-1.044.298-.298 7.157-3.28h.596v-.447l.298-.149.746-2.535 2.386-1.044 2.535-.149 2.386-1.789 3.579.298.298.149.149-.149 4.92-2.087v-.746l1.044-2.237 2.386-.596.149-.149 3.131-.746 1.342-1.491h.149l.746-.746 2.237.298v.149l1.342.149.746.149s3.131-1.491 4.622-2.087c.569-.132 1.12-.333 1.64-.596l2.237-.746c.413-.029.816-.129 1.193-.298l1.491-.298 1.64-.298 1.193-.149h.746c.28.014.553-.096.746-.298.298-.149.149-.447.298-.596-.101-.287-.152-.59-.149-.895zm0 6.263c.02-.326-.087-.646-.298-.895-.164-.158-.373-.261-.596-.298-.149 0-1.044.149-1.044.149l-1.342.149c-.298 0-.298.149-.447.149-.864.111-1.712.311-2.535.596-.928.185-1.83.486-2.684.895-1.033.357-2.03.805-2.982 1.342-.298.149-3.429 1.64-4.771 2.386l-1.938 1.938v.298h-1.491v.149l-3.728 1.193v.447l-.447.298v.298l-1.789 3.131h-.298v.298s-.298.447-.746 1.193l-7.753 4.92h-.149l-1.342 1.044-.746 3.28-.746.746-3.131 11.332.447 1.342-4.473 2.087h-.746l-.895 3.877-.149.149-1.193 3.579.149.149-.447 2.982-.149.298.149.298-4.473 6.859h-.298l-1.044 1.789v.298l-3.728 5.219-3.877 2.386.149.298-.149 1.64.298.596-.447.149-2.833 1.64h-.298l-4.175 2.386-.447.746 1.491.298 2.684.149 1.938.149h6.262l5.815-.746 3.429-.746 2.684-.746 2.833-.746 3.579-1.491.298-.149 1.044-.596c1.445-.754 2.839-1.602 4.175-2.535 2.286-1.61 4.477-3.354 6.561-5.219.686-.659 1.333-1.356 1.938-2.087.683-.609 1.33-1.255 1.938-1.938.149-.149.298-.149.298-.447.311-.429.66-.829 1.044-1.193.291-.26.543-.562.746-.895.509-.63 1.057-1.228 1.64-1.789.56-.383 1.02-.893 1.342-1.491.732-.936 1.38-1.933 1.938-2.982.979-1.284 1.876-2.628 2.684-4.026.746-1.491 1.491-2.982 2.386-4.473.746-1.193 1.342-2.535 1.938-3.728.895-2.237 1.938-4.473 2.684-6.561.948-2.317 1.696-4.712 2.237-7.157.358-1.874.856-3.718 1.491-5.517-.01-.257.041-.512.149-.746l.746-4.473c.149-1.342.298-2.684.596-4.175.221-.932.372-1.879.447-2.833l.149-4.026v-.447c.189-.103.344-.258.447-.447z" fill="#a0a0a3"/></svg>